<?xml version="1.0" encoding="UTF-8"?>
<svg width="15px" height="15px" viewBox="0 0 15 15" version="1.1" xmlns="http://www.w3.org/2000/svg" xmlns:xlink="http://www.w3.org/1999/xlink">
    <!-- Generator: Sketch 60.1 (88133) - https://sketch.com -->
    <title>笔@2x</title>
    <desc>Created with Sketch.</desc>
    <g id="智能笔" stroke="none" stroke-width="1" fill="none" fill-rule="evenodd">
        <g id="直播间-学生" transform="translate(-1486.000000, -33.000000)" fill="#FFFFFF" fill-rule="nonzero">
            <g id="编组-3" transform="translate(1223.000000, 20.000000)">
                <g id="编组-4" transform="translate(253.000000, 5.000000)">
                    <g id="笔" transform="translate(10.000000, 8.000000)">
                        <path d="M1.0621546,9.82052039 C1.02910798,9.87231055 1.00459042,9.92907038 0.989537856,9.98863313 L0.0266199227,14.2461628 C-0.012356812,14.4217286 0.029908059,14.6055097 0.141663935,14.7464109 C0.25341981,14.8873121 0.422751211,14.9703104 0.602580133,14.9723303 C0.64698501,14.9709489 0.691066073,14.9642699 0.733887124,14.9524353 L5.01131183,13.9835488 C5.06563832,13.9697834 5.11784274,13.9487009 5.16649282,13.9208796 L1.0621546,9.82052039 Z M14.8125829,3.57746982 L11.4254594,0.190346306 C11.1931371,-0.0384419122 10.8202023,-0.0384419122 10.5878799,0.190346306 L1.49984457,9.27639218 L5.72355278,13.5001004 L14.8105934,4.41405451 C15.0392824,4.1823952 15.0401675,3.81021421 14.8125829,3.57746982 Z M12.2192698,4.63787325 L6.1264265,10.7307166 C5.95911918,10.8794037 5.70491506,10.8719207 5.54664375,10.7136494 C5.38837244,10.5553781 5.38088937,10.3011739 5.52957654,10.1338666 L11.6214251,4.04002854 C11.7887324,3.89134137 12.0429366,3.89882444 12.2012079,4.05709575 C12.3594792,4.21536706 12.3669622,4.46957117 12.2182751,4.6368785 L12.2192698,4.63787325 Z" id="形状"></path>
                    </g>
                </g>
            </g>
        </g>
    </g>
</svg>