<?xml version="1.0" encoding="UTF-8"?>
<svg width="17px" height="17px" viewBox="0 0 17 17" version="1.1" xmlns="http://www.w3.org/2000/svg" xmlns:xlink="http://www.w3.org/1999/xlink">
    <!-- Generator: Sketch 60.1 (88133) - https://sketch.com -->
    <title>屏幕_全屏</title>
    <desc>Created with Sketch.</desc>
    <g id="智能笔" stroke="none" stroke-width="1" fill="none" fill-rule="evenodd">
        <g id="直播间-学生" transform="translate(-1688.000000, -32.000000)" fill="#2D353A" fill-rule="nonzero">
            <g id="编组-3" transform="translate(1223.000000, 20.000000)">
                <g id="编组-12" transform="translate(465.000000, 10.000000)">
                    <g id="屏幕_全屏" transform="translate(0.000000, 2.000000)">
                        <path d="M11.0688889,11.0688889 C11.3454388,10.7926829 11.7934501,10.7926829 12.07,11.0688889 L15.5833333,14.5803333 L15.5833333,12.5138889 L15.5899445,12.4175555 C15.6407022,12.0486516 15.9684332,11.7820386 16.3399467,11.80742 C16.7114601,11.8328014 16.9998858,12.1415094 17,12.5138889 L17,16.5277778 L16.9924445,16.6127778 C16.9513908,16.8371286 16.7558539,17.000076 16.5277778,17 L12.5138889,17 L12.4175555,16.9933889 C12.0668799,16.9452497 11.8055705,16.645631 11.8055555,16.2916667 L11.8121667,16.1953333 C11.8603058,15.8446577 12.1599245,15.5833483 12.5138889,15.5833333 L14.5822222,15.5833333 L11.0688889,12.07 L10.9999445,11.9906667 C10.7916544,11.7086818 10.8209688,11.3167515 11.0688889,11.0688889 L11.0688889,11.0688889 Z M5.93111112,11.0688889 C6.17903116,11.3167515 6.20834561,11.7086818 6.00005555,11.9906667 L5.93111112,12.07 L2.41777779,15.5833333 L4.48611112,15.5833333 C4.84007546,15.5833483 5.13969418,15.8446577 5.18783333,16.1953333 L5.19444445,16.2916667 C5.19442952,16.645631 4.93312006,16.9452497 4.58244445,16.9933889 L4.48611112,17 L0.472222215,17 C0.244146145,17.000076 0.048609231,16.8371286 0.00755554818,16.6127778 L0,16.5277778 L0,12.5138889 C0.000114163186,12.1415094 0.288539869,11.8328014 0.660053343,11.80742 C1.03156682,11.7820386 1.35929778,12.0486516 1.41005555,12.4175555 L1.41666667,12.5138889 L1.41666667,14.5803333 L4.93,11.0688889 C5.20654991,10.7926829 5.65456121,10.7926829 5.93111112,11.0688889 L5.93111112,11.0688889 Z M16.5277778,-2.66017666e-08 C16.7558539,-7.60395467e-05 16.9513908,0.162871386 16.9924445,0.387222215 L17,0.472222215 L17,4.48611112 C16.9998858,4.85849058 16.7114601,5.16719864 16.3399467,5.19258 C15.9684332,5.21796136 15.6407022,4.9513484 15.5899445,4.58244445 L15.5833333,4.48611112 L15.5833333,2.41966667 L12.07,5.93111112 C11.8075368,6.19153251 11.388922,6.20627403 11.1087902,5.96496013 C10.8286584,5.72364623 10.7812552,5.30746289 10.9999445,5.00933333 L11.0688889,4.93 L14.5822222,1.41666667 L12.5138889,1.41666667 C12.1599245,1.41665174 11.8603058,1.15534227 11.8121667,0.804666667 L11.8055555,0.708333333 C11.8055705,0.35436899 12.0668799,0.0547502689 12.4175555,0.00661111849 L12.5138889,-2.66017666e-08 L16.5277778,-2.66017666e-08 L16.5277778,-2.66017666e-08 Z M4.48611112,-2.66017661e-08 L4.58244445,0.00661111849 C4.93312006,0.0547502689 5.19442952,0.35436899 5.19444445,0.708333333 L5.18783333,0.804666667 C5.13969418,1.15534227 4.84007546,1.41665174 4.48611112,1.41666667 L2.41777779,1.41666667 L5.93111112,4.93 L6.00005555,5.00933333 C6.21874481,5.30746289 6.17134158,5.72364623 5.89120977,5.96496013 C5.61107796,6.20627403 5.19246319,6.19153251 4.93,5.93111112 L1.41666667,2.41966667 L1.41666667,4.48611112 L1.41005555,4.58244445 C1.35929778,4.9513484 1.03156682,5.21796136 0.660053343,5.19258 C0.288539869,5.16719864 0.000114163186,4.85849058 -4.4408921e-16,4.48611112 L-4.4408921e-16,0.472222215 L0.00755554818,0.387222215 C0.048609231,0.162871386 0.244146145,-7.60395467e-05 0.472222215,-2.66017661e-08 L4.48611112,-2.66017661e-08 Z" id="形状"></path>
                    </g>
                </g>
            </g>
        </g>
    </g>
</svg>