<?xml version="1.0" encoding="UTF-8"?>
<svg width="24px" height="24px" viewBox="0 0 24 24" version="1.1" xmlns="http://www.w3.org/2000/svg" xmlns:xlink="http://www.w3.org/1999/xlink">
    <title>icon-nodiscussion-default</title>
    <g id="页面-1" stroke="none" strokeWidth="1" fill="none" fillRule="evenodd">
        <g id="灵动课堂Guide-图标和图片（补充）" transform="translate(-796.000000, -202.000000)">
            <g id="编组-33备份" transform="translate(796.000000, 202.000000)">
                <rect id="矩形" stroke="#979797" strokeWidth="0.909090909" fill="#D8D8D8" opacity="0" x="0" y="0" width="24" height="24"></rect>
                <g id="编组-27" transform="translate(2.428571, 3.285714)" fill="#7B88A0" fillRule="nonzero">
                    <path d="M9.57142857,0.85112782 C14.6005354,0.85112782 18.7428571,3.75992821 18.7428571,7.47011331 C18.7428571,7.59357057 18.7382499,7.71618211 18.7291537,7.83786613 C18.3663739,7.54159299 17.9616544,7.29585734 17.5251472,7.11038702 C17.251816,4.33277055 13.8281827,2.05112782 9.57142857,2.05112782 C5.13279679,2.05112782 1.6,4.53191062 1.6,7.47011331 C1.6,9.72148746 3.6931513,11.7653091 6.81566668,12.5523305 L7.10233783,12.6203865 L7.52715368,12.7151035 L7.56898963,13.148335 C7.60303646,13.5009065 7.62501227,13.8718465 7.63497501,14.2612238 L7.64093553,14.6567496 L7.638,14.975 L7.68452351,14.9538793 C8.40961781,14.5939198 9.03395583,14.1332442 9.5604947,13.5707592 L9.78017513,13.3234579 L9.96543502,13.0931533 L10.1297835,12.8790345 L10.6983785,12.8348904 C10.7908506,13.242713 10.9341913,13.6317364 11.1206881,13.9949552 L11.0462478,14.0045805 L10.747,14.035 L10.7139359,14.0775401 C9.95054332,14.9893835 8.99453636,15.697454 7.85268998,16.1995399 L7.53667483,16.3313637 L7.21147504,16.4529634 L6.36763185,16.7510225 L6.41239563,15.8572067 C6.44009684,15.3040857 6.44776899,14.7846498 6.43554939,14.2990624 L6.42265714,13.9412211 L6.407,13.685 L6.28328873,13.6529194 C2.99340447,12.7485414 0.663547886,10.5407442 0.420934186,7.92337571 L0.404972495,7.69139127 L0.4,7.47011331 C0.4,3.75992821 4.54232179,0.85112782 9.57142857,0.85112782 Z M15.5714286,7.71428571 C17.7805676,7.71428571 19.5714286,9.50514672 19.5714286,11.7142857 C19.5714286,13.9234247 17.7805676,15.7142857 15.5714286,15.7142857 C13.3622896,15.7142857 11.5714286,13.9234247 11.5714286,11.7142857 C11.5714286,9.50514672 13.3622896,7.71428571 15.5714286,7.71428571 Z M13.1471329,9.94679112 C12.7851033,10.442503 12.5714286,11.0534412 12.5714286,11.7142857 C12.5714286,13.37114 13.9145743,14.7142857 15.5714286,14.7142857 C16.208946,14.7142857 16.8000181,14.5154297 17.286001,14.1763617 L13.1471329,9.94679112 Z M15.5714286,8.71428571 C14.9369346,8.71428571 14.3484464,8.91126 13.8637776,9.24739505 L18.0009106,13.4746569 C18.3597937,12.9802209 18.5714286,12.3719683 18.5714286,11.7142857 C18.5714286,10.0574315 17.2282828,8.71428571 15.5714286,8.71428571 Z" id="形状结合"></path>
                </g>
            </g>
        </g>
    </g>
</svg>