<?xml version="1.0" encoding="UTF-8"?>
<svg width="22px" height="22px" viewBox="0 0 22 22" version="1.1" xmlns="http://www.w3.org/2000/svg" xmlns:xlink="http://www.w3.org/1999/xlink">
    <title>已禁言</title>
    <g id="页面-1" stroke="none" strokeWidth="1" fill="none" fillRule="evenodd">
        <g id="灵动课堂Guide-图标和图片（补充）" transform="translate(-885.000000, -239.000000)">
            <g id="编组-33备份" transform="translate(885.000000, 239.000000)">
                <rect id="矩形" x="0" y="0" width="22" height="22"></rect>
                <g id="编组-27" transform="translate(2.000000, 3.500000)" fill="#BDBDCA" fillRule="nonzero">
                    <path d="M8.61102832,6.66133815e-14 C13.3328424,6.66133815e-14 17.2220566,2.74416948 17.2220566,6.24436729 C17.2220566,6.36083717 17.2177309,6.4765092 17.2091905,6.5913062 C16.8685776,6.31180139 16.4885876,6.07997378 16.0787522,5.90500061 C15.8221224,3.28459036 12.6076827,1.13208297 8.61102832,1.13208297 C4.4436095,1.13208297 1.1266766,3.4724596 1.1266766,6.24436729 C1.1266766,8.36831923 3.09193043,10.2964656 6.02365128,11.0389436 L6.29280601,11.1031477 L6.69166441,11.192504 L6.73094406,11.6012157 C6.76291053,11.9338325 6.78354356,12.2837782 6.79289755,12.6511178 L6.79849387,13.0242577 L6.7957377,13.324496 L6.83941849,13.3045706 C7.52020748,12.964984 8.10639668,12.5303814 8.60076253,11.9997317 L8.80701987,11.766427 L8.98095985,11.5491571 L9.13526614,11.3471569 L9.66911841,11.3055113 C9.75594019,11.6902522 9.89052238,12.0572577 10.0656237,12.3999193 L9.9957319,12.4089998 L9.714769,12.4376976 L9.68372517,12.47783 C8.96697808,13.3380654 8.06938585,14.0060609 6.99730951,14.4797299 L6.70060379,14.6040928 L6.39527463,14.7188103 L5.60299264,15 L5.64502123,14.1567719 C5.67102982,13.6349562 5.67823318,13.1449191 5.66676023,12.6868148 L5.65465573,12.3492263 L5.63995529,12.1075068 L5.52380313,12.0772418 C2.43494011,11.2240494 0.247444364,9.14120806 0.0196550483,6.67197615 L0.00466866144,6.45312146 L4.49063009e-12,6.24436729 C4.49063009e-12,2.74416948 3.8892142,6.66133815e-14 8.61102832,6.66133815e-14 Z M14.2444113,6.47472014 C16.3185657,6.47472014 18,8.16422283 18,10.24833 C18,12.3324372 16.3185657,14.0219399 14.2444113,14.0219399 C12.170257,14.0219399 10.4888227,12.3324372 10.4888227,10.24833 C10.4888227,8.16422283 12.170257,6.47472014 14.2444113,6.47472014 Z M11.9684277,8.58062264 C11.6284095,9.04832284 11.4277198,9.62477718 11.4277198,10.24833 C11.4277198,11.8114104 12.6887956,13.0785375 14.2444113,13.0785375 C14.8429957,13.0785375 15.3979697,12.890923 15.8542668,12.5710248 L11.9684277,8.58062264 Z M14.2444113,7.41812261 C13.6484658,7.41812261 13.095747,7.6040865 12.6405964,7.92141215 L16.5252433,11.9093479 C16.8623201,11.4428456 17.0611028,10.8689133 17.0611028,10.24833 C17.0611028,8.68524963 15.8000271,7.41812261 14.2444113,7.41812261 Z" id="形状结合"></path>
                </g>
            </g>
        </g>
    </g>
</svg>