<?xml version="1.0" encoding="UTF-8"?>
<svg width="13px" height="14px" viewBox="0 0 13 14" version="1.1" xmlns="http://www.w3.org/2000/svg" xmlns:xlink="http://www.w3.org/1999/xlink">
    <title>搜索</title>
    <g id="职教大班课-CDN课堂" stroke="none" stroke-width="1" fill="none" fill-rule="evenodd">
        <g id="（老师端）大班课-CDN课堂-学员列表-web" transform="translate(-354.000000, -263.000000)" fill="#8E8E8E">
            <g id="编组-3" transform="translate(325.000000, 167.000000)">
                <g id="编组-20" transform="translate(20.000000, 58.000000)">
                    <g id="search备份-2" transform="translate(0.000000, 30.000000)">
                        <g id="Resources/Search" transform="translate(9.403846, 8.769231)">
                            <path d="M11.7231618,11.1922914 L8.45352854,7.77916498 C9.03961495,6.94504624 9.35357916,5.9366166 9.34920162,4.90232981 C9.33801876,2.20249812 7.24532697,0.0156431826 4.65800725,4.95949882e-05 C3.41982892,-0.00579601549 2.23083675,0.505326322 1.35590457,1.41955301 C0.480972382,2.33377969 -0.00722077013,3.57516755 8.07387177e-05,4.86717047 C0.0112636101,7.56724796 2.10414634,9.75430215 4.69170162,9.76989575 C5.68693106,9.77439672 6.6568736,9.44295789 7.45677236,8.8250441 L7.46018445,8.82237377 L10.7268321,12.2328298 C10.9034493,12.4261737 11.1666211,12.5044347 11.4143805,12.4372905 C11.66214,12.3701462 11.855557,12.168147 11.9196916,11.909558 C11.9838261,11.6509689 11.9086007,11.3764221 11.7231618,11.1922914 L11.7231618,11.1922914 Z M4.68828953,8.79255509 C2.61835839,8.78013006 0.944079429,7.03067398 0.934992827,4.87073091 C0.929406037,3.83726244 1.31999269,2.8443516 2.01980666,2.11302427 C2.71962062,1.38169695 3.67057832,0.972652268 4.66099283,0.976945199 C6.73092396,0.989370231 8.40520293,2.73882631 8.41428953,4.89876938 C8.41987632,5.93223785 8.02928967,6.92514869 7.3294757,7.65647602 C6.62966174,8.38780334 5.67870403,8.79684802 4.68828953,8.79255509 Z" id="Search"></path>
                        </g>
                    </g>
                </g>
            </g>
        </g>
    </g>
</svg>