<?xml version="1.0" encoding="UTF-8"?>
<svg width="28px" height="28px" viewBox="0 0 28 28" version="1.1" xmlns="http://www.w3.org/2000/svg" xmlns:xlink="http://www.w3.org/1999/xlink">
    <title>add</title>
    <g id="V1.1.3_答题器/投票/Preview/白板关闭/H5直播分享" stroke="none" stroke-width="1" fill="none" fill-rule="evenodd">
        <g id="preview功能-展开2" transform="translate(-1354.000000, -15.000000)">
            <g id="add" transform="translate(1354.000000, 15.000000)">
                <rect id="Rectangle-6-Copy-8" fill-rule="nonzero" x="0" y="0" width="28" height="28" rx="4"></rect>
                <g id="Group-15" transform="translate(5.300000, 5.000000)">
                    <path d="M12.6393909,0.839458311 L16.7445483,4.69244133 L16.7445483,16.2394583 C16.7445483,16.6260576 16.587848,16.9760576 16.3344978,17.2294078 C16.0811476,17.482758 15.7311476,17.6394583 15.3445483,17.6394583 L15.3445483,17.6394583 L2.3445483,17.6394583 C1.95794897,17.6394583 1.60794897,17.482758 1.35459881,17.2294078 C1.10124864,16.9760576 0.9445483,16.6260576 0.9445483,16.2394583 L0.9445483,16.2394583 L0.9445483,2.23945831 C0.9445483,1.85285899 1.10124864,1.50285899 1.35459881,1.24950882 C1.60794897,0.996158649 1.95794897,0.839458311 2.3445483,0.839458311 L2.3445483,0.839458311 L12.6393909,0.839458311 Z" id="Rectangle-7" stroke="#3F5C8F" stroke-width="1.2" fill="#FFFFFF"></path>
                    <path d="M12.7,1 L12.7,3.93403659 C12.7,4.48632134 13.1477153,4.93403659 13.7,4.93403659 L16.6170413,4.93403659 L16.6170413,4.93403659" id="Path-4" stroke="#3F5C8F" fill="#3F5C8F" fill-rule="nonzero" stroke-linecap="round"></path>
                    <polygon id="+" fill="#3F5C8F" points="9.33863078 8.87542166 12.1372353 8.87542166 12.1372353 9.87146909 9.33863078 9.87146909 9.33863078 12.5529412 8.29278098 12.5529412 8.29278098 9.87146909 5.5 9.87146909 5.5 8.87542166 8.29278098 8.87542166 8.29278098 6.2 9.33863078 6.2"></polygon>
                </g>
            </g>
        </g>
    </g>
</svg>