<?xml version="1.0" standalone="no"?>
<!DOCTYPE svg PUBLIC "-//W3C//DTD SVG 1.1//EN" "http://www.w3.org/Graphics/SVG/1.1/DTD/svg11.dtd" >
<!--
2013-9-30: Created.
-->
<svg>
<metadata>
Created by iconfont
</metadata>
<defs>

<font id="iconfont" horiz-adv-x="1024" >
  <font-face
    font-family="iconfont"
    font-weight="500"
    font-stretch="normal"
    units-per-em="1024"
    ascent="896"
    descent="-128"
  />
    <missing-glyph />
    
    <glyph glyph-name="icon-recording" unicode="&#58895;" d="M652.178286 603.428571a36.571429 36.571429 0 0 0 36.571428-36.571428v-124.306286l116.589715 93.257143a18.285714 18.285714 0 0 0 29.696-14.299429v-275.017142a18.285714 18.285714 0 0 0-29.696-14.262858l-116.589715 93.257143V201.142857a36.571429 36.571429 0 0 0-36.571428-36.571428h-402.285715a36.571429 36.571429 0 0 0-36.571428 36.571428V566.857143a36.571429 36.571429 0 0 0 36.571428 36.571428h402.285715z"  horiz-adv-x="1024" />

    
    <glyph glyph-name="icon-follow-actived" unicode="&#58894;" d="M512 384m-512 0a512 512 0 1 1 1024 0 512 512 0 1 1-1024 0ZM513.664 704.544a22.4 22.4 0 0 0 22.176-19.36l0.224-3.04v-11.136a288.064 288.064 0 0 0 263.072-264.608h12.64a22.4 22.4 0 0 0 3.04-44.608l-3.04-0.192h-12.64a288.064 288.064 0 0 0-263.104-264.64v-11.104a22.4 22.4 0 0 0-44.576-3.04l-0.192 3.04v10.88A288.064 288.064 0 0 0 224.832 361.6h-9.344a22.4 22.4 0 0 0-3.04 44.608l3.04 0.192h9.344a288.064 288.064 0 0 0 266.368 264.864v10.88a22.4 22.4 0 0 0 22.4 22.4zM263.36 406.4h59.904a22.4 22.4 0 0 0 3.04-44.608l-3.04-0.192H263.392a249.664 249.664 0 0 1 227.84-226.336v58.4a22.4 22.4 0 0 0 44.608 3.04l0.224-3.04-0.032-58.112a249.664 249.664 0 0 1 224.576 226.048H704a22.4 22.4 0 0 0-3.04 44.608L704 406.4h56.608a249.664 249.664 0 0 1-224.576 226.048v-58.112a22.4 22.4 0 0 0-44.576-3.04l-0.192 3.04V632.736a249.696 249.696 0 0 1-227.04-218.336l-0.832-8zM512 448a64 64 0 1 0 0-128 64 64 0 0 0 0 128z"  horiz-adv-x="1024" />

    
    <glyph glyph-name="icon-calendar" unicode="&#58893;" d="M604.216889 728.576L604.273778 668.444444a65.763556 65.763556 0 1 1 131.470222 0V728.519111h98.645333A85.333333 85.333333 0 0 0 919.324444 651.377778l0.398223-8.192v-625.777778a85.333333 85.333333 0 0 0-77.141334-84.992l-8.192-0.341333H189.610667A85.333333 85.333333 0 0 0 104.675556 9.102222l-0.398223 8.248889v625.777778A85.333333 85.333333 0 0 0 181.475556 728.120889l8.192 0.398222h98.588444V668.444444a65.763556 65.763556 0 0 1 131.527111 0V728.519111h184.490667z m258.56-191.032889H161.166222v-520.135111a28.444444 28.444444 0 0 1 23.324445-27.989333l5.12-0.455111h644.778666a28.444444 28.444444 0 0 1 27.989334 23.324444l0.455111 5.12V537.543111z m-527.758222-405.048889a28.444444 28.444444 0 0 0 5.12-56.433778l-5.12-0.455111H233.813333a28.444444 28.444444 0 0 0-5.12 56.433778l5.12 0.455111H335.075556z m227.555555 0a28.444444 28.444444 0 0 0 5.12-56.433778l-5.12-0.455111H461.368889a28.444444 28.444444 0 0 0-5.12 56.433778l5.12 0.455111H562.631111z m-227.555555 162.588445a28.444444 28.444444 0 0 0 5.12-56.433778l-5.12-0.455111H233.813333a28.444444 28.444444 0 0 0-5.12 56.376889l5.12 0.512H335.075556z m227.555555 0a28.444444 28.444444 0 0 0 5.12-56.433778l-5.12-0.455111H461.368889a28.444444 28.444444 0 0 0-5.12 56.376889l5.12 0.512H562.631111z m227.555556 0a28.444444 28.444444 0 0 0 5.12-56.433778l-5.12-0.455111H688.924444a28.444444 28.444444 0 0 0-5.12 56.376889l5.12 0.512h101.148445z m-455.111111 162.531555a28.444444 28.444444 0 0 0 5.12-56.433778l-5.12-0.455111H233.813333a28.444444 28.444444 0 0 0-5.12 56.433778l5.12 0.455111H335.075556z m227.555555 0a28.444444 28.444444 0 0 0 5.12-56.433778l-5.12-0.455111H461.368889a28.444444 28.444444 0 0 0-5.12 56.433778l5.12 0.455111H562.631111z m227.555556 0a28.444444 28.444444 0 0 0 5.12-56.433778l-5.12-0.455111H688.924444a28.444444 28.444444 0 0 0-5.12 56.433778l5.12 0.455111h101.148445zM353.962667 826.481778c17.464889 0 31.630222-14.165333 31.630222-31.630222V668.444444a31.630222 31.630222 0 0 0-26.510222-31.175111l-5.12-0.455111A31.630222 31.630222 0 0 0 322.389333 668.444444V794.851556c0 17.464889 14.108444 31.630222 31.573334 31.630222z m284.444444-31.630222a31.630222 31.630222 0 0 0 63.203556 0V668.444444a31.630222 31.630222 0 0 0-26.453334-31.175111l-5.12-0.455111A31.630222 31.630222 0 0 0 638.407111 668.444444V794.851556z"  horiz-adv-x="1024" />

    
    <glyph glyph-name="icon-laserpointer" unicode="&#58892;" d="M426.666667 469.333333m85.333333 0l0 0q85.333333 0 85.333333-85.333333l0 0q0-85.333333-85.333333-85.333333l0 0q-85.333333 0-85.333333 85.333333l0 0q0 85.333333 85.333333 85.333333ZM363.690667 228.906667a29.866667 29.866667 0 0 0 2.645333-39.210667l-2.645333-3.029333-101.632-101.632a29.866667 29.866667 0 0 0-44.928 39.168l2.688 3.072 101.632 101.632a29.866667 29.866667 0 0 0 42.24 0zM328.533333 384a29.866667 29.866667 0 0 0-25.002666-29.44L298.666667 354.133333H42.666667a29.866667 29.866667 0 0 0-4.864 59.306667L42.666667 413.866667h256a29.866667 29.866667 0 0 0 29.866666-29.866667z m215.125334-208.469333l0.426666-4.864v-256a29.866667 29.866667 0 0 0-59.349333-4.864L484.266667-85.333333v256a29.866667 29.866667 0 0 0 58.24 9.429333l1.109333-4.565333z m-179.968 412.288a29.866667 29.866667 0 0 0-39.210667-44.928l-3.029333 2.688L219.818667 647.253333A29.866667 29.866667 0 0 0 258.986667 692.053333l3.072-2.645333 101.632-101.632z m460.544-460.544a29.866667 29.866667 0 0 0-39.210667-44.928l-3.029333 2.688-101.632 101.632a29.866667 29.866667 0 0 0 39.168 44.885333l3.072-2.645333 101.632-101.632zM543.658667 855.978667l0.426666-4.864v-256a29.866667 29.866667 0 0 0-59.349333-4.821334l-0.426667 4.821334v256a29.866667 29.866667 0 0 0 58.24 9.472l1.109334-4.608zM1011.2 384a29.866667 29.866667 0 0 0-25.002667-29.44L981.333333 354.133333h-256a29.866667 29.866667 0 0 0-4.864 59.306667L725.333333 413.866667h256a29.866667 29.866667 0 0 0 29.866667-29.866667z m-186.965333 305.450667a29.866667 29.866667 0 0 0 2.645333-39.168l-2.645333-3.072-101.632-101.632a29.866667 29.866667 0 0 0-44.928 39.168l2.688 3.072 101.632 101.632a29.866667 29.866667 0 0 0 42.24 0z"  horiz-adv-x="1024" />

    
    <glyph glyph-name="icon-out" unicode="&#58890;" d="M706.094545 770.327273a27.927273 27.927273 0 0 0 27.55491-23.412364l0.372363-4.514909v-186.181818a27.927273 27.927273 0 0 0-55.482182-4.514909L678.167273 556.218182l-0.046546 158.254545H434.594909l83.595636-19.083636a27.927273 27.927273 0 0 0 21.41091-22.946909l0.325818-4.282182V118.690909h138.193454v158.254546a27.927273 27.927273 0 0 0 23.458909 27.554909l4.514909 0.372363a27.927273 27.927273 0 0 0 27.55491-23.412363l0.372363-4.514909v-186.181819a27.927273 27.927273 0 0 0-23.412363-27.554909l-4.51491-0.372363H539.927273v-65.163637a27.927273 27.927273 0 0 0-29.789091-27.880727l-4.328727 0.651636-325.818182 74.24a27.927273 27.927273 0 0 0-21.410909 22.946909l-0.325819 4.282182 0.093091 672.721455L158.254545 742.4c0 3.723636 0.744727 7.307636 2.094546 10.612364l1.024 2.234181 2.001454 3.304728 2.606546 3.165091 3.072 2.792727 2.792727 1.861818 3.490909 1.768727 3.351273 1.163637 3.816727 0.791272 3.025455 0.232728H706.094545zM214.109091 707.397818v-613.189818l269.963636-61.486545V645.911273L214.109091 707.397818z m570.135273-198.004363l3.863272-3.258182 112.826182-112.826182-112.826182-112.826182a27.927273 27.927273 0 0 0-42.728727 35.607273l3.258182 3.863273 45.381818 45.428363h-184.971636a27.927273 27.927273 0 0 0-4.514909 55.482182l4.514909 0.372364h184.971636l-45.381818 45.428363a27.927273 27.927273 0 0 0-3.258182 35.607273l3.258182 3.863273a27.927273 27.927273 0 0 0 35.607273 3.258182z"  horiz-adv-x="1024" />

    
    <glyph glyph-name="icon-cameraon-s" unicode="&#59023;" d="M510.520889 750.193778a295.822222 295.822222 0 0 0 39.253333-589.084445l-0.056889-70.940444h81.521778a39.822222 39.822222 0 0 0 39.480889-34.417778l0.341333-5.404444a39.822222 39.822222 0 0 0-34.417777-39.480889l-5.404445-0.341334H388.608a39.822222 39.822222 0 0 0-5.404444 79.246223l5.404444 0.398222h81.464889v71.111111a295.879111 295.879111 0 0 0 40.391111 588.913778z m0-79.644445a216.177778 216.177778 0 1 1 0-432.355555 216.177778 216.177778 0 0 1 0 432.355555z m-0.568889-53.304889a161.28 161.28 0 0 0 161.109333-161.393777 161.28 161.28 0 0 0-161.166222-161.450667 161.28 161.28 0 0 0-161.109333 161.450667A161.28 161.28 0 0 0 509.895111 617.244444z m0-79.644444c-44.999111 0-81.521778-36.579556-81.521778-81.749333 0-45.226667 36.522667-81.806222 81.464889-81.806223 45.056 0 81.521778 36.579556 81.521778 81.806223 0 45.169778-36.465778 81.749333-81.521778 81.749333z"  horiz-adv-x="1024" />

    
    <glyph glyph-name="icon-cameraoff-s" unicode="&#59042;" d="M774.712889 587.605333a295.879111 295.879111 0 0 0-224.995556-426.496v-70.940444h81.521778a39.822222 39.822222 0 0 0 5.404445-79.303111l-5.404445-0.341334H388.608a39.822222 39.822222 0 0 0-5.404444 79.246223l5.404444 0.398222h81.464889v71.111111a293.831111 293.831111 0 0 0-101.432889 33.450667l61.041778 59.050666a216.177778 216.177778 0 0 1 283.932444 274.773334l61.098667 59.050666z m-77.368889 96.142223l89.315556 86.357333a36.977778 36.977778 0 0 0 55.409777-48.64l-3.982222-4.551111-613.262222-593.294222a36.977778 36.977778 0 0 0-55.409778 48.64l3.982222 4.551111 101.717334 98.360889a295.822222 295.822222 0 0 0 422.229333 408.576l89.315556 86.357333-89.315556-86.414222z m-28.842667-198.883556a161.28 161.28 0 0 0-192.967111-186.766222l192.967111 186.766222zM510.520889 670.549333A216.177778 216.177778 0 0 1 332.913778 331.093333l40.391111 39.139556a160.881778 160.881778 0 0 0-24.519111 85.617778 161.28 161.28 0 0 0 251.335111 133.802666l39.424 38.172445a215.210667 215.210667 0 0 1-129.024 42.666666zM509.952 537.6a81.635556 81.635556 0 0 1-76.743111-109.454222l107.064889 103.594666a81.066667 81.066667 0 0 1-30.378667 5.859556z"  horiz-adv-x="1024" />

    
    <glyph glyph-name="icon-square-more" unicode="&#59043;" d="M1024 54.85714299999995v-182.857143h-182.857143l182.857143 182.857143zM713.142857 658.285714a73.142857 73.142857 0 0 0 73.142857-73.142857v-402.285714a73.142857 73.142857 0 0 0-73.142857-73.142857h-402.285714a73.142857 73.142857 0 0 0-73.142857 73.142857v402.285714a73.142857 73.142857 0 0 0 73.142857 73.142857h402.285714z m0-47.542857h-402.285714a25.6 25.6 0 0 1-25.6-25.6v-402.285714a25.6 25.6 0 0 1 25.6-25.6h402.285714a25.6 25.6 0 0 1 25.6 25.6v402.285714a25.6 25.6 0 0 1-25.6 25.6z"  horiz-adv-x="1024" />

    
    <glyph glyph-name="icon-line-more" unicode="&#59044;" d="M1024 54.85714299999995v-182.857143h-182.857143l182.857143 182.857143zM226.413714 150.381714l503.369143 501.394286a21.942857 21.942857 0 0 0 31.963429-0.804571c7.68-8.374857 8.265143-21.101714 1.938285-30.171429l-2.669714-3.181714-503.369143-501.394286a21.942857 21.942857 0 0 0-31.963428 0.804571 24.393143 24.393143 0 0 0-1.938286 30.171429l2.669714 3.181714 503.369143 501.394286L226.377143 150.381714z"  horiz-adv-x="1024" />

    
    <glyph glyph-name="icon-tools2" unicode="&#59045;" d="M1024 54.857143v-182.857143h-182.857143l182.857143 182.857143zM585.142857 735.085714a95.085714 95.085714 0 0 0 94.902857-89.088L680.228571 640v-36.534857L736.182857 603.428571a73.142857 73.142857 0 0 0 72.996572-68.205714l24.064-356.827428a109.714286 109.714286 0 0 0-109.458286-117.101715H300.214857a109.714286 109.714286 0 0 0-109.714286 109.714286l0.073143 3.693714 24.246857 360.521143A73.142857 73.142857 0 0 0 287.817143 603.428571l55.954286 0.036572V640a95.085714 95.085714 0 0 0 89.088 94.902857L438.857143 735.085714h146.285714z m-241.371428-319.232H250.697143l-16.201143-240.384-0.146286-4.461714a65.828571 65.828571 0 0 1 65.828572-65.828571h423.570285l4.425143 0.182857a65.828571 65.828571 0 0 1 61.257143 70.107428l-16.237714 240.384H680.228571L680.228571 384a58.514286 58.514286 0 0 0-53.174857-58.258286L621.714286 325.485714h-219.428572a58.514286 58.514286 0 0 0-58.258285 53.174857L343.771429 384v31.853714z m292.571428 0h-248.685714V384a14.628571 14.628571 0 0 1 11.702857-14.336l2.925714-0.292571h219.428572a14.628571 14.628571 0 0 1 14.336 11.702857L636.342857 384v31.853714z m0 143.725715h-248.685714v-40.045715a21.942857 21.942857 0 0 0-18.395429-21.650285l-3.547428-0.292572a21.942857 21.942857 0 0 0-21.650286 18.395429l-0.292571 3.547428V559.542857L287.817143 559.542857a29.257143 29.257143 0 0 1-29.220572-27.282286l-4.900571-72.521142h516.571429l-4.864 72.521142a29.257143 29.257143 0 0 1-29.220572 27.282286l-55.954286 0.036572v-40.045715a21.942857 21.942857 0 0 0-18.395428-21.650285l-3.547429-0.292572a21.942857 21.942857 0 0 0-21.650285 18.395429l-0.292572 3.547428V559.542857zM585.142857 691.2h-146.285714a51.2 51.2 0 0 1-50.980572-46.262857L387.657143 640v-36.534857h248.685714V640a51.2 51.2 0 0 1-46.262857 50.980571L585.142857 691.2z"  horiz-adv-x="1024" />

    
    <glyph glyph-name="icon-circle2" unicode="&#59046;" d="M1024 54.857143v-182.857143h-182.857143l182.857143 182.857143zM505.892571 694.857143a310.857143 310.857143 0 1 0 0-621.714286 310.857143 310.857143 0 0 0 0 621.714286z m0-47.542857a263.314286 263.314286 0 1 1 0-526.628572 263.314286 263.314286 0 0 1 0 526.628572z"  horiz-adv-x="1024" />

    
    <glyph glyph-name="icon-text1" unicode="&#58889;" d="M796.854857 676.571429L804.571429 520.667429h-19.565715c-3.766857 27.428571-8.923429 47.030857-15.396571 58.843428-10.678857 18.944-24.795429 32.914286-42.422857 41.947429-17.700571 8.923429-40.96 13.421714-69.668572 13.421714h-98.194285v-428.214857c0-40.850286 4.571429-66.340571 13.860571-76.507429 13.019429-13.714286 33.060571-20.553143 60.16-20.553143h24.137143V91.428571H361.874286v18.176h24.649143c29.476571 0 50.432 8.484571 62.756571 25.453715 7.497143 10.459429 11.337143 34.377143 11.337143 71.606857V634.916571h-83.821714c-32.548571 0-55.771429-2.340571-69.449143-6.875428-17.846857-6.217143-33.024-18.176-45.750857-35.766857-12.690286-17.700571-20.187429-41.508571-22.601143-71.606857H219.428571L227.620571 676.571429h569.234286z"  horiz-adv-x="1024" />

    
    <glyph glyph-name="icon-more1" unicode="&#58886;" d="M1024 54.857143v-182.857143h-182.857143z"  horiz-adv-x="1024" />

    
    <glyph glyph-name="icon-pen-more" unicode="&#58887;" d="M1024 54.857143v-182.857143h-182.857143l182.857143 182.857143zM821.76 761.6l4.973714-4.644571 73.874286-73.874286a95.085714 95.085714 0 0 0 4.644571-129.499429l-4.608-4.973714-50.322285-50.395429a21.869714 21.869714 0 0 0-12.288-12.251428L448.036571 95.926857a21.869714 21.869714 0 0 0-12.544-12.361143 21.76 21.76 0 0 0-6.582857-3.986285l-3.693714-1.060572-167.497143-32.073143-39.460571-24.246857a36.571429 36.571429 0 0 0-50.468572 50.029714l20.918857 34.742858 33.499429 174.555428a21.942857 21.942857 0 0 0 3.876571 8.923429l2.157715 2.486857L692.297143 756.955429a95.085714 95.085714 0 0 0 124.269714 8.850285l5.229714-4.205714zM258.998857 240.457143l-27.574857-143.762286 9.142857-8.886857 144.457143 27.684571-126.025143 124.964572z m391.68 412.818286L279.296 282.038857l146.907429-145.700571L797.513143 507.611429 650.605714 653.275429z m42.934857-105.581715a21.942857 21.942857 0 0 0 2.56-27.977143l-2.523428-3.035428-275.456-276.187429a21.942857 21.942857 0 0 0-33.609143 27.977143l2.56 3.035429 275.456 276.150857a21.942857 21.942857 0 0 0 31.012571 0.036571z m33.645715 181.76l-3.913143-3.510857-41.654857-41.618286 146.870857-145.700571 41.069714 41.033143a51.2 51.2 0 0 1 6.4 64.585143l-3.072 4.169143-3.291429 3.657142-73.910857 73.874286a51.2 51.2 0 0 1-64.365714 6.582857l-4.169143-3.072z"  horiz-adv-x="1024" />

    
    <glyph glyph-name="icon-tools-more" unicode="&#58888;" d="M1024 54.857143v-182.857143h-182.857143l182.857143 182.857143zM585.142857 735.085714a95.085714 95.085714 0 0 0 94.902857-89.088L680.228571 640v-36.534857L736.182857 603.428571a73.142857 73.142857 0 0 0 72.996572-68.205714l24.064-356.827428a109.714286 109.714286 0 0 0-109.458286-117.101715H300.214857a109.714286 109.714286 0 0 0-109.714286 109.714286l0.073143 3.693714 24.246857 360.521143A73.142857 73.142857 0 0 0 287.817143 603.428571l55.954286 0.036572V640a95.085714 95.085714 0 0 0 89.088 94.902857L438.857143 735.085714h146.285714z m-241.371428-319.232H250.697143l-16.201143-240.384a65.828571 65.828571 0 0 1 60.306286-70.070857l5.376-0.219428h423.570285a65.828571 65.828571 0 0 1 65.828572 64.877714l-0.146286 5.412571-16.237714 240.384H680.228571L680.228571 384a58.514286 58.514286 0 0 0-53.174857-58.258286L621.714286 325.485714h-219.428572a58.514286 58.514286 0 0 0-58.258285 53.174857L343.771429 384v31.853714z m292.571428 0h-248.685714V384a14.628571 14.628571 0 0 1 11.702857-14.336l2.925714-0.292571h219.428572a14.628571 14.628571 0 0 1 14.336 11.702857L636.342857 384v31.853714z m0 143.725715h-248.685714v-40.045715a21.942857 21.942857 0 0 0-43.593143-3.547428l-0.292571 3.547428V559.542857L287.817143 559.542857a29.257143 29.257143 0 0 1-28.708572-23.515428l-0.512-3.766858-4.900571-72.521142h516.571429l-4.864 72.521142a29.257143 29.257143 0 0 1-25.417143 27.062858L736.182857 559.542857l-55.954286 0.036572v-40.045715a21.942857 21.942857 0 0 0-43.593142-3.547428l-0.292572 3.547428V559.542857zM585.142857 691.2h-146.285714a51.2 51.2 0 0 1-50.980572-46.262857L387.657143 640v-36.534857h248.685714V640a51.2 51.2 0 0 1-46.262857 50.980571L585.142857 691.2z"  horiz-adv-x="1024" />

    
    <glyph glyph-name="icon-check" unicode="&#59040;" d="M512 384m-418.909091 0a418.909091 418.909091 0 1 1 837.818182 0 418.909091 418.909091 0 1 1-837.818182 0ZM673.698909 531.502545a34.909091 34.909091 0 0 0 60.509091-34.536727l-2.606545-4.468363-181.434182-269.312a81.454545 81.454545 0 0 0-119.947637-16.896l-5.771636 5.352727L273.733818 365.381818a34.909091 34.909091 0 0 0 45.986909 52.317091l3.863273-3.444364 150.714182-153.739636a11.636364 11.636364 0 0 1 16.477091-0.139636l1.489454 1.815272 181.434182 269.312z"  horiz-adv-x="1024" />

    
    <glyph glyph-name="icon-redcaution" unicode="&#59041;" d="M613.422545 664.343273l270.382546-480.674909a116.363636 116.363636 0 0 0-101.469091-173.381819H241.664a116.363636 116.363636 0 0 0-101.422545 173.381819l270.42909 480.674909a116.363636 116.363636 0 0 0 202.798546 0zM525.684364 223.418182l17.128727 160.349091V490.682182h-64.884364v-106.914909l17.128728-160.349091h30.626909z m19.223272-103.237818v64.837818h-69.538909v-64.837818h69.538909z"  horiz-adv-x="1024" />

    
    <glyph glyph-name="icon-close" unicode="&#59039;" d="M277.7088 651.4688l223.5904-223.5904 223.6416 223.5904a30.72 30.72 0 0 0 39.168 3.584l4.3008-3.584a30.72 30.72 0 0 0 3.5328-39.168l-3.584-4.2496-223.5904-223.5904 223.6416-223.6416a30.72 30.72 0 1 0-43.4688-43.4688L501.2992 340.99199999999996l-223.5904-223.6416a30.72 30.72 0 0 0-39.168-3.5328l-4.2496 3.584a30.72 30.72 0 0 0-3.584 39.168l3.584 4.2496 223.5904 223.6416-223.5904 223.5904a30.72 30.72 0 0 0 43.4176 43.4176z"  horiz-adv-x="1024" />

    
    <glyph glyph-name="icon-line" unicode="&#59035;" d="M269.860571 116.22400000000005l503.332572 501.394286a24.32 24.32 0 0 1 0.731428 33.353143 21.942857 21.942857 0 0 1-31.963428 0.804571L238.628571 150.381714a24.32 24.32 0 0 1-0.731428-33.353143 21.942857 21.942857 0 0 1 31.963428-0.804571z"  horiz-adv-x="1060" />

    
    <glyph glyph-name="icon-color" unicode="&#59036;" d="M512 384m-292.571429 0a292.571429 292.571429 0 1 1 585.142858 0 292.571429 292.571429 0 1 1-585.142858 0Z"  horiz-adv-x="1060" />

    
    <glyph glyph-name="icon-square" unicode="&#59037;" d="M310.857143 658.285714h402.285714a73.142857 73.142857 0 0 0 73.142857-73.142857v-402.285714a73.142857 73.142857 0 0 0-73.142857-73.142857h-402.285714a73.142857 73.142857 0 0 0-73.142857 73.142857v402.285714a73.142857 73.142857 0 0 0 73.142857 73.142857z m0-47.542857a25.6 25.6 0 0 1-25.6-25.6v-402.285714a25.6 25.6 0 0 1 25.6-25.6h402.285714a25.6 25.6 0 0 1 25.6 25.6v402.285714a25.6 25.6 0 0 1-25.6 25.6h-402.285714z"  horiz-adv-x="1024" />

    
    <glyph glyph-name="icon-circle" unicode="&#59038;" d="M530.285714 73.14285700000005a310.857143 310.857143 0 1 1 0 621.714286 310.857143 310.857143 0 0 1 0-621.714286z m0 47.542857a263.314286 263.314286 0 1 0 0 526.628572 263.314286 263.314286 0 0 0 0-526.628572z"  horiz-adv-x="1060" />

    
    <glyph glyph-name="icon-shangtai" unicode="&#59026;" d="M260.654545 386.327273l-0.046545-137.262546h84.712727c6.842182 110.312727 53.992727 205.032727 121.856 250.507637a167.563636 167.563636 0 1 0 182.737455-0.046546c67.863273-45.428364 114.967273-140.101818 121.856-250.461091l42.775273-0.046545a74.472727 74.472727 0 0 0 74.472727-74.472727v-139.636364a74.472727 74.472727 0 0 0-74.472727-74.472727h-605.09091a74.472727 74.472727 0 0 0-74.472727 74.472727v139.636364a74.472727 74.472727 0 0 0 69.818182 74.33309v150.341819a27.927273 27.927273 0 0 0 6.376727 17.780363l3.444364 3.490909 18.152727 15.546182a46.498909 46.498909 0 0 0 11.077818 32.162909l4.235637 4.375273 69.213091 62.370909a46.545455 46.545455 0 0 0 66.420363-64.977454l-4.096-4.189091-69.166545-62.370909a46.498909 46.498909 0 0 0-42.216727-10.65891l-7.58691-6.423272z m553.89091-193.163637h-605.09091a18.618182 18.618182 0 0 1-18.618181-18.618181v-139.636364c0-10.24 8.378182-18.618182 18.618181-18.618182h605.09091a18.618182 18.618182 0 0 1 18.618181 18.618182v139.636364a18.618182 18.618182 0 0 1-18.618181 18.618181z m-256 279.272728c-78.754909 0-148.247273-96.349091-157.277091-223.418182h314.554181c-9.029818 127.069091-78.522182 223.418182-157.27709 223.418182z m0 279.272727a111.709091 111.709091 0 1 1 0-223.418182 111.709091 111.709091 0 0 1 0 223.418182z"  horiz-adv-x="1024" />

    
    <glyph glyph-name="icon-unknownsignal" unicode="&#59034;" d="M516.9152 537.6c-33.0752 0-59.0336-9.3696-78.2336-28.16C418.9696 490.6496 409.6 464.6912 409.6 431.616h50.9952c0 18.7904 3.584 33.536 11.1616 43.8272 8.4992 12.544 22.3744 18.3296 41.984 18.3296 15.2576 0 27.3408-3.9936 35.84-12.4928 8.0384-8.4992 12.4928-20.1216 12.4928-34.9184a49.5104 49.5104 0 0 0-12.0832-31.744l-5.3248-6.2464c-29.0816-25.9584-46.5408-44.6976-52.3264-56.832-6.2976-12.032-8.96-26.7776-8.96-43.776v-6.2464h51.4048v6.2464c0 10.752 2.2528 20.1216 6.7072 29.0816 4.0448 8.0384 9.8816 15.616 17.92 22.3232l25.7536 23.04c6.4512 5.9392 10.7008 10.0864 12.6976 12.288 10.752 14.336 16.5376 32.6656 16.5376 54.9888 0 27.2896-8.96 48.7424-26.8288 64.4096-17.92 16.128-41.5744 23.7056-70.656 23.7056z m-8.0384-258.048c9.8304 0 18.3296-3.072 25.0368-9.3696 6.2464-6.2464 9.8304-14.336 9.8304-24.1152 0-9.8304-3.584-18.3296-10.24-24.576a34.4576 34.4576 0 0 0-24.6272-9.4208 34.816 34.816 0 0 0-24.576 9.8304 31.3856 31.3856 0 0 0-9.8816 24.1664c0 9.8304 3.1744 17.8688 9.8816 24.1152a34.4576 34.4576 0 0 0 24.576 9.4208zM258.3552 657.7152a26.4704 26.4704 0 0 0 0-38.1952 326.4 326.4 0 0 1 0-471.04 26.4704 26.4704 0 0 0 0-38.1952 28.3648 28.3648 0 0 0-39.2704 0 379.392 379.392 0 0 0 0 547.4304 28.3648 28.3648 0 0 0 39.2704 0z m546.56 0a379.392 379.392 0 0 0 0-547.4304 28.3648 28.3648 0 0 0-39.2704 0 26.4704 26.4704 0 0 0 0 38.1952 326.4 326.4 0 0 1 0 471.04 26.4704 26.4704 0 0 0 0 38.1952 28.3648 28.3648 0 0 0 39.2704 0zM327.424 594.0224a26.4704 26.4704 0 0 0 0-38.1952 238.1824 238.1824 0 0 1 0-343.6544 26.4704 26.4704 0 0 0 0-38.1952 28.3648 28.3648 0 0 0-39.2704 0 291.1232 291.1232 0 0 0 0 420.0448 28.3648 28.3648 0 0 0 39.2704 0z m408.4224 0a291.1232 291.1232 0 0 0 0-420.0448 28.3648 28.3648 0 0 0-39.2704 0 26.4704 26.4704 0 0 0 0 38.1952 238.1824 238.1824 0 0 1 0 343.6544 26.4704 26.4704 0 0 0 0 38.1952 28.3648 28.3648 0 0 0 39.2704 0zM397.312 530.432a26.4704 26.4704 0 0 0 0-38.1952 150.016 150.016 0 0 1 0-216.3712 26.4704 26.4704 0 0 0 0-38.1952 28.3648 28.3648 0 0 0-39.2704 0 202.9056 202.9056 0 0 0 0 292.7616 28.3648 28.3648 0 0 0 39.2704 0z m268.6464 0a202.9056 202.9056 0 0 0 0-292.7616 28.3648 28.3648 0 0 0-39.2704 0 26.4704 26.4704 0 0 0 0 38.1952 150.016 150.016 0 0 1 0 216.3712 26.4704 26.4704 0 0 0 0 38.1952 28.3648 28.3648 0 0 0 39.2704 0z"  horiz-adv-x="1024" />

    
    <glyph glyph-name="icon-handsupstudent" unicode="&#59033;" d="M405.101714 466.285714a179.821714 179.821714 0 0 0 144.310857 287.085715 179.821714 179.821714 0 0 0 84.699429-338.395429c4.754286-1.024 9.472-2.121143 14.336-3.401143a298.788571 298.788571 0 0 0 54.491429-19.748571c97.499429-46.592 161.645714-150.857143 195.181714-310.491429a70.509714 70.509714 0 1 0-138.020572-29.001143c-15.652571 74.386286-37.851429 130.011429-65.609142 167.058286v-119.917714a103.021714 103.021714 0 0 0-97.572572-102.729143l-5.376-0.146286h-107.995428a103.058286 103.058286 0 0 0-102.765715 97.499429l-0.146285 5.376v167.131428a87.771429 87.771429 0 0 1-47.104 77.750857c-49.078857 25.673143-86.089143 51.565714-111.067429 78.006858-52.772571 55.808-85.321143 128-97.426286 214.857142a70.509714 70.509714 0 0 0 139.702857 19.492572c8.155429-58.331429 28.196571-103.606857 60.269715-137.508572 24.795429-26.258286 46.409143-42.971429 76.580571-56.393142l9.325714-3.949715-5.851428 7.424z m144.310857 243.2a135.936 135.936 0 0 1-47.981714-263.058285 21.942857 21.942857 0 0 0 14.226286-20.516572v-13.641143a21.942857 21.942857 0 0 0-26.112-21.577143c-7.314286 1.462857-14.592 3.035429-22.528 5.010286l-20.041143 5.266286c-72.777143 20.077714-110.08 41.764571-153.856 88.064C254.427429 529.956571 230.619429 583.68 221.257143 650.642286a26.660571 26.660571 0 0 1-52.809143-7.350857c10.898286-78.153143 39.643429-141.897143 85.869714-190.793143 21.211429-22.418286 54.381714-45.641143 99.474286-69.229715a131.657143 131.657143 0 0 0 70.656-116.662857v-166.509714l0.109714-4.096c1.828571-31.085714 27.648-55.515429 58.953143-55.515429h107.373714l4.096 0.109715c31.085714 1.828571 55.588571 27.611429 55.588572 58.88v172.507428a21.942857 21.942857 0 0 0 34.669714 17.883429c54.893714-39.131429 93.988571-115.565714 117.76-228.498286a26.660571 26.660571 0 0 1 52.150857 10.971429c-31.012571 147.492571-87.990857 240.128-171.154285 279.844571a254.902857 254.902857 0 0 1-46.555429 16.896 315.721143 315.721143 0 0 1-32.768 6.692572l-4.534857 0.694857a21.942857 21.942857 0 0 0-18.688 21.723428v27.136a21.942857 21.942857 0 0 0 14.482286 20.589715A135.936 135.936 0 0 1 549.412571 709.485714z"  horiz-adv-x="1024" />

    
    <glyph glyph-name="icon-yishangtai" unicode="&#59031;" d="M558.545455 807.563636a167.563636 167.563636 0 0 0 91.368727-308.037818c67.863273-45.428364 114.967273-140.101818 121.856-250.461091l42.775273-0.046545a74.472727 74.472727 0 0 0 74.472727-74.472727v-139.636364a74.472727 74.472727 0 0 0-74.472727-74.472727h-169.285819c-37.748364-26.391273-83.688727-41.890909-133.259636-41.890909a231.656727 231.656727 0 0 0-133.259636 41.890909H209.454545a74.472727 74.472727 0 0 0-74.472727 74.472727v139.636364a74.472727 74.472727 0 0 0 69.818182 74.33309v150.341819a27.927273 27.927273 0 0 0 6.376727 17.780363l3.444364 3.490909 18.152727 15.546182a46.498909 46.498909 0 0 0 11.077818 32.162909l4.235637 4.375273 69.213091 62.370909a46.545455 46.545455 0 0 0 66.420363-64.977454l-4.096-4.189091-69.166545-62.370909a46.498909 46.498909 0 0 0-42.216727-10.65891l-7.58691-6.423272-0.046545-137.262546h40.168727c13.405091 28.904727 32.581818 54.597818 55.994182 75.589818 18.990545 76.986182 58.647273 140.241455 110.405818 174.917819A167.563636 167.563636 0 0 0 558.545455 807.563636zM283.042909 193.210182L209.454545 193.163636a18.618182 18.618182 0 0 1-18.618181-18.618181v-139.636364c0-10.24 8.378182-18.618182 18.618181-18.618182h112.919273A231.656727 231.656727 0 0 0 279.272727 151.272727c0 14.336 1.303273 28.346182 3.770182 41.937455zM814.545455 193.163636l-73.588364 0.046546c2.466909-13.591273 3.770182-27.601455 3.770182-41.937455 0-50.269091-15.965091-96.907636-43.101091-134.981818H814.545455a18.618182 18.618182 0 0 1 18.618181 18.618182v139.636364a18.618182 18.618182 0 0 1-18.618181 18.618181z m-208.384 54.132364l-119.621819-157.090909-68.747636 89.506909a27.927273 27.927273 0 1 1-44.311273-34.024727l91.042909-118.504728a27.927273 27.927273 0 0 1 44.357819 0.139637l141.684363 186.181818a27.927273 27.927273 0 0 1-44.404363 33.792zM558.545455 472.436364c-50.827636 0-97.838545-40.122182-127.162182-102.772364A232.773818 232.773818 0 0 0 512 384a232.634182 232.634182 0 0 0 202.146909-117.294545C700.276364 384.930909 633.623273 472.436364 558.545455 472.436364z m0 279.272727a111.709091 111.709091 0 1 1 0-223.418182 111.709091 111.709091 0 0 1 0 223.418182z"  horiz-adv-x="1024" />

    
    <glyph glyph-name="icon-yishouquan" unicode="&#59032;" d="M837.818182 759.808c46.545455 0 84.666182-35.886545 88.157091-81.501091l0.279272-6.935273v-521.867636a88.436364 88.436364 0 0 0-81.547636-88.203636l-6.888727-0.232728h-7.307637V11.636364a79.127273 79.127273 0 0 0-79.127272-79.127273h-27.601455a79.080727 79.080727 0 0 0-66.839273 36.770909 232.680727 232.680727 0 0 0-348.16 68.561455H258.234182a23.272727 23.272727 0 0 0-23.272727 23.272727V116.829091a23.272727 23.272727 0 0 0 23.272727 23.272727h21.317818a231.982545 231.982545 0 0 0 18.432 102.679273 316.369455 316.369455 0 0 0-65.489455 12.893091 27.927273 27.927273 0 0 0 16.058182 53.527273c32.069818-9.681455 59.671273-13.172364 83.223273-10.845091a232.448 232.448 0 0 0 87.505455 66.373818c3.490909 10.007273 5.585455 21.178182 6.656 33.698909l1.256727 21.504c3.584 47.197091 16.989091 83.316364 47.848727 113.431273 47.290182 46.173091 117.992727 49.664 208.058182 14.894545a27.927273 27.927273 0 0 0-20.107636-52.130909c-71.819636 27.741091-120.180364 25.367273-148.945455-2.746182-19.642182-19.130182-28.578909-43.101091-31.185455-77.963636l-1.210181-20.805818a239.616 239.616 0 0 0-1.396364-12.893091 231.703273 231.703273 0 0 0 170.868364-43.938909l0.279272 0.698181 12.567273 27.601455 7.168 14.987636 6.330182 12.288c4.189091 7.726545 7.912727 13.963636 11.729454 19.176728 3.118545 4.282182 6.376727 8.098909 10.426182 11.776a55.389091 55.389091 0 0 0 39.424 15.499636c17.873455 0 30.068364-6.702545 40.215273-16.197818 4.142545-3.909818 7.354182-7.912727 10.426182-12.334546 3.723636-5.399273 7.261091-11.729455 11.170909-19.549091l9.076364-19.688727 7.028363-16.430545 7.912727-19.223273a79.127273 79.127273 0 0 0 5.678546-29.509818l-0.046546-189.998546H837.818182a32.581818 32.581818 0 0 1 32.302545 28.16l0.279273 4.421819V671.371636a32.581818 32.581818 0 0 1-28.16 32.302546L837.818182 703.953455H167.563636a32.581818 32.581818 0 0 1-32.302545-28.16l-0.279273-4.421819v-521.867636a32.581818 32.581818 0 0 1 28.16-32.302545l4.421818-0.279273h36.770909v-55.854546H167.563636a88.436364 88.436364 0 0 0-88.157091 81.501091l-0.279272 6.935273V671.371636a88.436364 88.436364 0 0 0 81.547636 88.157091l6.888727 0.279273H837.818182z m-63.162182-527.36h-44.497455A232.261818 232.261818 0 0 0 744.727273 151.272727c0-51.013818-16.430545-98.210909-44.218182-136.517818V11.636364a23.272727 23.272727 0 0 1 23.272727-23.272728h27.648a23.272727 23.272727 0 0 1 23.272727 23.272728l-0.046545 220.811636z m-168.494545 14.894545l-119.621819-157.137454-68.747636 89.506909a27.927273 27.927273 0 1 1-44.311273-34.024727l91.042909-118.504728a27.927273 27.927273 0 0 1 44.357819 0.139637l141.684363 186.181818a27.927273 27.927273 0 0 1-44.404363 33.792zM739.048727 384c-3.444364 0-11.915636-14.522182-25.460363-43.566545l-11.077819-24.48291a23.365818 23.365818 0 0 1-2.001454-9.448727v-18.199273h74.146909v18.618182a23.272727 23.272727 0 0 1-1.629091 8.704l-6.981818 16.989091-6.190546 14.615273c-10.705455 24.529455-17.640727 36.770909-20.805818 36.770909zM315.392 650.658909a27.927273 27.927273 0 0 0 2.606545-35.700364l-3.304727-3.770181-89.367273-86.109091a27.927273 27.927273 0 0 0-42.030545 36.352l3.258182 3.816727 89.367273 86.109091a27.927273 27.927273 0 0 0 39.470545-0.698182z"  horiz-adv-x="1024" />

    
    <glyph glyph-name="icon-handsup" unicode="&#59030;" d="M223.232 653.970286c9.289143-65.206857 32.731429-116.297143 69.997714-154.806857 45.129143-46.628571 82.176-67.072 164.571429-88.064 19.273143-4.900571 34.340571-7.972571 54.125714-10.752l10.313143-1.389715 18.176-2.157714 42.057143-4.498286 17.042286-2.048c18.395429-2.377143 32.182857-4.937143 47.652571-8.850285 18.541714-4.681143 36.132571-10.861714 53.540571-18.980572 96.950857-45.202286 160.402286-148.589714 194.194286-305.481143 5.851429-27.172571-11.995429-53.796571-39.862857-59.501714-27.794286-5.705143-55.113143 11.702857-60.964571 38.838857-24.466286 113.517714-63.853714 186.660571-115.565715 222.646857v-178.541714c0-44.617143-35.730286-81.078857-80.822857-83.638857l-5.046857-0.146286h-114.468571c-45.714286 0-83.053714 34.889143-85.686858 78.848l-0.146285 4.937143v174.592a109.714286 109.714286 0 0 1-60.123429 97.828571c-51.053714 25.892571-89.014857 51.675429-113.883428 77.348572-52.662857 54.418286-84.992 124.891429-97.133715 209.92-3.949714 27.501714 15.725714 52.882286 43.885715 56.722286 28.16 3.84 54.198857-15.36 58.148571-42.825143z m324.754286 99.401143c92.452571 0 167.424-73.142857 167.424-163.328 0-90.221714-74.971429-163.364571-167.424-163.364572-92.452571 0-167.387429 73.142857-167.387429 163.364572 0 90.185143 74.971429 163.328 167.387429 163.328z"  horiz-adv-x="1024" />

    
    <glyph glyph-name="icon-huamingce" unicode="&#59029;" d="M769.609143 745.545143c50.176 0 91.648-37.485714 94.866286-85.394286l0.219428-6.034286v-555.885714c0-48.749714-39.497143-88.137143-88.868571-91.245714l-6.217143-0.182857h-512c-50.176 0-91.648 37.485714-94.902857 85.394285l-0.182857 6.034286v91.318857a21.942857 21.942857 0 0 0 43.593142 3.584l0.292572-3.584v-91.318857c0-13.787429 6.363429-26.331429 16.603428-35.035428 0.731429 129.682286 63.634286 238.884571 148.224 247.515428a126.427429 126.427429 0 1 0 24.502858-0.548571c49.737143-7.204571 92.16-53.577143 118.125714-118.052572 4.827429 13.056 10.825143 25.856 17.92 38.473143 24.612571 43.593143 55.478857 73.508571 90.660571 84.004572a126.390857 126.390857 0 0 0 34.340572 248.100571 126.427429 126.427429 0 0 0 27.940571-249.782857c71.204571-24.064 126.537143-121.417143 132.754286-231.570286 1.572571 3.913143 2.633143 8.045714 3.072 12.361143l0.256 4.534857v555.885714c0 24.466286-20.114286 44.982857-46.226286 47.323429l-4.973714 0.219429-497.261714-0.036572c-53.540571-0.731429-65.097143-11.702857-65.901715-61.769143l-0.036571-76.178285a21.942857 21.942857 0 0 0-43.593143-3.547429l-0.292571 3.547429v70.217142c0 79.286857 29.257143 109.677714 108.141714 111.542858l8.045714 0.109714h490.898286zM650.605714 274.834286c-27.977143 0-56.612571-23.259429-80.64-65.828572a215.04 215.04 0 0 1-26.441143-77.092571 21.869714 21.869714 0 0 0-8.630857-14.628572c3.510857-20.041143 5.632-40.923429 6.107429-62.134857v-4.425143l228.571428-0.036571c2.304 0 4.571429 0.146286 6.765715 0.402286a21.833143 21.833143 0 0 0-2.194286 9.654857c0 114.468571-61.732571 214.089143-123.538286 214.089143z m-268.580571-7.460572c-60.342857 0-115.2-91.465143-115.2-206.628571a21.833143 21.833143 0 0 0-2.450286-10.057143h232.813714c-1.609143 115.968-57.782857 216.685714-115.2 216.685714z m-236.617143 27.538286H215.04a21.942857 21.942857 0 0 0 3.547429-43.593143l-3.547429-0.292571H145.408a21.942857 21.942857 0 0 0-3.547429 43.593143l3.547429 0.292571z m69.632 97.974857a21.942857 21.942857 0 0 0 3.547429-43.593143l-3.547429-0.292571H145.408a21.942857 21.942857 0 0 0-3.547429 43.593143l3.547429 0.292571h69.668571z m171.008 125.915429a82.541714 82.541714 0 1 1 0-165.12 82.541714 82.541714 0 0 1 0 165.12z m270.701714 0a82.541714 82.541714 0 1 1 0-165.12 82.541714 82.541714 0 0 1 0 165.12z m-511.378285-27.977143h69.668571a21.942857 21.942857 0 0 0 3.547429-43.593143l-3.547429-0.292571H145.408a21.942857 21.942857 0 0 0-3.547429 43.629714l3.547429 0.256h69.668571-69.668571z"  horiz-adv-x="1024" />

    
    <glyph glyph-name="icon-mocrophoneoff-s" unicode="&#59009;" d="M734.890667 511.601778c16.099556-1.194667 28.728889-13.368889 31.118222-28.672h6.485333a31.345778 31.345778 0 0 0 5.12-62.293334l-5.12-0.455111h-10.353778l-5.688888-65.365333-2.730667-25.315556a250.88 250.88 0 0 0-3.185778-20.821333l-3.811555-13.482667c-27.761778-87.779556-102.229333-151.608889-191.089778-163.214222v-38.456889h39.822222c17.066667 0 31.175111-12.515556 33.564444-28.956444l0.398223-5.006222c0-17.066667-12.572444-31.175111-29.013334-33.564445l-4.949333-0.398222H438.613333a33.962667 33.962667 0 0 0-5.006222 67.584l5.006222 0.341333h49.038223v39.936a245.76 245.76 0 0 0-96.938667 39.594667l49.038222 49.322667c25.543111-14.961778 55.409778-24.291556 86.869333-24.291556 73.671111 0 138.012444 51.712 157.639112 125.496889l1.308444 7.850667 1.763556 15.018666 4.721777 50.517334 1.763556 23.210666-38.912 0.056889v-23.210666c0-85.333333-58.481778-154.510222-130.673778-154.510223a113.208889 113.208889 0 0 0-51.996444 12.743111l225.678222 227.669334h1.024l0.113778 1.137778 26.624 26.908444a34.019556 34.019556 0 0 0 9.216 0.568889zM524.231111 765.155556c72.192 0 130.673778-69.176889 130.673778-154.567112v-11.207111l126.748444 127.772445a32.256 32.256 0 0 0 41.130667 3.925333l4.551111-3.697778c11.207111-11.207111 12.515556-28.558222 3.868445-41.187555l-3.697778-4.494222L214.471111 63.601778a32.256 32.256 0 0 0-49.493333 40.96l3.640889 4.494222 146.147555 147.342222a188.757333 188.757333 0 0 0-18.204444 48.355556c-6.940444 31.573333-11.719111 69.973333-14.336 115.370666l-6.257778 0.056889a31.345778 31.345778 0 0 0-5.12 62.350223l5.12 0.398222h4.551111a33.962667 33.962667 0 0 0 67.185778 0h45.852444V610.588444c0 85.333333 58.538667 154.567111 130.673778 154.567112zM393.557333 420.181333h-43.235555c2.446222-40.220444 6.656-73.841778 12.629333-100.807111 0.796444-3.754667 1.877333-7.509333 3.072-11.264l35.498667 35.726222a179.655111 179.655111 0 0 0-7.964445 53.191112v23.153777z"  horiz-adv-x="1024" />

    
    <glyph glyph-name="icon-mocrophoneon-s" unicode="&#59010;" d="M524.231111 765.155556c72.192 0 130.673778-69.176889 130.673778-154.567112V482.986667h44.032l0.341333 2.275555a33.962667 33.962667 0 0 0 66.730667-2.275555h6.485333a31.345778 31.345778 0 0 0 5.12-62.293334l-5.12-0.455111h-10.353778l-5.688888-65.365333-2.730667-25.315556a250.88 250.88 0 0 0-3.185778-20.821333l-3.811555-13.482667c-27.761778-87.779556-102.229333-151.608889-191.089778-163.214222v-38.456889h39.822222c17.066667 0 31.175111-12.515556 33.564444-28.956444l0.398223-5.006222c0-17.066667-12.572444-31.175111-29.013334-33.564445l-4.949333-0.398222H438.613333a33.962667 33.962667 0 0 0-5.006222 67.584l5.006222 0.341333h49.038223v39.936c-95.687111 16.384-173.340444 90.908444-191.089778 171.235556-6.940444 31.630222-11.719111 70.087111-14.336 115.427555l-6.257778 0.056889a31.345778 31.345778 0 0 0-5.12 62.350222l5.12 0.398223h4.551111a33.962667 33.962667 0 0 0 67.185778 0h45.852444V610.588444c0 85.333333 58.538667 154.567111 130.673778 154.567112z m130.673778-368.071112c0-85.390222-58.481778-154.567111-130.673778-154.567111-72.135111 0-130.673778 69.176889-130.673778 154.510223v23.153777h-43.235555c2.446222-40.220444 6.656-73.841778 12.629333-100.807111 13.368889-60.757333 83.626667-121.287111 163.669333-121.287111 73.671111 0 138.012444 51.712 157.639112 125.496889l1.308444 7.850667 1.763556 15.018666 4.721777 50.517334 1.763556 23.210666-38.912 0.056889v-23.210666z"  horiz-adv-x="1024" />

    
    <glyph glyph-name="format-Audio" unicode="&#58981;" d="M713.076364 821.527273l194.56-189.765818V114.036364a74.472727 74.472727 0 0 0-74.472728-74.472728h-37.236363v-37.236363a74.472727 74.472727 0 0 0-74.472728-74.472728h-558.545454a74.472727 74.472727 0 0 0-74.472727 74.472728V635.345455A74.472727 74.472727 0 0 0 162.909091 709.818182h37.236364v37.236363a74.472727 74.472727 0 0 0 74.472727 74.472728h438.458182z m-15.173819-37.236364H274.618182a37.236364 37.236364 0 0 1-37.236364-37.236364v-633.018181a37.236364 37.236364 0 0 1 37.236364-37.236364h558.545454a37.236364 37.236364 0 0 1 37.236364 37.236364V598.109091h-93.090909a74.472727 74.472727 0 0 0-74.146909 67.677091L702.836364 672.581818V779.543273l-4.933819 4.747636z m-144.011636-186.181818v-372.363636l-125.672727 93.090909H330.472727v186.181818h97.745455l125.672727 93.090909z m93.882182-48.64l20.107636 31.371636a195.351273 195.351273 0 0 0 90.018909-164.677818 195.258182 195.258182 0 0 0-80.849454-158.394182l-9.076364-6.190545-20.154182 31.325091a158.114909 158.114909 0 0 1 72.843637 133.259636c0 51.2-24.436364 98.117818-64.651637 127.674182l-8.238545 5.632z m-37.236364-80.849455l20.107637 31.325091a99.421091 99.421091 0 0 0 6.376727-163.048727l-6.330182-4.421818-20.154182 31.325091a62.184727 62.184727 0 0 1 5.632 100.724363l-5.632 4.096 20.107637 31.325091-20.107637-31.325091z"  horiz-adv-x="1024" />

    
    <glyph glyph-name="format-pdf" unicode="&#58982;" d="M713.076364 821.527273l194.56-189.765818V114.036364a74.472727 74.472727 0 0 0-74.472728-74.472728h-37.236363v-37.236363a74.472727 74.472727 0 0 0-74.472728-74.472728h-558.545454a74.472727 74.472727 0 0 0-74.472727 74.472728V635.345455A74.472727 74.472727 0 0 0 162.909091 709.818182l37.236364 0.046545V747.054545a74.472727 74.472727 0 0 0 74.472727 74.472728h438.458182z m-15.173819-37.236364H274.618182a37.236364 37.236364 0 0 1-37.236364-37.236364v-633.018181a37.236364 37.236364 0 0 1 37.236364-37.236364h558.545454a37.236364 37.236364 0 0 1 37.236364 37.236364V598.109091h-93.090909a74.472727 74.472727 0 0 0-74.146909 67.677091L702.836364 672.581818V779.496727l-4.933819 4.794182zM392.610909 508.648727c22.341818 0 40.680727-8.657455 55.109818-25.972363 14.429091-17.361455 21.643636-41.658182 21.643637-72.936728 0-31.278545-7.912727-56.226909-23.831273-74.938181-15.732364-18.618182-35.374545-27.927273-58.88-27.927273-23.552 0-40.122182 7.168-49.803636 21.597091v-90.903273H283.508364l-0.325819 264.843636-0.046545 1.861819h51.805091c1.210182-9.448727 1.861818-17.501091 1.861818-24.157091 11.124364 19.130182 29.742545 28.672 55.761455 28.532363zM629.76 583.214545h53.294545l0.372364-271.825454h-51.106909a140.893091 140.893091 0 0 0-2.56 20.200727c-9.914182-16.384-27.554909-24.576-52.875636-24.576-25.367273 0-45.335273 8.936727-60.043637 26.717091-14.289455 18.338909-21.410909 42.496-21.410909 72.610909 0 30.021818 7.773091 54.737455 23.412364 74.146909 16.151273 18.897455 37.469091 28.299636 64 28.16 13.032727-0.093091 23.365818-2.001455 31.092363-5.585454 7.773091-3.677091 13.032727-7.959273 15.825455-12.939637v93.090909z m169.285818 3.816728c11.636364 0 19.828364-0.791273 24.529455-2.327273v-42.030545l-11.077818 0.698181c-7.633455 0-13.172364-1.815273-16.523637-5.445818-3.397818-3.630545-5.12-10.658909-5.12-21.085091v-12.567272h33.466182v-40.168728h-33.466182v-152.715636h-53.248V464.104727h-28.392727v40.215273h28.392727v16.709818c0 20.619636 5.12 36.724364 15.453091 48.360727 10.286545 11.636364 25.6 17.501091 45.986909 17.640728zM374.458182 465.92c-13.684364 0-23.738182-4.840727-30.208-14.522182-6.423273-9.728-9.634909-24.296727-9.634909-43.845818 0-19.502545 2.978909-34.117818 8.936727-43.799273 5.911273-9.681455 15.825455-14.475636 29.789091-14.382545 28.020364 0 42.030545 20.386909 42.030545 61.114182 0 36.957091-13.637818 55.435636-40.96 55.435636z m219.461818 0c-29.230545 0-43.845818-19.456-43.845818-58.368 0-18.525091 3.444364-32.954182 10.379636-43.287273a36.305455 36.305455 0 0 1 30.533818-14.522182c17.361455 0 28.718545 6.330182 34.210909 18.897455 4.468364 10.705455 6.702545 24.669091 6.702546 42.030545 0 17.221818-2.606545 30.72-7.819636 40.494546-5.213091 9.867636-15.266909 14.754909-30.161455 14.754909z"  horiz-adv-x="1024" />

    
    <glyph glyph-name="format-PPT" unicode="&#58983;" d="M577.163636 821.527273v-103.098182h372.363637v-670.254546h-372.363637V-72.145455L93.090909-5.957818V755.339636L577.163636 821.527273z m0-140.334546v-123.671272a141.963636 141.963636 0 0 0 48.407273 16.058181l8.192 0.884364 20.107636 1.675636v-135.912727h135.912728l-1.675637-20.107636a142.941091 142.941091 0 0 0-210.944-113.617455l-0.046545-43.52H856.436364v-37.236363h-279.319273v-37.189819l279.319273-0.046545v-37.236364l-279.272728 0.046546v-65.908364h335.127273v595.781818h-335.127273zM373.806545 550.818909H233.099636v-364.916364H287.185455v147.037091h84.014545c71.400727 0 123.904 37.794909 123.904 110.219637 0 67.211636-48.872727 107.659636-121.297455 107.659636z m242.827637-17.128727c-14.708364-4.189091-28.113455-11.496727-39.470546-21.131637v-161.047272a105.797818 105.797818 0 0 1 167.842909 44.218182l2.327273 7.26109H616.727273V533.736727z m-247.528727-28.020364c40.96 0 70.888727-20.48 70.888727-63.534545 0-41.472-25.227636-64.046545-72.471273-64.046546H287.185455v127.534546h81.92z m336.523636 118.504727A132.189091 132.189091 0 0 0 837.818182 491.985455l-0.093091-5.073455-0.279273-5.073455-1.303273-17.221818h-157.835636V622.545455l17.221818 1.303272c3.351273 0.232727 6.702545 0.372364 10.100364 0.372364z m9.914182-37.701818v-84.573091h84.526545a94.999273 94.999273 0 0 1-70.050909 81.92l-7.168 1.582546-7.307636 1.024z"  horiz-adv-x="1024" />

    
    <glyph glyph-name="format-excel" unicode="&#58984;" d="M577.163636 821.527273v-103.098182h372.363637v-670.254546h-372.363637V-72.145455L93.090909-5.957818V755.339636L577.163636 821.527273z m0-140.334546v-120.273454l242.036364-0.046546V523.636364l-242.036364 0.046545V449.163636h242.036364v-37.236363h-242.036364V337.454545h242.036364v-37.236363h-242.036364v-74.426182l242.036364-0.046545v-37.236364l-242.036364 0.046545v-103.144727h335.127273v595.781818h-335.127273zM512.325818 579.490909l-51.386182-4.096-55.342545-327.121454-53.015273 317.346909-49.989818-4.189091-54.272-297.937455-43.287273 289.140364-40.029091-3.584 60.555637-360.866909 46.964363-4.375273L325.352727 498.967273H325.818182l52.782545-324.701091 59.392-4.328727 74.379637 409.6z"  horiz-adv-x="1024" />

    
    <glyph glyph-name="format-pic" unicode="&#58985;" d="M376.040727 374.970182l-3.025454 2.048a23.272727 23.272727 0 0 1-29.323637-5.585455l-2.327272-3.490909-99.374546-179.013818L242.036364 123.345455a37.236364 37.236364 0 0 1 37.236363-37.236364h101.422546l69.492363 136.750545-67.397818 143.685819a23.272727 23.272727 0 0 1-6.749091 8.424727l-3.025454 2.048 3.025454-2.048z m252.695273 95.790545l-2.234182-3.584L432.872727 86.109091H837.818182a37.236364 37.236364 0 0 1 10.24 1.396364l-179.805091 379.112727a23.272727 23.272727 0 0 1-39.563636 4.142545zM702.557091 793.6H279.272727a37.236364 37.236364 0 0 1-37.236363-37.236364l-0.046546-471.505454 58.647273 105.658182a69.818182 69.818182 0 0 0 88.901818 30.161454l6.050909-2.978909a69.818182 69.818182 0 0 0 25.879273-24.948364l3.444364-6.423272 51.991272-110.824728 108.078546 212.712728a69.818182 69.818182 0 0 0 87.738182 33.419636l6.144-2.792727a69.818182 69.818182 0 0 0 28.392727-26.484364l3.072-5.818182 164.677818-347.182545V607.418182H781.963636a74.472727 74.472727 0 0 0-74.146909 67.677091L707.490909 681.890909l-0.046545 106.961455-4.887273 4.747636zM423.563636 711.354182a93.090909 93.090909 0 1 0 0-186.181818 93.090909 93.090909 0 0 0 0 186.181818z m0-46.545455a46.545455 46.545455 0 1 1 0-93.090909 46.545455 46.545455 0 0 1 0 93.090909zM204.753455 719.127273L204.8 756.363636A74.472727 74.472727 0 0 0 279.272727 830.836364h438.458182l194.56-189.765819V123.345455c0-18.199273-6.516364-34.909091-17.408-47.848728a22.760727 22.760727 0 0 0-7.214545-8.192l-2.792728-1.675636c-12.8-10.472727-29.184-16.756364-47.057454-16.756364h-37.282909l0.046545-37.236363a74.472727 74.472727 0 0 0-74.472727-74.472728h-558.545455A74.472727 74.472727 0 0 0 93.090909 11.636364V644.654545a74.472727 74.472727 0 0 0 74.472727 74.472728h37.189819z"  horiz-adv-x="1024" />

    
    <glyph glyph-name="format-video" unicode="&#58986;" d="M697.902545 784.290909H274.618182a37.236364 37.236364 0 0 1-37.236364-37.236364v-633.018181a37.236364 37.236364 0 0 1 37.236364-37.236364h558.545454a37.236364 37.236364 0 0 1 37.236364 37.236364l-0.046545 484.072727H777.309091a74.472727 74.472727 0 0 0-74.146909 67.677091L702.836364 672.581818V779.496727l-4.933819 4.794182zM553.890909 635.345455a223.418182 223.418182 0 1 0 0-446.836364 223.418182 223.418182 0 0 0 0 446.836364zM498.036364 523.636364v-223.418182l148.945454 111.709091L498.036364 523.636364zM200.145455 709.818182v37.236363a74.472727 74.472727 0 0 0 74.472727 74.472728h438.458182l194.56-189.765818V114.036364a74.472727 74.472727 0 0 0-74.472728-74.472728h-37.282909l0.046546-37.236363a74.472727 74.472727 0 0 0-74.472728-74.472728h-558.545454a74.472727 74.472727 0 0 0-74.472727 74.472728V635.345455A74.472727 74.472727 0 0 0 162.909091 709.818182h37.236364z"  horiz-adv-x="1024" />

    
    <glyph glyph-name="format-word" unicode="&#58987;" d="M577.163636 821.527273v-103.098182h372.363637v-670.254546h-372.363637V-72.145455L93.090909-5.957818V755.339636L577.163636 821.527273z m0-140.334546v-31.511272h37.236364v-111.709091h-37.236364v-29.789091h37.236364v-111.709091h-37.236364v-29.789091h37.236364v-111.709091h-37.236364v-29.789091h37.236364v-111.709091h-37.236364v-28.066909h335.127273v595.781818h-335.127273z m297.890909-456.005818v-111.709091H651.636364v111.709091h223.418181zM484.072727 580.887273l-69.306182-7.493818-92.020363-160.442182-84.48 141.405091L186.181818 548.770909l107.194182-186.88-106.216727-185.064727 52.130909-5.632 83.456 139.636363 90.856727-158.487272 69.213091-7.447273-129.582545 216.994909L484.072727 580.933818z m353.745455-392.983273h-148.945455v-37.236364H837.818182v37.236364z m37.236363 178.734545v-111.70909H651.636364v111.70909h223.418181z m-37.236363-37.236363h-148.945455v-37.236364H837.818182v37.236364z m37.236363 178.734545v-111.709091H651.636364v111.709091h223.418181z m-37.236363-37.236363h-148.945455v-37.236364H837.818182v37.236364z m37.236363 178.734545v-111.709091H651.636364v111.709091h223.418181z m-37.236363-37.236364h-148.945455v-37.236363H837.818182v37.236363z"  horiz-adv-x="1024" />

    
    <glyph glyph-name="icon-badsignal" unicode="&#58988;" d="M397.312 530.432a26.4704 26.4704 0 0 0 0-38.2464 150.016 150.016 0 0 1 0-216.3712 26.4704 26.4704 0 0 0 0-38.1952 28.3648 28.3648 0 0 0-39.2704 0 202.9056 202.9056 0 0 0 0 292.7616 28.3648 28.3648 0 0 0 39.2704 0z m268.6464 0a202.9056 202.9056 0 0 0 0-292.864 28.3648 28.3648 0 0 0-39.2704 0 26.4704 26.4704 0 0 0 0 38.2464 150.016 150.016 0 0 1 0 216.3712 26.4704 26.4704 0 0 0 0 38.1952 28.3648 28.3648 0 0 0 39.2704 0zM512 482.9696a102.4 102.4 0 1 0 0-204.8 102.4 102.4 0 0 0 0 204.8z"  horiz-adv-x="1024" />

    
    <glyph glyph-name="format-unknown" unicode="&#58989;" d="M702.557091 784.290909H279.272727a37.236364 37.236364 0 0 1-37.236363-37.236364v-633.018181a37.236364 37.236364 0 0 1 37.236363-37.236364h558.545455a37.236364 37.236364 0 0 1 37.236363 37.236364l-0.046545 484.072727H781.963636a74.472727 74.472727 0 0 0-74.146909 67.677091L707.490909 672.581818l-0.046545 106.961455-4.887273 4.747636zM537.134545 312.32c11.217455 0 20.945455-3.630545 28.625455-10.752a37.794909 37.794909 0 0 0 11.264-27.648c0-11.264-4.096-20.945455-11.776-28.113455a39.424 39.424 0 0 0-28.113455-10.752 39.842909 39.842909 0 0 0-28.16 11.264 35.886545 35.886545 0 0 0-11.264 27.601455c0 11.264 3.584 20.48 11.264 27.648a39.424 39.424 0 0 0 28.16 10.705455z m9.169455 295.098182c33.28 0 60.369455-8.704 80.849455-27.089455 20.48-17.92 30.673455-42.496 30.673454-73.681454 0-25.6-6.656-46.545455-18.944-62.882909-4.608-5.12-19.409455-18.944-43.985454-40.448-9.169455-7.633455-15.825455-16.337455-20.48-25.6-4.049455-8.145455-6.516364-16.663273-7.307637-26.018909l-0.325818-7.168v-7.168h-58.833455v7.168c0 19.409455 3.072 36.305455 10.24 50.129454 5.538909 11.496727 20.293818 28.346182 44.311273 50.781091l15.546182 14.149818 6.144 7.168c9.169455 11.264 13.777455 23.552 13.777455 36.305455 0 16.896-5.12 30.208-14.289455 39.889454-9.774545 9.774545-23.552 14.336-40.96 14.336-22.481455 0-38.353455-6.656-48.081455-20.945454-7.447273-10.100364-11.496727-23.924364-12.520727-41.239273l-0.232727-8.890182H423.563636c0 37.841455 10.705455 67.490909 33.233455 88.994909 22.016 21.457455 51.665455 32.209455 89.506909 32.209455zM204.8 709.818182l0.046545 37.236363A74.472727 74.472727 0 0 0 279.272727 821.527273h438.458182l194.56-189.765818V114.036364a74.472727 74.472727 0 0 0-74.472727-74.472728h-37.282909l0.046545-37.236363a74.472727 74.472727 0 0 0-74.472727-74.472728h-558.545455A74.472727 74.472727 0 0 0 93.090909 2.327273V635.345455A74.472727 74.472727 0 0 0 167.563636 709.818182h37.189819z"  horiz-adv-x="1024" />

    
    <glyph glyph-name="icon-blankpage" unicode="&#58990;" d="M664.758857 704.365714l163.401143-153.344v-431.762285a73.142857 73.142857 0 0 0-73.142857-73.142858h-475.428572a73.142857 73.142857 0 0 0-73.142857 73.142858v512a73.142857 73.142857 0 0 0 73.142857 73.142857h385.170286z m-17.371428-43.885714H279.588571a29.257143 29.257143 0 0 1-29.257142-29.257143v-512a29.257143 29.257143 0 0 1 29.257142-29.257143h475.428572a29.257143 29.257143 0 0 1 29.257143 29.257143V530.285714h-92.452572a36.571429 36.571429 0 0 0-36.315428 32.292572L655.250286 566.857143V653.165714l-7.862857 7.314286z m-112.018286-174.08v-97.828571h102.326857v-36.425143H535.405714v-98.084572h-38.253714V352.182857H394.971429v36.425143h102.144V486.4h38.253714z"  horiz-adv-x="1024" />

    
    <glyph glyph-name="format-txt" unicode="&#58991;" d="M702.557091 784.290909H279.272727a37.236364 37.236364 0 0 1-37.236363-37.236364v-633.018181a37.236364 37.236364 0 0 1 37.236363-37.236364h558.545455a37.236364 37.236364 0 0 1 37.236363 37.236364l-0.046545 484.072727H781.963636a74.472727 74.472727 0 0 0-74.146909 67.677091L707.490909 672.581818l-0.046545 106.961455-4.887273 4.747636z m-290.443636-235.240727v-52.177455h38.027636v-40.215272h-37.981091v-95.418182c0-7.168 1.396364-12.381091 4.189091-15.639273 2.978909-3.072 8.052364-4.561455 15.080727-4.561455l7.168 0.093091 4.654546 0.232728a15.313455 15.313455 0 0 1 1.396363 0.232727v-36.584727c-6.609455-2.420364-18.804364-3.630545-36.491636-3.630546s-30.301091 4.514909-37.841455 13.498182c-7.493818 8.936727-11.264 22.434909-11.264 40.494545V456.657455h-29.789091v40.215272h29.789091v52.130909h53.061819z m319.301818 0v-52.177455h37.981091v-40.215272h-37.981091v-95.418182c0-7.168 1.396364-12.381091 4.189091-15.639273 3.025455-3.072 8.052364-4.561455 15.080727-4.561455l7.168 0.093091 4.701091 0.232728a15.313455 15.313455 0 0 1 1.396363 0.232727v-36.584727c-6.656-2.420364-18.850909-3.630545-36.538181-3.630546s-30.301091 4.514909-37.841455 13.498182c-7.493818 8.936727-11.264 22.434909-11.264 40.494545V456.657455h-29.789091v40.215272h29.789091v52.130909h53.061818z m-214.388364-52.177455l7.912727-14.429091 14.987637-26.298181 11.124363-20.014546h0.372364l34.164364 60.741818h59.298909l-62.557091-92.020363 62.184727-100.910546H584.145455l-31.418182 59.624727-2.420364 5.12h-0.372364l-33.978181-64.744727H457.588364l60.043636 93.835637-59.671273 99.095272h59.112728zM204.8 709.818182l0.046545 37.236363A74.472727 74.472727 0 0 0 279.272727 821.527273h438.458182l194.56-189.765818V114.036364a74.472727 74.472727 0 0 0-74.472727-74.472728h-37.282909l0.046545-37.236363a74.472727 74.472727 0 0 0-74.472727-74.472728h-558.545455A74.472727 74.472727 0 0 0 93.090909 2.327273V635.345455A74.472727 74.472727 0 0 0 167.563636 709.818182h37.189819z"  horiz-adv-x="1024" />

    
    <glyph glyph-name="icon-backward" unicode="&#58992;" d="M641.097143 584.045714l-38.765714 38.765715L363.52 384l238.811429-238.811429 38.765714 38.765715L441.051429 384z"  horiz-adv-x="1024" />

    
    <glyph glyph-name="icon-cameraoff" unicode="&#58993;" d="M512 807.563636c85.271273 0 163.467636-30.161455 224.535273-80.384l48.965818 48.919273a27.927273 27.927273 0 0 0 42.728727-35.607273l-3.258182-3.863272-48.221091-48.221091A352.395636 352.395636 0 0 0 865.745455 453.818182a353.745455 353.745455 0 0 0-193.629091-315.531637l95.557818-96.768a55.854545 55.854545 0 0 0-34.071273-94.766545l-5.678545-0.325818H296.354909a55.854545 55.854545 0 0 0-43.799273 90.530909l4.002909 4.561454 95.418182 96.721455a354.443636 354.443636 0 0 0-74.565818 50.827636l-71.493818-71.493818a27.927273 27.927273 0 0 0-42.728727 35.607273l3.258181 3.863273 72.192 72.238545A353.745455 353.745455 0 0 0 512 807.563636z m0-707.490909a353.698909 353.698909 0 0 0-103.936 15.499637l-111.709091-113.291637h431.569455l-111.941819 113.338182A353.698909 353.698909 0 0 0 512 100.072727z m225.186909 548.770909l-49.896727-49.896727a227.514182 227.514182 0 0 0-320.418909-320.418909L316.974545 228.631273a297.890909 297.890909 0 0 1 420.212364 420.212363zM512 751.709091a297.890909 297.890909 0 0 1-233.658182-482.722909l50.269091 50.222545a227.514182 227.514182 0 0 0 317.998546 317.998546l50.222545 50.269091A296.634182 296.634182 0 0 1 512 751.709091z m135.586909-192.512l-44.962909-44.916364a108.916364 108.916364 0 0 0-151.086545-151.086545l-44.916364-44.962909a171.659636 171.659636 0 0 1 240.965818 240.965818z m-135.354182 66.094545A171.659636 171.659636 0 0 1 368.64 359.330909l45.940364 45.893818a108.916364 108.916364 0 0 0 145.92 145.92l45.893818 45.940364a170.868364 170.868364 0 0 1-94.208 28.16z"  horiz-adv-x="1024" />

    
    <glyph glyph-name="icon-commonsignal" unicode="&#58994;" d="M327.424 594.0224000000001a26.4704 26.4704 0 0 0 0-38.1952 238.1824 238.1824 0 0 1 0-343.6544 26.4704 26.4704 0 0 0 0-38.1952 28.3648 28.3648 0 0 0-39.2704 0 291.1232 291.1232 0 0 0 0 420.0448 28.3648 28.3648 0 0 0 39.2704 0z m408.4224 0a291.1232 291.1232 0 0 0 0-420.0448 28.3648 28.3648 0 0 0-39.2704 0 26.4704 26.4704 0 0 0 0 38.1952 238.1824 238.1824 0 0 1 0 343.6544 26.4704 26.4704 0 0 0 0 38.1952 28.3648 28.3648 0 0 0 39.2704 0zM397.312 530.432a26.4704 26.4704 0 0 0 0-38.1952 150.016 150.016 0 0 1 0-216.3712 26.4704 26.4704 0 0 0 0-38.1952 28.3648 28.3648 0 0 0-39.2704 0 202.9056 202.9056 0 0 0 0 292.7616 28.3648 28.3648 0 0 0 39.2704 0z m268.6464 0a202.9056 202.9056 0 0 0 0-292.7616 28.3648 28.3648 0 0 0-39.2704 0 26.4704 26.4704 0 0 0 0 38.1952 150.016 150.016 0 0 1 0 216.3712 26.4704 26.4704 0 0 0 0 38.1952 28.3648 28.3648 0 0 0 39.2704 0zM512 483.0208a102.4 102.4 0 1 0 0-204.8 102.4 102.4 0 0 0 0 204.8z"  horiz-adv-x="1024" />

    
    <glyph glyph-name="icon-camera" unicode="&#58995;" d="M512 807.563636a353.745455 353.745455 0 0 0 160.162909-669.230545l95.511273-96.814546a55.854545 55.854545 0 0 0-34.071273-94.766545l-5.678545-0.325818H296.354909a55.854545 55.854545 0 0 0-43.799273 90.530909l4.002909 4.561454 95.371637 96.768A353.745455 353.745455 0 0 0 512 807.563636z m104.029091-691.944727A353.698909 353.698909 0 0 0 512 100.072727a353.698909 353.698909 0 0 0-103.982545 15.546182l-111.662546-113.338182h431.569455l-111.895273 113.338182zM512 751.709091a297.890909 297.890909 0 1 1 0-595.781818 297.890909 297.890909 0 0 1 0 595.781818z m0.232727-70.562909a227.514182 227.514182 0 1 0 0-455.074909 227.514182 227.514182 0 0 0 0 455.074909z m0-55.854546a171.659636 171.659636 0 1 1 0-343.365818 171.659636 171.659636 0 0 1 0 343.365818z m0-62.836363a108.916364 108.916364 0 1 0 0-217.739637 108.916364 108.916364 0 0 0 0 217.739637z"  horiz-adv-x="1024" />

    
    <glyph glyph-name="icon-delete" unicode="&#58996;" d="M769.621333 554.624a25.6 25.6 0 0 0 23.893334-23.04v-4.138667l-26.837334-421.077333c-2.474667-38.741333-34.389333-68.906667-73.557333-71.978667l-6.613333-0.256H337.493333c-39.936 0-73.813333 28.117333-79.530666 65.877334l-0.682667 6.4-26.837333 421.034666a25.6 25.6 0 0 0 50.517333 7.381334l0.597333-4.138667 26.88-421.077333c0.725333-11.946667 10.88-22.058667 24.405334-23.936L337.493333 85.333333h349.013334c14.208 0 25.685333 8.96 28.501333 20.394667l0.554667 3.925333 26.88 421.034667a25.6 25.6 0 0 0 27.178666 23.893333z m-169.216-4.906667a25.6 25.6 0 0 0 24.661334-22.101333l0.213333-4.181333-10.581333-384a25.6 25.6 0 0 0-50.944-2.730667l-0.213334 4.138667 10.581334 384a25.6 25.6 0 0 0 26.282666 24.874666z m-182.357333 0a25.6 25.6 0 0 0 25.856-20.736l0.426667-4.138666 10.581333-384a25.6 25.6 0 0 0-50.730667-5.546667l-0.426666 4.138667-10.581334 384a25.6 25.6 0 0 0 24.874667 26.282666zM574.506667 742.4c24.021333 0 43.477333-19.626667 43.477333-43.946667l-0.042667-37.12H832a25.6 25.6 0 0 0 4.138667-50.858666L832 610.133333h-640a25.6 25.6 0 0 0-4.138667 50.858667L192 661.333333h205.141333v37.12c0 22.656 16.981333 41.301333 38.784 43.690667l4.693334 0.256z"  horiz-adv-x="1024" />

    
    <glyph glyph-name="icon-eraser" unicode="&#58997;" d="M256 58.514286h438.857143a21.942857 21.942857 0 0 0 3.547428-43.593143L694.857143 14.628571H256a21.942857 21.942857 0 0 0-3.547429 43.593143L256 58.514286h438.857143zM695.478857 730.441143l126.390857-126.390857a96.914286 96.914286 0 0 0 0-137.069715l-293.046857-293.083428a186.294857 186.294857 0 0 0-263.497143 0l-63.195428 63.195428a96.914286 96.914286 0 0 0 0 137.069715l356.278857 356.278857a96.914286 96.914286 0 0 0 137.069714 0z m-213.504-143.579429l-246.235428-246.308571a49.371429 49.371429 0 0 1 0-69.851429l63.195428-63.195428a138.752 138.752 0 0 1 196.242286 0l185.453714 185.526857-198.656 193.828571z m110.08 109.970286l-76.434286-76.361143 198.619429-193.828571 74.020571 73.947428a49.371429 49.371429 0 0 1 0 69.851429l-126.427428 126.390857a49.371429 49.371429 0 0 1-69.814857 0z"  horiz-adv-x="1024" />

    
    <glyph glyph-name="icon-chat" unicode="&#58998;" d="M803.913143 593.956571c70.948571-59.318857 107.081143-130.669714 107.081143-212.736 0-115.053714-79.616-213.723429-198.948572-257.792-1.609143-22.564571-1.974857-47.177143-1.024-73.874285l0.731429-16.237715 1.682286-32.109714-30.500572 10.093714c-54.052571 17.92-99.437714 44.873143-135.826286 80.932572l-8.923428 9.216-10.605714 1.389714c-30.902857 4.242286-53.430857 9.728-68.315429 16.859429a21.942857 21.942857 0 0 0 19.017143 39.570285c11.117714-5.339429 32.841143-10.24 64.256-14.153142l17.225143-1.938286 5.632-6.4c26.953143-30.646857 60.672-54.784 101.302857-72.411429-0.365714 22.308571 0.182857 43.227429 1.645714 62.866286l1.28 14.482286 1.462857 14.226285 13.568 4.388572c109.970286 35.84 182.491429 121.856 182.491429 220.891428 0 68.534857-30.025143 127.780571-91.428572 179.090286a21.942857 21.942857 0 1 0 28.16 33.645714zM398.957714 744.521143c182.601143 0 332.251429-121.6 332.251429-274.066286 0-141.129143-128.731429-257.024-294.765714-272.347428-37.851429-40.557714-86.125714-70.509714-144.493715-89.819429l-30.537143-10.130286 1.718858 32.109715c1.462857 27.538286 1.609143 53.028571 0.475428 76.397714l-0.841143 13.787428-9.984 3.84c-111.945143 45.092571-186.075429 139.410286-186.075428 246.125715 0 152.502857 149.650286 274.102857 332.251428 274.102857z m0-43.885714c-160.146286 0-288.365714-104.192-288.365714-230.180572 0-93.659429 71.387429-177.883429 179.565714-213.101714l13.604572-4.388572 1.462857-14.262857c1.938286-18.980571 2.925714-39.277714 3.035428-60.891428l-0.109714-16.457143 11.995429 5.485714a278.674286 278.674286 0 0 1 89.417143 66.925714l5.924571 6.765715 18.651429 1.462857c144.237714 14.006857 253.184 112.530286 253.184 228.461714 0 125.988571-128.219429 230.180571-288.365715 230.180572z m-166.765714-190.208a42.971429 42.971429 0 1 0 0-85.942858 42.971429 42.971429 0 0 0 0 85.942858z m171.849143 0a42.971429 42.971429 0 1 0 0-85.942858 42.971429 42.971429 0 0 0 0 85.942858z m171.885714 0a42.971429 42.971429 0 1 0 0-85.942858 42.971429 42.971429 0 0 0 0 85.942858z"  horiz-adv-x="1024" />

    
    <glyph glyph-name="icon-follow" unicode="&#58999;" d="M513.901714 750.336a25.6 25.6 0 0 0 25.6-25.6v-12.726857a329.216 329.216 0 0 0 300.653715-302.409143h14.445714a25.6 25.6 0 0 0 3.474286-50.980571l-3.474286-0.219429h-14.445714a329.216 329.216 0 0 0-300.690286-302.445714v-12.690286a25.6 25.6 0 0 0-50.944-3.474286l-0.219429 3.474286v12.434286A329.216 329.216 0 0 0 183.808 358.4h-10.678857a25.6 25.6 0 0 0-3.474286 50.980571l3.474286 0.219429h10.678857a329.216 329.216 0 0 0 304.420571 302.701714v12.434286a25.6 25.6 0 0 0 25.6 25.6zM227.84 409.6h68.461714a25.6 25.6 0 0 0 3.474286-50.980571l-3.474286-0.219429H227.876571a285.330286 285.330286 0 0 1 260.388572-258.669714v66.742857a25.6 25.6 0 0 0 50.980571 3.474286l0.256-3.474286v-66.413714a285.330286 285.330286 0 0 1 256.621715 258.340571H731.428571a25.6 25.6 0 0 0-3.474285 50.980571L731.428571 409.6h64.694858a285.330286 285.330286 0 0 1-256.658286 258.340571v-66.413714a25.6 25.6 0 0 0-51.2 0V668.269714a285.330286 285.330286 0 0 1-260.388572-258.669714zM512 457.142857a73.142857 73.142857 0 1 0 0-146.285714 73.142857 73.142857 0 0 0 0 146.285714z"  horiz-adv-x="1024" />

    
    <glyph glyph-name="icon-cloud" unicode="&#59000;" d="M736.731429 477.805714c80.896-10.971429 143.286857-81.773714 144.603428-167.826285l0.036572-17.298286c0-101.741714-78.994286-184.941714-177.956572-186.587429l-76.214857-0.036571-238.628571 0.548571H318.025143l-10.605714 0.329143c-91.172571 5.705143-163.291429 83.090286-164.754286 178.212572l-0.036572 4.827428c0 58.697143 26.953143 112.676571 71.204572 146.870857a136.630857 136.630857 0 0 0-6.253714 41.069715c0 73.325714 57.6 133.046857 129.097142 133.046857 14.555429 0 28.781714-2.486857 42.203429-7.277715 34.669714 58.038857 96.329143 94.829714 164.571429 94.829715 105.728 0 191.561143-87.625143 193.243428-196.498286l0.036572-24.210286zM627.236571 149.942857h75.629715c74.459429 1.28 134.619429 64.621714 134.619428 142.738286V307.2l-0.329143 9.398857c-4.315429 63.488-52.955429 113.993143-113.371428 118.491429l-9.179429 0.292571a21.942857 21.942857 0 0 0-21.76 21.942857v41.398857l-0.329143 10.459429C687.433143 590.628571 622.372571 654.628571 543.451429 654.628571c-58.075429 0-110.226286-34.852571-134.875429-88.649142a21.942857 21.942857 0 0 0-30.902857-9.874286c-12.434286 7.168-26.441143 10.971429-40.996572 10.971428-46.884571 0-85.211429-39.716571-85.211428-89.161142 0-14.006857 3.072-27.538286 8.923428-39.716572a21.942857 21.942857 0 0 0-8.265142-28.16c-40.301714-24.941714-65.609143-70.144-65.609143-119.954286v-4.498285c1.170286-74.24 58.697143-133.888 129.353143-135.094857h72.777142l238.592-0.548572z"  horiz-adv-x="1024" />

    
    <glyph glyph-name="icon-forward" unicode="&#59001;" d="M363.52 584.045714L402.285714 622.811429 641.097143 384 402.285714 145.188571l-38.765714 38.765715L563.492571 384z"  horiz-adv-x="1024" />

    
    <glyph glyph-name="icon-goodsignal" unicode="&#59002;" d="M258.3552 657.7152a26.4704 26.4704 0 0 0 0-38.1952 326.4 326.4 0 0 1 0-471.04 26.4704 26.4704 0 0 0 0-38.1952 28.3648 28.3648 0 0 0-39.2704 0 379.392 379.392 0 0 0 0 547.4304 28.3648 28.3648 0 0 0 39.2704 0z m546.56 0a379.392 379.392 0 0 0 0-547.4304 28.3648 28.3648 0 0 0-39.2704 0 26.4704 26.4704 0 0 0 0 38.1952 326.4 326.4 0 0 1 0 471.04 26.4704 26.4704 0 0 0 0 38.1952 28.3648 28.3648 0 0 0 39.2704 0zM327.424 594.0224000000001a26.4704 26.4704 0 0 0 0-38.1952 238.1824 238.1824 0 0 1 0-343.6544 26.4704 26.4704 0 0 0 0-38.1952 28.3648 28.3648 0 0 0-39.2704 0 291.1232 291.1232 0 0 0 0 420.0448 28.3648 28.3648 0 0 0 39.2704 0z m408.4224 0a291.1232 291.1232 0 0 0 0-420.0448 28.3648 28.3648 0 0 0-39.2704 0 26.4704 26.4704 0 0 0 0 38.1952 238.1824 238.1824 0 0 1 0 343.6544 26.4704 26.4704 0 0 0 0 38.1952 28.3648 28.3648 0 0 0 39.2704 0zM397.312 530.432a26.4704 26.4704 0 0 0 0-38.1952 150.016 150.016 0 0 1 0-216.3712 26.4704 26.4704 0 0 0 0-38.1952 28.3648 28.3648 0 0 0-39.2704 0 202.9056 202.9056 0 0 0 0 292.7616 28.3648 28.3648 0 0 0 39.2704 0z m268.6464 0a202.9056 202.9056 0 0 0 0-292.7616 28.3648 28.3648 0 0 0-39.2704 0 26.4704 26.4704 0 0 0 0 38.1952 150.016 150.016 0 0 1 0 216.3712 26.4704 26.4704 0 0 0 0 38.1952 28.3648 28.3648 0 0 0 39.2704 0zM512 483.0208a102.4 102.4 0 1 0 0-204.8 102.4 102.4 0 0 0 0 204.8z"  horiz-adv-x="1024" />

    
    <glyph glyph-name="icon-hand" unicode="&#59003;" d="M632.978286 742.656a70.217143 70.217143 0 0 0 68.059428-52.992c31.305143 16.64 59.867429 16.822857 84.004572-2.230857 24.758857-19.529143 30.829714-47.469714 20.626285-80.822857 13.787429-2.377143 25.782857-8.557714 35.547429-18.724572 28.818286-30.061714 26.697143-79.36-8.265143-116.150857 17.408-4.973714 31.268571-17.188571 37.522286-37.083428 12.361143-39.314286-1.206857-76.178286-37.522286-113.115429l-6.948571-6.802286-37.741715-34.852571-61.952-55.881143-159.634285-142.336a168.228571 168.228571 0 0 0-218.660572-4.059429l-6.473143 5.595429-115.090285 105.069714a166.765714 166.765714 0 0 0-43.446857 182.491429l3.108571 7.606857 115.053714 262.619429a70.582857 70.582857 0 0 0 82.395429 40.045714 63.597714 63.597714 0 0 0 46.774857-71.936l-1.133714-5.376-16.457143-64.365714a2.194286 2.194286 0 0 1 3.803428-1.974858 4282.148571 4282.148571 0 0 0 131.072 148.406858c13.458286 14.482286 25.856 27.062857 37.229715 37.814857a70.217143 70.217143 0 0 0 48.128 19.053714z m3.547428-44.105143l-3.547428 0.219429a26.331429 26.331429 0 0 1-18.066286-7.131429c-10.605714-9.984-22.308571-21.869714-35.108571-35.693714a4238.299429 4238.299429 0 0 1-129.718858-146.870857 46.08 46.08 0 0 0-80.859428 35.986285l1.024 5.12 16.457143 64.402286a19.712 19.712 0 0 1-14.153143 23.954286 26.697143 26.697143 0 0 1-29.366857-11.702857l-1.828572-3.437715-115.053714-262.656a122.88 122.88 0 0 1 24.356571-134.838857l5.376-5.193143 115.090286-105.069714a124.342857 124.342857 0 0 1 166.4-1.133714l188.891429 168.594286c27.428571 24.722286 47.652571 43.154286 60.635428 55.222857l14.628572 13.970285 5.266285 5.595429c21.723429 23.844571 27.977143 43.52 21.650286 63.634286-4.205714 13.385143-30.793143 13.677714-58.148571-10.020572a21.942857 21.942857 0 0 0-4.900572-3.254857l-2.669714-1.060571-19.126857-16.457143-32.329143-27.355429a21.942857 21.942857 0 0 0-28.233143 33.645715l29.805714 25.197714c43.410286 37.010286 72.996571 63.817143 88.429715 80.018286 19.126857 20.114286 20.077714 42.788571 8.118857 55.259428-5.449143 5.668571-13.860571 7.826286-27.318857 5.412572l-143.872-138.532572a21.942857 21.942857 0 0 0-33.024 28.598857l2.56 2.998857L753.737143 596.48l1.938286 3.510857c14.518857 28.050286 13.750857 43.885714 2.194285 52.992-10.313143 8.118857-25.234286 6.546286-47.213714-8.630857a22.125714 22.125714 0 0 0-2.998857-6.948571l-2.413714-3.072-132.242286-140.507429a21.942857 21.942857 0 0 0-34.413714 26.953143l2.450285 3.108571 118.235429 125.659429v22.893714a26.331429 26.331429 0 0 1-22.747429 26.112z"  horiz-adv-x="1024" />

    
    <glyph glyph-name="icon-messageoff" unicode="&#59004;" d="M319.104 153.13066700000002l-97.152-100.266667a25.6 25.6 0 0 0-39.68 32.042667l2.901333 3.626666 84.309334 87.04-0.298667 0.170667 37.205333 38.485333 0.384-0.170666 164.48 169.728a42.666667 42.666667 0 0 0 53.674667 55.466666l155.477333 160.426667-1.28 0.512 37.802667 39.168 1.28-0.597333 76.373333 78.762666a25.6 25.6 0 0 0 32.597334 3.498667l3.584-2.901333a25.6 25.6 0 0 0 3.456-32.597334l-2.901334-3.584-66.816-68.992c79.061333-51.285333 129.066667-125.824 129.066667-210.005333 0-144.853333-148.693333-262.442667-341.077333-280.106667-38.698667-46.933333-89.173333-81.322667-150.954667-103.168l-35.968-12.714666 1.877333 38.144c1.365333 27.050667 1.621333 52.224 0.725334 75.52l-0.853334 17.066666-12.202666 3.413334c-12.373333 3.584-24.362667 7.594667-36.010667 12.032l-97.152-100.266667 97.152 100.266667z m409.002667 422.272l-174.549334-180.181334-0.085333-1.28a42.666667 42.666667 0 0 0-37.418667-37.418666l-157.738666-162.901334c12.416-3.968 25.301333-7.466667 38.570666-10.410666l18.133334-4.053334 1.792-18.474666c1.834667-19.2 2.858667-39.68 3.029333-61.44v-16.554667l13.098667 6.826667a272.469333 272.469333 0 0 1 86.101333 73.514666l7.04 9.130667 23.253333 1.792c167.936 15.957333 293.034667 115.114667 293.034667 228.992 0 67.712-43.946667 129.706667-114.261333 172.458667z m-225.877334 109.952c44.032 0 86.442667-5.205333 126.037334-14.890667l-41.941334-43.477333c-26.88 4.693333-55.04 7.168-84.053333 7.168-189.44 0-340.138667-105.813333-340.138667-231.210667 0-52.053333 26.197333-101.461333 71.424-141.226667l-35.584-36.864c-54.656 48.64-87.04 110.677333-87.04 178.090667 0 158.293333 176.725333 282.453333 391.296 282.453333z m-161.664-243.84a42.666667 42.666667 0 1 0 0-85.290667 42.666667 42.666667 0 0 0 0 85.333333z m341.12 0a42.666667 42.666667 0 1 0 0-85.290667 42.666667 42.666667 0 0 0 0 85.333333z"  horiz-adv-x="1024" />

    
    <glyph glyph-name="icon-max" unicode="&#59005;" d="M748.982857 270.628571h43.885714v-167.497142H625.371429v43.885714h123.611428V270.628571z m-518.948571 0.329143h43.885714v-123.611428h123.648v-43.885715h-167.497143v167.497143z m395.337143 398.628572h167.497142v-167.497143h-43.885714v123.611428H625.371429v43.885715z m-391.314286-3.949715h175.469714v-43.885714H277.906286v-131.620571H234.057143V665.636571z"  horiz-adv-x="1024" />

    
    <glyph glyph-name="icon-messageon" unicode="&#59006;" d="M512 719.488c214.613333 0 391.296-124.117333 391.296-282.410667 0-144.853333-148.693333-262.442667-341.034667-280.106666-38.698667-46.933333-89.173333-81.322667-150.954666-103.168l-36.010667-12.714667 1.92 38.144c1.365333 27.050667 1.578667 52.224 0.682667 75.52l-0.853334 17.066667-12.16 3.413333c-144.725333 42.026667-244.181333 143.658667-244.181333 261.845333 0 158.293333 176.725333 282.453333 391.296 282.453334z m0-51.2c-189.397333 0-340.096-105.813333-340.096-231.210667 0-98.986667 94.805333-188.544 234.752-219.733333l18.133333-4.053333 1.792-18.474667c1.834667-19.2 2.858667-39.68 3.029334-61.44v-16.554667l13.098666 6.826667a272.469333 272.469333 0 0 1 86.101334 73.514667l6.997333 9.130666 23.296 1.792c167.936 15.957333 292.992 115.114667 292.992 228.992 0 125.354667-150.698667 231.253333-340.096 231.253334zM350.293333 475.648a42.666667 42.666667 0 1 0 0-85.290667 42.666667 42.666667 0 0 0 0 85.333334z m170.581334 0a42.666667 42.666667 0 1 0 0-85.290667 42.666667 42.666667 0 0 0 0 85.333334z m170.581333 0a42.666667 42.666667 0 1 0 0-85.290667 42.666667 42.666667 0 0 0 0 85.333334z"  horiz-adv-x="1024" />

    
    <glyph glyph-name="icon-microphone" unicode="&#59007;" d="M509.672727 830.836364a174.545455 174.545455 0 0 0 174.545455-174.545455v-139.589818h69.771636l0.046546 33.047273a27.927273 27.927273 0 0 0 55.482181 4.514909l0.372364-4.514909v-33.047273l55.854546-0.046546a27.927273 27.927273 0 0 0 27.554909-23.412363l0.372363-4.514909a27.927273 27.927273 0 0 0-23.412363-27.554909l-4.514909-0.372364-55.854546 0.046545v-83.54909a300.218182 300.218182 0 0 0-272.244364-298.91491l-0.046545-64.418909h118.690909a27.927273 27.927273 0 0 0 27.554909-23.412363l0.372364-4.514909a27.927273 27.927273 0 0 0-23.412364-27.554909l-4.514909-0.372364H363.054545a27.927273 27.927273 0 0 0-4.514909 55.482182l4.514909 0.372363h118.69091v64.418909a300.264727 300.264727 0 0 0-272.104728 288.116364l-0.186182 10.798546-0.046545 83.54909L153.6 460.8a27.927273 27.927273 0 0 0-27.554909 23.412364L125.672727 488.727273a27.927273 27.927273 0 0 0 23.412364 27.554909L153.6 516.654545l55.808 0.046546 0.046545 33.047273a27.927273 27.927273 0 0 0 55.482182 4.514909l0.372364-4.514909-0.046546-33.047273H335.127273V656.290909a174.545455 174.545455 0 0 0 174.545454 174.545455zM335.127273 460.846545H265.262545l0.046546-83.54909a244.363636 244.363636 0 0 1 488.541091-10.053819l0.186182 10.053819-0.046546 83.54909H684.218182v-97.792a174.545455 174.545455 0 0 0-349.090909 0V460.846545zM509.672727 774.981818A118.690909 118.690909 0 0 1 390.981818 656.290909v-293.236364a118.690909 118.690909 0 0 1 237.381818 0v293.236364a118.690909 118.690909 0 0 1-118.690909 118.690909z"  horiz-adv-x="1024" />

    
    <glyph glyph-name="icon-microphoneoff" unicode="&#59008;" d="M509.672727 830.836364a174.545455 174.545455 0 0 0 174.545455-174.545455v-27.927273l101.282909 101.189819a27.927273 27.927273 0 0 0 35.607273 3.258181l3.863272-3.258181a27.927273 27.927273 0 0 0 3.258182-35.607273l-3.258182-3.863273L684.218182 549.329455v-32.628364h69.818182v33.047273a27.927273 27.927273 0 0 0 55.482181 4.514909l0.372364-4.514909v-33.047273l55.854546-0.046546a27.927273 27.927273 0 0 0 27.554909-23.412363l0.372363-4.514909a27.927273 27.927273 0 0 0-23.412363-27.554909l-4.514909-0.372364-55.854546 0.046545v-83.54909a300.218182 300.218182 0 0 0-272.244364-298.91491l-0.046545-64.418909h118.690909a27.927273 27.927273 0 0 0 27.554909-23.412363l0.372364-4.514909a27.927273 27.927273 0 0 0-23.412364-27.554909l-4.514909-0.372364H363.054545a27.927273 27.927273 0 0 0-4.514909 55.482182l4.514909 0.372363h118.69091v64.418909a299.287273 299.287273 0 0 0-183.063273 85.364364l-92.765091-92.718545a27.927273 27.927273 0 0 0-42.728727 35.607272l3.258181 3.863273 96.116364 96.256a298.682182 298.682182 0 0 0-52.922182 159.790546l-0.186182 10.752V460.846545l-55.854545-0.046545a27.927273 27.927273 0 0 0-27.554909 23.412364L125.672727 488.727273a27.927273 27.927273 0 0 0 23.412364 27.554909L153.6 516.654545l55.854545 0.046546v33.047273a27.927273 27.927273 0 0 0 55.482182 4.514909l0.372364-4.514909v-33.047273h69.818182V656.290909a174.545455 174.545455 0 0 0 174.545454 174.545455z m244.363637-369.989819h-69.818182v-97.792a174.545455 174.545455 0 0 0-303.662546-117.434181l-42.356363-42.356364a244.363636 244.363636 0 0 1 415.650909 163.979636l0.186182 10.053819V460.846545z m-125.672728 32.628364l-208.244363-208.290909A118.690909 118.690909 0 0 1 628.363636 363.054545V493.474909z m-293.236363-32.628364H265.309091v-83.54909c0-47.895273 13.777455-92.578909 37.562182-130.280728l46.638545 46.592A173.986909 173.986909 0 0 0 335.127273 363.054545V460.846545zM509.672727 774.981818A118.690909 118.690909 0 0 1 390.981818 656.290909v-293.236364c0-8.657455 0.930909-17.128727 2.699637-25.274181L628.363636 572.509091v83.781818a118.690909 118.690909 0 0 1-118.690909 118.690909z"  horiz-adv-x="1024" />

    
    <glyph glyph-name="icon-more" unicode="&#59011;" d="M1024 896v-1024H0z"  horiz-adv-x="1024" />

    
    <glyph glyph-name="icon-more2" unicode="&#59012;" d="M274.816 444.224a64 64 0 1 0 0-128 64 64 0 0 0 0 128z m256 0a64 64 0 1 0 0-128 64 64 0 0 0 0 128z m256 0a64 64 0 1 0 0-128 64 64 0 0 0 0 128z"  horiz-adv-x="1024" />

    
    <glyph glyph-name="icon-pen" unicode="&#59013;" d="M826.733714 756.955429l73.874286-73.874286a95.085714 95.085714 0 0 0 0-134.473143l-50.285714-50.395429a21.869714 21.869714 0 0 0-12.288-12.251428L448.036571 95.926857a21.869714 21.869714 0 0 0-12.544-12.361143l1.097143 0.987429a21.942857 21.942857 0 0 0-11.373714-6.034286l-167.497143-32.073143-39.460571-24.246857a36.571429 36.571429 0 0 0-50.468572 50.029714l20.918857 34.742858 33.499429 174.555428a21.942857 21.942857 0 0 0 6.034286 11.410286L692.297143 756.955429a95.085714 95.085714 0 0 0 134.436571 0zM258.998857 240.457143l-27.574857-143.798857 9.069714-8.813715 144.457143 27.684572-125.952 124.928zM650.605714 653.275429L279.405714 282.038857l146.834286-145.700571L797.513143 507.611429 650.605714 653.275429z m42.971429-105.581715a21.942857 21.942857 0 0 0 2.56-27.977143l-2.523429-3.035428-275.456-276.187429a21.942857 21.942857 0 0 0-33.609143 27.977143l2.56 3.035429 275.456 276.150857a21.942857 21.942857 0 0 0 31.012572 0.036571z m29.732571 178.249143L681.691429 684.324571l146.870857-145.700571 41.069714 41.033143a51.2 51.2 0 0 1 0 72.411428l-73.874286 73.874286a51.2 51.2 0 0 1-72.411428 0z"  horiz-adv-x="1024" />

    
    <glyph glyph-name="icon-exit" unicode="&#59014;" d="M618.666667 708.266667A68.266667 68.266667 0 0 0 686.933333 640v-85.333333a25.6 25.6 0 0 0-51.2 0V640a17.066667 17.066667 0 0 1-17.066666 17.066667h-384a17.066667 17.066667 0 0 1-17.066667-17.066667v-512c0-9.386667 7.68-17.066667 17.066667-17.066667h384a17.066667 17.066667 0 0 1 17.066666 17.066667v85.333333a25.6 25.6 0 0 0 51.2 0v-85.333333a68.266667 68.266667 0 0 0-68.266666-68.266667h-384A68.266667 68.266667 0 0 0 166.4 128V640a68.266667 68.266667 0 0 0 68.266667 68.266667h384z m145.066666-209.664l2.986667 3.541333a25.6 25.6 0 0 0 32.64 2.986667l3.541333-2.986667 69.888-69.888a68.266667 68.266667 0 0 0 4.437334-91.648l-4.437334-4.864-69.888-69.888a25.6 25.6 0 0 0-39.168 32.64l2.986667 3.541333 56.32 56.405334-332.373333-0.042667a25.6 25.6 0 0 0-4.138667 50.858667l4.138667 0.341333 332.330666 0.042667-56.32 56.32a25.6 25.6 0 0 0-2.944 32.64l2.986667 3.541333-2.986667-3.541333z"  horiz-adv-x="1024" />

    
    <glyph glyph-name="icon-min" unicode="&#59015;" d="M653.019429 234.422857h167.533714v-43.885714h-123.611429v-123.648h-43.885714v167.497143z m-449.718858 0h167.533715v-167.533714h-43.885715v123.611428H203.337143v43.885715zM653.019429 694.857143h43.885714v-123.611429h123.648v-43.885714h-167.497143V694.857143z m-318.098286 0h43.885714v-175.469714H203.300571v43.885714h131.620572V694.857143z"  horiz-adv-x="1024" />

    
    <glyph glyph-name="icon-record" unicode="&#59016;" d="M729.6 170.666667a68.266667 68.266667 0 0 0-68.266667-68.266667h-469.333333A68.266667 68.266667 0 0 0 123.733333 170.666667V597.333333a68.266667 68.266667 0 0 0 68.266667 68.266667h469.333333A68.266667 68.266667 0 0 0 729.6 597.333333v-91.733333l94.421333 75.477333a46.933333 46.933333 0 0 0 76.245334-36.693333v-320.810667a46.933333 46.933333 0 0 0-76.245334-36.650666l-94.421333 75.52V170.666667z m-9.6 261.632a25.6 25.6 0 0 0-41.6 20.010666V597.333333a17.066667 17.066667 0 0 1-17.066667 17.066667h-469.333333a17.066667 17.066667 0 0 1-17.066667-17.066667v-426.666666c0-9.386667 7.68-17.066667 17.066667-17.066667h469.333333a17.066667 17.066667 0 0 1 17.066667 17.066667v145.066666a25.6 25.6 0 0 0 41.6 20.010667l129.066667-103.253333V535.509333l-129.066667-103.253333z"  horiz-adv-x="1024" />

    
    <glyph glyph-name="icon-select" unicode="&#59017;" d="M287.744 667.282286a40.228571 40.228571 0 0 0 62.500571 35.693714l505.929143-337.371429a40.228571 40.228571 0 0 0-17.188571-73.398857l-263.314286-34.011428a51.2 51.2 0 0 1-34.742857-20.48l-146.834286-200.192a40.228571 40.228571 0 0 0-72.009143 16.493714l-0.585142 5.12-33.755429 608.146286z m217.819429-403.602286a95.085714 95.085714 0 0 0 64.512 38.034286l253.622857 32.768L331.995429 662.418286l32.731428-590.701715 140.836572 191.963429z"  horiz-adv-x="1024" />

    
    <glyph glyph-name="icon-set" unicode="&#59018;" d="M576 752.384l223.018667-128.768a128 128 0 0 0 64-110.848v-257.536a128 128 0 0 0-64-110.848L576 15.616a128 128 0 0 0-128 0l-223.018667 128.768a128 128 0 0 0-64 110.848V512.768a128 128 0 0 0 64 110.848L448 752.384a128 128 0 0 0 128 0z m-102.4-44.373333L250.581333 579.328a76.8 76.8 0 0 1-38.4-66.56v-257.493333a76.8 76.8 0 0 1 38.4-66.517334l223.018667-128.768a76.8 76.8 0 0 1 76.8 0l223.018667 128.768a76.8 76.8 0 0 1 38.4 66.56V512.725333a76.8 76.8 0 0 1-38.4 66.517334L550.4 708.053333l-6.613333 3.413334a76.8 76.8 0 0 1-70.186667-3.413334zM512 537.6a153.6 153.6 0 1 0 0-307.2 153.6 153.6 0 0 0 0 307.2z m0-51.2a102.4 102.4 0 1 1 0-204.8 102.4 102.4 0 0 1 0 204.8z"  horiz-adv-x="1024" />

    
    <glyph glyph-name="icon-sharescreen" unicode="&#59019;" d="M682.666667 68.266667a25.6 25.6 0 0 0 0-51.2H341.333333a25.6 25.6 0 0 0 0 51.2zM768 682.666667a85.333333 85.333333 0 0 0 85.333333-85.333334v-341.333333a85.333333 85.333333 0 0 0-85.333333-85.333333H256a85.333333 85.333333 0 0 0-85.333333 85.333333V597.333333a85.333333 85.333333 0 0 0 85.333333 85.333334h512z m-217.557333-140.928a25.6 25.6 0 0 1-2.944-32.682667l2.986666-3.541333 49.152-49.066667-1.152 0.042667L469.333333 456.533333l-9.813333-0.256c-61.226667-3.242667-109.013333-37.12-140.928-98.944a25.6 25.6 0 1 1 45.482667-23.466666c23.68 45.824 55.338667 68.693333 97.28 71.253333L469.333333 405.333333h128l2.261334 0.170667-49.152-49.152-2.944-3.541333a25.6 25.6 0 0 1 35.626666-35.626667l3.541334 2.986667 77.610666 77.568 3.626667 4.096a46.933333 46.933333 0 0 1 0 58.197333l-3.626667 4.096-77.653333 77.610667-3.498667 2.986666a25.6 25.6 0 0 1-32.682666-2.986666z m72.32-108.544l2.304-2.261334-2.218667-2.304 0.042667 1.152 0.042666 1.152-0.170666 2.261334z"  horiz-adv-x="1024" />

    
    <glyph glyph-name="icon-star" unicode="&#59020;" d="M299.287273 27.275636a27.927273 27.927273 0 0 0-40.494546 29.463273l40.587637 236.823273-172.078546 167.749818a27.927273 27.927273 0 0 0 15.499637 47.662545l237.800727 34.536728 106.356363 215.505454a27.927273 27.927273 0 0 0 50.08291 0l106.356363-215.505454 237.847273-34.536728a27.927273 27.927273 0 0 0 15.453091-47.662545l-172.078546-167.749818 40.634182-236.823273a27.927273 27.927273 0 0 0-40.541091-29.463273L512 139.170909l-212.712727-111.848727z m199.68 168.122182a27.927273 27.927273 0 0 0 26.065454 0l175.569455-92.346182-33.512727 195.584a27.927273 27.927273 0 0 0 8.005818 24.669091l142.103272 138.519273-196.375272 28.532364a27.927273 27.927273 0 0 0-20.992 15.266909L512 683.566545 424.168727 505.623273a27.927273 27.927273 0 0 0-20.992-15.266909l-196.375272-28.532364 142.103272-138.472727a27.927273 27.927273 0 0 0 8.005818-24.715637l-33.512727-195.584 175.616 92.346182z"  horiz-adv-x="1024" />

    
    <glyph glyph-name="icon-speaker" unicode="&#59021;" d="M468.386909 729.925818a51.2 51.2 0 0 0 50.874182-45.614545l0.279273-5.585455v-586.752a51.2 51.2 0 0 0-79.127273-42.961454l-4.747636 3.584-152.203637 126.417454H119.342545a27.927273 27.927273 0 0 0-27.601454 23.365818l-0.325818 4.561455V566.365091a27.927273 27.927273 0 0 0 23.365818 27.554909l4.561454 0.372364h166.632728L435.758545 718.196364a51.2 51.2 0 0 0 32.628364 11.729454z m250.135273-12.474182a462.661818 462.661818 0 0 0 139.217454-331.776 462.708364 462.708364 0 0 0-139.217454-331.822545 27.927273 27.927273 0 0 0-39.191273 39.796364 406.853818 406.853818 0 0 1 122.554182 292.026181 406.807273 406.807273 0 0 1-122.554182 291.979637 27.927273 27.927273 0 1 0 39.191273 39.796363zM463.732364 668.858182l-149.876364-123.997091a27.927273 27.927273 0 0 0-13.032727-6.050909l-4.794182-0.372364H147.176727v-303.569454h146.385455a27.927273 27.927273 0 0 0 13.870545-3.723637l4.002909-2.746182 152.296728-126.510545V668.811636z m115.386181-58.973091a27.927273 27.927273 0 0 0 39.470546 0.325818 314.647273 314.647273 0 0 0 0-449.070545 27.927273 27.927273 0 1 0-39.191273 39.749818 258.792727 258.792727 0 0 1 0 369.524363 27.927273 27.927273 0 0 0-0.279273 39.470546z"  horiz-adv-x="1024" />

    
    <glyph glyph-name="icon-star1" unicode="&#59022;" d="M512 199.111111l-217.315556-114.289778 41.528889 242.062223-175.900444 171.406222 243.029333 35.271111L512 753.777778l108.657778-220.16 243.029333-35.328-175.843555-171.406222 41.528888-242.062223z"  horiz-adv-x="1024" />

    
    <glyph glyph-name="icon-tools" unicode="&#59024;" d="M585.142857 735.085714a95.085714 95.085714 0 0 0 94.902857-89.088L680.228571 640v-36.534857L736.182857 603.428571a73.142857 73.142857 0 0 0 72.996572-68.205714l24.064-356.827428a109.714286 109.714286 0 0 0-109.458286-117.101715H300.214857a109.714286 109.714286 0 0 0-109.714286 109.714286l0.073143 3.693714 24.246857 360.521143A73.142857 73.142857 0 0 0 287.817143 603.428571l55.954286 0.036572V640a95.085714 95.085714 0 0 0 89.088 94.902857L438.857143 735.085714h146.285714z m188.086857-319.232H680.228571L680.228571 384a58.514286 58.514286 0 0 0-53.174857-58.258286L621.714286 325.485714h-219.428572a58.514286 58.514286 0 0 0-58.258285 53.174857L343.771429 384v31.853714H250.697143l-16.201143-240.384-0.146286-4.461714a65.828571 65.828571 0 0 1 65.828572-65.828571h423.570285l4.425143 0.182857a65.828571 65.828571 0 0 1 61.257143 70.107428l-16.237714 240.384z m-136.923428 0h-248.685715L387.657143 384a14.628571 14.628571 0 0 1 11.702857-14.336l2.925714-0.292571h219.428572a14.628571 14.628571 0 0 1 14.336 11.702857L636.342857 384v31.853714z m-292.571429 143.725715L287.817143 559.542857a29.257143 29.257143 0 0 1-29.184-27.282286l-4.900572-72.521142h516.571429l-4.864 72.521142a29.257143 29.257143 0 0 1-29.220571 27.282286l-55.954286 0.036572v-40.045715a21.942857 21.942857 0 0 0-18.395429-21.650285l-3.547428-0.292572a21.942857 21.942857 0 0 0-21.650286 18.395429l-0.292571 3.547428V559.542857h-248.685715v-40.045714a21.942857 21.942857 0 0 0-18.395428-21.650286l-3.547429-0.292571a21.942857 21.942857 0 0 0-21.650286 18.395428l-0.292571 3.547429V559.542857zM585.142857 691.2h-146.285714a51.2 51.2 0 0 1-50.980572-46.262857L387.657143 640v-36.534857h248.685714V640a51.2 51.2 0 0 1-46.262857 50.980571L585.142857 691.2z"  horiz-adv-x="1024" />

    
    <glyph glyph-name="icon-whiteboard" unicode="&#59025;" d="M837.818182 759.808c46.545455 0 84.666182-35.886545 88.157091-81.501091l0.279272-6.935273v-521.867636a88.436364 88.436364 0 0 0-81.547636-88.203636l-6.888727-0.232728h-7.307637V11.636363999999958a79.127273 79.127273 0 0 0-79.127272-79.127273h-27.601455a79.127273 79.127273 0 0 0-79.127273 79.127273l-0.046545 26.205091H258.234182a23.272727 23.272727 0 0 0-23.272727 23.272727V116.82909099999995a23.272727 23.272727 0 0 0 23.272727 23.272727h386.373818l0.046545 166.446546c0 8.238545 1.303273 16.430545 3.816728 24.203636l2.932363 7.726545 12.567273 27.601455 7.168 14.987636 6.330182 12.288c4.189091 7.726545 7.912727 13.963636 11.729454 19.176728 3.118545 4.282182 6.376727 8.098909 10.426182 11.776a55.389091 55.389091 0 0 0 39.424 15.499636c17.873455 0 30.068364-6.702545 40.215273-16.197818 4.142545-3.909818 7.354182-7.912727 10.426182-12.334546 3.723636-5.399273 7.261091-11.729455 11.170909-19.549091l9.076364-19.688727 7.028363-16.430545 7.912727-19.223273a79.127273 79.127273 0 0 0 5.678546-29.509818l-0.046546-189.998546H837.818182a32.581818 32.581818 0 0 1 32.302545 28.16l0.279273 4.421819V671.371636a32.581818 32.581818 0 0 1-28.16 32.302546L837.818182 703.953455H167.563636a32.581818 32.581818 0 0 1-32.302545-28.16l-0.279273-4.421819v-521.867636a32.581818 32.581818 0 0 1 28.16-32.302545l4.421818-0.279273h36.770909v-55.854546H167.563636a88.436364 88.436364 0 0 0-88.157091 81.501091l-0.279272 6.935273V671.371636a88.436364 88.436364 0 0 0 81.547636 88.157091l6.888727 0.279273H837.818182z m-63.162182-527.36H700.509091V11.636363999999958a23.272727 23.272727 0 0 1 23.272727-23.272728h27.648a23.272727 23.272727 0 0 1 23.272727 23.272728l-0.046545 220.811636zM475.042909 533.410909c47.290182 46.173091 117.992727 49.664 208.058182 14.894546a27.927273 27.927273 0 0 0-20.107636-52.13091c-71.819636 27.741091-120.180364 25.367273-148.945455-2.746181-19.642182-19.130182-28.578909-43.101091-31.185455-77.963637l-1.210181-20.805818c-3.444364-43.473455-17.314909-78.429091-47.569455-107.985454-48.128-46.917818-116.596364-56.459636-201.588364-30.952728a27.927273 27.927273 0 0 0 16.058182 53.527273c67.165091-20.200727 114.734545-13.591273 146.525091 17.408 19.269818 18.850909 28.299636 41.192727 30.859637 71.819636l1.256727 21.504c3.584 47.197091 16.989091 83.316364 47.848727 113.431273zM739.048727 384c-3.444364 0-11.915636-14.522182-25.460363-43.566545l-11.077819-24.48291a23.365818 23.365818 0 0 1-2.001454-9.448727v-18.199273h74.146909v18.618182a23.272727 23.272727 0 0 1-1.629091 8.704l-6.981818 16.989091-6.190546 14.615273c-10.705455 24.529455-17.640727 36.770909-20.805818 36.770909zM315.392 650.658909a27.927273 27.927273 0 0 0 2.606545-35.700364l-3.304727-3.770181-89.367273-86.109091a27.927273 27.927273 0 0 0-42.030545 36.352l3.258182 3.816727 89.367273 86.109091a27.927273 27.927273 0 0 0 39.470545-0.698182z"  horiz-adv-x="1024" />

    
    <glyph glyph-name="icon-zoomout" unicode="&#59027;" d="M329.142857 420.571429h365.714286v-58.514286H329.142857z"  horiz-adv-x="1024" />

    
    <glyph glyph-name="icon-zoomin" unicode="&#59028;" d="M541.622857 413.476571H731.428571v-58.953142h-189.805714V164.57142899999997h-59.245714v189.952H292.571429v58.953142h189.805714V603.4285709999999h59.245714z"  horiz-adv-x="1024" />

    


  </font>
</defs>
</svg>
