<svg xmlns="http://www.w3.org/2000/svg" width="392.62" height="174" viewBox="0 0 392.62 174">
  <defs>
    <style>
      .cls-1 {
        fill: #f4cc4f;
        fill-rule: evenodd;
      }
    </style>
  </defs>
  <path id="矩形_539_拷贝_13" data-name="矩形 539 拷贝 13" class="cls-1" d="M2271,1917h3l-92.62,174h-3Zm6,0h3l-92.62,174h-3Zm6,0h3l-92.62,174h-3Zm5,0h3l-92.62,174h-3Zm6,0h3l-92.62,174h-3Zm5,0h3l-92.62,174h-3Zm6,0h3l-92.62,174h-3Zm6,0h3l-92.62,174h-3Zm5,0h3l-92.62,174h-3Zm6,0h3l-92.62,174h-3Zm6,0h3l-92.62,174h-3Zm5,0h3l-92.62,174h-3Zm6,0h3l-92.62,174h-3Zm5,0h3l-92.62,174h-3Zm6,0h3l-92.62,174h-3Zm6,0h3l-92.62,174h-3Zm5,0h3l-92.62,174h-3Zm6,0h3l-92.62,174h-3Zm6,0h3l-92.62,174h-3Zm5,0h3l-92.62,174h-3Zm6,0h3l-92.62,174h-3Zm5,0h3l-92.62,174h-3Zm6,0h3l-92.62,174h-3Zm6,0h3l-92.62,174h-3Zm6,0h3l-92.62,174h-3Zm5,0h3l-92.62,174h-3Zm6,0h3l-92.62,174h-3Zm5,0h3l-92.62,174h-3Zm6,0h3l-92.62,174h-3Zm6,0h3l-92.62,174h-3Zm5,0h3l-92.62,174h-3Zm6,0h3l-92.62,174h-3Zm6,0h3l-92.62,174h-3Zm5,0h3l-92.62,174h-3Zm6,0h3l-92.62,174h-3Zm5,0h3l-92.62,174h-3Zm6,0h3l-92.62,174h-3Zm-243,0h3l-92.62,174h-3Zm6,0h3l-92.62,174h-3Zm6,0h3l-92.62,174h-3Zm5,0h3l-92.62,174h-3Zm6,0h3l-92.62,174h-3Zm5,0h3l-92.62,174h-3Zm6,0h3l-92.62,174h-3Zm-46,0h3l-92.62,174h-3Zm6,0h3l-92.62,174h-3Zm-12,0h3l-92.62,174h-3Zm-12,0h3l-92.62,174h-3Zm6,0h3l-92.62,174h-3Zm-12,0h3l-92.62,174h-3Zm-12,0h3l-92.62,174h-3Zm6,0h3l-92.62,174h-3Zm-12,0h3l-92.62,174h-3Z" transform="translate(-2084.38 -1917)"/>
</svg>
