<?xml version="1.0" encoding="UTF-8"?>
<svg width="100px" height="100px" viewBox="0 0 100 100" version="1.1" xmlns="http://www.w3.org/2000/svg" xmlns:xlink="http://www.w3.org/1999/xlink">
    <title>人不在教室备份</title>
    <g id="职教大班课v2.7" stroke="none" stroke-width="1" fill="none" fillRule="evenodd">
        <g id="v2.7（学生）大班课-横屏-老师当前不在教室-手机端native" transform="translate(-262.000000, -138.000000)">
            <g id="人不在教室备份" transform="translate(262.000000, 138.000000)">
                <rect id="矩形" x="0" y="0" width="100" height="100"></rect>
                <path d="M79.6827606,30.8870021 C80.3751984,31.5761877 80.4136671,32.6697891 79.7981669,33.4039098 L79.6827606,33.5295734 L60.5727573,52.5486214 C67.7171559,56.0096908 81.5028427,60.3691256 81.5028427,66.4229275 C81.5028427,73.468357 82.1643024,76.9535481 74.6717131,77.0477106 L74.3547795,77.0496721 L73.8343202,77.0505147 C70.8222688,77.0588449 61.792137,77.1274959 52.5148126,77.1918072 L51.2768778,77.2003507 C50.6576846,77.2046039 50.0385328,77.208825 49.4211321,77.2129949 L48.1891722,77.2212607 C43.6401986,77.2515704 39.2497593,77.2783711 35.712167,77.2938833 L24.3694004,88.5831404 C23.636231,89.3128663 22.4475286,89.3128663 21.7143592,88.5831404 C21.0219214,87.8939548 20.9834526,86.8003534 21.5989529,86.0662327 L21.7143592,85.9405691 L77.0277193,30.8870021 C77.7608887,30.1572762 78.9495912,30.1572762 79.6827606,30.8870021 Z M50.5105204,10.8695652 C61.750403,10.8695652 65.3975822,21.0821196 65.6338012,26.8119767 C65.7075072,33.011401 64.1300625,37.3791384 62.3153596,40.3401719 L25.392266,77.0896399 C20.1441183,76.3066571 19.5652174,73.2542668 19.5652174,66.2986698 C19.5652174,58.2365915 38.0740113,54.4957192 42.9013203,50.7627269 C43.4543114,50.3363975 44.2866061,49.3778141 44.2866061,48.9084528 C44.2866061,46.847507 43.2376603,45.6903151 43.2376603,45.6903151 C43.2376603,45.6903151 43.2293435,45.6851505 43.2132305,45.6747391 L43.1172779,45.6109402 C42.0735621,44.901214 34.5987498,39.3765444 34.7464122,26.8119767 C34.9811346,21.1457007 38.0422463,11.0959556 49.4824657,10.8733275 L49.8712725,10.8695652 L50.5105204,10.8695652 Z" id="形状结合" fill="#97BAF9" fillRule="nonzero"></path>
            </g>
        </g>
    </g>
</svg>