<?xml version="1.0" encoding="UTF-8"?>
<svg width="26px" height="26px" viewBox="0 0 26 26" version="1.1" xmlns="http://www.w3.org/2000/svg" xmlns:xlink="http://www.w3.org/1999/xlink">
    <title>开始</title>
    <g id="职教大班课-RTC&amp;极速直播" stroke="none" stroke-width="1" fill="none" fillRule="evenodd">
        <g id="（学生端）大班课-视频播放" transform="translate(-301.000000, -85.000000)" fill="#FFFFFF" fillRule="nonzero">
            <g id="编组-18备份-3" transform="translate(252.000000, 63.000000)">
                <g id="开始" transform="translate(49.000000, 22.000000)">
                    <path d="M13,0 C5.82026987,0 0,5.82026987 0,13 C0,20.1797301 5.8202699,26 13,26 C20.1797301,26 26,20.1797301 26,13 C26,5.8202699 20.1797301,0 13,0 Z M18.4441193,13.8630966 L11.0577557,18.7380966 C10.7401918,18.947424 10.3333495,18.9655268 9.99844905,18.7852314 C9.66354857,18.6049359 9.4546544,18.2553482 9.45454545,17.875 L9.45454545,8.12592328 C9.45454545,7.74545206 9.6635105,7.39572282 9.99853662,7.21540129 C10.3335627,7.03507977 10.740548,7.05329575 11.058125,7.26282669 L18.4444886,12.1378267 C18.7345024,12.3292105 18.9090111,12.6534528 18.9090111,13.0009233 C18.9090111,13.3483938 18.7345024,13.6726361 18.4444886,13.8640199 L18.4441193,13.8630966 Z" id="形状"></path>
                </g>
            </g>
        </g>
    </g>
</svg>