<?xml version="1.0" encoding="UTF-8"?>
<svg width="12px" height="12px" viewBox="0 0 12 12" version="1.1" xmlns="http://www.w3.org/2000/svg" xmlns:xlink="http://www.w3.org/1999/xlink">
    <title>已上台</title>
    <g id="页面-1" stroke="none" stroke-width="1" fill="none" fill-rule="evenodd">
        <g id="灵动课堂Guide-大班课-人员列表-交互" transform="translate(-797.000000, -416.000000)">
            <g id="编组-33备份-4" transform="translate(733.000000, 235.000000)">
                <g id="已上台" transform="translate(64.000000, 181.000000)">
                    <rect id="矩形" x="0" y="0" width="12" height="12"></rect>
                    <path d="M6.07676935,8.58571335 C4.95176312,8.58571335 3.9767729,8.13999343 3.15177023,7.47142059 C1.27676935,8.43714004 1.00177557,9.69999202 1.00177557,12.0028571 L11.0017756,12.0028571 C11.0017756,9.69999202 10.7267818,8.51141965 8.92677468,7.47142059 C8.17678001,8.13999343 7.20177557,8.58571335 6.07676935,8.58571335 Z M6.00177557,7.69428759 C7.87677646,7.69428759 9.37678001,6.134289 9.37678001,4.2771438 C9.37678001,2.41999859 7.87677646,0.86 6.00177557,0.86 C4.12677112,0.86 2.62677112,2.41999859 2.62677112,4.2771438 C2.62677112,6.20856861 4.20176846,7.69428759 6.00177557,7.69428759 Z" id="形状" fill="#357BF6" fill-rule="nonzero"></path>
                </g>
            </g>
        </g>
    </g>
</svg>