<?xml version="1.0" encoding="UTF-8"?>
<svg width="22px" height="22px" viewBox="0 0 22 22" version="1.1" xmlns="http://www.w3.org/2000/svg" xmlns:xlink="http://www.w3.org/1999/xlink">
    <title>call</title>
    <g id="页面-1" stroke="none" stroke-width="1" fill="none" fill-rule="evenodd">
        <g id="灵动课堂Guide-图标和图片（补充）" transform="translate(-930.000000, -204.000000)">
            <g id="call" transform="translate(930.000000, 204.000000)">
                <rect id="矩形" x="0" y="0" width="22" height="22"></rect>
                <g id="电-话" transform="translate(3.000000, 3.000000)" fill-rule="nonzero" stroke="#0073FF" stroke-width="1.2">
                    <path d="M3.49791445,0.609558698 L3.64166208,0.61969975 C4.02130479,0.664746418 4.38386564,0.853754953 4.64031507,1.17591347 L4.64031507,1.17591347 L6.2627359,3.21648401 C6.51441872,3.51204788 6.62921626,3.87998812 6.61109363,4.24126064 C6.59309261,4.60010897 6.44394926,4.95237877 6.16754943,5.22060648 L6.16754943,5.22060648 L6.742,5.804 L6.14672958,5.24277973 L5.2833973,6.21342488 L5.5736562,6.67707287 C6.5487174,8.20757497 7.8467708,9.50625873 9.37928529,10.4836398 L9.37928529,10.4836398 L9.84192113,10.7755111 L10.7807979,9.83580162 C11.0394796,9.56935732 11.3763158,9.42121495 11.7208573,9.39400737 C12.0641093,9.36690161 12.4155031,9.45962042 12.7039449,9.67701071 L12.7039449,9.67701071 L14.8115832,11.3525983 L14.8313243,11.3702476 L14.9753477,11.5148443 C15.2506557,11.8041001 15.3826979,12.1774584 15.3747269,12.5466087 C15.3667274,12.9170743 15.2177094,13.2837858 14.9290957,13.5558879 L14.9290957,13.5558879 L13.5080934,14.9770527 C13.2290702,15.2453843 12.8613617,15.3634934 12.4360286,15.3718591 C11.8927517,15.3825445 11.2658091,15.2218231 10.578668,14.9282135 C9.03560095,14.2688739 7.22512823,12.9460821 5.39104815,11.1565633 L5.39104815,11.1565633 L5.11790166,10.8864797 C3.21551209,8.98495191 1.80160854,7.09486702 1.0926637,5.48503812 C0.776588402,4.76731351 0.601896061,4.11275695 0.610748958,3.54749321 C0.617647717,3.10700252 0.741416934,2.72747253 1.026033,2.44285642 L1.026033,2.44285642 L2.42274616,1.04521225 L2.455,0.99 L2.53517876,0.930994142 C2.82037887,0.706660308 3.16143759,0.60190569 3.49791445,0.609558698 Z" id="路径"></path>
                </g>
            </g>
        </g>
    </g>
</svg>