<?xml version="1.0" encoding="UTF-8"?>
<svg width="28px" height="29px" viewBox="0 0 28 29" version="1.1" xmlns="http://www.w3.org/2000/svg" xmlns:xlink="http://www.w3.org/1999/xlink">
    <title>vote</title>
    <g id="页面-1" stroke="none" stroke-width="1" fill="none" fill-rule="evenodd">
        <g id="灵动课堂Guide-图标和图片" transform="translate(-1002.000000, -626.000000)">
            <g id="vote" transform="translate(1002.000000, 626.500000)">
                <rect id="矩形" x="0" y="0" width="28" height="28"></rect>
                <path d="M21.7777778,5.5 C23.0050772,5.5 24,6.49492278 24,7.72222222 L24,18.4873234 C24,19.7146228 23.0050772,20.7095456 21.7777778,20.7095456 L8.44444444,20.7095456 L5.89532421,23.2492111 C5.46060288,23.68232 4.75708745,23.6810129 4.32397852,23.2462916 C4.11649712,23.0380377 4,22.7560482 4,22.4620785 L4,7.72222222 C4,6.49492278 4.99492278,5.5 6.22222222,5.5 L21.7777778,5.5 Z M21.7777778,6.7 L6.22222222,6.7 C5.69530166,6.7 5.26149701,7.09867661 5.20599826,7.61083985 L5.2,7.72222222 L5.2,22.248 L7.94869371,19.5095456 L21.7777778,19.5095456 C22.3046983,19.5095456 22.738503,19.110869 22.7940017,18.5987057 L22.8,18.4873234 L22.8,7.72222222 C22.8,7.19530166 22.4013234,6.76149701 21.8891602,6.70599826 L21.7777778,6.7 Z M10.2666667,12.6111111 C10.6348565,12.6111111 10.9333333,12.9095879 10.9333333,13.2777778 L10.9333333,17.0555556 C10.9333333,17.4237454 10.6348565,17.7222222 10.2666667,17.7222222 C9.89847683,17.7222222 9.6,17.4237454 9.6,17.0555556 L9.6,13.2777778 C9.6,12.9095879 9.89847683,12.6111111 10.2666667,12.6111111 Z M14,11.0555556 C14.3681898,11.0555556 14.6666667,11.3540324 14.6666667,11.7222222 L14.6666667,17.0555556 C14.6666667,17.4237454 14.3681898,17.7222222 14,17.7222222 C13.6318102,17.7222222 13.3333333,17.4237454 13.3333333,17.0555556 L13.3333333,11.7222222 C13.3333333,11.3540324 13.6318102,11.0555556 14,11.0555556 Z M17.7333333,8.83333333 C18.1015232,8.83333333 18.4,9.13181017 18.4,9.5 L18.4,17.0555556 C18.4,17.4237454 18.1015232,17.7222222 17.7333333,17.7222222 C17.3651435,17.7222222 17.0666667,17.4237454 17.0666667,17.0555556 L17.0666667,9.5 C17.0666667,9.13181017 17.3651435,8.83333333 17.7333333,8.83333333 Z" id="形状结合" fill="#7B88A0" fill-rule="nonzero"></path>
            </g>
        </g>
    </g>
</svg>