<?xml version="1.0" encoding="UTF-8"?>
<svg width="18px" height="18px" viewBox="0 0 18 18" version="1.1" xmlns="http://www.w3.org/2000/svg" xmlns:xlink="http://www.w3.org/1999/xlink">
    <title>icon_user</title>
    <g id="V1.1.3_答题器/投票/Preview/白板关闭/H5直播分享" stroke="none" stroke-width="1" fill="none" fill-rule="evenodd">
        <g id="H5分享-课件窗口（竖屏）" transform="translate(-315.000000, -242.000000)">
            <g id="编组-4" transform="translate(0.000000, 20.000000)">
                <g id="icon_user" transform="translate(315.000000, 222.000000)">
                    <rect id="矩形" x="0" y="0" width="18" height="18"></rect>
                    <path d="M7.19131579,9.70986842 C5.06921053,9.70986842 3.34289474,7.98355263 3.34289474,5.86144737 C3.34289474,3.73934211 5.06078947,2.00460526 7.19131579,2.00460526 C9.32184211,2.00460526 11.0397368,3.73092105 11.0397368,5.85302632 C11.0397368,7.97513158 9.31342105,9.70986842 7.19131579,9.70986842 Z M7.19131579,3.12460526 C5.68394737,3.12460526 4.46289474,4.34565789 4.46289474,5.85302632 C4.46289474,7.36039474 5.68394737,8.58144737 7.19131579,8.58144737 C8.69868421,8.58144737 9.91973684,7.36039474 9.91973684,5.85302632 C9.91973684,4.34565789 8.69026316,3.12460526 7.19131579,3.12460526 Z M12.8165789,15.6719737 L1.56605263,15.6719737 C1.25447368,15.6719737 1.00184211,15.4193421 1.00184211,15.1077632 C1.00184211,12.3877632 3.78078947,10.1814474 7.19131579,10.1814474 C10.6018421,10.1814474 13.3807895,12.3877632 13.3807895,15.1077632 C13.3723684,15.4193421 13.1281579,15.6719737 12.8165789,15.6719737 Z M2.18078947,14.5435526 L12.2018421,14.5435526 C11.8397368,12.7077632 9.73447368,11.3014474 7.19131579,11.3014474 C4.64815789,11.3014474 2.54289474,12.7161842 2.18078947,14.5435526 Z M16.9176316,14.1730263 C16.9176316,12.8256579 16.3197368,11.4361842 15.3260526,10.4509211 C14.8881579,10.0214474 14.3997368,9.68460526 13.8692105,9.44039474 C14.6355263,8.83407895 15.1239474,7.89934211 15.1239474,6.85513158 C15.1239474,5.04460526 13.6502632,3.5625 11.8313158,3.5625 C11.5197109,3.5625 11.2671053,3.81510566 11.2671053,4.12671053 C11.2671053,4.43831539 11.5197109,4.69092104 11.8313158,4.69092105 C13.0271053,4.69092105 13.9955263,5.65934211 13.9955263,6.85513158 C13.9955263,8.0425 13.0355263,9.01092105 11.8481579,9.01934211 L11.8313158,9.01934211 C11.5197368,9.01934211 11.2755263,9.27197368 11.2755263,9.58355263 C11.2755263,9.89513158 11.5281579,10.1393421 11.8397368,10.1393421 L11.865,10.1393421 C13.1534211,10.1393421 14.0292105,10.7372368 14.5344737,11.2425 C15.3092105,12.0172368 15.7892105,13.1372368 15.7892105,14.1730263 C15.7892105,14.4846312 16.0418162,14.7372368 16.3534211,14.7372368 C16.6650259,14.7372368 16.9176316,14.4846312 16.9176316,14.1730263 L16.9176316,14.1730263 Z" id="形状" fill="#357BF6" fill-rule="nonzero"></path>
                </g>
            </g>
        </g>
    </g>
</svg>