<?xml version="1.0" encoding="UTF-8"?>
<svg width="18px" height="18px" viewBox="0 0 18 18" version="1.1" xmlns="http://www.w3.org/2000/svg" xmlns:xlink="http://www.w3.org/1999/xlink">
    <title>录制</title>
    <g id="小班课" stroke="none" stroke-width="1" fill="none" fill-rule="evenodd">
        <g id="v2.4（老师）小班课" transform="translate(-1171.000000, -5.000000)">
            <g id="编组-14" transform="translate(1171.000000, 5.000000)">
                <rect id="矩形" x="0" y="0" width="18" height="18"></rect>
                <path d="M11.8875,3.555 L2.8125,3.555 C2.08348413,3.555 1.4925,4.14598413 1.4925,4.875 L1.4925,13.125 C1.4925,13.8540159 2.08348413,14.445 2.8125,14.445 L11.8875,14.445 L12.0224623,14.438185 C12.6880804,14.3705878 13.2075,13.8084524 13.2075,13.125 L13.207,11.349 L15.0329996,12.810309 C15.1940008,12.93911 15.3939326,13.0092423 15.6,13.0092423 C16.1011984,13.0092423 16.5075,12.6029407 16.5075,12.1017423 L16.5075,5.89825775 C16.5075,5.69219037 16.4373677,5.49225859 16.3086384,5.33134699 L16.2320051,5.24687393 C15.9087468,4.93244279 15.394354,4.90060746 15.0330892,5.18961931 L13.207,6.649 L13.2075,4.875 C13.2075,4.14598413 12.6165159,3.555 11.8875,3.555 Z M2.8125,4.545 L11.8875,4.545 C12.069754,4.545 12.2175,4.69274603 12.2175,4.875 L12.2175,7.679 L12.2246153,7.76499878 C12.2852773,8.12447491 12.72066,8.30626683 13.0216344,8.06560176 L15.517,6.069 L15.517,11.93 L13.0218136,9.93254163 C12.6977242,9.67314687 12.2175,9.90388605 12.2175,10.319 L12.2175,13.125 C12.2175,13.307254 12.069754,13.455 11.8875,13.455 L2.8125,13.455 C2.63024603,13.455 2.4825,13.307254 2.4825,13.125 L2.4825,4.875 C2.4825,4.69274603 2.63024603,4.545 2.8125,4.545 Z" id="形状结合" fill="#3F5C8F" fill-rule="nonzero"></path>
            </g>
        </g>
    </g>
</svg>