<?xml version="1.0" encoding="UTF-8"?>
<svg width="24px" height="24px" viewBox="0 0 24 24" version="1.1" xmlns="http://www.w3.org/2000/svg" xmlns:xlink="http://www.w3.org/1999/xlink">
    <title>xxhdpi/extension-default</title>
    <g id="V1.1.3_答题器/投票/Preview/白板关闭/H5直播分享" stroke="none" stroke-width="1" fill="none" fill-rule="evenodd">
        <g id="（老师端）更多-邀请链接" transform="translate(-1254.000000, -10.000000)">
            <g id="extension-default" transform="translate(1254.000000, 10.000000)">
                <rect id="矩形" x="0" y="0" width="24" height="24"></rect>
                <path d="M20.940646,15.7576683 C21.0751466,16.0446417 20.9731847,16.3804945 20.7143229,16.5493949 L20.632037,16.5948407 L12.2834116,20.4411614 C12.2420748,20.4595988 12.2072031,20.4716313 12.1714873,20.4806153 L12.0968325,20.4948361 L12.0222641,20.4999689 C11.930039,20.5008785 11.8392692,20.4818001 11.7561854,20.4450352 L3.36878066,16.5952164 C3.05018064,16.448977 2.91147621,16.0743566 3.05897565,15.7584784 C3.19306605,15.4713163 3.51752739,15.3315582 3.81478109,15.4183927 L3.90292339,15.45132 L12.0155232,19.1748034 L20.0962601,15.4516957 C20.4146509,15.3050089 20.7926953,15.4419975 20.940646,15.7576683 Z M3.81478109,11.1041109 L3.90292339,11.1370382 L12.0155232,14.8605216 L20.0962601,11.137414 C20.4146509,10.9907272 20.7926953,11.1277158 20.940646,11.4433865 C21.0751466,11.73036 20.9731847,12.0662128 20.7143229,12.2351132 L20.632037,12.2805589 L12.2834116,16.1268796 C12.2420748,16.145317 12.2072031,16.1573496 12.1714873,16.1663335 L12.0968325,16.1805544 L12.0222641,16.1856872 C11.930039,16.1865967 11.8392692,16.1675183 11.7561854,16.1307534 L3.36878066,12.2809346 C3.05018064,12.1346953 2.91147621,11.7600749 3.05897565,11.4441966 C3.19306605,11.1570346 3.51752739,11.0172764 3.81478109,11.1041109 Z M12.2793088,3.55682335 L20.4866547,7.26798452 C20.8060886,7.41242471 20.9469401,7.78625677 20.8012554,8.10296178 C20.737707,8.24110991 20.6259932,8.35186938 20.4866547,8.41487483 L12.2793088,12.126036 C12.1117534,12.2018005 11.9192931,12.2018005 11.7517376,12.126036 L3.54439174,8.41487483 C3.22495785,8.27043463 3.08410635,7.89660258 3.22979111,7.57989756 C3.29333944,7.44174944 3.40505327,7.33098997 3.54439174,7.26798452 L11.7517376,3.55682335 C11.9192931,3.48105888 12.1117534,3.48105888 12.2793088,3.55682335 Z M12.0155232,4.8216972 L5.338979,7.84075442 L12.0155232,10.8598116 L18.6920675,7.84075442 L12.0155232,4.8216972 Z" id="形状结合" fill="#3F5C8F" fill-rule="nonzero"></path>
            </g>
        </g>
    </g>
</svg>