<?xml version="1.0" encoding="UTF-8"?>
<svg width="22px" height="22px" viewBox="0 0 22 22" version="1.1" xmlns="http://www.w3.org/2000/svg" xmlns:xlink="http://www.w3.org/1999/xlink">
    <title>未禁言</title>
    <g id="页面-1" stroke="none" strokeWidth="1" fill="none" fillRule="evenodd">
        <g id="灵动课堂Guide-图标和图片（补充）" transform="translate(-885.000000, -204.000000)">
            <g id="未禁言" transform="translate(885.000000, 204.000000)">
                <rect id="矩形" stroke="#979797" fill="#D8D8D8" opacity="0" x="0" y="0" width="22" height="22"></rect>
                <g id="编组-27" transform="translate(2.000000, 3.000000)" fill="#BDBDCA">
                    <path d="M9.01,0.85112782 C4.28887615,0.85112782 0.4,3.59480423 0.4,7.09600041 L0.40466904,7.30483298 C0.519557385,9.8702766 2.74426807,12.0515891 5.92351025,12.9295383 L6.04090554,12.9605578 L6.05564142,13.2014867 C6.08164501,13.754102 6.07851718,14.3566796 6.04600497,15.0089182 L6.00402325,15.8511278 L6.79227616,15.571394 L7.09749047,15.4567309 C8.30114422,14.9787865 9.29813767,14.2694043 10.0806154,13.331044 L10.113127,13.2898319 L10.3951657,13.2610726 C14.4913392,12.7843303 17.62,10.2293473 17.62,7.09600041 C17.62,3.59480423 13.7311239,0.85112782 9.01,0.85112782 Z M9.01,1.9833024 C13.1796532,1.9833024 16.4981759,4.32458356 16.4981759,7.09600041 C16.4981759,9.6138705 13.7449921,11.8069059 10.0476936,12.1595603 L9.53731066,12.1990201 L9.38363284,12.4000022 L9.20943204,12.6174034 C8.67360159,13.2556269 8.0185597,13.768089 7.24001384,14.1563746 L7.19264495,14.1776455 L7.1946265,13.8764126 C7.19217113,13.3710449 7.16968996,12.8966387 7.12705348,12.4530397 L7.08774496,12.0440655 L6.69027618,11.9550507 C3.60895675,11.2649761 1.5218241,9.28381859 1.5218241,7.09600041 C1.5218241,4.32458356 4.84034681,1.9833024 9.01,1.9833024 Z" id="形状结合" fillRule="nonzero"></path>
                    <path d="M5.27142857,6.31428571 C5.76848485,6.31428571 6.17142857,6.71722944 6.17142857,7.21428571 C6.17142857,7.71134199 5.76848485,8.11428571 5.27142857,8.11428571 C4.7743723,8.11428571 4.37142857,7.71134199 4.37142857,7.21428571 C4.37142857,6.71722944 4.7743723,6.31428571 5.27142857,6.31428571 Z M9.26911489,6.31428571 C9.76617116,6.31428571 10.1691149,6.71722944 10.1691149,7.21428571 C10.1691149,7.71134199 9.76617116,8.11428571 9.26911489,8.11428571 C8.77205861,8.11428571 8.36911489,7.71134199 8.36911489,7.21428571 C8.36911489,6.71722944 8.77205861,6.31428571 9.26911489,6.31428571 Z M13.2668012,6.31428571 C13.7638575,6.31428571 14.1668012,6.71722944 14.1668012,7.21428571 C14.1668012,7.71134199 13.7638575,8.11428571 13.2668012,8.11428571 C12.7697449,8.11428571 12.3668012,7.71134199 12.3668012,7.21428571 C12.3668012,6.71722944 12.7697449,6.31428571 13.2668012,6.31428571 Z" id="形状结合"></path>
                </g>
            </g>
        </g>
    </g>
</svg>