<?xml version="1.0" encoding="UTF-8"?>
<svg width="22px" height="22px" viewBox="0 0 22 22" version="1.1" xmlns="http://www.w3.org/2000/svg" xmlns:xlink="http://www.w3.org/1999/xlink">
    <title>举手发言备份</title>
    <g id="举手功能v1.16" stroke="none" stroke-width="1" fill="none" fill-rule="evenodd">
        <g id="举手发言备份">
            <rect id="矩形" x="0" y="0" width="22" height="22"></rect>
            <path d="M17.767627,4.9704281 C17.3950771,4.9704281 17.1475699,5.0941817 16.8987736,5.0941817 L16.8987736,4.10157468 C16.8987736,2.98521405 15.9061666,1.99260702 14.789806,1.99260702 C14.4172561,1.99260702 14.0447061,2.11636063 13.7971989,2.24140333 C13.5471135,1.49630351 12.8045919,1 11.9357385,1 C11.0668851,1 10.3230744,1.49630351 10.0742781,2.24140333 C9.70301724,2.11636063 9.33175643,1.99260702 8.95791742,1.99260702 C7.8415568,1.99260702 6.84894977,2.98521405 6.84894977,4.10157468 L6.84894977,10.9260702 L5.85634275,8.9408562 C5.60007851,8.45051572 5.14964556,8.09035646 4.61493941,7.94824917 C3.9948823,7.82449557 3.49857879,7.82449557 3.00227527,8.19704548 C2.00966825,8.81581349 1.76216104,10.0572168 2.25846456,11.0498238 C2.38221816,11.2986202 3.00227527,12.6637771 4.86244662,16.2616553 C5.73258914,18.1231157 6.84766067,19.4869836 7.8402677,20.2320834 C8.71041022,20.8521405 9.33046733,20.8521405 9.45422094,20.8521405 L14.4172561,20.8521405 C15.2861095,20.8521405 16.0299202,20.6046333 16.77502,19.9832871 C17.3950771,19.4869836 18.0151342,18.7431728 18.5114378,17.7505658 C19.3802912,15.8891054 19.8765947,13.4075878 19.8765947,10.3060131 L19.8765947,6.95564215 C19.8765947,5.83928152 19.0077413,4.9704281 17.767627,4.9704281 Z M10.446828,11.0498238 C10.8193779,11.0498238 11.0668851,10.8023166 11.0668851,10.4297667 L11.0668851,3.10896765 C11.0668851,2.61266414 11.439435,2.24140333 11.9357385,2.24140333 C12.432042,2.24140333 12.8045919,2.61266414 12.8045919,3.10896765 L12.8045919,10.4297667 C12.8045919,10.8023166 13.0520991,11.0498238 13.424649,11.0498238 C13.7971989,11.0498238 14.0447061,10.8023166 14.0447061,10.4297667 L14.0447061,4.10157468 C14.0447061,3.60527116 14.4172561,3.23401036 14.9135596,3.23401036 C15.4098631,3.23401036 15.782413,3.60527116 15.782413,4.10157468 L15.782413,11.4223738 C15.782413,11.7949237 16.0299202,12.0424309 16.4024701,12.0424309 C16.77502,12.0424309 17.0225272,11.7949237 17.0225272,11.4223738 L17.0225272,6.95564215 C17.0225272,6.45933864 17.3950771,6.08678873 17.8913806,6.08678873 C18.3876842,6.08678873 18.7602341,6.45933864 18.7602341,6.95564215 L18.7602341,10.4297667 C18.7602341,13.1600806 18.2639306,15.6415982 17.5188307,17.2542623 C16.8987736,18.3706229 15.9061666,19.6120263 14.4172561,19.6120263 L9.57797454,19.6120263 C9.57797454,19.6120263 9.20671373,19.6120263 8.58536751,19.1157228 C7.9653104,18.6194192 7.09645698,17.7492767 5.98009635,15.6415982 C4.24367861,12.0424309 3.49857879,10.678563 3.37482518,10.4297667 C3.12602888,9.93346322 3.25107158,9.43715971 3.74737509,9.1896525 C3.74737509,9.1896525 3.8711287,9.0646098 3.9948823,9.0646098 L4.24367861,9.0646098 C4.49118581,9.0646098 4.61493941,9.31340611 4.73998212,9.43715971 L6.22889266,12.1674736 C6.60015346,12.7862416 6.97270337,13.0350379 7.46900689,12.9112843 C7.9653104,12.7875307 8.089064,12.4149808 8.089064,11.6711701 L8.089064,4.10157468 C8.089064,3.60527116 8.46161391,3.23401036 8.95791742,3.23401036 C9.45422094,3.23401036 9.82677084,3.60527116 9.82677084,4.10157468 L9.82677084,10.4297667 C9.82677084,10.8023166 10.0742781,11.0498238 10.446828,11.0498238 Z" id="形状" fill="#FFFFFF" fill-rule="nonzero"></path>
        </g>
    </g>
</svg>