<?xml version="1.0" encoding="UTF-8"?>
<svg width="28px" height="28px" viewBox="0 0 28 28" version="1.1" xmlns="http://www.w3.org/2000/svg" xmlns:xlink="http://www.w3.org/1999/xlink">
    <title>selector</title>
    <g id="页面-1" stroke="none" stroke-width="1" fill="none" fill-rule="evenodd">
        <g id="灵动课堂Guide-图标和图片" transform="translate(-962.000000, -627.000000)" fill="#7B88A0" fill-rule="nonzero">
            <g id="selector" transform="translate(962.000000, 627.000000)">
                <path d="M20,4 C21.6568542,4 23,5.34314575 23,7 L23,17.341 L21.796,16.137 L21.8,7 C21.8,6.05559308 21.0726866,5.28105931 20.147628,5.20596695 L20,5.2 L8,5.2 C7.05559308,5.2 6.28105931,5.92731342 6.20596695,6.85237201 L6.2,7 L6.2,21 C6.2,21.9444069 6.92731342,22.7189407 7.85237201,22.7940331 L8,22.8 L19.777,22.799 L14.8400268,17.8581507 L16.7547919,15.9418755 L22.312,21.548 L22.3163691,21.5442245 L22.8056308,22.0365064 C22.8375862,22.0667392 22.8556908,22.1087909 22.8556908,22.1527816 C22.8556908,22.1821086 22.8476443,22.210574 22.8328117,22.2352502 L22.8056308,22.2690567 L21.1370066,23.9376809 C21.110654,23.9635116 21.0778457,23.9788034 21.0438496,23.9835563 L21.0438213,23.9851639 C21.0438213,23.9851639 20.3635227,24 20,24 L8,24 C6.34314575,24 5,22.6568542 5,21 L5,7 C5,5.34314575 6.34314575,4 8,4 L20,4 Z M16.6083154,15.8256003 L14.7237516,17.7131842 C14.7237516,17.7131842 13.8162013,15.3514393 14.0336509,15.1339896 C14.2511006,14.9150299 16.6083154,15.8256003 16.6083154,15.8256003 Z M15.6,13 C15.9313708,13 16.2,13.2686292 16.2,13.6 C16.2,13.9313708 15.9313708,14.2 15.6,14.2 C15.2686292,14.2 15,13.9313708 15,13.6 C15,13.2686292 15.2686292,13 15.6,13 Z M17.6,13 C17.9313708,13 18.2,13.2686292 18.2,13.6 C18.2,13.9313708 17.9313708,14.2 17.6,14.2 C17.2686292,14.2 17,13.9313708 17,13.6 C17,13.2686292 17.2686292,13 17.6,13 Z M19.6,13 C19.9313708,13 20.2,13.2686292 20.2,13.6 C20.2,13.9313708 19.9313708,14.2 19.6,14.2 C19.2686292,14.2 19,13.9313708 19,13.6 C19,13.2686292 19.2686292,13 19.6,13 Z M11.77,6.86 L14.56,14 L13.51,14 L12.73,11.85 L9.71,11.85 L8.91,14 L7.94,14 L10.72,6.86 L11.77,6.86 Z M11.24,7.72 L11.22,7.72 L10.01,11.05 L12.43,11.05 L11.24,7.72 Z" id="答题器"></path>
            </g>
        </g>
    </g>
</svg>