<?xml version="1.0" encoding="UTF-8"?>
<svg width="22px" height="22px" viewBox="0 0 22 22" version="1.1" xmlns="http://www.w3.org/2000/svg" xmlns:xlink="http://www.w3.org/1999/xlink">
    <title>音频关闭-forbidden</title>
    <g id="V2.0.0_PC端优化" stroke="none" stroke-width="1" fill="none" fill-rule="evenodd">
        <g id="灵动课堂优化-04Roster人员列表" transform="translate(-204.000000, -869.000000)">
            <g id="编组备份" transform="translate(80.000000, 683.000000)">
                <g id="音频关闭-forbidden" transform="translate(124.000000, 186.000000)">
                    <rect id="矩形" x="0" y="0" width="22" height="22"></rect>
                    <path d="M17.5,11.45 C17.9418278,11.45 18.3,11.8081722 18.3,12.25 C18.3,16.2816787 15.0316787,19.55 11,19.55 C8.44818456,19.55 6.20218116,18.240663 4.89716209,16.2571612 L6.28575546,15.4550335 C7.31163675,16.9610666 9.04032949,17.95 11,17.95 C14.1480231,17.95 16.7,15.3980231 16.7,12.25 C16.7,11.8081722 17.0581722,11.45 17.5,11.45 Z M18.9705081,6.24280548 C19.1638077,6.57761032 19.0490951,7.0057236 18.7142903,7.19902326 L2.60621778,16.4990233 C2.27141295,16.6923229 1.84329966,16.5776103 1.65,16.2428055 C1.45670034,15.9080006 1.57141295,15.4798874 1.90621778,15.2865877 L18.0142903,5.9865877 C18.3490951,5.79328804 18.7772084,5.90800064 18.9705081,6.24280548 Z M15,10.423 L15,12.2 C15,14.409139 13.209139,16.2 11,16.2 C9.68510093,16.2 8.51838669,15.5655453 7.78928943,14.586068 L15,10.423 Z M4.5,11.45 C4.9418278,11.45 5.3,11.8081722 5.3,12.25 C5.3,12.3518865 5.30267322,12.4531486 5.30795334,12.5537201 L3.79441482,13.4271498 C3.73229163,13.0439487 3.7,12.6507454 3.7,12.25 C3.7,11.8081722 4.0581722,11.45 4.5,11.45 Z M11,3.2 C13.1292824,3.2 14.8699803,4.86372801 14.9930445,6.96213477 L7,11.576 L7,7.2 C7,4.990861 8.790861,3.2 11,3.2 Z" id="形状结合" fill="#E2E2EE"></path>
                </g>
            </g>
        </g>
    </g>
</svg>