<?xml version="1.0" encoding="UTF-8"?>
<svg width="18px" height="18px" viewBox="0 0 18 18" version="1.1" xmlns="http://www.w3.org/2000/svg" xmlns:xlink="http://www.w3.org/1999/xlink">
    <title>红润</title>
    <g id="V2.0.0_PC端交互" stroke="none" stroke-width="1" fill="none" fill-rule="evenodd">
        <g id="灵动课堂优化-09设备设置" transform="translate(-432.000000, -654.000000)">
            <g id="红润" transform="translate(432.000000, 654.000000)">
                <rect id="矩形" x="0" y="0" width="18" height="18"></rect>
                <path d="M8.99976718,2.25 C12.3311367,2.25 15,4.86466879 15,8.27619314 C15.0186554,12.1647323 12.0314772,15.6004059 9.22163923,15.7448445 L9.03867307,15.75 C6.13013776,15.75 2.98303673,12.3126177 3,8.27748603 C3,4.86466879 5.66839763,2.25 8.99976718,2.25 Z M10.1340233,11.84502 C9.7984066,12.2423703 9.35334041,12.4656105 8.88176693,12.4656105 C8.41019344,12.4656105 7.96512726,12.2423703 7.62951059,11.84502 C7.51363446,11.7136501 7.31484899,11.6997151 7.18204917,11.8136526 C7.04924934,11.92759 7.03113009,12.1276214 7.14126315,12.2639186 C7.59445254,12.8009018 8.21523649,13.1116281 8.88176693,13.1116281 C9.54829736,13.1116281 10.1690813,12.8009018 10.6222707,12.2639186 C10.7324038,12.1276214 10.7142845,11.92759 10.5814847,11.8136526 C10.4486849,11.6997151 10.2498994,11.7136501 10.1340233,11.84502 Z M7.26961524,7.90096189 C7.07829819,7.79050494 6.83366203,7.85605501 6.72320508,8.04737206 L6.72320508,8.04737206 L5.62320508,9.95262794 C5.51274813,10.143945 5.57829819,10.3885812 5.76961524,10.4990381 C5.96093229,10.6094951 6.20556845,10.543945 6.3160254,10.3526279 L6.3160254,10.3526279 L7.4160254,8.44737206 C7.52648235,8.25605501 7.46093229,8.01141884 7.26961524,7.90096189 Z M13.2696152,7.90096189 C13.0782982,7.79050494 12.833662,7.85605501 12.7232051,8.04737206 L12.7232051,8.04737206 L11.6232051,9.95262794 C11.5127481,10.143945 11.5782982,10.3885812 11.7696152,10.4990381 C11.9609323,10.6094951 12.2055685,10.543945 12.3160254,10.3526279 L12.3160254,10.3526279 L13.4160254,8.44737206 C13.5264824,8.25605501 13.4609323,8.01141884 13.2696152,7.90096189 Z M5.98038476,7.7339746 C5.78906771,7.62351765 5.54443155,7.68906771 5.4339746,7.88038476 L5.4339746,7.88038476 L5.0339746,8.57320508 C4.92351765,8.76452213 4.98906771,9.00915829 5.18038476,9.11961524 C5.37170181,9.23007219 5.61633797,9.16452213 5.72679492,8.97320508 L5.72679492,8.97320508 L6.12679492,8.28038476 C6.23725187,8.08906771 6.17170181,7.84443155 5.98038476,7.7339746 Z M11.9803848,7.7339746 C11.7890677,7.62351765 11.5444315,7.68906771 11.4339746,7.88038476 L11.4339746,7.88038476 L11.0339746,8.57320508 C10.9235176,8.76452213 10.9890677,9.00915829 11.1803848,9.11961524 C11.3717018,9.23007219 11.616338,9.16452213 11.7267949,8.97320508 L11.7267949,8.97320508 L12.1267949,8.28038476 C12.2372519,8.08906771 12.1717018,7.84443155 11.9803848,7.7339746 Z" id="形状结合" fill="#FFFFFF" fill-rule="nonzero"></path>
            </g>
        </g>
    </g>
</svg>