<?xml version="1.0" standalone="no"?><!DOCTYPE svg PUBLIC "-//W3C//DTD SVG 1.1//EN" "http://www.w3.org/Graphics/SVG/1.1/DTD/svg11.dtd"><svg t="1630400000089" class="icon" viewBox="0 0 1024 1024" version="1.1" xmlns="http://www.w3.org/2000/svg" p-id="3972" xmlns:xlink="http://www.w3.org/1999/xlink" width="200" height="200"><defs><style type="text/css"></style></defs><path d="M804.571429 201.142857a73.142857 73.142857 0 0 1 73.142857 73.142857V768a73.142857 73.142857 0 0 1-73.142857 73.142857H219.428571a73.142857 73.142857 0 0 1-73.142857-73.142857V274.285714a73.142857 73.142857 0 0 1 73.142857-73.142857h585.142858zM256 245.028571H219.428571a29.257143 29.257143 0 0 0-29.037714 25.6l-0.219428 3.657143V768a29.257143 29.257143 0 0 0 25.6 29.037714l3.657142 0.219429h585.142858a29.257143 29.257143 0 0 0 29.037714-25.6l0.219428-3.657143V274.285714a29.257143 29.257143 0 0 0-25.6-29.037714L804.571429 245.028571h-36.571429v169.142858a36.571429 36.571429 0 0 1-36.571429 36.571428H292.571429a36.571429 36.571429 0 0 1-36.571429-36.571428V245.028571z m468.114286 0H299.885714v161.828572h424.228572V245.028571z m-87.222857 27.428572a21.394286 21.394286 0 1 1 0 42.788571h-103.497143a21.394286 21.394286 0 1 1 0-42.788571h103.497143z" p-id="3973"></path></svg>