<?xml version="1.0" encoding="UTF-8"?>
<svg width="29px" height="28px" viewBox="0 0 29 28" version="1.1" xmlns="http://www.w3.org/2000/svg" xmlns:xlink="http://www.w3.org/1999/xlink">
    <title>select-actived</title>
    <g id="补充页面" stroke="none" stroke-width="1" fill="none" fill-rule="evenodd">
        <g id="画板" transform="translate(-125.000000, -318.000000)">
            <g id="select-actived" transform="translate(125.500000, 318.000000)">
                <rect id="矩形" x="0" y="0" width="28" height="28"></rect>
                <g id="select" transform="translate(3.300000, 5.800000)" fill="#357BF6" fill-rule="nonzero">
                    <path d="M11.0549264,5.70741676 C11.2461187,5.6446523 11.4525111,5.6455947 11.6431223,5.71010251 L11.6431223,5.71010251 L21.8060229,9.14949337 C22.2925418,9.31414405 22.5534675,9.84202127 22.3888168,10.3285401 C22.3026141,10.5832568 22.1103776,10.788192 21.8616879,10.8904902 L21.8616879,10.8904902 L17.5432447,12.6668768 C17.3611098,12.7417978 17.2176144,12.8880561 17.1461801,13.0715866 L17.1461801,13.0715866 L15.5633519,17.1382247 C15.3770517,17.6168715 14.8380057,17.8538651 14.359359,17.6675649 C14.1002202,17.5667022 13.8998119,17.3551717 13.8130793,17.0909678 L13.8130793,17.0909678 L10.4613898,6.88109231 C10.3011889,6.39309015 10.5669242,5.8676177 11.0549264,5.70741676 Z M11.7689074,7.0197623 L14.7175427,16.0014326 L16.0279007,12.6363267 C16.1972263,12.2012915 16.5183845,11.8447886 16.9287804,11.6306181 L16.9287804,11.6306181 L17.0867396,11.5571006 L20.7385569,10.0553717 L11.7689074,7.0197623 Z M10.228,14.2 L10.2284269,15.4 L6.22842693,15.4 L6.228,14.2 L10.228,14.2 Z M1.2,11.842 L1.2,13.2 C1.2,13.7522847 1.64771525,14.2 2.2,14.2 L2.2,14.2 L4.38026402,14.2 L4.38069077,15.4 L2.2,15.4 C0.98497355,15.4 0,14.4150264 0,13.2 L0,13.2 L0,11.8426403 L1.2,11.842 Z M1.2,6.20126076 L1.2,10.0553717 L0,10.056012 L0,6.20190102 L1.2,6.20126076 Z M16.2,0 L16.357115,0.00552381477 C17.4988144,0.0860847566 18.4,1.03780079 18.4,2.2 L18.4,2.2 L18.4,5.23061867 L17.2,5.22983223 L17.2,2.2 C17.2,1.64771525 16.7522847,1.2 16.2,1.2 L16.2,1.2 L12.743,1.2 L12.7431465,0 L16.2,0 Z M4.38083704,0 L4.38069077,1.2 L2.2,1.2 C1.64771525,1.2 1.2,1.64771525 1.2,2.2 L1.2,2.2 L1.2,4.242 L0,4.24264016 L0,2.2 C0,0.98497355 0.98497355,0 2.2,0 L2.2,0 L4.38083704,0 Z M10.5431465,0 L10.543,1.2 L6.543,1.2 L6.54314647,0 L10.5431465,0 Z" id="形状结合"></path>
                </g>
            </g>
        </g>
    </g>
</svg>