<?xml version="1.0" encoding="UTF-8"?>
<svg width="22px" height="22px" viewBox="0 0 22 22" version="1.1" xmlns="http://www.w3.org/2000/svg" xmlns:xlink="http://www.w3.org/1999/xlink">
    <title>视频复位</title>
    <g id="小班课" stroke="none" stroke-width="1" fill="none" fill-rule="evenodd">
        <g id="（老师）小班课" transform="translate(-567.000000, -610.000000)">
            <g id="视频复位" transform="translate(567.000000, 610.000000)">
                <rect id="矩形" x="0" y="0" width="22" height="22"></rect>
                <path d="M15.9534884,6.5 C16.4672416,6.5 16.8837209,6.9164793 16.8837209,7.43023256 L16.8837209,17.5697674 C16.8837209,18.0835207 16.4672416,18.5 15.9534884,18.5 L2.93023256,18.5 C2.4164793,18.5 2,18.0835207 2,17.5697674 L2,7.43023256 C2,6.9164793 2.4164793,6.5 2.93023256,6.5 L15.9534884,6.5 Z M12.0312371,10.1915181 L8.81176812,10.4819446 C8.72449366,10.4898176 8.64279792,10.5282398 8.58107478,10.5904416 C8.45700424,10.7154744 8.43994851,10.9064261 8.52946832,11.0495859 L8.5831075,11.1166567 L9.55695283,12.0827467 L6.74099923,14.8770543 C6.61518636,15.0038294 6.59788173,15.19503 6.68736598,15.3382254 L6.74099923,15.4053021 L6.98323759,15.6456762 C7.10758789,15.7690695 7.29729385,15.7866971 7.44031719,15.698559 L7.50741995,15.6456762 L10.3269528,12.8467467 L11.3077574,13.8203375 C11.3691316,13.8812395 11.4497993,13.9188667 11.5359017,13.9267549 C11.7149655,13.9431597 11.8759997,13.8298317 11.9260203,13.6641478 L11.9403898,13.5901604 L12.233223,10.3937856 L12.2332465,10.3600969 C12.2240149,10.2577618 12.1335722,10.1822865 12.0312371,10.1915181 Z M19.3023256,3.5 C19.6555309,3.5 19.9474335,3.76044974 19.9936311,4.09836564 L20,4.19230769 L20,10.6538462 C20,11.0361971 19.6876405,11.3461538 19.3023256,11.3461538 C18.9491202,11.3461538 18.6572177,11.0857041 18.6110201,10.7477882 L18.6046512,10.6538462 L18.6046512,4.88461538 L12.7906977,4.88461538 C12.4374923,4.88461538 12.1455898,4.62416565 12.0993922,4.28624975 L12.0930233,4.19230769 C12.0930233,3.84181929 12.355492,3.55216219 12.6960274,3.50631995 L12.7906977,3.5 L19.3023256,3.5 Z" id="形状结合" fill="#0073FF"></path>
            </g>
        </g>
    </g>
</svg>