<?xml version="1.0" encoding="UTF-8"?>
<svg width="22px" height="22px" viewBox="0 0 22 22" version="1.1" xmlns="http://www.w3.org/2000/svg" xmlns:xlink="http://www.w3.org/1999/xlink">
    <title>音频开启-hover/actived</title>
    <g id="V2.0.0_PC端交互" stroke="none" stroke-width="1" fill="none" fill-rule="evenodd">
        <g id="灵动课堂优化-02花名册" transform="translate(-1520.000000, -238.000000)">
            <g id="编组备份-6" transform="translate(1396.000000, 203.000000)">
                <g id="音频开启-hover/actived" transform="translate(124.000000, 35.000000)">
                    <rect id="矩形" x="0" y="0" width="22" height="22"></rect>
                    <path d="M17.5,11.45 C17.9418278,11.45 18.3,11.8081722 18.3,12.25 C18.3,16.2816787 15.0316787,19.55 11,19.55 C6.96832133,19.55 3.7,16.2816787 3.7,12.25 C3.7,11.8081722 4.0581722,11.45 4.5,11.45 C4.9418278,11.45 5.3,11.8081722 5.3,12.25 C5.3,15.3980231 7.85197693,17.95 11,17.95 C14.1480231,17.95 16.7,15.3980231 16.7,12.25 C16.7,11.8081722 17.0581722,11.45 17.5,11.45 Z M11,3.2 C13.209139,3.2 15,4.990861 15,7.2 L15,12.2 C15,14.409139 13.209139,16.2 11,16.2 C8.790861,16.2 7,14.409139 7,12.2 L7,7.2 C7,4.990861 8.790861,3.2 11,3.2 Z" id="形状结合" fill="#357BF6"></path>
                </g>
            </g>
        </g>
    </g>
</svg>