<?xml version="1.0" encoding="UTF-8"?>
<svg width="22px" height="22px" viewBox="0 0 22 22" version="1.1" xmlns="http://www.w3.org/2000/svg" xmlns:xlink="http://www.w3.org/1999/xlink">
    <title>摄像头开启-hover/actived</title>
    <g id="V2.0.0_PC端交互" stroke="none" stroke-width="1" fill="none" fill-rule="evenodd">
        <g id="灵动课堂优化-02花名册" transform="translate(-1582.000000, -238.000000)">
            <g id="编组备份-6" transform="translate(1396.000000, 203.000000)">
                <g id="摄像头开启-hover/actived" transform="translate(186.000000, 35.000000)">
                    <rect id="矩形" x="0" y="0" width="22" height="22"></rect>
                    <path d="M11,3 C14.8659932,3 18,6.13400675 18,10 C18,12.9395748 16.1880476,15.4559455 13.6201015,16.4931533 L16.2752068,18.0048646 C16.6591195,18.2235491 16.7930634,18.7120505 16.574379,19.0959632 C16.4320918,19.3457563 16.1667193,19.5 15.8792436,19.5 L5.98730082,19.5 C5.54547302,19.5 5.18730082,19.1418278 5.18730082,18.7 C5.18730082,18.4094663 5.34481433,18.1417698 5.59878648,18.0006742 L8.34193984,16.4776913 C5.79411465,15.4311015 4,12.9250697 4,10 C4,6.13400675 7.13400675,3 11,3 Z M11,5.2 C8.3490332,5.2 6.2,7.3490332 6.2,10 C6.2,12.6509668 8.3490332,14.8 11,14.8 C13.6509668,14.8 15.8,12.6509668 15.8,10 C15.8,7.3490332 13.6509668,5.2 11,5.2 Z M11,6.2 C13.098682,6.2 14.8,7.90131795 14.8,10 C14.8,12.098682 13.098682,13.8 11,13.8 C8.90131795,13.8 7.2,12.098682 7.2,10 C7.2,9.0818266 7.52564289,8.23971118 8.06773527,7.58284713 L8.072,7.576 L8.08075645,7.56384525 C8.20750437,7.37207766 8.37207766,7.20750437 8.56384525,7.08075645 L8.576,7.072 C9.23971118,6.52564289 10.0818266,6.2 11,6.2 Z M9.5,6.8 C9.20351029,6.8 8.92474816,6.87590076 8.68208407,7.00933179 L8.576,7.072 L8.44496582,7.18717113 C8.35498832,7.26895064 8.26895064,7.35498832 8.18717113,7.44496582 L8.072,7.576 L8.00933179,7.68208407 C7.87590076,7.92474816 7.8,8.20351029 7.8,8.5 C7.8,9.43888407 8.56111593,10.2 9.5,10.2 C10.4388841,10.2 11.2,9.43888407 11.2,8.5 C11.2,7.56111593 10.4388841,6.8 9.5,6.8 Z" id="形状结合" fill="#357BF6" fill-rule="nonzero"></path>
                </g>
            </g>
        </g>
    </g>
</svg>