<?xml version="1.0" encoding="UTF-8"?>
<svg width="22px" height="22px" viewBox="0 0 22 22" version="1.1" xmlns="http://www.w3.org/2000/svg" xmlns:xlink="http://www.w3.org/1999/xlink">
    <title>摄像头关闭-forbidden</title>
    <g id="V2.0.0_移动端交互" stroke="none" stroke-width="1" fill="none" fill-rule="evenodd">
        <g id="灵动课堂优化-01白板工具栏a备份" transform="translate(-415.000000, -781.000000)">
            <g id="摄像头关闭-forbidden" transform="translate(415.000000, 781.000000)">
                <rect id="矩形" x="0" y="0" width="22" height="22"></rect>
                <path d="M17.9563637,9.21399931 C17.9851946,9.47202159 18,9.7342818 18,10 C18,12.9395748 16.1880476,15.4559455 13.6201015,16.4931533 L16.2752068,18.0048646 C16.6591195,18.2235491 16.7930634,18.7120505 16.574379,19.0959632 C16.4320918,19.3457563 16.1667193,19.5 15.8792436,19.5 L5.98730082,19.5 C5.54547302,19.5 5.18730082,19.1418278 5.18730082,18.7 C5.18730082,18.4094663 5.34481433,18.1417698 5.59878648,18.0006742 L8.34193984,16.4776913 C7.80508772,16.2571644 7.30169935,15.9718402 6.84150798,15.631452 L9.0198574,14.3738252 C9.62356023,14.6475703 10.2939792,14.8 11,14.8 C13.4915591,14.8 15.5397342,12.9016471 15.7770464,10.4724202 L17.9563637,9.21399931 Z M19.9705081,6.24280548 C20.1638077,6.57761032 20.0490951,7.0057236 19.7142903,7.19902326 L3.60621778,16.4990233 C3.27141295,16.6923229 2.84329966,16.5776103 2.65,16.2428055 C2.45670034,15.9080006 2.57141295,15.4798874 2.90621778,15.2865877 L19.0142903,5.9865877 C19.3490951,5.79328804 19.7772084,5.90800064 19.9705081,6.24280548 Z M14.627579,11.1350728 C14.1448825,12.6793174 12.703316,13.8 11,13.8 C10.7152094,13.8 10.4377361,13.7686712 10.1708383,13.709272 L14.627579,11.1350728 Z M11,3 C13.5181811,3 15.7257956,4.32969392 16.9590174,6.32525569 L15.0520582,7.42577181 C14.200205,6.08767641 12.7037665,5.2 11,5.2 C8.3490332,5.2 6.2,7.3490332 6.2,10 C6.2,10.8019663 6.39667393,11.557997 6.74442068,12.2224908 L4.83802083,13.3239909 C4.30346538,12.3351223 4,11.2030002 4,10 C4,6.13400675 7.13400675,3 11,3 Z M11,6.2 C12.3338215,6.2 13.5071371,6.88720703 14.185201,7.9268751 L7.61163292,11.7219574 C7.34840934,11.2050312 7.2,10.619847 7.2,10 C7.2,9.15834105 7.47363048,8.38059193 7.93678473,7.75085935 L8.0671009,7.582 L8.00933179,7.68208407 C7.87590076,7.92474816 7.8,8.20351029 7.8,8.5 C7.8,9.43888407 8.56111593,10.2 9.5,10.2 C10.4388841,10.2 11.2,9.43888407 11.2,8.5 C11.2,7.56111593 10.4388841,6.8 9.5,6.8 C9.20351029,6.8 8.92474816,6.87590076 8.68208407,7.00933179 L8.576,7.072 C9.23971118,6.52564289 10.0818266,6.2 11,6.2 Z" id="形状结合" fill="#E2E2EE" fill-rule="nonzero"></path>
            </g>
        </g>
    </g>
</svg>