<?xml version="1.0" encoding="UTF-8"?>
<svg width="18px" height="18px" viewBox="0 0 18 18" version="1.1" xmlns="http://www.w3.org/2000/svg" xmlns:xlink="http://www.w3.org/1999/xlink">
    <title>美白</title>
    <g id="灵动课堂(特殊版)_美术宝/视频白板切换_大班课" stroke="none" stroke-width="1" fill="none" fill-rule="evenodd">
        <g id="编组-4备份-4" transform="translate(-51.000000, -288.000000)">
            <g id="美白" transform="translate(51.000000, 288.000000)">
                <rect id="矩形" x="0" y="0" width="18" height="18"></rect>
                <path d="M4.79023631,12.2548683 C5.85736906,13.9658021 7.50766249,15.1035515 9.03867307,15.1035515 C10.5350531,15.1035515 12.1592668,13.9507183 13.2144285,12.2432322 L12.4517022,11.6666002 C12.3600556,11.597314 12.3120403,11.484006 12.3257433,11.3693582 C12.3394462,11.2547104 12.4127855,11.1561405 12.518135,11.1107788 C12.6234845,11.0654171 12.7448391,11.0801552 12.8364857,11.1494413 L13.5329437,11.6760814 C14.0485535,10.6611572 14.3645035,9.49367119 14.3581862,8.27748603 C14.3581862,7.73877893 14.2841265,7.22162011 14.1456044,6.73635275 L13.2067328,7.36728651 C13.0594651,7.46391173 12.8624814,7.42306252 12.7650115,7.27568518 C12.6675416,7.12830784 12.7058975,6.92930737 12.8510219,6.82944134 L13.9232851,6.10886672 C13.1054065,4.18848364 11.2199677,2.89644852 8.99976718,2.89644852 C6.77657395,2.89644852 4.88985246,4.1915004 4.07368402,6.11576217 L5.15578058,6.84323224 C5.25249583,6.906689 5.30792499,7.01763704 5.30092014,7.13374632 C5.29391529,7.24985559 5.225557,7.35321531 5.12192602,7.40439059 C5.01829504,7.45556587 4.8953773,7.44666251 4.80006966,7.38107741 L3.85221978,6.74411014 C3.71128995,7.24325162 3.64034345,7.75981648 3.64137182,8.27877893 C3.63588597,9.50918595 3.95183593,10.6779649 4.46958344,11.6894413 L5.18357049,11.1494413 C5.32524385,11.0423343 5.52622948,11.0712767 5.63248449,11.2140862 C5.7387395,11.3568957 5.71002727,11.5594931 5.56835394,11.6666002 L4.79023631,12.2548683 L4.79023631,12.2548683 Z M9.03867307,15.75 C6.13013776,15.75 2.98303673,12.3126177 3.00006883,8.27748603 C3.00006883,4.86466879 5.66839763,2.25 8.99976718,2.25 C12.3311367,2.25 14.9999122,4.86466879 14.9999122,8.27619314 C15.0190629,12.2492658 11.9001793,15.749569 9.03867307,15.749569 L9.03867307,15.75 Z M7.14126315,12.2639186 C7.03113009,12.1276214 7.04924934,11.92759 7.18204917,11.8136526 C7.31484899,11.6997151 7.51363446,11.7136501 7.62951059,11.84502 C7.96512726,12.2423703 8.41019344,12.4656105 8.88176693,12.4656105 C9.35334041,12.4656105 9.7984066,12.2423703 10.1340233,11.84502 C10.2498994,11.7136501 10.4486849,11.6997151 10.5814847,11.8136526 C10.7142845,11.92759 10.7324038,12.1276214 10.6222707,12.2639186 C10.1690813,12.8009018 9.54829736,13.1116281 8.88176693,13.1116281 C8.21523649,13.1116281 7.59445254,12.8009018 7.14126315,12.2639186 L7.14126315,12.2639186 Z" id="形状" fill="#FFFFFF" fill-rule="nonzero"></path>
            </g>
        </g>
    </g>
</svg>