<?xml version="1.0" encoding="UTF-8"?>
<svg width="18px" height="18px" viewBox="0 0 18 18" version="1.1" xmlns="http://www.w3.org/2000/svg" xmlns:xlink="http://www.w3.org/1999/xlink">
    <title>美白</title>
    <g id="V2.0.0_PC端交互" stroke="none" stroke-width="1" fill="none" fill-rule="evenodd">
        <g id="灵动课堂优化-09设备设置" transform="translate(-220.000000, -654.000000)">
            <g id="美白" transform="translate(220.000000, 654.000000)">
                <rect id="矩形" x="0" y="0" width="18" height="18"></rect>
                <path d="M8.99976718,2.25 C12.3311367,2.25 14.9999122,4.86466879 14.9999122,8.27619314 C15.0190629,12.2492658 11.9001793,15.749569 9.03867307,15.749569 L9.03867307,15.75 C6.13013776,15.75 2.98303673,12.3126177 3.00006883,8.27748603 C3.00006883,4.86466879 5.66839763,2.25 8.99976718,2.25 Z M10.5814847,11.8136526 C10.4486849,11.6997151 10.2498994,11.7136501 10.1340233,11.84502 C9.7984066,12.2423703 9.35334041,12.4656105 8.88176693,12.4656105 C8.41019344,12.4656105 7.96512726,12.2423703 7.62951059,11.84502 C7.51363446,11.7136501 7.31484899,11.6997151 7.18204917,11.8136526 C7.04924934,11.92759 7.03113009,12.1276214 7.14126315,12.2639186 C7.59445254,12.8009018 8.21523649,13.1116281 8.88176693,13.1116281 C9.54829736,13.1116281 10.1690813,12.8009018 10.6222707,12.2639186 C10.7324038,12.1276214 10.7142845,11.92759 10.5814847,11.8136526 Z" id="形状结合" fill="#FFFFFF" fill-rule="nonzero"></path>
            </g>
        </g>
    </g>
</svg>