<?xml version="1.0" encoding="UTF-8"?>
<svg width="30px" height="30px" viewBox="0 0 30 30" version="1.1" xmlns="http://www.w3.org/2000/svg" xmlns:xlink="http://www.w3.org/1999/xlink">
    <title>放大</title>
    <defs>
        <filter x="-32.5%" y="-32.5%" width="165.0%" height="165.0%" filterUnits="objectBoundingBox" id="filter-1">
            <feOffset dx="0" dy="1" in="SourceAlpha" result="shadowOffsetOuter1"></feOffset>
            <feGaussianBlur stdDeviation="1" in="shadowOffsetOuter1" result="shadowBlurOuter1"></feGaussianBlur>
            <feColorMatrix values="0 0 0 0 0.0509803922   0 0 0 0 0.11372549   0 0 0 0 0.239215686  0 0 0 0.5 0" type="matrix" in="shadowBlurOuter1" result="shadowMatrixOuter1"></feColorMatrix>
            <feMerge>
                <feMergeNode in="shadowMatrixOuter1"></feMergeNode>
                <feMergeNode in="SourceGraphic"></feMergeNode>
            </feMerge>
        </filter>
    </defs>
    <g id="大班课-H5样式" stroke="none" stroke-width="1" fill="none" fill-rule="evenodd">
        <g id="大班课-H5-横屏" transform="translate(-639.000000, -133.000000)">
            <g id="编组-11" transform="translate(467.000000, 46.000000)">
                <g id="放大" filter="url(#filter-1)" transform="translate(177.000000, 92.000000)">
                    <rect id="矩形" x="0" y="0" width="20" height="20"></rect>
                    <g id="编组-4" transform="translate(4.000000, 4.000000)" fill="#FFFFFF" fill-rule="nonzero">
                        <path d="M10.1522396,5.53758522 C10.1522396,2.98898199 8.08618844,0.922930869 5.53758522,0.922930869 C2.98898199,0.922930869 0.922930869,2.98898199 0.922930869,5.53758522 C0.922930869,8.08618844 2.98898199,10.1522396 5.53758522,10.1522396 C8.08618844,10.1522396 10.1522396,8.08618844 10.1522396,5.53758522 L10.1522396,5.53758522 Z M11.0751704,5.53758522 C11.0751704,8.59590908 8.59590908,11.0751704 5.53758522,11.0751704 C2.47926135,11.0751704 0,8.59590908 0,5.53758522 C0,2.47926135 2.47926135,0 5.53758522,0 C8.59590908,0 11.0751704,2.47926135 11.0751704,5.53758522 L11.0751704,5.53758522 Z" id="形状"></path>
                        <path d="M8.90166823,9.55694915 C8.72071741,9.37599832 8.72071741,9.08261906 8.90166823,8.90166823 C9.08261906,8.72071741 9.37599832,8.72071741 9.55694915,8.90166823 L11.8642763,11.2089954 C11.981331,11.3260501 12.027046,11.496661 11.9842011,11.6565606 C11.9413561,11.8164602 11.8164602,11.9413561 11.6565606,11.9842011 C11.496661,12.027046 11.3260501,11.981331 11.2089954,11.8642763 L8.90166823,9.55694915 Z M3.23025804,5.99905065 C2.97539772,5.99905065 2.76879261,5.79244554 2.76879261,5.53758522 C2.76879261,5.28272489 2.97539772,5.07611978 3.23025804,5.07611978 L7.84491239,5.07611978 C8.09977271,5.07611978 8.30637782,5.28272489 8.30637782,5.53758522 C8.30637782,5.79244554 8.09977271,5.99905065 7.84491239,5.99905065 L3.23025804,5.99905065 Z M5.07611978,3.23025804 C5.07611978,2.97539772 5.28272489,2.76879261 5.53758522,2.76879261 C5.79244554,2.76879261 5.99905065,2.97539772 5.99905065,3.23025804 L5.99905065,7.84491239 C5.99905065,8.09977271 5.79244554,8.30637782 5.53758522,8.30637782 C5.28272489,8.30637782 5.07611978,8.09977271 5.07611978,7.84491239 L5.07611978,3.23025804 Z" id="形状"></path>
                    </g>
                </g>
            </g>
        </g>
    </g>
</svg>