<?xml version="1.0" encoding="UTF-8"?>
<svg width="18px" height="18px" viewBox="0 0 18 18" version="1.1" xmlns="http://www.w3.org/2000/svg" xmlns:xlink="http://www.w3.org/1999/xlink">
    <title>放大备份</title>
    <g id="大班课-H5样式" stroke="none" stroke-width="1" fill="none" fill-rule="evenodd">
        <g id="大班课-H5-横屏-倒计时" transform="translate(-429.000000, -336.000000)">
            <g id="编组-5" transform="translate(423.000000, 330.000000)">
                <g id="放大备份" transform="translate(6.000000, 6.000000)">
                    <rect id="矩形" x="0" y="0" width="18" height="18"></rect>
                    <g id="编组-4" transform="translate(2.400000, 2.400000)" fill="#7B88A0" fill-rule="nonzero">
                        <path d="M11.1674635,6.09134374 C11.1674635,3.28788019 8.89480728,1.01522396 6.09134374,1.01522396 C3.28788019,1.01522396 1.01522396,3.28788019 1.01522396,6.09134374 C1.01522396,8.89480728 3.28788019,11.1674635 6.09134374,11.1674635 C8.89480728,11.1674635 11.1674635,8.89480728 11.1674635,6.09134374 L11.1674635,6.09134374 Z M12.1826875,6.09134374 C12.1826875,9.45549999 9.45549999,12.1826875 6.09134374,12.1826875 C2.72718749,12.1826875 0,9.45549999 0,6.09134374 C0,2.72718749 2.72718749,0 6.09134374,0 C9.45549999,0 12.1826875,2.72718749 12.1826875,6.09134374 L12.1826875,6.09134374 Z" id="形状"></path>
                        <path d="M9.79183506,10.5126441 C9.59278915,10.3135982 9.59278915,9.99088097 9.79183506,9.79183506 C9.99088097,9.59278915 10.3135982,9.59278915 10.5126441,9.79183506 L13.050704,12.3298949 C13.1794641,12.4586551 13.2297506,12.6463271 13.1826212,12.8222167 C13.1354917,12.9981063 12.9981063,13.1354917 12.8222167,13.1826212 C12.6463271,13.2297506 12.4586551,13.1794641 12.3298949,13.050704 L9.79183506,10.5126441 Z M3.55328385,6.59895572 C3.27293749,6.59895572 3.04567187,6.37169009 3.04567187,6.09134374 C3.04567187,5.81099738 3.27293749,5.58373176 3.55328385,5.58373176 L8.62940363,5.58373176 C8.90974998,5.58373176 9.13701561,5.81099738 9.13701561,6.09134374 C9.13701561,6.37169009 8.90974998,6.59895572 8.62940363,6.59895572 L3.55328385,6.59895572 Z M5.58373176,3.55328385 C5.58373176,3.27293749 5.81099738,3.04567187 6.09134374,3.04567187 C6.37169009,3.04567187 6.59895572,3.27293749 6.59895572,3.55328385 L6.59895572,8.62940363 C6.59895572,8.90974998 6.37169009,9.13701561 6.09134374,9.13701561 C5.81099738,9.13701561 5.58373176,8.90974998 5.58373176,8.62940363 L5.58373176,3.55328385 Z" id="形状"></path>
                    </g>
                </g>
            </g>
        </g>
    </g>
</svg>