<?xml version="1.0" encoding="UTF-8"?>
<svg width="34px" height="34px" viewBox="0 0 34 34" version="1.1" xmlns="http://www.w3.org/2000/svg" xmlns:xlink="http://www.w3.org/1999/xlink">
    <title>放大</title>
    <defs>
        <filter x="-36.4%" y="-36.4%" width="172.7%" height="172.7%" filterUnits="objectBoundingBox" id="filter-1">
            <feOffset dx="0" dy="1" in="SourceAlpha" result="shadowOffsetOuter1"></feOffset>
            <feGaussianBlur stdDeviation="1.5" in="shadowOffsetOuter1" result="shadowBlurOuter1"></feGaussianBlur>
            <feColorMatrix values="0 0 0 0 0.0509803922   0 0 0 0 0.11372549   0 0 0 0 0.239215686  0 0 0 0.5 0" type="matrix" in="shadowBlurOuter1" result="shadowMatrixOuter1"></feColorMatrix>
            <feMerge>
                <feMergeNode in="shadowMatrixOuter1"></feMergeNode>
                <feMergeNode in="SourceGraphic"></feMergeNode>
            </feMerge>
        </filter>
    </defs>
    <g id="大班课-H5样式" stroke="none" stroke-width="1" fill="none" fill-rule="evenodd">
        <g id="大班课-H5-横屏-视频区放大" transform="translate(-633.000000, -341.000000)">
            <g id="放大" filter="url(#filter-1)" transform="translate(639.000000, 347.000000)">
                <rect id="矩形" x="0" y="0" width="22" height="22"></rect>
                <g id="编组-4" transform="translate(3.200000, 3.200000)" fill="#FFFFFF" fill-rule="nonzero">
                    <path d="M13.1979114,7.19886078 C13.1979114,3.88567659 10.512045,1.19981013 7.19886078,1.19981013 C3.88567659,1.19981013 1.19981013,3.88567659 1.19981013,7.19886078 C1.19981013,10.512045 3.88567659,13.1979114 7.19886078,13.1979114 C10.512045,13.1979114 13.1979114,10.512045 13.1979114,7.19886078 L13.1979114,7.19886078 Z M14.3977216,7.19886078 C14.3977216,11.1746818 11.1746818,14.3977216 7.19886078,14.3977216 C3.22303976,14.3977216 0,11.1746818 0,7.19886078 C0,3.22303976 3.22303976,0 7.19886078,0 C11.1746818,0 14.3977216,3.22303976 14.3977216,7.19886078 L14.3977216,7.19886078 Z" id="形状"></path>
                    <path d="M11.5721687,12.4240339 C11.3369326,12.1887978 11.3369326,11.8074048 11.5721687,11.5721687 C11.8074048,11.3369326 12.1887978,11.3369326 12.4240339,11.5721687 L15.4235592,14.571694 C15.5757303,14.7238651 15.6351598,14.9456592 15.5794614,15.1535288 C15.5237629,15.3613983 15.3613983,15.5237629 15.1535288,15.5794614 C14.9456592,15.6351598 14.7238651,15.5757303 14.571694,15.4235592 L11.5721687,12.4240339 Z M4.19933546,7.79876585 C3.86801704,7.79876585 3.59943039,7.5301792 3.59943039,7.19886078 C3.59943039,6.86754236 3.86801704,6.59895572 4.19933546,6.59895572 L10.1983861,6.59895572 C10.5297045,6.59895572 10.7982912,6.86754236 10.7982912,7.19886078 C10.7982912,7.5301792 10.5297045,7.79876585 10.1983861,7.79876585 L4.19933546,7.79876585 Z" id="形状"></path>
                </g>
            </g>
        </g>
    </g>
</svg>