<svg width="80" height="80" viewBox="0 0 80 80" fill="none" xmlns="http://www.w3.org/2000/svg">
<circle cx="40" cy="40" r="40" fill="#1D1B7B"/>
<path d="M21.7727 52H18.8182L27.3636 28.7273H30.2727L38.8182 52H35.8636L28.9091 32.4091H28.7273L21.7727 52ZM22.8636 42.9091H34.7727V45.4091H22.8636V42.9091ZM57.2585 36C57.0085 35.2348 56.679 34.5492 56.2699 33.9432C55.8684 33.3295 55.3873 32.8068 54.8267 32.375C54.2737 31.9432 53.6449 31.6136 52.9403 31.3864C52.2358 31.1591 51.4631 31.0455 50.6222 31.0455C49.2434 31.0455 47.9896 31.4015 46.8608 32.1136C45.732 32.8258 44.8343 33.875 44.1676 35.2614C43.5009 36.6477 43.1676 38.3485 43.1676 40.3636C43.1676 42.3788 43.5047 44.0795 44.179 45.4659C44.8532 46.8523 45.7661 47.9015 46.9176 48.6136C48.0691 49.3258 49.3646 49.6818 50.804 49.6818C52.1373 49.6818 53.3116 49.3977 54.3267 48.8295C55.3494 48.2538 56.1449 47.4432 56.7131 46.3977C57.2888 45.3447 57.5767 44.1061 57.5767 42.6818L58.4403 42.8636H51.4403V40.3636H60.304V42.8636C60.304 44.7803 59.8949 46.447 59.0767 47.8636C58.2661 49.2803 57.1449 50.3788 55.7131 51.1591C54.2888 51.9318 52.6525 52.3182 50.804 52.3182C48.7434 52.3182 46.9328 51.8333 45.3722 50.8636C43.8191 49.8939 42.607 48.5152 41.7358 46.7273C40.8722 44.9394 40.4403 42.8182 40.4403 40.3636C40.4403 38.5227 40.6866 36.8674 41.179 35.3977C41.679 33.9205 42.3835 32.6629 43.2926 31.625C44.2017 30.5871 45.2775 29.7917 46.5199 29.2386C47.7623 28.6856 49.1297 28.4091 50.6222 28.4091C51.8494 28.4091 52.9934 28.5947 54.054 28.9659C55.1222 29.3295 56.0729 29.8485 56.9062 30.5227C57.7472 31.1894 58.4479 31.9886 59.0085 32.9205C59.5691 33.8447 59.9555 34.8712 60.1676 36H57.2585Z" fill="white"/>
</svg>
