<svg width="36" height="36" viewBox="0 0 36 36" fill="none" xmlns="http://www.w3.org/2000/svg">
<path d="M27.7106 15.7976C26.674 15.4418 25.755 14.7286 25.164 13.7052C24.5731 12.6814 24.415 11.5293 24.625 10.4539C23.5424 9.46336 22.2459 8.70327 20.8127 8.24994C19.9861 8.97041 18.9082 9.41053 17.7254 9.41053C16.5427 9.41053 15.4648 8.97041 14.6382 8.24994C13.2054 8.70327 11.9084 9.46336 10.8258 10.4539C11.0363 11.5293 10.8778 12.6814 10.2869 13.7052C9.69591 14.7286 8.7769 15.4418 7.7403 15.7976C7.58479 16.507 7.5 17.2432 7.5 17.9999C7.5 18.7561 7.58479 19.4924 7.7403 20.2018C8.7769 20.5575 9.69591 21.2707 10.2869 22.2946C10.8778 23.318 11.0363 24.4705 10.8258 25.5458C11.9084 26.536 13.2054 27.2965 14.6382 27.7498C15.4648 27.0289 16.5427 26.5893 17.7254 26.5893C18.9082 26.5893 19.9861 27.0289 20.8127 27.7498C22.2459 27.2965 23.5424 26.536 24.625 25.5458C24.415 24.4705 24.5731 23.318 25.164 22.2946C25.755 21.2707 26.674 20.5575 27.7106 20.2018C27.8665 19.4924 27.9509 18.7561 27.9509 17.9999C27.9509 17.2432 27.8665 16.507 27.7106 15.7976ZM21.5603 17.9997C21.5603 20.1177 19.8437 21.8343 17.7257 21.8343C15.6078 21.8343 13.8912 20.1177 13.8912 17.9997C13.8912 15.8818 15.6078 14.1652 17.7257 14.1652C19.8437 14.1652 21.5603 15.8818 21.5603 17.9997Z" fill="black"/>
</svg>
