<svg width="36" height="36" viewBox="0 0 36 36" fill="none" xmlns="http://www.w3.org/2000/svg">
<path d="M17.5294 10.0588H15.9412C11.5554 10.0588 8 13.6142 8 18V18C8 22.3858 11.5554 25.9412 15.9412 25.9412H17.5294" stroke="black" stroke-width="2.1" stroke-linecap="round"/>
<path d="M19.8699 21.7059H16.4705C14.4238 21.7059 12.7646 20.0467 12.7646 18C12.7646 15.9533 14.4238 14.2941 16.4705 14.2941H19.8699C20.3316 14.2941 20.7058 13.9199 20.7058 13.4582V10.5638C20.7058 10.0576 21.3482 9.84009 21.6558 10.2422L27.0963 17.3568C27.3867 17.7365 27.3866 18.2635 27.0963 18.6432L21.6558 25.7578C21.3482 26.1599 20.7058 25.9424 20.7058 25.4362V22.5418C20.7058 22.0801 20.3316 21.7059 19.8699 21.7059Z" fill="black"/>
</svg>
