<svg width="48"
  height="48"
  viewBox="0 0 48 48"
  fill="none"
  xmlns="http://www.w3.org/2000/svg">
  <path fillRule="evenodd"
    clip-rule="evenodd"
    d="M23.7345 9.7248C23.8533 9.52184 24.1466 9.52185 24.2654 9.72479L27.7046 15.6H20.2954L23.7345 9.7248ZM17.0509 15.6H7.99998C7.22678 15.6 6.59998 16.2268 6.59998 17C6.59998 17.7732 7.22678 18.4 7.99998 18.4H15.4119L12.4082 23.5313C12.2043 23.8797 12.017 24.2363 11.8466 24.6H7.99998C7.22678 24.6 6.59998 25.2268 6.59998 26C6.59998 26.7732 7.22678 27.4 7.99998 27.4H10.9003C10.7015 28.316 10.6 29.2545 10.6 30.1998C10.6 31.3754 10.7537 32.5151 11.042 33.6H7.99998C7.22678 33.6 6.59998 34.2268 6.59998 35C6.59998 35.7732 7.22678 36.4 7.99998 36.4H12.1438C14.3638 40.565 18.751 43.4 23.8002 43.4H24.1998C29.249 43.4 33.6361 40.565 35.8562 36.4H40C40.7732 36.4 41.4 35.7732 41.4 35C41.4 34.2268 40.7732 33.6 40 33.6H36.9579C37.2463 32.5151 37.4 31.3754 37.4 30.1998C37.4 29.2545 37.2985 28.316 37.0996 27.4H40C40.7732 27.4 41.4 26.7732 41.4 26C41.4 25.2268 40.7732 24.6 40 24.6H36.1534C35.983 24.2363 35.7957 23.8797 35.5917 23.5313L32.588 18.4H40C40.7732 18.4 41.4 17.7732 41.4 17C41.4 16.2268 40.7732 15.6 40 15.6H30.949L26.6819 8.31029C25.4817 6.26001 22.5182 6.26002 21.3181 8.31029L17.0509 15.6ZM34.0314 33.6C34.3999 32.5345 34.6 31.3905 34.6 30.1998C34.6 29.2492 34.4697 28.3075 34.216 27.4H13.7839C13.5303 28.3075 13.4 29.2492 13.4 30.1998C13.4 31.3905 13.6001 32.5345 13.9685 33.6H34.0314ZM15.4494 36.4C17.3449 38.9488 20.3797 40.6 23.8002 40.6H24.1998C27.6202 40.6 30.655 38.9488 32.5505 36.4H15.4494ZM15.0271 24.6H32.9729L29.3436 18.4H18.6563L15.0271 24.6Z"
    fill="black" />
</svg>
