<svg width="15" height="16" viewBox="0 0 15 16" fill="none" xmlns="http://www.w3.org/2000/svg">
<path d="M4.70088 4.56889V11.0095H3.14419V4.56889H4.70088ZM8.05879 11.0095H5.67814V4.56889H8.05564C8.71187 4.56889 9.27689 4.69783 9.75071 4.9557C10.2266 5.21148 10.5935 5.58048 10.8514 6.06269C11.1093 6.5428 11.2382 7.11726 11.2382 7.78606C11.2382 8.45696 11.1093 9.03351 10.8514 9.51572C10.5956 9.99793 10.2298 10.368 9.75386 10.6259C9.27794 10.8816 8.71291 11.0095 8.05879 11.0095ZM7.23484 9.6824H7.99904C8.35964 9.6824 8.66469 9.6216 8.91418 9.5C9.16577 9.3763 9.35551 9.17608 9.4834 8.89933C9.61339 8.62049 9.67838 8.2494 9.67838 7.78606C9.67838 7.32272 9.61339 6.95373 9.4834 6.67908C9.35341 6.40233 9.16158 6.20316 8.90789 6.08156C8.65631 5.95786 8.34602 5.89601 7.97702 5.89601H7.23484V9.6824Z" fill="black"/>
</svg>
