<svg width="48" height="48" viewBox="0 0 48 48" fill="none" xmlns="http://www.w3.org/2000/svg">
<path d="M21.0746 20.9118C21.2029 17.7894 21.2671 16.2281 22.4279 15.1141C23.5887 14 25.2529 14 28.5812 14H31.3199C34.7022 14 36.3933 14 37.5535 15.111C38.7137 16.222 38.7829 17.819 38.9213 21.0129C38.9693 22.1201 39 23.2981 39 24.5C39 26.3124 38.9302 28.0705 38.8366 29.6133C38.6827 32.1497 38.6057 33.4179 37.5714 34.4821C36.5371 35.5464 35.3653 35.6511 33.0216 35.8605C32.0776 35.9449 31.0565 36 30 36C28.9133 36 27.864 35.9417 26.8975 35.8532C24.5911 35.6421 23.4378 35.5365 22.406 34.4708C21.3741 33.405 21.3011 32.1687 21.1551 29.696C21.0657 28.1826 21 26.4179 21 24.5C21 23.2268 21.0289 22.0212 21.0746 20.9118Z" fill="url(#paint0_linear_256_2624)"/>
<path fillRule="evenodd" clip-rule="evenodd" d="M17 11C15.8954 11 15 11.8954 15 13V14L15 14.005C12.7893 14.03 11.5372 14.1798 10.576 15.0791C9.42262 16.1582 9.32704 17.5935 9.13588 20.4642C9.05397 21.6942 9 23.0535 9 24.5C9 26.393 9.09243 28.1367 9.21897 29.6369C9.42363 32.0632 9.52596 33.2764 10.5513 34.3088C11.5766 35.3413 12.8166 35.4545 15.2967 35.6811H15.2967C17.2338 35.858 19.551 36 22 36C24.4005 36 26.6744 35.8636 28.5878 35.6916C31.1252 35.4634 32.3938 35.3493 33.4205 34.3189C34.4472 33.2885 34.5555 32.0317 34.7722 29.518C34.9033 27.9983 35 26.2752 35 24.5C35 23.1478 34.9439 21.8258 34.8592 20.6009V20.6008C34.6542 17.6345 34.5517 16.1514 33.3991 15.0757C32.4528 14.1925 31.199 14.0345 29 14.0062L29 14V13C29 11.8954 28.1046 11 27 11C25.8954 11 25 11.8954 25 13V14H19V13C19 11.8954 18.1046 11 17 11ZM28.9245 23.1813C29.5769 22.6707 29.6918 21.7279 29.1813 21.0755C28.6707 20.4231 27.7279 20.3082 27.0755 20.8187L20.5691 25.9107L18.1645 22.9492C17.6423 22.3061 16.6976 22.2081 16.0545 22.7303C15.4114 23.2525 15.3133 24.1971 15.8355 24.8403L19.1689 28.9455C19.6844 29.5805 20.6137 29.6854 21.2578 29.1813L28.9245 23.1813Z" fill="white"/>
<defs>
<linearGradient id="paint0_linear_256_2624" x1="39" y1="25" x2="32.8929" y2="25" gradientUnits="userSpaceOnUse">
<stop stop-color="white"/>
<stop offset="1" stop-color="white" stop-opacity="0"/>
</linearGradient>
</defs>
</svg>
