<svg width="18" height="18" viewBox="0 0 18 18" fill="none" xmlns="http://www.w3.org/2000/svg">
<path fillRule="evenodd" clip-rule="evenodd" d="M4.5 5.25L9 3.75L13.5 5.25V9.75C13.5 10.9435 13.0259 12.0881 12.182 12.932C11.3381 13.7759 10.1935 14.25 9 14.25C7.80653 14.25 6.66193 13.7759 5.81802 12.932C4.97411 12.0881 4.5 10.9435 4.5 9.75V5.25ZM12.0354 7.93772C12.2771 7.71108 12.2894 7.33138 12.0627 7.08964C11.8361 6.84789 11.4564 6.83564 11.2146 7.06228L8.63847 9.47744L7.36176 8.20074C7.12745 7.96642 6.74755 7.96642 6.51324 8.20074C6.27892 8.43505 6.27892 8.81495 6.51324 9.04926L8.20074 10.7368C8.42973 10.9658 8.79911 10.9717 9.03536 10.7502L12.0354 7.93772Z" fill="white"/>
</svg>
