<svg width="48" height="48" viewBox="0 0 48 48" fill="none" xmlns="http://www.w3.org/2000/svg">
<path d="M10.25 15.9286C10.25 15.5538 10.5538 15.25 10.9286 15.25H25.5C30.6086 15.25 34.75 19.3914 34.75 24.5C34.75 29.6086 30.6086 33.75 25.5 33.75H10.9286C10.5538 33.75 10.25 33.4462 10.25 33.0714V15.9286Z" stroke="url(#paint0_linear_645_17442)" stroke-width="2.5"/>
<mask id="path-2-inside-1_645_17442" fill="white">
<path fillRule="evenodd" clip-rule="evenodd" d="M9.92857 14C8.86345 14 8 14.8635 8 15.9286V33.0714C8 34.1365 8.86345 35 9.92857 35H20.5C24.5715 35 28.1017 32.6826 29.8437 29.2949L37.0205 33.3263C38.3537 34.0752 40 33.1117 40 31.5826V17.5474C40 15.9895 38.2977 15.0298 36.9648 15.8361L30.01 20.0433C28.3337 16.4726 24.7056 14 20.5 14H9.92857Z"/>
</mask>
<path fillRule="evenodd" clip-rule="evenodd" d="M9.92857 14C8.86345 14 8 14.8635 8 15.9286V33.0714C8 34.1365 8.86345 35 9.92857 35H20.5C24.5715 35 28.1017 32.6826 29.8437 29.2949L37.0205 33.3263C38.3537 34.0752 40 33.1117 40 31.5826V17.5474C40 15.9895 38.2977 15.0298 36.9648 15.8361L30.01 20.0433C28.3337 16.4726 24.7056 14 20.5 14H9.92857Z" fill="white"/>
<path d="M29.8437 29.2949L31.0681 27.1153C30.4761 26.7827 29.7743 26.7053 29.124 26.9008C28.4737 27.0963 27.9309 27.5478 27.6204 28.1517L29.8437 29.2949ZM37.0205 33.3263L38.2448 31.1467H38.2448L37.0205 33.3263ZM36.9648 15.8361L38.2588 17.9752V17.9752L36.9648 15.8361ZM30.01 20.0433L27.747 21.1057C28.0481 21.7472 28.6074 22.2308 29.2857 22.4361C29.964 22.6414 30.6976 22.5492 31.304 22.1824L30.01 20.0433ZM10.5 15.9286C10.5 16.2442 10.2442 16.5 9.92857 16.5V11.5C7.48274 11.5 5.5 13.4827 5.5 15.9286H10.5ZM10.5 33.0714V15.9286H5.5V33.0714H10.5ZM9.92857 32.5C10.2442 32.5 10.5 32.7558 10.5 33.0714H5.5C5.5 35.5173 7.48274 37.5 9.92857 37.5V32.5ZM20.5 32.5H9.92857V37.5H20.5V32.5ZM27.6204 28.1517C26.29 30.739 23.5985 32.5 20.5 32.5V37.5C25.5445 37.5 29.9135 34.6263 32.067 30.4382L27.6204 28.1517ZM28.6193 31.4746L35.7961 35.506L38.2448 31.1467L31.0681 27.1153L28.6193 31.4746ZM35.7961 35.506C38.7958 37.191 42.5 35.0231 42.5 31.5826H37.5C37.5 31.2003 37.9115 30.9594 38.2448 31.1467L35.7961 35.506ZM42.5 31.5826V17.5474H37.5V31.5826H42.5ZM42.5 17.5474C42.5 14.0422 38.6698 11.8828 35.6708 13.697L38.2588 17.9752C37.9255 18.1767 37.5 17.9368 37.5 17.5474H42.5ZM35.6708 13.697L28.716 17.9042L31.304 22.1824L38.2588 17.9752L35.6708 13.697ZM20.5 16.5C23.7005 16.5 26.4671 18.3794 27.747 21.1057L32.273 18.9809C30.2004 14.5657 25.7107 11.5 20.5 11.5V16.5ZM9.92857 16.5H20.5V11.5H9.92857V16.5Z" fill="black" mask="url(#path-2-inside-1_645_17442)"/>
<path d="M23 26.4286C22.356 27.9422 20.8851 29 19.1736 29C16.8686 29 15 27.0812 15 24.7143C15 22.3474 16.8686 20.4286 19.1736 20.4286C20.3415 20.4286 21.3973 20.9211 22.1548 21.7149L21.6778 20" stroke="black" stroke-width="2.5" stroke-linecap="round" strokeLinejoin="round"/>
<defs>
<linearGradient id="paint0_linear_645_17442" x1="33.5" y1="23.5" x2="21" y2="23.5" gradientUnits="userSpaceOnUse">
<stop/>
<stop offset="1" stop-opacity="0"/>
</linearGradient>
</defs>
</svg>
