<svg width="18" height="18" viewBox="0 0 18 18" fill="none" xmlns="http://www.w3.org/2000/svg">
<path d="M11.716 6.91913C11.1824 6.31987 10.4561 5.92593 9.66278 5.80542C8.86946 5.68491 8.05896 5.8454 7.37142 6.25915C6.68389 6.67291 6.16255 7.3139 5.89754 8.07131C5.63254 8.82871 5.64053 9.65491 5.92013 10.4071C6.19974 11.1592 6.73338 11.79 7.42879 12.1904C8.1242 12.5907 8.93765 12.7355 9.7285 12.5997C10.5193 12.4639 11.2379 12.0559 11.7598 11.4465C12.2818 10.837 12.5744 10.0643 12.587 9.26198L13.8132 8.9335C13.8731 9.92641 13.6137 10.9124 13.0731 11.7474C12.5325 12.5824 11.7389 13.2224 10.8084 13.5741C9.87791 13.9257 8.85933 13.9704 7.90161 13.7017C6.94389 13.4329 6.09727 12.8649 5.48555 12.0805C4.87383 11.2961 4.52909 10.3366 4.50176 9.34226C4.47443 8.34793 4.76593 7.37093 5.33364 6.55414C5.90135 5.73734 6.71548 5.1236 7.65699 4.80265C8.5985 4.48171 9.61799 4.4704 10.5664 4.77038L10.1197 3.9971L11.1972 3.375L13.0393 6.56515L11.716 6.91913Z" fill="white"/>
<path d="M10.8843 8.76825C11.1131 9.00519 11.1219 9.37796 10.9047 9.62549C10.3865 10.2159 9.73808 10.6776 9.0107 10.9742L8.92638 11.0086C8.53636 11.1676 8.09692 10.9382 8.00448 10.5273L7.98551 10.4429C7.79958 9.6163 7.79958 8.7587 7.98551 7.93208C8.0859 7.4858 8.5737 7.24721 8.98761 7.44196L9.17786 7.53147C9.79859 7.82353 10.3609 8.22617 10.8374 8.7197L10.8843 8.76825Z" fill="white"/>
</svg>
