<?xml version="1.0" encoding="UTF-8"?>
<svg width="22px" height="22px" viewBox="0 0 22 22" version="1.1" xmlns="http://www.w3.org/2000/svg" xmlns:xlink="http://www.w3.org/1999/xlink">
    <title>常规设置</title>
    <g id="职教大班课v2.7" stroke="none" stroke-width="1" fill="none" fill-rule="evenodd">
        <g id="登录页-设置-关于我们" transform="translate(-311.000000, -186.000000)">
            <g id="编组-2备份-4" transform="translate(281.000000, 175.000000)">
                <g id="常规设置" transform="translate(30.000000, 11.000000)">
                    <rect id="矩形" x="0" y="0" width="22" height="22"></rect>
                    <g id="设置" transform="translate(4.000000, 4.000000)" fill="#7B88A0" fill-rule="nonzero">
                        <path d="M13.6921224,7.9808378 L13.6921224,5.72410406 C13.2498087,5.63202435 12.7594561,5.54917447 12.2308724,5.47621037 C12.0988592,4.95908972 11.8955998,4.471845 11.6300117,4.02423704 C11.9550705,3.59521367 12.2436942,3.18855432 12.4867153,2.81400418 L10.8909377,1.21822659 C10.5163875,1.46124769 10.1096813,1.74988696 9.68070484,2.07493021 C9.23369034,1.80971691 8.74717963,1.60667615 8.23087108,1.47461611 C8.15734474,0.941331532 8.07385456,0.449573418 7.98083782,0.0128194622 L5.72410406,0.0128194622 C5.63108731,0.449573387 5.54759712,0.941347129 5.47407079,1.47461608 C4.95776224,1.60666051 4.47125154,1.80971688 4.02423704,2.07493018 C3.59526053,1.74987132 3.18855432,1.46124765 2.81400418,1.21822656 L1.21822659,2.81400415 C1.46124769,3.18855431 1.74988696,3.59521366 2.07493021,4.02423701 C1.80968568,4.47120465 1.60667615,4.95776221 1.47461611,5.47407076 C0.941331532,5.5475971 0.449573418,5.63108729 0.0128194927,5.72410403 L0.0128194927,7.9808534 C0.449573418,8.07387015 0.94134716,8.15736034 1.47461611,8.23088666 C1.60666054,8.74719521 1.80971691,9.23370592 2.07493021,9.68072042 C1.74987135,10.1096969 1.46124769,10.5164031 1.21822659,10.8909533 L2.81400418,12.4867309 C3.18855434,12.2437098 3.59526054,11.9550705 4.02423704,11.6300272 C4.47125154,11.8952405 4.95776224,12.0982813 5.47407079,12.2303413 C5.54759714,12.7636259 5.63108732,13.255384 5.72410406,13.6921536 L7.98085343,13.6921536 C8.07387018,13.2553997 8.15736037,12.7636259 8.23088669,12.2303413 C8.74792925,12.0981251 9.23508028,11.8946471 9.68261015,11.6288872 C10.107901,11.9509944 10.5132016,12.2391495 10.8909689,12.4867465 L12.4867465,10.8909689 C12.2391496,10.5131703 11.9510256,10.1079165 11.6289341,9.68261012 C11.8950375,9.23443993 12.0987342,8.7465549 12.2309036,8.2287627 C12.7594405,8.15576739 13.2498087,8.07291751 13.6921224,7.9808378 Z M6.85247093,10.2722889 C4.96374367,10.2722889 3.43265301,8.74118257 3.43265301,6.85247093 C3.43265301,4.96375929 4.96374367,3.43265301 6.85247093,3.43265301 C8.74119819,3.43265301 10.2722889,4.96374367 10.2722889,6.85247093 C10.2722889,8.74119819 8.74119819,10.2722889 6.85247093,10.2722889 Z" id="形状"></path>
                    </g>
                </g>
            </g>
        </g>
    </g>
</svg>