<svg width="230" height="46" viewBox="0 0 230 46" fill="none" xmlns="http://www.w3.org/2000/svg">
<g clip-path="url(#clip0_863_3713)">
<path fill-rule="evenodd" clip-rule="evenodd" d="M24.376 11.6194C29.2177 13.0191 36.7469 15.194 37.813 15.4249L39.1983 15.8908C41.1014 16.5308 42.2797 18.4075 42.0364 20.4112L42.022 20.53C41.7847 22.4847 40.2113 24.0354 38.2474 24.2502C38.0403 24.2728 37.959 24.5332 38.1186 24.6628L44.1583 29.5685C44.4145 29.7766 44.5625 30.0889 44.5625 30.4214C44.5625 32.7638 42.7216 34.733 40.3735 34.9024L18.2049 36.5019C13.6223 36.8325 9.77499 33.2722 9.77499 28.7008V13.9192C9.77499 8.66167 14.7896 4.74059 19.8831 6.01527L39.8165 11.0037C42.6178 11.7047 44.5625 14.1987 44.5625 17.0901L44.5625 26.1962C44.5625 27.032 43.546 27.4684 42.9561 26.8859C42.7823 26.7143 42.6848 26.4799 42.6848 26.2337L42.6848 17.3196C42.6848 15.1396 41.2036 13.2656 39.0844 12.7644L20.8473 8.4509C18.7357 7.95147 16.5479 9.09441 15.7299 11.1242C15.5845 11.4851 15.5143 11.8704 15.5237 12.2563L15.9287 28.8581C15.9772 30.8454 17.6523 32.3745 19.647 32.2525L36.2016 31.2397C37.2355 31.1765 37.975 30.1921 37.739 29.1931C37.7039 29.0449 37.6482 28.9027 37.5734 28.7706L35.473 25.0631C35.2094 24.5976 34.7148 24.3116 34.1738 24.3116C34.0369 24.3116 33.9212 24.417 33.9086 24.5531L33.5171 28.8072C33.4467 29.5725 32.8177 30.1778 32.0482 30.221L30.9985 30.2799C30.3586 30.3158 29.8556 29.7629 29.9529 29.1304L31.5339 18.8527C31.5999 18.4233 31.3557 18.0127 30.9487 17.8687L25.8134 16.0521C25.3355 15.8831 24.797 16.0637 24.5095 16.4896C24.1639 17.0015 24.2964 17.6876 24.805 18.0194L27.03 19.4709C29.0848 20.8115 30.0936 23.2761 29.5806 25.7025L29.5357 25.9148C28.98 28.5433 26.7588 30.5269 24.0812 30.7857C20.7685 31.1059 17.8786 28.6478 17.6438 25.3509C17.5428 23.9325 19.1673 23.0014 20.3062 23.8393L22.54 25.4828C23.4933 26.1842 24.8755 25.7043 25.2142 24.5543C25.4072 23.899 25.1934 23.1999 24.6701 22.775L20.6787 19.5342C19.1172 18.2663 18.5492 16.138 19.2619 14.2255C20.0335 12.1549 22.2722 11.0113 24.376 11.6194ZM36.2509 18.3054C35.3729 18.1046 34.4912 18.7052 34.3525 19.5985L34.2125 20.5009C34.1427 20.9504 34.4554 21.3595 34.9073 21.4099L37.1809 21.6636C38.0927 21.7654 38.9346 21.109 39.0581 20.2C39.1522 19.5071 38.7112 18.8681 38.0317 18.7127L36.2509 18.3054Z" fill="white"/>
<rect x="132.625" y="2.01245" width="4.85247" height="32.9968" fill="white"/>
<path d="M135.103 4.43868H140.762C142.102 4.43868 143.188 5.52495 143.188 6.86492V16.135C143.188 17.475 142.102 18.5612 140.762 18.5612H135.103V4.43868Z" stroke="white" stroke-width="4.85247" stroke-linejoin="round"/>
<rect x="75.9" y="3.02783" width="4.85247" height="32.2689" fill="white"/>
<rect x="108.623" y="2.30005" width="4.85247" height="32.9968" fill="white"/>
<path d="M123.909 16.675H128.761V43.875H116.15C116.15 43.875 116.15 40.9861 116.15 39.275H123.909V16.675Z" fill="white"/>
<path d="M93.4337 16.675H98.2862V35.3625H85.675C85.675 35.3625 85.675 32.4736 85.675 30.7625H93.4337V16.675Z" fill="white"/>
<path d="M121.017 16.675H116.15V35.3625H128.8C128.8 35.3625 128.8 32.4478 128.8 30.7215H121.017V16.675Z" fill="white"/>
<path d="M90.5424 16.675H85.675V35.3625H98.325C98.325 35.3625 98.325 32.4478 98.325 30.7215H90.5424V16.675Z" fill="white"/>
<path d="M111.136 18.8137H105.477C104.137 18.8137 103.051 19.8999 103.051 21.2399V30.51C103.051 31.85 104.137 32.9362 105.477 32.9362H111.136V18.8137Z" stroke="white" stroke-width="4.85247" stroke-linejoin="round"/>
<path fill-rule="evenodd" clip-rule="evenodd" d="M154.855 16.3875C151.237 16.3875 148.243 19.3204 148.243 22.9383V28.8116C148.243 32.4295 151.237 35.3625 154.855 35.3625C158.473 35.3625 161.468 32.4295 161.468 28.8116V22.9383C161.468 19.3204 158.473 16.3875 154.855 16.3875ZM154.855 20.8232C153.594 20.8232 152.571 21.846 152.571 23.1076V28.3961C152.571 29.6577 153.594 30.6804 154.855 30.6804C156.117 30.6804 157.139 29.6577 157.139 28.3961V23.1076C157.139 21.846 156.117 20.8232 154.855 20.8232Z" fill="white"/>
<path fill-rule="evenodd" clip-rule="evenodd" d="M170.626 16.3875C167.008 16.3875 164.013 19.3204 164.013 22.9383V28.8116C164.013 32.4295 167.008 35.3625 170.626 35.3625C174.244 35.3625 177.238 32.4295 177.238 28.8116V22.9383C177.238 19.3204 174.244 16.3875 170.626 16.3875ZM170.626 20.8232C169.364 20.8232 168.341 21.846 168.341 23.1076V28.3961C168.341 29.6577 169.364 30.6804 170.626 30.6804C171.887 30.6804 172.91 29.6577 172.91 28.3961V23.1076C172.91 21.846 171.887 20.8232 170.626 20.8232Z" fill="white"/>
<path d="M69 13.131V9.48742C69 7.1057 67.0692 5.17493 64.6875 5.17493V5.17493C62.3058 5.17493 60.375 7.1057 60.375 9.48743V15.0967C60.375 17.4784 62.3058 19.4092 64.6875 19.4092V19.4092C67.0692 19.4092 69 21.3399 69 23.7217V28.7499C69 31.1317 67.0692 33.0624 64.6875 33.0624V33.0624C62.3058 33.0624 60.375 31.1317 60.375 28.7499V25.6874" stroke="white" stroke-width="4.36722" stroke-linecap="square"/>
<path fill-rule="evenodd" clip-rule="evenodd" d="M184.151 22.3778C184.151 21.5507 184.803 20.8802 185.607 20.8802C186.41 20.8802 187.062 21.5501 187.062 22.3766C187.062 22.377 187.062 22.3774 187.062 22.3778L187.062 33.1106V35.2942L187.062 35.3569H191.43L191.43 35.2942V33.1106L191.43 22.3778C191.43 22.3767 191.43 22.3755 191.43 22.3744V22.152C191.43 21.415 192.027 20.8175 192.764 20.8175C193.501 20.8175 194.098 21.415 194.098 22.1519V33.1106V35.2942H198.466V33.1106V22.1519C198.466 19.003 195.913 16.4503 192.764 16.4503C191.426 16.4503 190.196 16.9111 189.223 17.6827C188.23 16.8718 186.973 16.3875 185.607 16.3875C182.391 16.3875 179.784 19.0694 179.784 22.3778V35.3569H184.151V22.3778Z" fill="white"/>
<rect x="73.025" y="16.675" width="10.6375" height="4.6" fill="white"/>
<rect x="75.9" y="30.7625" width="7.7625" height="4.6" fill="white"/>
<path d="M137.225 18.975H137.513C140.847 18.975 143.55 21.6781 143.55 25.0125V35.075" stroke="white" stroke-width="4.3125"/>
</g>
<defs>
<clipPath id="clip0_863_3713">
<rect width="230" height="46" fill="white"/>
</clipPath>
</defs>
</svg>
