<svg width="204" height="44" viewBox="0 0 204 44" fill="none" xmlns="http://www.w3.org/2000/svg">
<path fill-rule="evenodd" clip-rule="evenodd" d="M15.376 9.61944C20.2177 11.0191 27.7469 13.194 28.813 13.4249L30.1983 13.8908C32.1014 14.5308 33.2797 16.4075 33.0364 18.4112L33.022 18.53C32.7847 20.4847 31.2113 22.0354 29.2474 22.2502C29.0403 22.2728 28.959 22.5332 29.1186 22.6628L35.1583 27.5685C35.4145 27.7766 35.5625 28.0889 35.5625 28.4214C35.5625 30.7638 33.7216 32.733 31.3735 32.9024L9.20492 34.5019C4.62229 34.8325 0.774994 31.2722 0.774994 26.7008V11.9192C0.774994 6.66167 5.78957 2.74059 10.8831 4.01527L30.8165 9.00368C33.6178 9.70471 35.5625 12.1987 35.5625 15.0901L35.5625 24.1962C35.5625 25.032 34.546 25.4684 33.9561 24.8859C33.7823 24.7143 33.6848 24.4799 33.6848 24.2337L33.6848 15.3196C33.6848 13.1396 32.2036 11.2656 30.0844 10.7644L11.8473 6.4509C9.73575 5.95147 7.54789 7.09441 6.72994 9.12422C6.58451 9.48511 6.51433 9.8704 6.52375 10.2563L6.92873 26.8581C6.97721 28.8454 8.65229 30.3745 10.647 30.2525L27.2016 29.2397C28.2355 29.1765 28.975 28.1921 28.739 27.1931C28.7039 27.0449 28.6482 26.9027 28.5734 26.7706L26.473 23.0631C26.2094 22.5976 25.7148 22.3116 25.1738 22.3116C25.0369 22.3116 24.9212 22.417 24.9086 22.5531L24.5171 26.8072C24.4467 27.5725 23.8177 28.1778 23.0482 28.221L21.9985 28.2799C21.3586 28.3158 20.8556 27.7629 20.9529 27.1304L22.5339 16.8527C22.5999 16.4233 22.3557 16.0127 21.9487 15.8687L16.8134 14.0521C16.3355 13.8831 15.797 14.0637 15.5095 14.4896C15.1639 15.0015 15.2964 15.6876 15.805 16.0194L18.03 17.4709C20.0848 18.8115 21.0936 21.2761 20.5806 23.7025L20.5357 23.9148C19.98 26.5433 17.7588 28.5269 15.0812 28.7857C11.7685 29.1059 8.87862 26.6478 8.64384 23.3509C8.54283 21.9325 10.1673 21.0014 11.3062 21.8393L13.54 23.4828C14.4933 24.1842 15.8755 23.7043 16.2142 22.5543C16.4072 21.899 16.1934 21.1999 15.6701 20.775L11.6787 17.5342C10.1172 16.2663 9.54916 14.138 10.2619 12.2255C11.0335 10.1549 13.2722 9.01128 15.376 9.61944ZM27.2509 16.3054C26.3729 16.1046 25.4912 16.7052 25.3525 17.5985L25.2125 18.5009C25.1427 18.9504 25.4554 19.3595 25.9073 19.4099L28.1809 19.6636C29.0927 19.7654 29.9346 19.109 30.0581 18.2C30.1522 17.5071 29.7112 16.8681 29.0317 16.7127L27.2509 16.3054Z" fill="white"/>
<rect x="137.625" y="0.0124512" width="4.85247" height="32.9968" fill="white"/>
<path d="M140.103 2.43868H145.762C147.102 2.43868 148.188 3.52495 148.188 4.86492V14.135C148.188 15.475 147.102 16.5612 145.762 16.5612H140.103V2.43868Z" stroke="white" stroke-width="4.85247" stroke-linejoin="round"/>
<rect x="66.9" y="1.02783" width="4.85247" height="32.2689" fill="white"/>
<rect x="99.6235" y="0.300049" width="4.85247" height="32.9968" fill="white"/>
<path d="M114.909 14.675H119.761V41.875H107.15C107.15 41.875 107.15 38.9861 107.15 37.275H114.909V14.675Z" fill="white"/>
<path d="M84.4337 14.675H89.2862V33.3625H76.675C76.675 33.3625 76.675 30.4736 76.675 28.7625H84.4337V14.675Z" fill="white"/>
<path d="M112.017 14.675H107.15V33.3625H119.8C119.8 33.3625 119.8 30.4478 119.8 28.7215H112.017V14.675Z" fill="white"/>
<path d="M81.5424 14.675H76.675V33.3625H89.325C89.325 33.3625 89.325 30.4478 89.325 28.7215H81.5424V14.675Z" fill="white"/>
<path d="M102.136 16.8137H96.4775C95.1375 16.8137 94.0512 17.8999 94.0512 19.2399V28.51C94.0512 29.85 95.1375 30.9362 96.4775 30.9362H102.136V16.8137Z" stroke="white" stroke-width="4.85247" stroke-linejoin="round"/>
<path fill-rule="evenodd" clip-rule="evenodd" d="M159.855 14.3875C156.237 14.3875 153.243 17.3204 153.243 20.9383V26.8116C153.243 30.4295 156.237 33.3625 159.855 33.3625C163.473 33.3625 166.468 30.4295 166.468 26.8116V20.9383C166.468 17.3204 163.473 14.3875 159.855 14.3875ZM159.855 18.8232C158.594 18.8232 157.571 19.8459 157.571 21.1075V26.396C157.571 27.6576 158.594 28.6803 159.855 28.6803C161.117 28.6803 162.139 27.6576 162.139 26.396V21.1075C162.139 19.8459 161.117 18.8232 159.855 18.8232Z" fill="white"/>
<path fill-rule="evenodd" clip-rule="evenodd" d="M175.626 14.3875C172.008 14.3875 169.013 17.3204 169.013 20.9383V26.8116C169.013 30.4295 172.008 33.3625 175.626 33.3625C179.244 33.3625 182.238 30.4295 182.238 26.8116V20.9383C182.238 17.3204 179.244 14.3875 175.626 14.3875ZM175.626 18.8232C174.364 18.8232 173.341 19.8459 173.341 21.1075V26.396C173.341 27.6576 174.364 28.6803 175.626 28.6803C176.887 28.6803 177.91 27.6576 177.91 26.396V21.1075C177.91 19.8459 176.887 18.8232 175.626 18.8232Z" fill="white"/>
<path fill-rule="evenodd" clip-rule="evenodd" d="M128.651 14.3875C125.033 14.3875 122.1 17.3204 122.1 20.9383V26.8116C122.1 30.4295 125.033 33.3625 128.651 33.3625H129.062C132.62 33.3625 135.516 30.5247 135.61 26.9885H130.868C130.647 27.961 129.777 28.6869 128.738 28.6869C127.532 28.6869 126.555 27.7093 126.555 26.5033V24.5623H135.532L135.613 24.5623V20.9383C135.613 17.3204 132.68 14.3875 129.062 14.3875H128.651ZM130.909 20.923C130.788 19.8312 129.862 18.982 128.738 18.982C127.614 18.982 126.689 19.8312 126.568 20.923H130.909Z" fill="white"/>
<path d="M60 11.131V7.48742C60 5.1057 58.0692 3.17493 55.6875 3.17493V3.17493C53.3058 3.17493 51.375 5.1057 51.375 7.48743V13.0967C51.375 15.4784 53.3058 17.4092 55.6875 17.4092V17.4092C58.0692 17.4092 60 19.3399 60 21.7217V26.7499C60 29.1317 58.0692 31.0624 55.6875 31.0624V31.0624C53.3058 31.0624 51.375 29.1317 51.375 26.7499V23.6874" stroke="white" stroke-width="4.36722" stroke-linecap="square"/>
<path fill-rule="evenodd" clip-rule="evenodd" d="M189.151 20.3778C189.151 19.5507 189.803 18.8802 190.607 18.8802C191.411 18.8802 192.062 19.5507 192.062 20.3778L192.062 31.1106V33.2942L192.062 33.3569H196.43V33.2942V31.1106V20.3778V20.1519C196.43 19.4149 197.027 18.8175 197.764 18.8175C198.501 18.8175 199.098 19.4149 199.098 20.1519V31.1106V33.2942H203.466V31.1106V20.1519C203.466 17.003 200.913 14.4503 197.764 14.4503C196.426 14.4503 195.196 14.9111 194.223 15.6827C193.23 14.8718 191.973 14.3875 190.607 14.3875C187.391 14.3875 184.784 17.0694 184.784 20.3778V33.3569H189.151V20.3778Z" fill="white"/>
<rect x="64.025" y="14.675" width="10.6375" height="4.6" fill="white"/>
<rect x="66.9" y="28.7625" width="7.7625" height="4.6" fill="white"/>
<path d="M142.225 16.975H142.513C145.847 16.975 148.55 19.6781 148.55 23.0125V33.075" stroke="white" stroke-width="4.3125"/>
</svg>
