<svg width="157" height="35" viewBox="0 0 157 35" fill="none" xmlns="http://www.w3.org/2000/svg">
<path fill-rule="evenodd" clip-rule="evenodd" d="M126.508 22.9305L154.41 22.9305L154.41 26.8238L126.508 26.8238L126.508 22.9305Z" fill="white"/>
<path fill-rule="evenodd" clip-rule="evenodd" d="M124.562 28.4459H156.357V32.3392H124.562V28.4459Z" fill="white"/>
<path fill-rule="evenodd" clip-rule="evenodd" d="M142.406 2.65308V7.84409H138.513V2.65308H142.406Z" fill="white"/>
<path fill-rule="evenodd" clip-rule="evenodd" d="M133.322 8.33076C131.171 8.33076 129.428 10.0738 129.428 12.224V19.5239H125.535V12.224C125.535 7.92364 129.021 4.4375 133.322 4.4375H148.246C152.188 4.4375 155.383 7.63313 155.383 11.5751V19.5239H151.49V11.5751C151.49 9.78332 150.038 8.33076 148.246 8.33076H133.322Z" fill="white"/>
<path d="M58.7009 8.49304V7.19529C58.7009 5.22428 60.2987 3.62646 62.2697 3.62646H63.5674" stroke="white" stroke-width="3.89326" stroke-linecap="square"/>
<path fill-rule="evenodd" clip-rule="evenodd" d="M60.6475 14.0084H79.1405V17.5772H60.6475V14.0084Z" fill="white"/>
<path fill-rule="evenodd" clip-rule="evenodd" d="M131.375 12.3863C131.375 11.132 132.392 10.1152 133.646 10.1152H147.272C148.527 10.1152 149.544 11.132 149.544 12.3863V13.6841H131.375V12.3863Z" fill="white"/>
<path fill-rule="evenodd" clip-rule="evenodd" d="M60.6475 21.1461H79.1405V24.7149H60.6475V21.1461Z" fill="white"/>
<rect x="52.861" y="10.4397" width="3.89326" height="22.0618" fill="white"/>
<path d="M56.7542 8.49304H76.4778C77.9483 8.49304 79.1404 9.68514 79.1404 11.1557V23.255C79.1404 27.2866 75.8722 30.5548 71.8406 30.5548V30.5548H56.7542" stroke="white" stroke-width="3.89326" stroke-linejoin="round"/>
<path d="M88.5492 4.59973H111.287C113.422 4.59973 115.153 6.33044 115.153 8.46538V25.7988C115.153 28.4255 113.024 30.5548 110.397 30.5548V30.5548" stroke="white" stroke-width="3.89326" stroke-linejoin="round"/>
<path d="M92.4424 8.49304H97.9579L107.691 16.604H102.176L92.4424 8.49304Z" fill="white"/>
<path d="M101.527 19.5239H107.042L94.0646 32.5015H88.5492L101.527 19.5239Z" fill="white"/>
<path d="M136.566 11.7374L133.663 17.3015C133.212 18.1655 133.839 19.1995 134.814 19.1995H146.624" stroke="white" stroke-width="3.89326" stroke-linejoin="round"/>
<path fill-rule="evenodd" clip-rule="evenodd" d="M142.406 20.8217L142.406 30.8792L138.513 30.8792L138.513 20.8217L142.406 20.8217Z" fill="white"/>
<path fill-rule="evenodd" clip-rule="evenodd" d="M146.107 14.3585L148.412 17.6586C148.739 18.1262 149.274 18.4048 149.844 18.4048L149.844 22.2981C148.002 22.2981 146.276 21.3982 145.221 19.8879L142.916 16.5879L146.107 14.3585Z" fill="white"/>
<path fill-rule="evenodd" clip-rule="evenodd" d="M16.7789 6.68113C22.2427 8.26064 30.7393 10.715 31.9424 10.9756L33.5056 11.5013C35.6532 12.2236 36.9829 14.3414 36.7084 16.6024L36.6921 16.7366C36.4243 18.9424 34.6487 20.6923 32.4326 20.9347C32.1988 20.9602 32.1071 21.2541 32.2872 21.4003L39.1029 26.9363C39.3919 27.1711 39.559 27.5236 39.559 27.8988C39.559 30.5421 37.4816 32.7643 34.8318 32.9555L9.81497 34.7605C4.64356 35.1336 0.301971 31.1159 0.301971 25.9571V9.27635C0.301971 3.34334 5.96083 -1.08152 11.7088 0.356937L34.2032 5.98626C37.3644 6.77736 39.559 9.59181 39.559 12.8547L39.559 23.1307C39.559 24.0739 38.4119 24.5664 37.7462 23.909C37.5501 23.7153 37.4401 23.4509 37.4401 23.173V13.1137C37.4401 10.6536 35.7686 8.53882 33.3771 7.97318L12.7968 3.1055C10.414 2.5419 7.94506 3.83169 7.02201 6.12229C6.8579 6.52954 6.7787 6.96434 6.78933 7.3998L7.24635 26.1346C7.30105 28.3772 9.19134 30.1029 11.4424 29.9652L30.1239 28.8222C31.2906 28.7509 32.1251 27.64 31.8588 26.5127C31.8193 26.3454 31.7564 26.1849 31.6719 26.0359L29.3017 21.852C29.0042 21.3268 28.446 21.0039 27.8356 21.0039C27.6811 21.0039 27.5504 21.1229 27.5363 21.2765L27.0945 26.0772C27.015 26.9408 26.3052 27.6239 25.4369 27.6726L24.2523 27.7391C23.5301 27.7796 22.9626 27.1556 23.0724 26.4419L24.8564 14.8437C24.931 14.3592 24.6554 13.8958 24.1961 13.7333L18.401 11.6833C17.8617 11.4925 17.254 11.6964 16.9296 12.177C16.5395 12.7547 16.6891 13.5289 17.263 13.9033L19.7739 15.5414C22.0928 17.0542 23.2312 19.8354 22.6523 22.5736L22.6016 22.8132C21.9745 25.7794 19.4679 28.0178 16.4463 28.3099C12.7079 28.6713 9.44676 25.8973 9.18181 22.1768C9.06783 20.5762 10.9011 19.5254 12.1862 20.471L14.707 22.3257C15.7828 23.1172 17.3426 22.5756 17.7248 21.2779C17.9426 20.5384 17.7014 19.7494 17.1108 19.2699L12.6066 15.6128C10.8445 14.182 10.2035 11.7802 11.0077 9.62199C11.8785 7.28534 14.4049 5.99484 16.7789 6.68113ZM30.1796 14.2262C29.1887 13.9996 28.1937 14.6773 28.0373 15.6853L27.8792 16.7037C27.8005 17.2109 28.1534 17.6726 28.6633 17.7295L31.229 18.0158C32.258 18.1306 33.208 17.3899 33.3474 16.3641C33.4536 15.5822 32.956 14.8611 32.1891 14.6857L30.1796 14.2262Z" fill="white"/>
</svg>
