<svg width="656" height="631" viewBox="0 0 656 631" fill="none" xmlns="http://www.w3.org/2000/svg">
<path d="M199.993 -43.8617L615.299 72.7156C627.992 76.2784 633.513 91.1903 626.2 102.159C621.607 109.048 613.149 112.264 605.14 110.167L228.528 11.5302C181.754 -0.720253 133.291 24.3832 116.313 69.6566C113.767 76.4452 112.55 83.6598 112.727 90.9079L121.986 470.547C122.923 508.958 155.698 538.835 194.031 536.221L521.805 513.873C577.384 510.084 621.813 466.174 626.255 410.643L641.016 226.131L540.429 427.307C533.153 441.858 518.281 451.049 502.012 451.049C484.61 451.049 469.483 439.101 465.452 422.172L428.514 267.031C425.694 255.187 408.687 255.645 406.509 267.624L384.411 389.167C376.711 431.514 339.829 462.295 296.788 462.295C261.842 462.295 232.054 436.948 226.46 402.452L176.817 96.3226C173.12 73.5253 194.953 54.9517 216.863 62.255C249.459 73.1201 273.306 101.212 278.734 135.14L304.243 294.567C306.249 307.106 324.251 307.228 326.427 294.717L346.913 176.924C353.804 137.298 393.771 112.597 432.296 124.154C456.801 131.506 474.993 152.154 479.199 177.39L499.842 301.251C501.682 312.286 516.754 314.159 521.238 303.91L560.089 215.109C574.077 183.136 610.137 167.106 643.244 178.142L655.241 182.141C673.61 188.263 686 205.453 686 224.816V440.934C686 522.901 623.112 591.155 541.419 597.851L145.975 630.264C67.3602 636.708 0 574.643 0 495.764V107.722C0 3.42442 99.576 -72.0489 199.993 -43.8617Z" fill="url(#paint0_linear_728_3623)" fill-opacity="0.5"/>
<defs>
<linearGradient id="paint0_linear_728_3623" x1="221.5" y1="76" x2="481.5" y2="595" gradientUnits="userSpaceOnUse">
<stop stop-color="#383851"/>
<stop offset="1" stop-color="#EE4878" stop-opacity="0"/>
</linearGradient>
</defs>
</svg>
