<svg width="752" height="705" viewBox="0 0 752 705" fill="none" xmlns="http://www.w3.org/2000/svg">
<g clip-path="url(#clip0_844_3672)">
<path fill-rule="evenodd" clip-rule="evenodd" d="M367.753 85.0134C463.078 115.93 599.427 160.053 619.5 164.932L640.021 172.676C681.762 188.428 707.567 230.415 702.768 274.771L701.694 284.696C697.433 324.08 666.613 355.344 627.295 360.169C623.252 360.665 621.656 365.675 624.665 368.418L744.143 477.315C749.466 482.167 752.5 489.036 752.5 496.239C752.5 548.599 712.299 592.187 660.11 596.412L236.67 630.695C145.265 638.095 67 565.911 67 474.207L67 108.093C67 4.08152 166.308 -71.1807 266.446 -43.0602L660.565 67.615C714.931 82.8817 752.5 132.454 752.5 188.923V405.318C752.5 422.261 731.617 430.291 720.266 417.713C717.198 414.313 715.5 409.897 715.5 405.318L715.5 197.238C715.5 154.61 686.815 117.319 645.613 106.383L294.637 13.2316C248.183 0.902458 200.022 26.178 183.778 71.4114C181.281 78.3658 180.082 85.7199 180.243 93.1074L188.406 468.594C189.274 508.53 223.331 539.644 263.183 536.908L583.518 514.917C606.491 513.34 622.765 491.815 618.021 469.283C617.343 466.062 616.249 462.944 614.766 460.007L572.89 377.06C568.051 367.476 558.229 361.432 547.493 361.432C544.954 361.432 542.84 363.38 542.633 365.91L534.54 464.573C533.322 479.421 521.393 491.126 506.525 492.062L485.309 493.397C472.699 494.19 462.522 483.238 464.238 470.72L496.085 238.404C497.209 230.198 492.59 222.284 484.892 219.229L386.097 180.012C375.081 175.639 362.518 179.881 356.407 190.038C349.947 200.775 352.743 214.666 362.854 222.068L403.333 251.7C446.511 283.309 467.692 336.91 457.784 389.496L454.044 409.348C444.468 460.175 402.757 498.746 351.338 504.324C285.492 511.466 226.997 462.228 222.802 396.129L222.051 384.293C220.105 353.635 255.711 335.459 279.4 355.017L313.441 383.122C333.965 400.068 365.141 390.013 371.899 364.27C375.342 351.152 371.218 337.208 361.193 328.074L281.493 255.458C250.484 227.205 239.02 183.341 252.242 143.53C268.179 95.5399 319.653 69.4132 367.753 85.0134ZM588.978 228.692C571.623 224.238 554.259 235.892 551.804 253.641L548.27 279.189C547.049 288.022 553.284 296.149 562.131 297.257L603.754 302.469C623.539 304.947 641.569 290.871 643.966 271.076L644.123 269.779C645.933 254.831 636.382 240.857 621.798 237.114L588.978 228.692Z" fill="url(#paint0_linear_844_3672)"/>
</g>
<defs>
<linearGradient id="paint0_linear_844_3672" x1="195.427" y1="519.046" x2="781.611" y2="70.4032" gradientUnits="userSpaceOnUse">
<stop stop-color="#2A2A39"/>
<stop offset="1" stop-color="#31355B"/>
</linearGradient>
<clipPath id="clip0_844_3672">
<rect width="752" height="705" fill="white"/>
</clipPath>
</defs>
</svg>
