<?xml version="1.0" encoding="UTF-8"?>
<svg width="22px" height="24px" viewBox="0 0 22 24" version="1.1" xmlns="http://www.w3.org/2000/svg" xmlns:xlink="http://www.w3.org/1999/xlink">
    <title>关于</title>
    <g id="职教大班课v2.7" stroke="none" stroke-width="1" fill="none" fill-rule="evenodd">
        <g id="登录页-设置-常规设置" transform="translate(-311.000000, -230.000000)">
            <g id="编组备份-2" transform="translate(280.000000, 145.000000)">
                <g id="编组-2备份" transform="translate(31.000000, 85.170163)">
                    <g id="关于" transform="translate(0.000000, 0.025641)">
                        <rect id="矩形" x="0" y="0" width="22" height="22.0512821"></rect>
                        <g id="关于-(1)" transform="translate(4.000000, 4.009324)" fill="#7B88A0" fill-rule="nonzero">
                            <path d="M7,0 C10.8659932,0 14,3.14131213 14,7.01631702 C14,10.8913219 10.8659932,14.032634 7,14.032634 C3.13400675,14.032634 0,10.8913219 0,7.01631702 C0,3.14131213 3.13400675,0 7,0 Z M7,1.4032634 C4.99931268,1.4032634 3.15060134,2.47310534 2.15025767,4.20979019 C1.149914,5.94647503 1.149914,8.086159 2.15025767,9.82284385 C3.15060134,11.5595287 4.99931268,12.6293706 7,12.6293706 C10.0927946,12.6293706 12.5999999,10.1163209 12.5999999,7.01631702 C12.5999999,3.91631314 10.0927946,1.4032634 7,1.4032634 Z M7.933,5.57296037 L7.245,9.21242424 C7.228,9.30263403 7.213,9.39484848 7.2,9.48706294 C7.19147574,9.54448586 7.1867986,9.60241662 7.186,9.6604662 C7.186,9.85291375 7.231,10.0012587 7.323,10.0994872 C7.413,10.1997203 7.544,10.2498368 7.717,10.2498368 C7.793,10.2498368 7.894,10.2378089 8.021,10.2127506 C8.148,10.1886946 8.292,10.1496037 8.456,10.0964802 L8.456,10.5375058 C8.135,10.6718182 7.803,10.7780653 7.465,10.8582517 C7.18779619,10.9222959 6.90446076,10.9559049 6.62,10.9584848 C6.358,10.9584848 6.16,10.886317 6.024,10.7449883 C5.889,10.601655 5.822,10.3951748 5.822,10.1215385 C5.822,10.0513753 5.829,9.96417249 5.842,9.8609324 C5.856,9.75769231 5.882,9.60032634 5.92,9.39484848 L6.498,6.49610723 L5.616,6.35979021 L5.616,5.98090909 L7.46,5.57296037 L7.932,5.57296037 L7.933,5.57296037 Z M7.46,3.34177156 C7.87421356,3.34177156 8.21,3.67834072 8.21,4.09351981 C8.21,4.50869891 7.87421356,4.84526807 7.46,4.84526807 C7.04578644,4.84526807 6.71,4.50869891 6.71,4.09351981 C6.71,3.67834072 7.04578644,3.34177156 7.46,3.34177156 Z" id="形状"></path>
                        </g>
                    </g>
                </g>
            </g>
        </g>
    </g>
</svg>