<?xml version="1.0" encoding="UTF-8"?>
<svg width="22px" height="22px" viewBox="0 0 22 22" version="1.1" xmlns="http://www.w3.org/2000/svg" xmlns:xlink="http://www.w3.org/1999/xlink">
    <title>关于</title>
    <g id="职教大班课v2.7" stroke="none" stroke-width="1" fill="none" fill-rule="evenodd">
        <g id="登录页-设置-关于我们" transform="translate(-311.000000, -230.000000)">
            <g id="编组-2备份-5" transform="translate(281.000000, 219.000000)">
                <g id="关于" transform="translate(30.000000, 11.000000)">
                    <rect id="矩形" x="0" y="0" width="22" height="22"></rect>
                    <g id="关于-(1)" transform="translate(4.000000, 4.000000)" fill="#0073FF" fill-rule="nonzero">
                        <path d="M7,-4.4408921e-16 C10.8659932,-4.4408921e-16 14,3.13400675 14,7 C14,10.8659932 10.8659932,14 7,14 C3.13400675,14 -4.4408921e-16,10.8659932 -4.4408921e-16,7 C-4.4408921e-16,3.13400675 3.13400675,-4.4408921e-16 7,-4.4408921e-16 Z M7,1.4 C4.99931268,1.4 3.15060134,2.46735393 2.15025767,4.19999998 C1.149914,5.93264602 1.149914,8.06735398 2.15025767,9.80000002 C3.15060134,11.5326461 4.99931268,12.6 7,12.6 C10.0927946,12.6 12.5999999,10.0927946 12.5999999,7 C12.5999999,3.90720543 10.0927946,1.4 7,1.4 Z M7.933,5.56 L7.245,9.191 C7.228,9.281 7.213,9.373 7.2,9.465 C7.19147574,9.52228938 7.1867986,9.58008542 7.186,9.638 C7.186,9.83 7.231,9.978 7.323,10.076 C7.413,10.176 7.544,10.226 7.717,10.226 C7.793,10.226 7.894,10.214 8.021,10.189 C8.148,10.165 8.292,10.126 8.456,10.073 L8.456,10.513 C8.135,10.647 7.803,10.753 7.465,10.833 C7.18779619,10.8968952 6.90446076,10.930426 6.62,10.933 C6.358,10.933 6.16,10.861 6.024,10.72 C5.889,10.577 5.822,10.371 5.822,10.098 C5.822,10.028 5.829,9.941 5.842,9.838 C5.856,9.735 5.882,9.578 5.92,9.373 L6.498,6.481 L5.616,6.345 L5.616,5.967 L7.46,5.56 L7.932,5.56 L7.933,5.56 Z M7.46,3.334 C7.87421356,3.334 8.21,3.66978644 8.21,4.084 C8.21,4.49821356 7.87421356,4.834 7.46,4.834 C7.04578644,4.834 6.71,4.49821356 6.71,4.084 C6.71,3.66978644 7.04578644,3.334 7.46,3.334 Z" id="形状"></path>
                    </g>
                </g>
            </g>
        </g>
    </g>
</svg>