<?xml version="1.0" encoding="UTF-8"?>
<svg width="36px" height="36px" viewBox="0 0 36 36" version="1.1" xmlns="http://www.w3.org/2000/svg" xmlns:xlink="http://www.w3.org/1999/xlink">
    <title>logo</title>
    <g id="职教大班课v2.7" stroke="none" stroke-width="1" fill="none" fill-rule="evenodd">
        <g id="登录页-设置-常规设置" transform="translate(-30.000000, -12.000000)">
            <g id="icon/blue-aPaaS" transform="translate(30.000000, 12.000000)">
                <rect stroke="#979797" fill="#D8D8D8" opacity="0" x="0.5" y="0.5" width="35" height="35"></rect>
                <path d="M18.5934484,4.82142857 C22.6469593,4.82142857 25.9447867,8.05689426 26.0452989,12.0861939 L26.0476593,12.2756395 L26.0472857,12.903 L26.2234283,12.9157138 C29.4656584,13.1833788 32.0259115,15.8558797 32.1163153,19.1453439 L32.1187862,19.3253703 C32.1187862,22.8172954 29.3360007,25.6592661 25.8671111,25.7546009 L25.6870847,25.7570719 L25.4048021,25.7570719 C25.0497619,25.7570719 24.761945,25.4692549 24.761945,25.1142147 C24.761945,24.7845345 25.0101137,24.5128172 25.3298314,24.4756825 L25.4048021,24.4713576 L25.6870847,24.4713576 C28.529135,24.4713576 30.8330719,22.1674206 30.8330719,19.3253703 C30.8330719,16.5369437 28.6152558,14.2665157 25.8473689,14.1818319 L25.6870847,14.1793831 L25.4048021,14.1793831 C25.0751219,14.1793831 24.8034047,13.9312144 24.76627,13.6114967 L24.761945,13.536526 L24.761945,12.2756395 C24.761945,8.92761022 22.0946261,6.20256667 18.7690743,6.10959491 L18.5934484,6.10714286 L18.3238765,6.10714286 C15.0659903,6.10714286 12.4249517,8.74818143 12.4249517,12.0060676 C12.4249517,12.3357478 12.176783,12.6074651 11.8570653,12.6445998 L11.7820946,12.6489248 L10.5816001,12.6489248 C7.31158517,12.6489248 4.66071429,15.2997956 4.66071429,18.5698106 C4.66071429,21.7824569 7.21938806,24.3974929 10.4100767,24.4882597 L10.5816001,24.4906964 L11.3888571,24.4902857 L11.3893034,17.1214286 C11.3893034,15.744303 12.4718546,14.6200207 13.8323918,14.553147 L13.960732,14.55 L22.6393034,14.55 C23.3171075,14.55 23.8724096,15.0744929 23.9214912,15.7397599 L23.9250177,15.8357143 L23.9250177,26.6121712 C23.9250177,27.2899752 23.4005249,27.8452773 22.7352578,27.8943589 L22.6393034,27.8978855 L13.4966946,27.8978855 C13.042895,27.8978855 12.6750177,28.2657627 12.6750177,28.7195623 C12.6750177,29.1449994 12.9983473,29.4949189 13.4126829,29.5369969 L13.4966946,29.5412391 L23.2821606,29.5412391 C23.6372008,29.5412391 23.9250177,29.8290561 23.9250177,30.1840963 C23.9250177,30.5137765 23.676849,30.7854937 23.3571313,30.8226285 L23.2821606,30.8269534 L13.4966946,30.8269534 C12.3328146,30.8269534 11.3893034,29.8834423 11.3893034,28.7195623 C11.3893034,27.5958161 12.2688667,26.6775029 13.3771089,26.6155072 L13.4966946,26.6121712 L22.6393034,26.6121712 L22.6393034,15.8357143 L13.960732,15.8357143 C13.282928,15.8357143 12.7276259,16.3602072 12.6785443,17.0254742 L12.6750177,17.1214286 L12.6750177,25.1335536 C12.6750177,25.4632338 12.426849,25.734951 12.1071313,25.7720857 L12.0321606,25.7764107 L10.5816001,25.7764107 C6.60150478,25.7764107 3.375,22.5499059 3.375,18.5698106 C3.375,14.6519042 6.50146422,11.4642227 10.3955945,11.3655642 L10.5816001,11.3632105 L11.1683571,11.3627143 L11.177508,11.2599814 C11.5444066,7.70391339 14.5049844,4.91729029 18.1355034,4.82385006 L18.3238765,4.82142857 L18.5934484,4.82142857 Z M18.1344251,17.9266333 L19.7592686,18.126139 L17.9602242,19.5317065 C17.8203397,19.6410007 17.7955363,19.842999 17.9048235,19.982889 L20.4690941,23.2650798 C20.6958076,23.5552665 20.6443549,23.9742964 20.3541707,24.2010132 C20.0639839,24.4277319 19.6449508,24.3762899 19.4182201,24.0861126 L16.8534872,20.8036846 C16.7563532,20.6793285 16.5859545,20.6459207 16.4510429,20.7167955 L16.402322,20.7483277 L15.735214,21.2696689 C15.4238227,21.5130196 14.9833364,21.4777622 14.7140034,21.2007232 L14.6589571,21.137592 C14.3982267,20.8038724 14.4573734,20.3219795 14.7910692,20.0612186 L17.1860786,18.1896797 C17.4547973,17.979694 17.7959337,17.8850718 18.1344251,17.9266333 Z" id="形状" fill="#0073FF" fill-rule="nonzero"></path>
            </g>
        </g>
    </g>
</svg>