<?xml version="1.0" encoding="UTF-8"?>
<svg width="22px" height="24px" viewBox="0 0 22 24" version="1.1" xmlns="http://www.w3.org/2000/svg" xmlns:xlink="http://www.w3.org/1999/xlink">
    <title>常规设置</title>
    <g id="职教大班课v2.7" stroke="none" stroke-width="1" fill="none" fill-rule="evenodd">
        <g id="登录页-设置-常规设置" transform="translate(-310.000000, -186.000000)">
            <g id="编组备份-2" transform="translate(280.000000, 145.000000)">
                <g id="编组-2" transform="translate(1.000000, 29.067599)">
                    <g id="常规设置" transform="translate(29.000000, 12.025641)">
                        <rect id="矩形" x="0" y="0" width="22" height="22.0512821"></rect>
                        <g id="设置" transform="translate(4.000000, 4.009324)" fill="#0073FF" fill-rule="nonzero">
                            <path d="M13.6921224,7.99944115 L13.6921224,5.73744696 C13.2498087,5.64515262 12.7594561,5.56210961 12.2308724,5.48897543 C12.0988592,4.97064937 11.8955998,4.48226888 11.6300117,4.03361754 C11.9550705,3.60359413 12.2436942,3.19598685 12.4867153,2.82056363 L10.8909377,1.22106628 C10.5163875,1.46465386 10.1096813,1.75396595 9.68070484,2.07976688 C9.23369034,1.81393536 8.74717963,1.61042132 8.23087108,1.47805344 C8.15734474,0.943525778 8.07385456,0.450621375 7.98083782,0.0128493444 L5.72410406,0.0128493444 C5.63108731,0.450621344 5.54759712,0.943541412 5.47407079,1.47805341 C4.95776224,1.61040564 4.47125154,1.81393533 4.02423704,2.07976685 C3.59526053,1.75395027 3.18855432,1.46465383 2.81400418,1.22106625 L1.21822659,2.8205636 C1.46124769,3.19598683 1.74988696,3.60359411 2.07493021,4.03361751 C1.80968568,4.48162704 1.60667615,4.96931877 1.47461611,5.48683083 C0.941331532,5.56052857 0.449573418,5.64421337 0.0128194927,5.73744693 L0.0128194927,7.99945679 C0.449573418,8.09269036 0.94134716,8.17637516 1.47461611,8.25007288 C1.60666054,8.76758495 1.80971691,9.25522971 2.07493021,9.7032862 C1.74987135,10.1332627 1.46124769,10.5409169 1.21822659,10.9163401 L2.81400418,12.5158375 C3.18855434,12.2722499 3.59526054,11.9829378 4.02423704,11.6571369 C4.47125154,11.9229684 4.95776224,12.1264824 5.47407079,12.2588503 C5.54759714,12.793378 5.63108732,13.2862824 5.72410406,13.72407 L7.98085343,13.72407 C8.07387018,13.286298 8.15736037,12.793378 8.23088669,12.2588503 C8.74792925,12.1263259 9.23508028,11.9223735 9.68261015,11.6559941 C10.107901,11.9788522 10.5132016,12.267679 10.8909689,12.5158531 L12.4867465,10.9163558 C12.2391496,10.5376766 11.9510256,10.1314781 11.6289341,9.7051803 C11.8950375,9.25596543 12.0987342,8.76694314 12.2309036,8.24794397 C12.7594405,8.1747785 13.2498087,8.0917355 13.6921224,7.99944115 Z M6.85247093,10.2962336 C4.96374367,10.2962336 3.43265301,8.76155829 3.43265301,6.86844406 C3.43265301,4.97532982 4.96374367,3.44065453 6.85247093,3.44065453 C8.74119819,3.44065453 10.2722889,4.97531417 10.2722889,6.86844406 C10.2722889,8.76157394 8.74119819,10.2962336 6.85247093,10.2962336 Z" id="形状"></path>
                        </g>
                    </g>
                </g>
            </g>
        </g>
    </g>
</svg>