<svg width="48" height="48" viewBox="0 0 48 48" fill="none" xmlns="http://www.w3.org/2000/svg">
<path fill-rule="evenodd" clip-rule="evenodd" d="M42 24V23.7921C42 23.5411 41.9003 23.3003 41.7228 23.1228L38.1624 19.5624C38.9954 18.9261 39.8274 18.2901 40.6541 17.6558C41.565 16.9714 41.8824 15.786 41.4065 14.85C40.7526 13.4633 39.06 12.704 36.4214 13.1919C35.61 13.342 34.3859 13.8491 33.0795 14.4795L33 14.4L24.5562 6.26074C24.3827 6.09346 24.1511 6 23.91 6C14.0186 6 6 14.0635 6 23.9549C6 33.896 14.0589 42 24 42C33.9411 42 42 33.9412 42 24ZM33.0795 14.4795C30.1378 15.899 26.7795 17.9436 26.7795 17.9436C26.7795 17.9436 26.4366 18.1238 26.1865 18.0215C23.8379 17.121 22.2701 16.7594 20.693 16.3956C19.1359 16.0365 17.5699 15.6752 15.2348 14.7914C15.0385 14.7445 14.929 14.7428 14.7513 14.871C14.5276 15.0473 14.2326 15.275 13.9244 15.5129C13.3903 15.9253 12.8166 16.3681 12.5062 16.6263C12.3513 16.7112 12.3473 16.9296 12.4879 17.0301L20.7547 23.3929C20.8953 23.4935 21.9412 24.2631 21.4578 25.2372C20.8614 26.439 19.106 28.3751 18.1063 29.1236C17.8729 29.3056 17.5981 29.3558 17.3253 29.2968C16.6268 29.1545 15.2731 28.8926 14.465 28.7486C14.0723 28.6549 13.6322 28.7571 13.31 29.0031C13.2228 29.069 13.1276 29.1405 13.0281 29.2153C12.6587 29.4931 12.2301 29.8153 11.9324 30.0515C11.7878 30.1693 11.8169 30.3773 11.9574 30.4778C12.211 30.6457 12.6026 30.9006 13.0568 31.1962C14.3283 32.0237 16.0904 33.1705 16.6876 33.6227C17.7585 34.3716 18.7545 34.4203 19.81 33.6181L34.3876 22.4487C35.4266 21.6515 36.4739 20.8518 37.5212 20.052C37.7349 19.8888 37.9487 19.7256 38.1624 19.5624L33.0795 14.4795Z" fill="black"/>
</svg>
