<svg width="48" height="48" viewBox="0 0 48 48" fill="none" xmlns="http://www.w3.org/2000/svg">
<path fillRule="evenodd" clip-rule="evenodd" d="M42 24V23.7921C42 23.541 41.9003 23.3003 41.7228 23.1228L38.0267 19.4267C38.5966 17.2456 38.5151 15.0621 37.7743 12.8978C37.6591 12.5579 37.4681 12.2487 37.2157 11.9937C36.9634 11.7386 36.6562 11.5444 36.3176 11.4256L36.0425 11.3339L35.7614 11.2479C35.7613 11.2479 35.7611 11.248 35.7611 11.2482C35.7611 11.2484 35.7609 11.2485 35.7608 11.2484C33.7386 10.657 31.7158 10.652 29.7065 11.2253L24.5562 6.26074C24.3827 6.09346 24.151 6 23.91 6C14.0186 6 6 14.0635 6 23.9549C6 33.896 14.0589 42 24 42C33.9411 42 42 33.9411 42 24ZM29.7065 11.2253C28.7362 11.5021 27.7691 11.9139 26.8067 12.4596L26.4812 12.65L26.127 12.8691C25.0679 13.5418 24.055 14.3601 23.0876 15.3219L22.9643 15.4467C22.9286 15.4828 22.8783 15.5003 22.8279 15.4941L22.6907 15.4822C20.5585 15.3366 17.5814 17.0845 13.5466 20.6097L13.4836 20.6685L13.4255 20.7343C12.9874 21.2705 13.2099 22.1238 13.9001 22.3478L18.6592 23.8867C18.754 23.9173 18.8352 23.9798 18.889 24.0635C19.7425 25.3523 20.7176 26.5563 21.801 27.6588L22.1678 28.0228L22.5423 28.3798C23.3032 29.0877 24.1095 29.7452 24.9559 30.3482C25.0444 30.4094 25.1099 30.4984 25.1421 30.6011L26.5988 35.2503L26.6324 35.342C26.9166 36.0252 27.8238 36.1862 28.311 35.608L28.7415 35.0935L28.9753 34.8086C31.6696 31.5123 33.1319 28.9629 33.3384 27.0351C33.3438 26.9768 33.3698 26.9223 33.4116 26.8813L33.6443 26.6536L33.9586 26.3323C35.0933 25.1485 36.0257 23.8934 36.7544 22.5676C37.3284 21.5228 37.7528 20.475 38.0267 19.4267L33 14.4L29.7065 11.2253ZM20.8693 33.8804C22.6725 32.0478 22.4842 30.2705 20.8574 28.6171C19.2299 26.9644 17.4806 26.7726 15.6774 28.6045C14.6043 29.6951 13.9435 31.4325 13.6383 33.8055L13.6026 34.0995L13.5935 34.2157C13.5515 35.104 14.1906 35.8817 15.0656 35.9881C15.1951 36.0035 15.3253 36.0042 15.4541 35.9888C17.9433 35.6969 19.7521 35.0151 20.8693 33.8804ZM26.7276 22.4724C25.4949 21.2397 25.4907 19.2454 26.7178 18.0176C27.9456 16.7905 29.9399 16.7947 31.1726 18.0274C32.4053 19.2601 32.4095 21.2544 31.1824 22.4822C29.9546 23.7093 27.9603 23.7051 26.7276 22.4724Z" fill="url(#paint0_linear_2078_7525)"/>
<defs>
<linearGradient id="paint0_linear_2078_7525" x1="8.41271" y1="18.1778" x2="33.7832" y2="40.5312" gradientUnits="userSpaceOnUse">
<stop stop-color="#D360E5"/>
<stop offset="1" stop-color="#3849FB"/>
</linearGradient>
</defs>
</svg>
