<svg width="48" height="48" viewBox="0 0 48 48" fill="none" xmlns="http://www.w3.org/2000/svg">
<path fill-rule="evenodd" clip-rule="evenodd" d="M42 24V23.7921C42 23.541 41.9003 23.3003 41.7228 23.1228L33.3794 14.7794L35.3904 8.40331C35.6699 7.51711 34.695 6.7621 33.9069 7.25437L28.8584 10.4077L24.5562 6.26074C24.3827 6.09346 24.151 6 23.91 6C14.0186 6 6 14.0635 6 23.9549C6 33.896 14.0589 42 24 42C33.9411 42 42 33.9411 42 24ZM28.8584 10.4077L14.7964 19.1909C14.0724 19.643 14.2113 20.736 15.0254 20.9927L19.0668 22.2673C19.5785 22.4287 19.8716 22.9652 19.7311 23.483L16.6607 34.7953C16.4246 35.665 17.369 36.3787 18.1412 35.9142L37.9427 24.0033C38.6809 23.5593 38.5496 22.4519 37.728 22.1927L32.5999 20.5754C32.0732 20.4093 31.7809 19.8476 31.947 19.3209L33.3794 14.7794L33 14.4L28.8584 10.4077Z" fill="url(#paint0_linear_2078_7544)"/>
<defs>
<linearGradient id="paint0_linear_2078_7544" x1="8.41271" y1="18.1778" x2="33.7832" y2="40.5312" gradientUnits="userSpaceOnUse">
<stop stop-color="#FFA621"/>
<stop offset="1" stop-color="#E21F1F"/>
</linearGradient>
</defs>
</svg>
