<svg width="48" height="48" viewBox="0 0 48 48" fill="none" xmlns="http://www.w3.org/2000/svg">
<path fillRule="evenodd" clip-rule="evenodd" d="M42 24V23.7921C42 23.5411 41.9003 23.3003 41.7228 23.1228L36.9741 18.374C37.88 17.7135 38.7183 16.8545 39.4678 15.8047C40.7874 13.9522 37.7356 12.1985 36.4289 14.0295C35.8349 14.8607 35.1815 15.474 34.481 15.881L33 14.4L32.7621 14.1707C33.1856 13.8121 33.5192 13.3565 33.7332 12.8404C33.9982 12.2011 34.0678 11.4976 33.9331 10.8188C33.7984 10.14 33.4654 9.51631 32.9764 9.02665C32.4873 8.537 31.8641 8.20332 31.1855 8.06778C30.5068 7.93224 29.8032 8.00094 29.1636 8.26519C28.606 8.49553 28.1189 8.86544 27.748 9.33743L24.5562 6.26074C24.3827 6.09346 24.1511 6 23.91 6C14.0186 6 6 14.0635 6 23.9549C6 33.896 14.0589 42 24 42C33.9411 42 42 33.9412 42 24ZM27.748 9.33743C27.6934 9.40691 27.6414 9.47859 27.592 9.55237C27.2069 10.1274 27.0009 10.8036 27 11.4957C27 12.4243 27.3686 13.315 28.0249 13.9721C28.6811 14.6291 29.5713 14.9989 30.5 15C31.1921 15 31.8686 14.7948 32.444 14.4104C32.5549 14.3364 32.6611 14.2563 32.7621 14.1707L27.748 9.33743ZM34.481 15.881C32.8195 16.8462 30.8928 16.6501 28.864 15.4437C28.7793 15.394 28.571 15.2781 28.3456 15.1528L28.3455 15.1527C28.0444 14.9853 27.7127 14.8008 27.6046 14.7345C22.9624 11.9793 18.3289 13.0624 15.2213 17.4123C13.9017 19.2648 16.9535 21.0185 18.2601 19.1875C20.2867 16.3536 22.5439 19.8836 20.973 22.9933C20.8472 23.2423 20.7182 23.4979 20.5855 23.7608C19.1714 26.5633 16.0594 28.8027 13.0678 27.0533C10.9058 25.7896 8.95867 28.893 11.1121 30.1524C15.0976 32.4783 19.7533 31.143 22.2504 28.1983C22.3618 28.067 22.5478 28.0284 22.7088 28.0892C24.7075 28.7855 27.3295 30.6381 28.1247 31.2957C28.7365 31.8017 29.6918 33.8979 30.4698 35.6052C30.703 36.1169 30.9203 36.5937 31.1077 36.9823C32.0963 39.0197 35.2856 37.5368 34.297 35.4865C34.1092 35.0987 33.8957 34.6325 33.6645 34.1277C32.7579 32.148 31.5792 29.5742 30.6134 28.807C30.3098 28.5641 29.916 28.256 29.4692 27.9223C27.7275 26.6215 26.9715 24.208 28.0201 22.3038C28.9019 20.7024 30.8124 20.0851 32.6372 19.9743C34.1827 19.8805 35.6505 19.3391 36.9741 18.374L34.481 15.881Z" fill="url(#paint0_linear_2078_7556)"/>
<defs>
<linearGradient id="paint0_linear_2078_7556" x1="8.41271" y1="18.1779" x2="33.7832" y2="40.5313" gradientUnits="userSpaceOnUse">
<stop stop-color="#949EF4"/>
<stop offset="1" stop-color="#7C79FF"/>
</linearGradient>
</defs>
</svg>
