<?xml version="1.0" standalone="no"?><!DOCTYPE svg PUBLIC "-//W3C//DTD SVG 1.1//EN" "http://www.w3.org/Graphics/SVG/1.1/DTD/svg11.dtd"><svg t="1622712206806" class="icon" viewBox="0 0 1024 1024" version="1.1" xmlns="http://www.w3.org/2000/svg" p-id="2529" width="20" height="20" xmlns:xlink="http://www.w3.org/1999/xlink"><defs><style type="text/css"></style></defs><path d="M512 64a448 448 0 1 1 0 896A448 448 0 0 1 512 64z m0 64a384 384 0 1 0 0 768A384 384 0 0 0 512 128zM353.6 606.4A223.168 223.168 0 0 0 512 672c60.224 0 116.608-23.872 158.4-65.6a32 32 0 0 1 45.248 45.248A287.168 287.168 0 0 1 512 736c-77.44 0-150.016-30.72-203.648-84.352a32 32 0 1 1 45.248-45.248zM384 320a64 64 0 1 1 0 128 64 64 0 0 1 0-128z m256 0a64 64 0 1 1 0 128 64 64 0 0 1 0-128z" p-id="2530" fill="#959BA6"></path></svg>