<?xml version="1.0" encoding="UTF-8"?>
<svg width="28px" height="28px" viewBox="0 0 28 28" version="1.1" xmlns="http://www.w3.org/2000/svg" xmlns:xlink="http://www.w3.org/1999/xlink">
    <title>H5icon</title>
    <g id="V1.1.2正式版_设备设置/H5课件" stroke="none" stroke-width="1" fill="none" fill-rule="evenodd">
        <g id="H5课件优化版本_1" transform="translate(-85.000000, -290.000000)">
            <g id="H5icon" transform="translate(85.000000, 290.000000)">
                <rect id="format-video" stroke="#979797" stroke-width="1.01818182" fill="#D8D8D8" opacity="0" x="0.509090909" y="0.509090909" width="26.9818182" height="26.9818182"></rect>
                <path d="M19.0838468,3.05454545 L7.50909091,3.05454545 C6.94676462,3.05454545 6.49090909,3.51040098 6.49090909,4.07272727 L6.49090909,21.3818182 C6.49090909,21.9441445 6.94676462,22.4 7.50909091,22.4 L22.7818182,22.4 C23.3441445,22.4 23.8,21.9441445 23.8,21.3818182 L23.7987273,8.14545455 L21.2545455,8.14545455 C20.1923736,8.14545455 19.3201403,7.3322308 19.2265038,6.29444151 L19.2181818,6.10909091 L19.2181818,3.18563636 L19.0838468,3.05454545 Z M5.47272727,5.09090909 L5.47272727,4.07272727 C5.47272727,2.94807469 6.38443833,2.03636364 7.50909091,2.03636364 L19.4981818,2.03636364 L24.8181818,7.22546518 L24.8181818,21.3818182 C24.8181818,22.5064708 23.9064708,23.4181818 22.7818182,23.4181818 L21.7623636,23.4181818 L21.7636364,24.4363636 C21.7636364,25.5610162 20.8519253,26.4727273 19.7272727,26.4727273 L4.45454545,26.4727273 C3.32989287,26.4727273 2.41818182,25.5610162 2.41818182,24.4363636 L2.41818182,7.12727273 C2.41818182,6.00262015 3.32989287,5.09090909 4.45454545,5.09090909 L5.47272727,5.09090909 Z" id="形状" fill="#E9A8A8"></path>
                <path d="M9.16538352,8.93886353 L10.3079537,18.6403887 C10.3203801,18.7459006 10.3970307,18.8325978 10.5002246,18.8578605 L14.9461637,19.9462632 C14.9859044,19.955992 15.0274046,19.9559979 15.067148,19.9462805 L19.5196885,18.8576115 C19.6256277,18.8317088 19.7032945,18.7411962 19.712807,18.6325519 L20.5622132,8.93129302 C20.5744751,8.79124723 20.4708858,8.66777746 20.33084,8.65551557 C20.3234569,8.65486913 20.3160492,8.65454545 20.3086379,8.65454545 L9.41818182,8.65454545 C9.27760025,8.65454545 9.16363636,8.76850934 9.16363636,8.90909091 C9.16363636,8.91904073 9.16421975,8.928982 9.16538352,8.93886353 Z M13.2388098,11.9338992 L13.3560054,13.3149414 L18.0422946,13.3149414 L17.6891297,17.455156 L15.0517321,18.221683 L12.4175785,17.455156 L12.2375474,15.3371829 L13.5286132,15.3371829 L13.6201777,16.4137723 L15.0519513,16.8183861 L16.4877288,16.4118565 L16.6363714,14.6632148 L12.1801771,14.6632148 L11.8333395,10.5853193 L18.2740993,10.5853193 L18.1590226,11.9338992 L13.2388098,11.9338992 Z" id="形状" fill="#E9A8A8" fill-rule="nonzero"></path>
            </g>
        </g>
    </g>
</svg>