<?xml version="1.0" encoding="UTF-8"?>
<svg width="28px" height="28px" viewBox="0 0 28 28" version="1.1" xmlns="http://www.w3.org/2000/svg" xmlns:xlink="http://www.w3.org/1999/xlink">
    <title>编组 32</title>
    <g id="页面-1" stroke="none" stroke-width="1" fill="none" fill-rule="evenodd">
        <g id="灵动课堂Guide-图标和图片" transform="translate(-1260.000000, -899.000000)">
            <g id="编组-32" transform="translate(1260.000000, 899.000000)">
                <circle id="椭圆形备份-31" fill="#357BF6" cx="14" cy="14" r="14"></circle>
                <g id="编组-14备份-3" transform="translate(2.000000, 2.000000)">
                    <rect id="矩形" x="0" y="0" width="24" height="24"></rect>
                    <path d="M15.5,6 C16.0522847,6 16.5,6.44771525 16.5,7 L16.5,10.399 L19.6876525,7.84987802 C19.9032834,7.67737324 20.2179296,7.71233393 20.3904344,7.9279649 C20.4613596,8.01662142 20.5,8.12677668 20.5,8.24031242 L20.5,15.7596876 C20.5,16.03583 20.2761424,16.2596876 20,16.2596876 C19.8864643,16.2596876 19.776309,16.2210472 19.6876525,16.150122 L16.5,13.6 L16.5,17 C16.5,17.5522847 16.0522847,18 15.5,18 L4.5,18 C3.94771525,18 3.5,17.5522847 3.5,17 L3.5,7 C3.5,6.44771525 3.94771525,6 4.5,6 L15.5,6 Z" id="形状结合" stroke="#FFFFFF" stroke-width="1.2" stroke-linecap="round" stroke-linejoin="round"></path>
                </g>
            </g>
        </g>
    </g>
</svg>