<?xml version="1.0" encoding="UTF-8"?>
<svg width="22px" height="22px" viewBox="0 0 22 22" version="1.1" xmlns="http://www.w3.org/2000/svg" xmlns:xlink="http://www.w3.org/1999/xlink">
    <title>（老师端）视频区hover-授权icon-开启状态</title>
    <g id="页面-1" stroke="none" stroke-width="1" fill="none" fill-rule="evenodd">
        <g id="灵动课堂Guide-图标和图片（补充）" transform="translate(-520.000000, -202.000000)">
            <g id="（老师端）视频区hover-授权icon-开启状态" transform="translate(520.000000, 202.000000)">
                <rect id="矩形" x="0" y="0" width="22" height="22"></rect>
                <g id="授权" transform="translate(2.000000, 2.000000)" fill="#0073FF" fill-rule="nonzero">
                    <g id="皇冠3备份">
                        <path d="M14.2497622,16.6 C14.5176137,16.6 14.7653227,16.7141314 14.8994628,16.89991 C15.0335124,17.084122 15.0335124,17.315878 14.8994628,17.50009 C14.7653227,17.6855085 14.5180422,17.8 14.2497622,17.8 L3.74998416,17.8 C3.33599291,17.8 3,17.5314131 3,17.19982 C3,16.8685869 3.33599289,16.6 3.74998416,16.6 L14.2497622,16.6 Z M8.99992824,0.42976 C9.3493476,0.42976 9.68154592,0.569485569 9.92876322,0.814229397 L10.029313,0.92544811 L13.068,4.697 L15.4924961,3.02608907 C15.8649649,2.77002911 16.3312828,2.72564596 16.7362582,2.89216755 L16.8687652,2.95548497 L16.995451,3.03441862 C17.4023979,3.32101805 17.6157383,3.80999372 17.5628187,4.29810057 L17.54173,4.43104638 L15.6353786,13.9183184 C15.5114506,14.497545 15.0370077,14.9271536 14.4665424,14.9836987 L14.3333079,14.9900285 L3.66866637,14.9900285 C3.0829678,14.9921946 2.5755413,14.6041147 2.39802604,14.0436475 L2.36303193,13.9113479 L0.458927887,4.43496354 C0.347374251,3.8992612 0.56129357,3.34468494 1.00473771,3.03418485 C1.41560046,2.74526525 1.94504583,2.71631687 2.38042651,2.94890843 L2.50800613,3.02653367 L4.931,4.697 L7.97168385,0.924037296 C8.16146316,0.690017732 8.42047739,0.528996535 8.70648598,0.463112159 L8.85154426,0.438200533 L8.99992824,0.42976 Z M8.99992824,1.57024 C8.96491834,1.57024 8.93025449,1.58138173 8.90006014,1.60234173 L8.8586362,1.64098002 L5.15545908,6.23723172 L1.86126671,3.96590694 C1.79891088,3.92303937 1.72282623,3.92345419 1.65982581,3.96775482 C1.6058454,4.00555214 1.57180357,4.07337514 1.57070344,4.14876581 L1.57625809,4.20637685 L3.4797176,13.679708 C3.49750206,13.7628307 3.55190281,13.8218516 3.61655207,13.8419751 L3.66654862,13.8495484 L14.3354256,13.8495484 C14.401857,13.849794 14.4659871,13.807447 14.4996236,13.7408686 L14.518693,13.6866784 L16.4245498,4.20174163 C16.4439416,4.10921505 16.4077745,4.0154672 16.339093,3.96709685 C16.2925459,3.93436486 16.2381116,3.92594852 16.1877696,3.94168329 L16.1392355,3.96546234 L12.8443974,6.23723172 L9.14182317,1.64172701 C9.10430594,1.59532208 9.05251367,1.57024 8.99992824,1.57024 Z M9,6.62976 C10.4195044,6.62976 11.57024,7.78049564 11.57024,9.2 C11.57024,10.6195044 10.4195044,11.77024 9,11.77024 C7.58049564,11.77024 6.42976,10.6195044 6.42976,9.2 C6.42976,7.78049564 7.58049564,6.62976 9,6.62976 Z M9,7.77024 C8.21036536,7.77024 7.57024,8.41036536 7.57024,9.2 C7.57024,9.98963464 8.21036536,10.62976 9,10.62976 C9.78963464,10.62976 10.42976,9.98963464 10.42976,9.2 C10.42976,8.41036536 9.78963464,7.77024 9,7.77024 Z" id="形状结合"></path>
                    </g>
                </g>
            </g>
        </g>
    </g>
</svg>