<?xml version="1.0" encoding="UTF-8"?>
<svg width="24px" height="24px" viewBox="0 0 24 24" version="1.1" xmlns="http://www.w3.org/2000/svg" xmlns:xlink="http://www.w3.org/1999/xlink">
    <title>奖励- hover备份</title>
    <g id="悟空答题器" stroke="none" strokeWidth="1" fill="none" fillRule="evenodd">
        <g id="悟空-答题器（答题中）" transform="translate(-541.000000, -532.000000)">
            <g id="编组-37备份-4" transform="translate(460.000000, 132.000000)">
                <g id="编组-79" transform="translate(65.000000, 397.000000)">
                    <g id="奖励--hover备份" transform="translate(16.000000, 3.000000)">
                        <rect id="矩形" x="0" y="0" width="24" height="24"></rect>
                        <path d="M13.047138,6.7 C13.4942257,6.7 13.8566619,7.06243615 13.8566619,7.50952381 L13.856,9.399 L19.7650794,9.4 C20.1227495,9.4 20.4126984,9.68994892 20.4126984,10.047619 L20.4126984,12.7403588 C20.4126984,14.7018116 18.9841554,16.3568245 17.0793651,16.6022206 L17.0793651,18.3269938 L18.9738143,18.3269938 C19.2425026,18.3269938 19.4603175,18.5448086 19.4603175,18.8134969 C19.4603175,19.0821851 19.2425026,19.3 18.9738143,19.3 L14.2325349,19.3 C13.9638466,19.3 13.7460317,19.0821851 13.7460317,18.8134969 C13.7460317,18.5448086 13.9638466,18.3269938 14.2325349,18.3269938 L16.1269841,18.3269938 L16.1269841,16.6022206 C14.570978,16.4017587 13.3327769,15.2606441 12.9314966,13.780241 C12.1611171,14.8537347 10.9620702,15.6078742 9.56373256,15.7843085 L9.56373256,17.9598003 L12.0164743,17.9598003 C12.3553763,17.9598003 12.6301106,18.2345347 12.6301106,18.5734367 C12.6301106,18.9123387 12.3553763,19.187073 12.0164743,19.187073 L5.88443963,19.187073 C5.54553763,19.187073 5.27080327,18.9123387 5.27080327,18.5734367 C5.27080327,18.2345347 5.54553763,17.9598003 5.88443963,17.9598003 L8.33718134,17.9598003 L8.33718134,15.7843085 C5.88404223,15.4747854 4.04425204,13.3872837 4.04425204,10.9132631 L4.04425204,7.50952381 C4.04425204,7.06243615 4.4066882,6.7 4.85377585,6.7 L13.047138,6.7 Z M21.3650794,10.956514 C21.7157363,10.956514 22,11.2407777 22,11.5914347 L22,12.9162767 C22,13.2669337 21.7157363,13.5511973 21.3650794,13.5511973 C21.0144224,13.5511973 20.7301587,13.2669337 20.7301587,12.9162767 L20.7301587,11.5914347 C20.7301587,11.2407777 21.0144224,10.956514 21.3650794,10.956514 Z M2.82587783,8.66326308 C3.27296548,8.66326308 3.63540164,9.02569923 3.63540164,9.47278689 L3.63540164,11.1264665 C3.63540164,11.5735542 3.27296548,11.9359904 2.82587783,11.9359904 L2.80952381,11.9359904 C2.36243615,11.9359904 2,11.5735542 2,11.1264665 L2,9.47278689 C2,9.02569923 2.36243615,8.66326308 2.80952381,8.66326308 L2.82587783,8.66326308 Z" id="形状结合" fill="#E2E2EE" fill-rule="nonzero"></path>
                    </g>
                </g>
            </g>
        </g>
    </g>
</svg>