<?xml version="1.0" standalone="no"?><!DOCTYPE svg PUBLIC "-//W3C//DTD SVG 1.1//EN" "http://www.w3.org/Graphics/SVG/1.1/DTD/svg11.dtd"><svg t="1618217476163" class="icon" viewBox="0 0 1024 1024" version="1.1" xmlns="http://www.w3.org/2000/svg" p-id="3196" xmlns:xlink="http://www.w3.org/1999/xlink" width="200" height="200"><defs><style type="text/css"></style></defs><path d="M604.216889 167.424L604.273778 227.555556a65.763556 65.763556 0 1 0 131.470222 0V167.480889h98.645333A85.333333 85.333333 0 0 1 919.324444 244.622222l0.398223 8.192v625.777778a85.333333 85.333333 0 0 1-77.141334 84.992l-8.192 0.341333H189.610667A85.333333 85.333333 0 0 1 104.675556 886.897778l-0.398223-8.248889v-625.777778A85.333333 85.333333 0 0 1 181.475556 167.879111l8.192-0.398222h98.588444V227.555556a65.763556 65.763556 0 0 0 131.527111 0V167.480889h184.490667z m258.56 191.032889H161.166222v520.135111a28.444444 28.444444 0 0 0 23.324445 27.989333l5.12 0.455111h644.778666a28.444444 28.444444 0 0 0 27.989334-23.324444l0.455111-5.12V358.456889z m-527.758222 405.048889a28.444444 28.444444 0 0 1 5.12 56.433778l-5.12 0.455111H233.813333a28.444444 28.444444 0 0 1-5.12-56.433778l5.12-0.455111H335.075556z m227.555555 0a28.444444 28.444444 0 0 1 5.12 56.433778l-5.12 0.455111H461.368889a28.444444 28.444444 0 0 1-5.12-56.433778l5.12-0.455111H562.631111z m-227.555555-162.588445a28.444444 28.444444 0 0 1 5.12 56.433778l-5.12 0.455111H233.813333a28.444444 28.444444 0 0 1-5.12-56.376889l5.12-0.512H335.075556z m227.555555 0a28.444444 28.444444 0 0 1 5.12 56.433778l-5.12 0.455111H461.368889a28.444444 28.444444 0 0 1-5.12-56.376889l5.12-0.512H562.631111z m227.555556 0a28.444444 28.444444 0 0 1 5.12 56.433778l-5.12 0.455111H688.924444a28.444444 28.444444 0 0 1-5.12-56.376889l5.12-0.512h101.148445z m-455.111111-162.531555a28.444444 28.444444 0 0 1 5.12 56.433778l-5.12 0.455111H233.813333a28.444444 28.444444 0 0 1-5.12-56.433778l5.12-0.455111H335.075556z m227.555555 0a28.444444 28.444444 0 0 1 5.12 56.433778l-5.12 0.455111H461.368889a28.444444 28.444444 0 0 1-5.12-56.433778l5.12-0.455111H562.631111z m227.555556 0a28.444444 28.444444 0 0 1 5.12 56.433778l-5.12 0.455111H688.924444a28.444444 28.444444 0 0 1-5.12-56.433778l5.12-0.455111h101.148445zM353.962667 69.518222c17.464889 0 31.630222 14.165333 31.630222 31.630222V227.555556a31.630222 31.630222 0 0 1-26.510222 31.175111l-5.12 0.455111A31.630222 31.630222 0 0 1 322.389333 227.555556V101.148444c0-17.464889 14.108444-31.630222 31.573334-31.630222z m284.444444 31.630222a31.630222 31.630222 0 0 1 63.203556 0V227.555556a31.630222 31.630222 0 0 1-26.453334 31.175111l-5.12 0.455111A31.630222 31.630222 0 0 1 638.407111 227.555556V101.148444z" fill="#586376" p-id="3197"></path></svg>