<?xml version="1.0" encoding="UTF-8"?>
<svg width="28px" height="28px" viewBox="0 0 28 28" version="1.1" xmlns="http://www.w3.org/2000/svg" xmlns:xlink="http://www.w3.org/1999/xlink">
    <title>icon-countdown</title>
    <g id="V1.1.1正式版_倒计时/屏幕共享/私聊" stroke="none" stroke-width="1" fill="none" fill-rule="evenodd">
        <g id="icon-countdown">
            <rect id="矩形" x="0" y="0" width="28" height="28"></rect>
            <g id="countdown" transform="translate(5.000000, 4.000000)" fill="#7B88A0" fill-rule="nonzero">
                <path d="M12,-9.09272657e-14 C12.3313708,-9.15767704e-14 12.6,0.26862915 12.6,0.6 C12.6,0.93137085 12.3313708,1.2 12,1.2 L9.199,1.199 L9.2,2.8 C9.2,2.83421764 9.19713566,2.86776628 9.19163367,2.90041923 C9.19719564,2.93294008 9.2,2.96614254 9.2,3 C9.2,3.33137085 8.93137085,3.6 8.6,3.6 C4.51309285,3.6 1.2,6.91309285 1.2,11 C1.2,15.0869071 4.51309285,18.4 8.6,18.4 C12.6869071,18.4 16,15.0869071 16,11 C16,8.7765951 15.0143061,6.71532078 13.3401562,5.31723308 C13.0858116,5.1048291 13.051812,4.7264546 13.264216,4.47210997 C13.4766199,4.21776534 13.8549944,4.18376572 14.1093391,4.3961697 C14.5367581,4.75310867 14.9256138,5.14742438 15.272206,5.57287358 L16.5246702,4.62918517 C16.7893148,4.42976122 17.1655166,4.48263294 17.3649406,4.74727747 C17.5643645,5.01192199 17.5114928,5.38812383 17.2468483,5.58754779 L15.963797,6.5545309 C16.7603562,7.87205533 17.2,9.40040853 17.2,11 C17.2,15.7496488 13.3496488,19.6 8.6,19.6 C3.85035115,19.6 -1.47792889e-12,15.7496488 -1.47792889e-12,11 C-1.47792889e-12,6.45230472 3.52988086,2.7290573 7.99924372,2.42065657 L7.999,1.199 L5.2,1.2 C4.86862915,1.2 4.6,0.93137085 4.6,0.6 C4.6,0.26862915 4.86862915,-9.08663939e-14 5.2,-9.09272657e-14 L12,-9.09272657e-14 Z M8.6,6.4 C8.93137085,6.4 9.2,6.66862915 9.2,7 L9.2,11.8 C9.2,12.1313708 8.93137085,12.4 8.6,12.4 C8.26862915,12.4 8,12.1313708 8,11.8 L8,7 C8,6.66862915 8.26862915,6.4 8.6,6.4 Z" id="形状结合"></path>
            </g>
        </g>
    </g>
</svg>