<?xml version="1.0" encoding="UTF-8"?>
<svg width="24px" height="24px" viewBox="0 0 24 24" version="1.1" xmlns="http://www.w3.org/2000/svg" xmlns:xlink="http://www.w3.org/1999/xlink">
    <title>聊天</title>
    <g id="V2.0.0_PC端小班课" stroke="none" stroke-width="1" fill="none" fill-rule="evenodd">
        <g id="聊天备份" transform="translate(-7.000000, -7.000000)">
            <g id="聊天" transform="translate(7.000000, 7.000000)">
                <rect id="矩形" stroke="#979797" fill="#D8D8D8" opacity="0" x="0" y="0" width="24" height="24"></rect>
                <g id="编组-27" transform="translate(1.200000, 2.900000)" fill="#7B88A0" fill-rule="nonzero">
                    <path d="M19.0617687,3.88919563 C20.8989003,5.42513817 21.835513,7.27394737 21.835513,9.4 C21.835513,12.3236514 19.8526336,14.8380458 16.8643859,16.0101317 L16.705,16.07 L16.6857319,16.3922768 C16.6617823,16.8758423 16.6594991,17.3941093 16.6790338,17.9469153 L16.697778,18.3679934 L16.7446801,19.2459731 L15.9100202,18.9695836 C14.4401565,18.4828526 13.217716,17.7357128 12.2515207,16.7290908 L12.174,16.646 L12.1197062,16.6390744 C11.3031387,16.5367842 10.6933237,16.4049469 10.2730304,16.2321822 L10.1399284,16.1730626 C9.84130481,16.029429 9.71566062,15.6709087 9.85929421,15.3722852 C10.0029278,15.0736616 10.3614481,14.9480174 10.6600716,15.091651 C10.8283125,15.1725724 11.0935616,15.2498732 11.4507135,15.3201815 L11.8383106,15.388034 L12.2860417,15.4504755 L12.7629584,15.5050852 L12.9163641,15.6794954 C13.5577543,16.408705 14.3480556,16.9940072 15.2919622,17.4360722 L15.468,17.514 L15.4661224,17.1306387 C15.4680858,16.7157645 15.4831554,16.3197827 15.5113951,15.9426246 L15.5440272,15.5717385 L15.5835113,15.1829241 L15.9551037,15.0618671 C18.7764057,14.1427465 20.635513,11.937588 20.635513,9.4 C20.635513,7.64423415 19.8663966,6.12605116 18.2920698,4.80982781 C18.0378442,4.59728133 18.0040567,4.21888783 18.2166032,3.96466227 C18.4291496,3.71043672 18.8075431,3.67664915 19.0617687,3.88919563 Z M8.6,0 C13.3253874,0 17.2,3.14812272 17.2,7.1 C17.2,10.6710202 14.0228146,13.6161803 9.87253109,14.1229855 L9.87253109,14.1229855 L9.579,14.154 L9.51001772,14.2290908 C8.62433863,15.1518276 7.52334251,15.8565273 6.21382433,16.3424762 L6.21382433,16.3424762 L5.85151814,16.4695836 L5.01685832,16.7459731 L5.06376038,15.8679934 C5.1018268,15.1554117 5.10574345,14.4967337 5.07580644,13.8922768 L5.07580644,13.8922768 L5.055,13.569 L4.88978739,13.507107 C2.04031458,12.3853602 0.119165266,10.037306 0.00534857023,7.35264589 L0.00534857023,7.35264589 L0,7.1 C0,3.14812272 3.87461258,0 8.6,0 Z M8.6,1.2 C4.48883142,1.2 1.2,3.87217553 1.2,7.1 C1.2,9.49877483 3.03008001,11.6573894 5.80643471,12.5618671 L5.80643471,12.5618671 L6.17802707,12.6829241 L6.21751122,13.0717385 C6.26688035,13.5578939 6.29279806,14.0774731 6.29541596,14.6306387 L6.29541596,14.6306387 L6.293,15.014 L6.46957619,14.9360722 C7.30860425,14.5431255 8.02626522,14.0370038 8.62585586,13.4172363 L8.62585586,13.4172363 L8.84517425,13.1794954 L9.00794756,12.9944351 L9.25380595,12.977227 C13.0790617,12.7094899 16,10.1358639 16,7.1 C16,3.87217553 12.7111686,1.2 8.6,1.2 Z M4.30000031,6.06923077 C4.91176188,6.06923077 5.40769262,6.56516151 5.40769262,7.17692308 C5.40769262,7.78868465 4.91176188,8.28461538 4.30000031,8.28461538 C3.68823874,8.28461538 3.192308,7.78868465 3.192308,7.17692308 C3.192308,6.56516151 3.68823874,6.06923077 4.30000031,6.06923077 Z M8.73076931,6.06923077 C9.34253088,6.06923077 9.83846162,6.56516151 9.83846162,7.17692308 C9.83846162,7.78868465 9.34253088,8.28461538 8.73076931,8.28461538 C8.11900774,8.28461538 7.623077,7.78868465 7.623077,7.17692308 C7.623077,6.56516151 8.11900774,6.06923077 8.73076931,6.06923077 Z M13.1615383,6.06923077 C13.7732999,6.06923077 14.2692306,6.56516151 14.2692306,7.17692308 C14.2692306,7.78868465 13.7732999,8.28461538 13.1615383,8.28461538 C12.5497767,8.28461538 12.053846,7.78868465 12.053846,7.17692308 C12.053846,6.56516151 12.5497767,6.06923077 13.1615383,6.06923077 Z" id="形状结合"></path>
                </g>
            </g>
        </g>
    </g>
</svg>