<?xml version="1.0" encoding="UTF-8"?>
<svg width="24px" height="24px" viewBox="0 0 24 24" version="1.1" xmlns="http://www.w3.org/2000/svg" xmlns:xlink="http://www.w3.org/1999/xlink">
    <title>emoji</title>
    <g id="V2.0.0_PC端优化" stroke="none" stroke-width="1" fill="none" fill-rule="evenodd">
        <g id="（老师端）小班课-聊天展开-electron" transform="translate(-937.000000, -615.000000)">
            <g id="编组-37" transform="translate(925.000000, 225.000000)">
                <g id="编组-26" transform="translate(0.000000, 380.000000)">
                    <g id="emoji" transform="translate(12.000000, 10.000000)">
                        <rect id="矩形" x="0" y="0" width="24" height="24"></rect>
                        <path d="M11.924,3.5 C16.5769144,3.5 20.348,7.27164636 20.348,11.9248421 C20.348,16.5778972 16.5770551,20.3488421 11.924,20.3488421 C7.27094494,20.3488421 3.5,16.5778972 3.5,11.9248421 C3.5,7.27164636 7.2710856,3.5 11.924,3.5 Z M11.924,4.7 C7.93386725,4.7 4.7,7.93434812 4.7,11.9248421 C4.7,15.9151555 7.93368664,19.1488421 11.924,19.1488421 C15.9143134,19.1488421 19.148,15.9151555 19.148,11.9248421 C19.148,7.93434812 15.9141328,4.7 11.924,4.7 Z M15.7169263,13.3213474 C16.0241673,13.3213474 16.2587259,13.5958474 16.2108078,13.8993287 C15.8784906,16.0040043 14.0703445,17.5735579 11.9240842,17.5735579 C9.77782395,17.5735579 7.96967783,16.0040043 7.63736062,13.8993287 C7.59423434,13.6261955 7.77991416,13.3765372 8.04146007,13.3293368 L8.13124211,13.3213474 L15.7169263,13.3213474 Z M15.078,14.321 L8.769,14.321 L8.82077995,14.4596569 C9.26829095,15.5889163 10.3018924,16.4044674 11.5286235,16.5502127 L11.7347995,16.5682407 L11.9240842,16.5735579 C13.2544434,16.5735579 14.4167149,15.7888475 14.9518751,14.6353892 L15.0273885,14.4596569 L15.078,14.321 Z M9.07305263,8.86951579 C9.59094737,8.86951579 10.012,9.28972632 10.012,9.80846316 C10.012,10.3272 9.59094737,10.7474105 9.07305263,10.7474105 C8.55515789,10.7474105 8.13494737,10.3272 8.13494737,9.80846316 C8.13494737,9.28972632 8.55515789,8.86951579 9.07305263,8.86951579 Z M14.7753684,8.86951579 C15.2932632,8.86951579 15.7134737,9.28972632 15.7134737,9.80846316 C15.7134737,10.3272 15.2932632,10.7474105 14.7753684,10.7474105 C14.2574737,10.7474105 13.8364211,10.3272 13.8364211,9.80846316 C13.8364211,9.28972632 14.2574737,8.86951579 14.7753684,8.86951579 Z" id="形状结合" fill="#7B88A0" fill-rule="nonzero"></path>
                    </g>
                </g>
            </g>
        </g>
    </g>
</svg>