<?xml version="1.0" encoding="UTF-8"?>
<svg width="24px" height="24px" viewBox="0 0 24 24" version="1.1" xmlns="http://www.w3.org/2000/svg" xmlns:xlink="http://www.w3.org/1999/xlink">
    <title>最小化</title>
    <g id="V2.0.0_PC端优化" stroke="none" stroke-width="1" fill="none" fill-rule="evenodd">
        <g id="（老师端）小班课-聊天展开-electron" transform="translate(-1226.000000, -235.000000)">
            <g id="编组-37" transform="translate(925.000000, 225.000000)">
                <g id="最小化" transform="translate(301.000000, 10.000000)">
                    <rect id="矩形" x="0" y="0" width="24" height="24"></rect>
                    <path d="M17.3125664,12.1585112 C17.5467185,12.3926633 17.5467185,12.7722989 17.3125664,13.006451 L12.4820084,17.837009 C12.3478727,17.9711447 12.1659944,18.0284398 11.9910728,18.0088944 C11.8138221,18.0302966 11.6283688,17.9732716 11.4921316,17.8370344 L6.68772773,13.0326306 C6.45341315,12.798316 6.45341315,12.418417 6.68772773,12.1841024 L6.69097426,12.1808559 C6.92528884,11.9465413 7.30518782,11.9465413 7.5395024,12.1808559 L11.9903215,16.6325112 L16.4646266,12.1585112 C16.6987787,11.9243591 17.0784143,11.9243591 17.3125664,12.1585112 Z M17.3125664,6.1626714 C17.5467185,6.39682351 17.5467185,6.77645909 17.3125664,7.0106112 L12.4820084,11.8411692 C12.3478727,11.9753049 12.1659944,12.0326 11.9910728,12.0130545 C11.8138221,12.0344568 11.6283688,11.9774318 11.4921316,11.8411946 L6.68772773,7.03679074 C6.45341315,6.80247616 6.45341315,6.42257717 6.68772773,6.1882626 L6.69097426,6.18501607 C6.92528884,5.95070149 7.30518782,5.95070149 7.5395024,6.18501607 L11.9903215,10.6366714 L16.4646266,6.1626714 C16.6987787,5.92851929 17.0784143,5.92851929 17.3125664,6.1626714 Z" id="形状结合" fill="#7B88A0"></path>
                </g>
            </g>
        </g>
    </g>
</svg>