<svg width="12" height="12" viewBox="0 0 12 12" fill="none" xmlns="http://www.w3.org/2000/svg">
<path d="M6.93256 2.58764L9.67025 7.32951C10.1226 8.11307 9.55717 9.09251 8.65241 9.09251H3.17697C2.27219 9.09251 1.70671 8.11307 2.15909 7.32951L4.89682 2.58764C5.34921 1.80408 6.48017 1.80408 6.93256 2.58764Z" fill="#F5655C" fill-opacity="0.3" stroke="#F5655C" stroke-width="0.5"/>
<path d="M5.93052 6.70499C5.77189 6.70499 5.63416 6.76293 5.51922 6.87787C5.40428 6.99281 5.34729 7.13055 5.34729 7.28918C5.34729 7.44876 5.40523 7.5846 5.51922 7.69763C5.60756 7.78312 5.7092 7.83632 5.82224 7.85626C5.85833 7.85816 5.89348 7.85912 5.93052 7.85912C5.96757 7.85912 6.00271 7.85816 6.03881 7.85626C6.1528 7.83632 6.25349 7.78407 6.34183 7.69763C6.45677 7.58555 6.51376 7.44971 6.51376 7.28918C6.51376 7.13055 6.45582 6.99281 6.34183 6.87787C6.22689 6.76293 6.08915 6.70499 5.93052 6.70499ZM5.93147 3.66153C5.76145 3.66153 5.62181 3.72138 5.51162 3.84011C5.40239 3.9579 5.34824 4.10418 5.34824 4.27802C5.34824 4.43 5.59521 5.54517 5.6617 6.35638H6.20979C6.28578 5.54517 6.51376 4.43 6.51376 4.27802C6.51376 4.10134 6.45961 3.95505 6.35038 3.83727C6.24114 3.72043 6.10151 3.66153 5.93147 3.66153Z" fill="#F5655C"/>
</svg>
