<?xml version="1.0" encoding="UTF-8"?>
<svg width="24px" height="24px" viewBox="0 0 24 24" version="1.1" xmlns="http://www.w3.org/2000/svg" xmlns:xlink="http://www.w3.org/1999/xlink">
    <title>chat</title>
    <g id="晓教育二期" stroke="none" stroke-width="1" fill="none" fill-rule="evenodd">
        <g id="小班课(老师端)" transform="translate(-1237.000000, -677.000000)">
            <g id="聊天" transform="translate(1230.000000, 670.000000)">
                <g id="chat" transform="translate(7.000000, 7.000000)">
                    <rect id="矩形" stroke="#979797" fill="#D8D8D8" opacity="0" x="0" y="0" width="24" height="24"></rect>
                    <g transform="translate(0.400000, 2.800000)" fill="#7B88A0" fill-rule="nonzero">
                        <path d="M19.8617687,3.98919563 C21.6989003,5.52513817 22.635513,7.37394737 22.635513,9.5 C22.635513,12.4236514 20.6526336,14.9380458 17.6643859,16.1101317 L17.505,16.17 L17.4857319,16.4922768 C17.4617823,16.9758423 17.4594991,17.4941093 17.4790338,18.0469153 L17.497778,18.4679934 L17.5446801,19.3459731 L16.7100202,19.0695836 C15.2401565,18.5828526 14.017716,17.8357128 13.0515207,16.8290908 L12.974,16.746 L12.9197062,16.7390744 C12.1031387,16.6367842 11.4933237,16.5049469 11.0730304,16.3321822 L10.9399284,16.2730626 C10.6413048,16.129429 10.5156606,15.7709087 10.6592942,15.4722852 C10.8029278,15.1736616 11.1614481,15.0480174 11.4600716,15.191651 C11.6283125,15.2725724 11.8935616,15.3498732 12.2507135,15.4201815 L12.6383106,15.488034 L13.0860417,15.5504755 L13.5629584,15.6050852 L13.7163641,15.7794954 C14.3577543,16.508705 15.1480556,17.0940072 16.0919622,17.5360722 L16.268,17.614 L16.2661224,17.2306387 C16.2680858,16.8157645 16.2831554,16.4197827 16.3113951,16.0426246 L16.3440272,15.6717385 L16.3835113,15.2829241 L16.7551037,15.1618671 C19.5764057,14.2427465 21.435513,12.037588 21.435513,9.5 C21.435513,7.74423415 20.6663966,6.22605116 19.0920698,4.90982781 C18.8378442,4.69728133 18.8040567,4.31888783 19.0166032,4.06466227 C19.2291496,3.81043672 19.6075431,3.77664915 19.8617687,3.98919563 Z M9.4,0.1 C14.1253874,0.1 18,3.24812272 18,7.2 C18,10.7710202 14.8228146,13.7161803 10.6725311,14.2229855 L10.6725311,14.2229855 L10.379,14.254 L10.3100177,14.3290908 C9.42433863,15.2518276 8.32334251,15.9565273 7.01382433,16.4424762 L7.01382433,16.4424762 L6.65151814,16.5695836 L5.81685832,16.8459731 L5.86376038,15.9679934 C5.9018268,15.2554117 5.90574345,14.5967337 5.87580644,13.9922768 L5.87580644,13.9922768 L5.855,13.669 L5.68978739,13.607107 C2.84031458,12.4853602 0.919165266,10.137306 0.80534857,7.45264589 L0.80534857,7.45264589 L0.8,7.2 C0.8,3.24812272 4.67461258,0.1 9.4,0.1 Z M9.4,1.3 C5.28883142,1.3 2,3.97217553 2,7.2 C2,9.59877483 3.83008001,11.7573894 6.60643471,12.6618671 L6.60643471,12.6618671 L6.97802707,12.7829241 L7.01751122,13.1717385 C7.06688035,13.6578939 7.09279806,14.1774731 7.09541596,14.7306387 L7.09541596,14.7306387 L7.093,15.114 L7.26957619,15.0360722 C8.10860425,14.6431255 8.82626522,14.1370038 9.42585586,13.5172363 L9.42585586,13.5172363 L9.64517425,13.2794954 L9.80794756,13.0944351 L10.0538059,13.077227 C13.8790617,12.8094899 16.8,10.2358639 16.8,7.2 C16.8,3.97217553 13.5111686,1.3 9.4,1.3 Z M5.10000031,6.16923077 C5.71176188,6.16923077 6.20769262,6.66516151 6.20769262,7.27692308 C6.20769262,7.88868465 5.71176188,8.38461538 5.10000031,8.38461538 C4.48823874,8.38461538 3.992308,7.88868465 3.992308,7.27692308 C3.992308,6.66516151 4.48823874,6.16923077 5.10000031,6.16923077 Z M9.53076931,6.16923077 C10.1425309,6.16923077 10.6384616,6.66516151 10.6384616,7.27692308 C10.6384616,7.88868465 10.1425309,8.38461538 9.53076931,8.38461538 C8.91900774,8.38461538 8.423077,7.88868465 8.423077,7.27692308 C8.423077,6.66516151 8.91900774,6.16923077 9.53076931,6.16923077 Z M13.9615383,6.16923077 C14.5732999,6.16923077 15.0692306,6.66516151 15.0692306,7.27692308 C15.0692306,7.88868465 14.5732999,8.38461538 13.9615383,8.38461538 C13.3497767,8.38461538 12.853846,7.88868465 12.853846,7.27692308 C12.853846,6.66516151 13.3497767,6.16923077 13.9615383,6.16923077 Z"></path>
                    </g>
                </g>
            </g>
        </g>
    </g>
</svg>