<?xml version="1.0" standalone="no"?><!DOCTYPE svg PUBLIC "-//W3C//DTD SVG 1.1//EN" "http://www.w3.org/Graphics/SVG/1.1/DTD/svg11.dtd"><svg t="1622772996395" class="icon" viewBox="0 0 1024 1024" version="1.1" xmlns="http://www.w3.org/2000/svg" p-id="3299" xmlns:xlink="http://www.w3.org/1999/xlink" width="20" height="20"><defs><style type="text/css"></style></defs><path d="M832 96A96 96 0 0 1 928 192v640a96 96 0 0 1-96 96H192A96 96 0 0 1 96 832V192A96 96 0 0 1 192 96zM327.68 490.24l-3.328 4.672-164.352 281.6V832a32 32 0 0 0 26.24 31.488L192 864h640a32 32 0 0 0 32-32v-52.352l-103.424-124.16-4.096-4.096a32 32 0 0 0-40.96 0l-4.096 4.096-110.848 132.992a32 32 0 0 1-48.832 0.448l-3.392-4.8-168.704-289.28a32 32 0 0 0-51.968-4.672zM832 160H192a32 32 0 0 0-32 32v457.6l109.056-186.944a96 96 0 0 1 160.448-8.32l5.44 8.32L580.48 712.32l81.728-97.92a96 96 0 0 1 127.36-18.176l7.808 5.952 6.4 5.824 5.888 6.4 54.272 65.088V192a32 32 0 0 0-26.24-31.488L832 160zM704 256a64 64 0 1 1 0 128 64 64 0 0 1 0-128z" p-id="3300" fill="#959BA6"></path></svg>