<?xml version="1.0" standalone="no"?><!DOCTYPE svg PUBLIC "-//W3C//DTD SVG 1.1//EN" "http://www.w3.org/Graphics/SVG/1.1/DTD/svg11.dtd"><svg t="1622776332760" class="icon" viewBox="0 0 1024 1024" version="1.1" xmlns="http://www.w3.org/2000/svg" p-id="2561" xmlns:xlink="http://www.w3.org/1999/xlink" width="20" height="20"><defs><style type="text/css"></style></defs><path d="M800.192 316.672a32 32 0 0 1 63.616 6.656l-57.984 550.72A96 96 0 0 1 710.4 960H313.6a96 96 0 0 1-95.424-85.952l-57.984-550.72a32 32 0 1 1 63.616-6.656l57.984 550.656A32 32 0 0 0 313.6 896h396.8a32 32 0 0 0 31.808-28.672l57.984-550.656zM608 416a32 32 0 0 1 32 32v224a32 32 0 1 1-64 0V448a32 32 0 0 1 32-32z m-192 0A32 32 0 0 1 448 448v224a32 32 0 1 1-64 0V448a32 32 0 0 1 32-32zM384 192h256v-48A16 16 0 0 0 624 128h-224a16 16 0 0 0-16 16V192zM320 192V128a64 64 0 0 1 64-64h256a64 64 0 0 1 64 64v64h224a32 32 0 1 1 0 64h-832a32 32 0 1 1 0-64H320z" p-id="2562" fill="#959BA6"></path></svg>