<?xml version="1.0" encoding="UTF-8"?>
<svg width="14px" height="14px" viewBox="0 0 14 14" version="1.1" xmlns="http://www.w3.org/2000/svg" xmlns:xlink="http://www.w3.org/1999/xlink">
    <title>icon_question copy 8</title>
    <g id="辅导" stroke="none" stroke-width="1" fill="none" fill-rule="evenodd">
        <g id="辅导/直播/hover交互" transform="translate(-748.000000, -46.000000)">
            <g id="Group-12" transform="translate(736.000000, 28.000000)">
                <g id="分组" transform="translate(12.000000, 18.000000)">
                    <rect id="矩形" fill="#000000" fill-rule="nonzero" opacity="0" x="0" y="0" width="14" height="14"></rect>
                    <path d="M6.07192235,0.3968596 C6.58448548,-0.115703533 7.41551452,-0.115703533 7.92807765,0.3968596 L7.92807765,0.3968596 L10.244,2.71243725 L12.25,2.71250038 C12.7332492,2.71250038 13.125,3.10425123 13.125,3.58750038 L13.125,11.4625004 C13.125,11.9457495 12.7332492,12.3375004 12.25,12.3375004 L1.75,12.3375004 C1.26675084,12.3375004 0.875,11.9457495 0.875,11.4625004 L0.875,3.58750038 C0.875,3.10425123 1.26675084,2.71250038 1.75,2.71250038 L3.755,2.71243725 Z M7,8.40000038 L3.5,8.40000038 L3.42135882,8.40704909 C3.21726577,8.44409306 3.0625,8.62272298 3.0625,8.83750038 C3.0625,9.05227779 3.21726577,9.23090771 3.42135882,9.26795167 L3.5,9.27500038 L7,9.27500038 L7.07864118,9.26795167 C7.28273423,9.23090771 7.4375,9.05227779 7.4375,8.83750038 C7.4375,8.5958758 7.24162458,8.40000038 7,8.40000038 Z M10.5,5.77500038 L3.5,5.77500038 L3.42135882,5.78204909 C3.21726577,5.81909306 3.0625,5.99772298 3.0625,6.21250038 C3.0625,6.42727779 3.21726577,6.60590771 3.42135882,6.64295167 L3.5,6.65000038 L10.5,6.65000038 L10.5786412,6.64295167 C10.7827342,6.60590771 10.9375,6.42727779 10.9375,6.21250038 C10.9375,5.9708758 10.7416246,5.77500038 10.5,5.77500038 Z M7.30935922,1.01557803 C7.13850484,0.844723656 6.86149516,0.844723656 6.69064078,1.01557803 L6.69064078,1.01557803 L4.992,2.71243725 L9.006,2.71243725 Z" id="Combined-Shape" fill="#959BA6"></path>
                </g>
            </g>
        </g>
    </g>
</svg>