<?xml version="1.0" standalone="no"?><!DOCTYPE svg PUBLIC "-//W3C//DTD SVG 1.1//EN" "http://www.w3.org/Graphics/SVG/1.1/DTD/svg11.dtd"><svg class="icon" width="200px" height="200.00px" viewBox="0 0 1024 1024" version="1.1" xmlns="http://www.w3.org/2000/svg"><path d="M192 32a32 32 0 0 1 31.488 26.24L224 64v96H768a96 96 0 0 1 95.552 86.784L864 256v544H960a32 32 0 0 1 5.76 63.488L960 864h-96V960a32 32 0 0 1-63.488 5.76L800 960v-96H256a96 96 0 0 1-95.552-86.784L160 768V224H64a32 32 0 0 1-5.76-63.488L64 160h96V64A32 32 0 0 1 192 32z m576 192H224V768a32 32 0 0 0 26.24 31.488L256 800h544V256a32 32 0 0 0-26.24-31.488L768 224z m-41.344 73.344a32 32 0 0 1 3.648 40.832l-3.648 4.48-384 384a32 32 0 0 1-48.96-40.832l3.648-4.48 384-384a32 32 0 0 1 45.312 0z" fill="#cdcdcd" /></svg>