<?xml version="1.0" encoding="UTF-8"?>
<svg width="14px" height="14px" viewBox="0 0 14 14" version="1.1" xmlns="http://www.w3.org/2000/svg" xmlns:xlink="http://www.w3.org/1999/xlink">
    <title>禁言</title>
    <g id="辅导" stroke="none" stroke-width="1" fill="none" fill-rule="evenodd">
        <g id="辅导/直播/hover交互" transform="translate(-816.000000, -192.000000)" fill-rule="nonzero">
            <g id="Group-11" transform="translate(736.000000, 130.000000)">
                <g id="Group-14-Copy" transform="translate(12.000000, 60.000000)">
                    <g id="禁言" transform="translate(68.000000, 2.000000)">
                        <rect id="矩形" fill="#000000" opacity="0" x="0" y="0" width="14" height="14"></rect>
                        <path d="M11.375,1.3125 C12.0545691,1.3125 12.6135106,1.8289684 12.6807237,2.4908045 L12.6875,2.625 L12.6884706,6.15629933 C12.4175775,5.99948016 12.1237156,5.87793231 11.8131662,5.79793683 L11.8125,2.625 C11.8125,2.4102226 11.6577342,2.23159268 11.4536412,2.19454871 L11.375,2.1875 L2.625,2.1875 C2.4102226,2.1875 2.23159268,2.34226577 2.19454871,2.54635882 L2.1875,2.625 L2.1875,9.625 C2.1875,9.8397774 2.34226577,10.0184073 2.54635882,10.0554513 L2.625,10.0625 L4.375,10.0625 C4.5897774,10.0625 4.76840732,10.2172658 4.80545129,10.4213588 L4.8125,10.5 L4.8125,11.431 L6.75731866,10.135978 C6.78925957,10.1146841 6.8236842,10.0978039 6.85965833,10.0856204 L6.91466488,10.0709029 L7,10.0625 L7.54771047,10.062287 C7.62761787,10.3728304 7.74907352,10.6666961 7.90579865,10.9376054 L7.132125,10.9375 L4.61768134,12.614022 C4.37020392,12.7790069 4.05121881,12.6525518 3.96176297,12.3957668 L3.9432829,12.3226242 L3.9375,12.25 L3.9375,10.9375 L2.625,10.9375 C1.98824817,10.9375 1.45740221,10.4840631 1.33774429,9.88247143 L1.31850826,9.75140251 L1.3125,9.625 L1.3125,2.625 C1.3125,1.94543087 1.8289684,1.38648941 2.4908045,1.31927629 L2.625,1.3125 L11.375,1.3125 Z M10.9375,6.5625 C12.3872475,6.5625 13.5625,7.73775253 13.5625,9.1875 C13.5625,10.6372475 12.3872475,11.8125 10.9375,11.8125 C9.48775253,11.8125 8.3125,10.6372475 8.3125,9.1875 C8.3125,7.73775253 9.48775253,6.5625 10.9375,6.5625 Z M9.1875,9.1875 C9.1875,10.1539983 9.97100169,10.9375 10.9375,10.9375 C11.2621443,10.9375 11.5661416,10.8490998 11.8267338,10.6950575 L9.4299425,8.29826615 C9.27590021,8.55885837 9.1875,8.8628557 9.1875,9.1875 Z M10.9375,7.4375 C10.6128557,7.4375 10.3088584,7.52590021 10.0482662,7.6799425 L12.4450575,10.0767338 C12.5990998,9.81614163 12.6875,9.5121443 12.6875,9.1875 C12.6875,8.22100169 11.9039983,7.4375 10.9375,7.4375 Z M4.375,4.375 C4.85824916,4.375 5.25,4.76675084 5.25,5.25 C5.25,5.73324916 4.85824916,6.125 4.375,6.125 C3.89175084,6.125 3.5,5.73324916 3.5,5.25 C3.5,4.76675084 3.89175084,4.375 4.375,4.375 Z M7,4.375 C7.48324916,4.375 7.875,4.76675084 7.875,5.25 C7.875,5.73324916 7.48324916,6.125 7,6.125 C6.51675084,6.125 6.125,5.73324916 6.125,5.25 C6.125,4.76675084 6.51675084,4.375 7,4.375 Z M9.625,4.375 C10.1082492,4.375 10.5,4.76675084 10.5,5.25 C10.5,5.73324916 10.1082492,6.125 9.625,6.125 C9.14175084,6.125 8.75,5.73324916 8.75,5.25 C8.75,4.76675084 9.14175084,4.375 9.625,4.375 Z" id="Combined-Shape" fill="#959BA6"></path>
                    </g>
                </g>
            </g>
        </g>
    </g>
</svg>