<?xml version="1.0" encoding="UTF-8"?>
<svg width="16px" height="16px" viewBox="0 0 16 16" version="1.1" xmlns="http://www.w3.org/2000/svg" xmlns:xlink="http://www.w3.org/1999/xlink">
    <title>icon_error</title>
    <g id="主讲" stroke="none" stroke-width="1" fill="none" fill-rule="evenodd">
        <g id="组件" transform="translate(-736.000000, -660.000000)">
            <g id="提示备份-4" transform="translate(720.000000, 648.000000)">
                <g id="icon_error" transform="translate(16.000000, 12.000000)">
                    <rect id="矩形" x="0" y="0" width="16" height="16"></rect>
                    <path d="M8,15 C4.14026564,15 1,11.8597484 1,8 C1,4.14025164 4.14025164,1 8,1 C11.8597484,1 15,4.14026564 15,8 C15,11.8597344 11.8597344,15 8,15 Z" id="Combined-Shape" fill="#FF462D" fill-rule="nonzero"></path>
                    <path d="M8.92802135,8 L10.6515255,6.27649581 C10.9078721,6.0201493 10.9078721,5.60486294 10.6515255,5.34851643 C10.395179,5.09216992 9.97989267,5.09216992 9.72354617,5.34851643 L8.00004197,7.07202062 L6.27652379,5.34851643 C6.02017729,5.09216992 5.60489092,5.09216992 5.34854442,5.34851643 C5.09219791,5.60486294 5.09219791,6.0201493 5.34854442,6.27649581 L7.07204861,8 L5.34854442,9.72350419 C5.09219791,9.9798507 5.09219791,10.3951371 5.34854442,10.6514836 C5.47671767,10.7796568 5.64419216,10.8437504 5.8125341,10.8437504 C5.98087603,10.8437504 6.14835054,10.7796568 6.27652379,10.6514836 L8.00002799,8.92797938 L9.72354617,10.6514836 C9.85171942,10.7796568 10.0191939,10.8437504 10.1875358,10.8437504 C10.3558778,10.8437504 10.5233523,10.7796568 10.6515255,10.6514836 C10.9078721,10.3951371 10.9078721,9.9798507 10.6515255,9.72350419 L8.92802135,8 Z" id="路径" fill="#FFFFFF" fill-rule="nonzero"></path>
                </g>
            </g>
        </g>
    </g>
</svg>