<?xml version="1.0" encoding="UTF-8"?>
<svg width="14px" height="14px" viewBox="0 0 14 14" version="1.1" xmlns="http://www.w3.org/2000/svg" xmlns:xlink="http://www.w3.org/1999/xlink">
    <title>聊天</title>
    <g id="辅导" stroke="none" stroke-width="1" fill="none" fill-rule="evenodd">
        <g id="辅导/直播/hover交互" transform="translate(-816.000000, -270.000000)" fill-rule="nonzero">
            <g id="Group-11" transform="translate(736.000000, 130.000000)">
                <g id="Group-14-Copy-3" transform="translate(12.000000, 138.000000)">
                    <g id="聊天" transform="translate(68.000000, 2.000000)">
                        <rect id="矩形" fill="#000000" opacity="0" x="0" y="0" width="14" height="14"></rect>
                        <path d="M11.375,1.3125 C12.0998737,1.3125 12.6875,1.90012627 12.6875,2.625 L12.6875,2.625 L12.6875,9.625 C12.6875,10.3498737 12.0998737,10.9375 11.375,10.9375 L11.375,10.9375 L7.132125,10.9375 L4.61768134,12.614022 C4.34770598,12.7940056 3.99263054,12.6271514 3.9432829,12.3226242 L3.9432829,12.3226242 L3.9375,12.25 L3.9375,10.9375 L2.625,10.9375 C1.9427659,10.9375 1.38210741,10.4169729 1.31850826,9.75140251 L1.31850826,9.75140251 L1.3125,9.625 L1.3125,2.625 C1.3125,1.90012627 1.90012627,1.3125 2.625,1.3125 L2.625,1.3125 Z M11.375,2.1875 L2.625,2.1875 C2.38337542,2.1875 2.1875,2.38337542 2.1875,2.625 L2.1875,2.625 L2.1875,9.625 C2.1875,9.86662458 2.38337542,10.0625 2.625,10.0625 L2.625,10.0625 L4.375,10.0625 C4.61662458,10.0625 4.8125,10.2583754 4.8125,10.5 L4.8125,10.5 L4.8125,11.431 L6.75731866,10.135978 C6.80523002,10.1040371 6.85872975,10.0820272 6.91466488,10.0709029 L6.91466488,10.0709029 L7,10.0625 L11.375,10.0625 C11.6166246,10.0625 11.8125,9.86662458 11.8125,9.625 L11.8125,9.625 L11.8125,2.625 C11.8125,2.38337542 11.6166246,2.1875 11.375,2.1875 L11.375,2.1875 Z M4.375,5.25 C4.85824916,5.25 5.25,5.64175084 5.25,6.125 C5.25,6.60824916 4.85824916,7 4.375,7 C3.89175084,7 3.5,6.60824916 3.5,6.125 C3.5,5.64175084 3.89175084,5.25 4.375,5.25 Z M7,5.25 C7.48324916,5.25 7.875,5.64175084 7.875,6.125 C7.875,6.60824916 7.48324916,7 7,7 C6.51675084,7 6.125,6.60824916 6.125,6.125 C6.125,5.64175084 6.51675084,5.25 7,5.25 Z M9.625,5.25 C10.1082492,5.25 10.5,5.64175084 10.5,6.125 C10.5,6.60824916 10.1082492,7 9.625,7 C9.14175084,7 8.75,6.60824916 8.75,6.125 C8.75,5.64175084 9.14175084,5.25 9.625,5.25 Z" id="Combined-Shape" fill="#959BA6"></path>
                    </g>
                </g>
            </g>
        </g>
    </g>
</svg>