<?xml version="1.0" standalone="no"?><!DOCTYPE svg PUBLIC "-//W3C//DTD SVG 1.1//EN" "http://www.w3.org/Graphics/SVG/1.1/DTD/svg11.dtd"><svg t="1623305222941" class="icon" viewBox="0 0 1024 1024" version="1.1" xmlns="http://www.w3.org/2000/svg" p-id="2617" xmlns:xlink="http://www.w3.org/1999/xlink" width="20" height="20"><defs><style type="text/css"></style></defs><path d="M384 160a224 224 0 0 1 127.744 408A351.808 351.808 0 0 1 736 896a32 32 0 1 1-64 0 288 288 0 1 0-576 0 32 32 0 1 1-64 0 352.128 352.128 0 0 1 224.256-328.128A224 224 0 0 1 384 160z m464 345.6a48 48 0 1 1 0 96 48 48 0 0 1 0-96zM384 224a160 160 0 1 0 0 320 160 160 0 0 0 0-320zM854.4 64c75.648 0 137.6 59.008 137.6 132.544 0 31.552-11.648 61.824-32.64 85.696l-8.256 8.64-28.288 26.88c-27.52 26.24-42.88 61.568-42.88 98.24a32 32 0 1 1-64 0c0-49.792 19.072-97.664 53.12-134.72l9.6-9.792 28.288-26.88c13.568-12.992 21.056-30.208 21.056-48.064 0-35.008-28.416-64.384-65.536-68.16L854.4 128h-12.8C800.64 128 768 159.04 768 196.544a32 32 0 1 1-64 0c0-70.4 56.64-127.36 127.808-132.224L841.6 64h12.8z" p-id="2618" fill="#0099FF"></path></svg>