<?xml version="1.0" encoding="UTF-8"?>
<svg width="26px" height="26px" viewBox="0 0 26 26" version="1.1" xmlns="http://www.w3.org/2000/svg" xmlns:xlink="http://www.w3.org/1999/xlink">
    <title>新增一页</title>
    <g id="V2.0.0_PC端小班课" stroke="none" stroke-width="1" fill="none" fill-rule="evenodd">
        <g id="（老师）小班课-默认" transform="translate(-26.000000, -672.000000)" fill-rule="nonzero">
            <g id="新增一页" transform="translate(26.000000, 672.000000)">
                <rect id="Rectangle-6-Copy-8" x="0" y="0" width="26" height="26"></rect>
                <g transform="translate(4.644548, 4.239458)" fill="#7B88A0">
                    <path d="M12.5323088,0 L17,4.19324684 L17,16 C17,17.1045695 16.1045695,18 15,18 L2,18 C0.8954305,18 0,17.1045695 0,16 L0,2 C0,0.8954305 0.8954305,0 2,0 L12.5323088,0 Z M11.861644,1.19963369 L2,1.2 C1.59215895,1.2 1.25559842,1.50518815 1.20623314,1.8996497 L1.2,2 L1.2,16 C1.2,16.407841 1.50518815,16.7444016 1.8996497,16.7937669 L2,16.8 L15,16.8 C15.407841,16.8 15.7444016,16.4948119 15.7937669,16.1003503 L15.8,16 L15.8,5.194 L13.3554517,5.19457828 C12.5757556,5.19457828 11.935003,4.5996902 11.8623183,3.83903829 L11.8554517,3.69457828 L11.8554517,1.29256802 C11.8554517,1.26129303 11.8575435,1.23025381 11.861644,1.19963369 Z M8.99408248,5.96054169 L8.99408248,8.63596335 L11.792687,8.63596335 L11.792687,9.63201078 L8.99408248,9.63201078 L8.99408248,12.3134829 L7.94823268,12.3134829 L7.94823268,9.63201078 L5.1554517,9.63201078 L5.1554517,8.63596335 L7.94823268,8.63596335 L7.94823268,5.96054169 L8.99408248,5.96054169 Z"></path>
                </g>
            </g>
        </g>
    </g>
</svg>