<?xml version="1.0" encoding="UTF-8"?>
<svg width="26px" height="26px" viewBox="0 0 26 26" version="1.1" xmlns="http://www.w3.org/2000/svg" xmlns:xlink="http://www.w3.org/1999/xlink">
    <title>新增一页备份 2</title>
    <g id="V2.2.0_PC端小班课" stroke="none" stroke-width="1" fill="none" fill-rule="evenodd">
        <g id="新增一页备份-2" fill-rule="nonzero">
            <rect id="Rectangle-6-Copy-8" x="0" y="0" width="26" height="26"></rect>
            <g id="新增一页" transform="translate(4.644548, 4.224502)">
                <path d="M12.5323088,0.0149562421 L17,4.20820308 L17,16.0149562 C17,17.1195257 16.1045695,18.0149562 15,18.0149562 L2,18.0149562 C0.8954305,18.0149562 0,17.1195257 0,16.0149562 L0,2.01495624 C0,0.910386742 0.8954305,0.0149562421 2,0.0149562421 L12.5323088,0.0149562421 Z" id="路径" fill="#0073FF"></path>
                <polygon fill="#FFFFFF" points="8.99408248 8.65091959 11.792687 8.65091959 11.792687 9.64696702 8.99408248 9.64696702 8.99408248 12.3284391 7.94823268 12.3284391 7.94823268 9.64696702 5.1554517 9.64696702 5.1554517 8.65091959 7.94823268 8.65091959 7.94823268 5.97549793 8.99408248 5.97549793"></polygon>
                <path d="M12.0855918,0.173356193 C11.9337846,0.306274918 11.8467168,0.498235357 11.8467168,0.700009499 L11.8554517,2.70953452 C11.8554517,3.53796165 12.6246627,4.20820308 13.4530898,4.20820308 L17,4.20820308 L13.0733701,0.238884467 C12.844165,-0.0228918637 12.4630273,-0.0728332827 12.177053,0.10545232 L12.0855918,0.173356193 Z" id="形状结合" fill="#FFFFFF"></path>
            </g>
        </g>
    </g>
</svg>