<?xml version="1.0" standalone="no"?><!DOCTYPE svg PUBLIC "-//W3C//DTD SVG 1.1//EN" "http://www.w3.org/Graphics/SVG/1.1/DTD/svg11.dtd"><svg t="1623330026951" class="icon" viewBox="0 0 1024 1024" version="1.1" xmlns="http://www.w3.org/2000/svg" p-id="51150" xmlns:xlink="http://www.w3.org/1999/xlink" width="200" height="200"><defs><style type="text/css"></style></defs><path d="M731.428571 146.285714a109.714286 109.714286 0 0 1 109.714286 109.714286v378.185143l-44.032-44.032L797.257143 256a65.828571 65.828571 0 0 0-60.416-65.609143L731.428571 190.171429H292.571429a65.828571 65.828571 0 0 0-65.609143 60.416L226.742857 256v512a65.828571 65.828571 0 0 0 60.416 65.609143L292.571429 833.828571l430.701714-0.036571-180.553143-180.662857 70.034286-70.107429 203.227428 205.019429 0.146286-0.146286 17.92 18.029714a5.851429 5.851429 0 0 1 0.987429 7.241143l-0.987429 1.243429-61.037714 61.037714a6.034286 6.034286 0 0 1-3.401143 1.682286v0.036571S744.740571 877.714286 731.428571 877.714286H292.571429a109.714286 109.714286 0 0 1-109.714286-109.714286V256a109.714286 109.714286 0 0 1 109.714286-109.714286h438.857142z m-124.050285 432.493715l-68.900572 69.010285s-33.206857-86.381714-25.234285-94.317714c7.936-8.009143 94.134857 25.307429 94.134857 25.307429zM570.514286 475.428571a21.942857 21.942857 0 1 1 0 43.885715 21.942857 21.942857 0 0 1 0-43.885715z m73.142857 0a21.942857 21.942857 0 1 1 0 43.885715 21.942857 21.942857 0 0 1 0-43.885715z m73.142857 0a21.942857 21.942857 0 1 1 0 43.885715 21.942857 21.942857 0 0 1 0-43.885715z m-286.354286-224.548571L532.48 512h-38.4l-28.525714-78.628571H355.108571L325.851429 512h-35.474286l101.668571-261.12h38.4z m-19.382857 31.451429h-0.731428l-44.251429 121.782857h88.502857l-43.52-121.782857z" p-id="51151"></path></svg>