<?xml version="1.0" encoding="UTF-8"?>
<svg width="28px" height="28px" viewBox="0 0 28 28" version="1.1" xmlns="http://www.w3.org/2000/svg" xmlns:xlink="http://www.w3.org/1999/xlink">
    <title>selector备份</title>
    <g id="页面-1" stroke="none" stroke-width="1" fill="none" fill-rule="evenodd">
        <g id="灵动课堂Guide-图标和图片" transform="translate(-966.000000, -626.000000)" fill="#7B88A0" fill-rule="nonzero">
            <g id="selector备份" transform="translate(966.000000, 626.000000)">
                <path d="M19.5714286,4.71428571 C21.1099361,4.71428571 22.3571429,5.96149248 22.3571429,7.5 L22.3568571,17.1022857 L21.2388571,15.9842857 L21.2428571,7.5 C21.2428571,6.62305072 20.5674947,5.90384079 19.7085117,5.83411217 L19.5714286,5.82857143 L8.42857143,5.82857143 C7.55162214,5.82857143 6.83241221,6.50393389 6.76268359,7.36291687 L6.75714286,7.5 L6.75714286,20.5 C6.75714286,21.3769493 7.43250532,22.0961592 8.2914883,22.1658878 L8.42857143,22.1714286 L19.3648571,22.1712857 L14.7800249,17.5825685 L16.558021,15.8031701 L21.7178571,21.0092857 L21.7223427,21.0053513 L22.1766572,21.4624702 C22.2063301,21.4905436 22.2231414,21.5295916 22.2231414,21.57044 C22.2231414,21.5976723 22.2156697,21.6241044 22.2018966,21.647018 L22.1766572,21.6784098 L20.6272204,23.2278465 L20.5865558,23.2565217 L20.5865558,23.2565217 L20.540556,23.2704676 C20.5406918,23.2705936 20.5406912,23.2712656 20.5406912,23.2719379 C20.5406912,23.2719379 20.0186203,23.2833233 19.6700869,23.2853934 L8.42857143,23.2857143 C6.89006391,23.2857143 5.64285714,22.0385075 5.64285714,20.5 L5.64285714,7.5 C5.64285714,5.96149248 6.89006391,4.71428571 8.42857143,4.71428571 L19.5714286,4.71428571 Z M16.4220071,15.6952003 L14.6720551,17.4479568 C14.6720551,17.4479568 13.8293297,15.2549079 14.0312473,15.0529903 C14.2331648,14.8496706 16.4220071,15.6952003 16.4220071,15.6952003 Z M15.4857143,13.0714286 C15.7934158,13.0714286 16.0428571,13.3208699 16.0428571,13.6285714 C16.0428571,13.9362729 15.7934158,14.1857143 15.4857143,14.1857143 C15.1780128,14.1857143 14.9285714,13.9362729 14.9285714,13.6285714 C14.9285714,13.3208699 15.1780128,13.0714286 15.4857143,13.0714286 Z M17.3428571,13.0714286 C17.6505586,13.0714286 17.9,13.3208699 17.9,13.6285714 C17.9,13.9362729 17.6505586,14.1857143 17.3428571,14.1857143 C17.0351556,14.1857143 16.7857143,13.9362729 16.7857143,13.6285714 C16.7857143,13.3208699 17.0351556,13.0714286 17.3428571,13.0714286 Z M19.2,13.0714286 C19.5077015,13.0714286 19.7571429,13.3208699 19.7571429,13.6285714 C19.7571429,13.9362729 19.5077015,14.1857143 19.2,14.1857143 C18.8922985,14.1857143 18.6428571,13.9362729 18.6428571,13.6285714 C18.6428571,13.3208699 18.8922985,13.0714286 19.2,13.0714286 Z M11.9292857,7.37 L14.52,14 L13.545,14 L12.8207143,12.0035714 L10.0164286,12.0035714 L9.27357143,14 L8.37285714,14 L10.9542857,7.37 L11.9292857,7.37 Z M11.4371429,8.16857143 L11.4185714,8.16857143 L10.295,11.2607143 L12.5421429,11.2607143 L11.4371429,8.16857143 Z" id="答题器"></path>
            </g>
        </g>
    </g>
</svg>