<?xml version="1.0" standalone="no"?><!DOCTYPE svg PUBLIC "-//W3C//DTD SVG 1.1//EN" "http://www.w3.org/Graphics/SVG/1.1/DTD/svg11.dtd"><svg t="1623330282770" class="icon" viewBox="0 0 1024 1024" version="1.1" xmlns="http://www.w3.org/2000/svg" p-id="57684" xmlns:xlink="http://www.w3.org/1999/xlink" width="200" height="200"><defs><style type="text/css"></style></defs><path d="M397.312 365.568a26.4704 26.4704 0 0 1 0 38.2464 150.016 150.016 0 0 0 0 216.3712 26.4704 26.4704 0 0 1 0 38.1952 28.3648 28.3648 0 0 1-39.2704 0 202.9056 202.9056 0 0 1 0-292.7616 28.3648 28.3648 0 0 1 39.2704 0z m268.6464 0a202.9056 202.9056 0 0 1 0 292.864 28.3648 28.3648 0 0 1-39.2704 0 26.4704 26.4704 0 0 1 0-38.2464 150.016 150.016 0 0 0 0-216.3712 26.4704 26.4704 0 0 1 0-38.1952 28.3648 28.3648 0 0 1 39.2704 0zM512 413.0304a102.4 102.4 0 1 1 0 204.8 102.4 102.4 0 0 1 0-204.8z" p-id="57685"></path></svg>