<?xml version="1.0" standalone="no"?><!DOCTYPE svg PUBLIC "-//W3C//DTD SVG 1.1//EN" "http://www.w3.org/Graphics/SVG/1.1/DTD/svg11.dtd"><svg t="1623330290030" class="icon" viewBox="0 0 1024 1024" version="1.1" xmlns="http://www.w3.org/2000/svg" p-id="57956" xmlns:xlink="http://www.w3.org/1999/xlink" width="200" height="200"><defs><style type="text/css"></style></defs><path d="M664.758857 191.634286l163.401143 153.344v431.762285a73.142857 73.142857 0 0 1-73.142857 73.142858h-475.428572a73.142857 73.142857 0 0 1-73.142857-73.142858v-512a73.142857 73.142857 0 0 1 73.142857-73.142857h385.170286z m-17.371428 43.885714H279.588571a29.257143 29.257143 0 0 0-29.257142 29.257143v512a29.257143 29.257143 0 0 0 29.257142 29.257143h475.428572a29.257143 29.257143 0 0 0 29.257143-29.257143V365.714286h-92.452572a36.571429 36.571429 0 0 1-36.315428-32.292572L655.250286 329.142857V242.834286l-7.862857-7.314286z m-112.018286 174.08v97.828571h102.326857v36.425143H535.405714v98.084572h-38.253714V543.817143H394.971429v-36.425143h102.144V409.6h38.253714z" p-id="57957"></path></svg>