<?xml version="1.0" standalone="no"?><!DOCTYPE svg PUBLIC "-//W3C//DTD SVG 1.1//EN" "http://www.w3.org/Graphics/SVG/1.1/DTD/svg11.dtd"><svg t="1623330302028" class="icon" viewBox="0 0 1024 1024" version="1.1" xmlns="http://www.w3.org/2000/svg" p-id="58364" xmlns:xlink="http://www.w3.org/1999/xlink" width="200" height="200"><defs><style type="text/css"></style></defs><path d="M512 88.436364c85.271273 0 163.467636 30.161455 224.535273 80.384l48.965818-48.919273a27.927273 27.927273 0 0 1 42.728727 35.607273l-3.258182 3.863272-48.221091 48.221091A352.395636 352.395636 0 0 1 865.745455 442.181818a353.745455 353.745455 0 0 1-193.629091 315.531637l95.557818 96.768a55.854545 55.854545 0 0 1-34.071273 94.766545l-5.678545 0.325818H296.354909a55.854545 55.854545 0 0 1-43.799273-90.530909l4.002909-4.561454 95.418182-96.721455a354.443636 354.443636 0 0 1-74.565818-50.827636l-71.493818 71.493818a27.927273 27.927273 0 0 1-42.728727-35.607273l3.258181-3.863273 72.192-72.238545A353.745455 353.745455 0 0 1 512 88.436364z m0 707.490909a353.698909 353.698909 0 0 1-103.936-15.499637l-111.709091 113.291637h431.569455l-111.941819-113.338182A353.698909 353.698909 0 0 1 512 795.927273z m225.186909-548.770909l-49.896727 49.896727a227.514182 227.514182 0 0 1-320.418909 320.418909L316.974545 667.368727a297.890909 297.890909 0 0 0 420.212364-420.212363zM512 144.290909a297.890909 297.890909 0 0 0-233.658182 482.722909l50.269091-50.222545a227.514182 227.514182 0 0 1 317.998546-317.998546l50.222545-50.269091A296.634182 296.634182 0 0 0 512 144.290909z m135.586909 192.512l-44.962909 44.916364a108.916364 108.916364 0 0 1-151.086545 151.086545l-44.916364 44.962909a171.659636 171.659636 0 0 0 240.965818-240.965818z m-135.354182-66.094545A171.659636 171.659636 0 0 0 368.64 536.669091l45.940364-45.893818a108.916364 108.916364 0 0 1 145.92-145.92l45.893818-45.940364a170.868364 170.868364 0 0 0-94.208-28.16z" p-id="58365"></path></svg>