<?xml version="1.0" standalone="no"?><!DOCTYPE svg PUBLIC "-//W3C//DTD SVG 1.1//EN" "http://www.w3.org/Graphics/SVG/1.1/DTD/svg11.dtd"><svg t="1623330314360" class="icon" viewBox="0 0 1024 1024" version="1.1" xmlns="http://www.w3.org/2000/svg" p-id="58636" xmlns:xlink="http://www.w3.org/1999/xlink" width="200" height="200"><defs><style type="text/css"></style></defs><path d="M512 88.436364a353.745455 353.745455 0 0 1 160.162909 669.230545l95.511273 96.814546a55.854545 55.854545 0 0 1-34.071273 94.766545l-5.678545 0.325818H296.354909a55.854545 55.854545 0 0 1-43.799273-90.530909l4.002909-4.561454 95.371637-96.768A353.745455 353.745455 0 0 1 512 88.436364z m104.029091 691.944727A353.698909 353.698909 0 0 1 512 795.927273a353.698909 353.698909 0 0 1-103.982545-15.546182l-111.662546 113.338182h431.569455l-111.895273-113.338182zM512 144.290909a297.890909 297.890909 0 1 0 0 595.781818 297.890909 297.890909 0 0 0 0-595.781818z m0.232727 70.562909a227.514182 227.514182 0 1 1 0 455.074909 227.514182 227.514182 0 0 1 0-455.074909z m0 55.854546a171.659636 171.659636 0 1 0 0 343.365818 171.659636 171.659636 0 0 0 0-343.365818z m0 62.836363a108.916364 108.916364 0 1 1 0 217.739637 108.916364 108.916364 0 0 1 0-217.739637z" p-id="58637"></path></svg>