<?xml version="1.0" standalone="no"?><!DOCTYPE svg PUBLIC "-//W3C//DTD SVG 1.1//EN" "http://www.w3.org/Graphics/SVG/1.1/DTD/svg11.dtd"><svg t="1623330146326" class="icon" viewBox="0 0 1024 1024" version="1.1" xmlns="http://www.w3.org/2000/svg" p-id="53465" xmlns:xlink="http://www.w3.org/1999/xlink" width="200" height="200"><defs><style type="text/css"></style></defs><path d="M774.712889 308.394667a295.879111 295.879111 0 0 1-224.995556 426.496v70.940444h81.521778a39.822222 39.822222 0 0 1 5.404445 79.303111l-5.404445 0.341334H388.608a39.822222 39.822222 0 0 1-5.404444-79.246223l5.404444-0.398222h81.464889v-71.111111a293.831111 293.831111 0 0 1-101.432889-33.450667l61.041778-59.050666a216.177778 216.177778 0 0 0 283.932444-274.773334l61.098667-59.050666z m-77.368889-96.142223l89.315556-86.357333a36.977778 36.977778 0 0 1 55.409777 48.64l-3.982222 4.551111-613.262222 593.294222a36.977778 36.977778 0 0 1-55.409778-48.64l3.982222-4.551111 101.717334-98.360889a295.822222 295.822222 0 0 1 422.229333-408.576l89.315556-86.357333-89.315556 86.414222z m-28.842667 198.883556a161.28 161.28 0 0 1-192.967111 186.766222l192.967111-186.766222zM510.520889 225.450667A216.177778 216.177778 0 0 0 332.913778 564.906667l40.391111-39.139556a160.881778 160.881778 0 0 1-24.519111-85.617778 161.28 161.28 0 0 1 251.335111-133.802666l39.424-38.172445a215.210667 215.210667 0 0 0-129.024-42.666666zM509.952 358.4a81.635556 81.635556 0 0 0-76.743111 109.454222l107.064889-103.594666a81.066667 81.066667 0 0 0-30.378667-5.859556z" p-id="53466"></path></svg>