<?xml version="1.0" standalone="no"?><!DOCTYPE svg PUBLIC "-//W3C//DTD SVG 1.1//EN" "http://www.w3.org/Graphics/SVG/1.1/DTD/svg11.dtd"><svg t="1623330142471" class="icon" viewBox="0 0 1024 1024" version="1.1" xmlns="http://www.w3.org/2000/svg" p-id="53329" xmlns:xlink="http://www.w3.org/1999/xlink" width="200" height="200"><defs><style type="text/css"></style></defs><path d="M510.520889 145.806222a295.822222 295.822222 0 0 1 39.253333 589.084445l-0.056889 70.940444h81.521778a39.822222 39.822222 0 0 1 39.480889 34.417778l0.341333 5.404444a39.822222 39.822222 0 0 1-34.417777 39.480889l-5.404445 0.341334H388.608a39.822222 39.822222 0 0 1-5.404444-79.246223l5.404444-0.398222h81.464889v-71.111111a295.879111 295.879111 0 0 1 40.391111-588.913778z m0 79.644445a216.177778 216.177778 0 1 0 0 432.355555 216.177778 216.177778 0 0 0 0-432.355555z m-0.568889 53.304889a161.28 161.28 0 0 1 161.109333 161.393777 161.28 161.28 0 0 1-161.166222 161.450667 161.28 161.28 0 0 1-161.109333-161.450667A161.28 161.28 0 0 1 509.895111 278.755556z m0 79.644444c-44.999111 0-81.521778 36.579556-81.521778 81.749333 0 45.226667 36.522667 81.806222 81.464889 81.806223 45.056 0 81.521778-36.579556 81.521778-81.806223 0-45.169778-36.465778-81.749333-81.521778-81.749333z" p-id="53330"></path></svg>