<?xml version="1.0" standalone="no"?><!DOCTYPE svg PUBLIC "-//W3C//DTD SVG 1.1//EN" "http://www.w3.org/Graphics/SVG/1.1/DTD/svg11.dtd"><svg t="1623330328551" class="icon" viewBox="0 0 1024 1024" version="1.1" xmlns="http://www.w3.org/2000/svg" p-id="59044" xmlns:xlink="http://www.w3.org/1999/xlink" width="200" height="200"><defs><style type="text/css"></style></defs><path d="M803.913143 302.043429c70.948571 59.318857 107.081143 130.669714 107.081143 212.736 0 115.053714-79.616 213.723429-198.948572 257.792-1.609143 22.564571-1.974857 47.177143-1.024 73.874285l0.731429 16.237715 1.682286 32.109714-30.500572-10.093714c-54.052571-17.92-99.437714-44.873143-135.826286-80.932572l-8.923428-9.216-10.605714-1.389714c-30.902857-4.242286-53.430857-9.728-68.315429-16.859429a21.942857 21.942857 0 0 1 19.017143-39.570285c11.117714 5.339429 32.841143 10.24 64.256 14.153142l17.225143 1.938286 5.632 6.4c26.953143 30.646857 60.672 54.784 101.302857 72.411429-0.365714-22.308571 0.182857-43.227429 1.645714-62.866286l1.28-14.482286 1.462857-14.226285 13.568-4.388572c109.970286-35.84 182.491429-121.856 182.491429-220.891428 0-68.534857-30.025143-127.780571-91.428572-179.090286a21.942857 21.942857 0 1 1 28.16-33.645714zM398.957714 151.478857c182.601143 0 332.251429 121.6 332.251429 274.066286 0 141.129143-128.731429 257.024-294.765714 272.347428-37.851429 40.557714-86.125714 70.509714-144.493715 89.819429l-30.537143 10.130286 1.718858-32.109715c1.462857-27.538286 1.609143-53.028571 0.475428-76.397714l-0.841143-13.787428-9.984-3.84c-111.945143-45.092571-186.075429-139.410286-186.075428-246.125715 0-152.502857 149.650286-274.102857 332.251428-274.102857z m0 43.885714c-160.146286 0-288.365714 104.192-288.365714 230.180572 0 93.659429 71.387429 177.883429 179.565714 213.101714l13.604572 4.388572 1.462857 14.262857c1.938286 18.980571 2.925714 39.277714 3.035428 60.891428l-0.109714 16.457143 11.995429-5.485714a278.674286 278.674286 0 0 0 89.417143-66.925714l5.924571-6.765715 18.651429-1.462857c144.237714-14.006857 253.184-112.530286 253.184-228.461714 0-125.988571-128.219429-230.180571-288.365715-230.180572z m-166.765714 190.208a42.971429 42.971429 0 1 1 0 85.942858 42.971429 42.971429 0 0 1 0-85.942858z m171.849143 0a42.971429 42.971429 0 1 1 0 85.942858 42.971429 42.971429 0 0 1 0-85.942858z m171.885714 0a42.971429 42.971429 0 1 1 0 85.942858 42.971429 42.971429 0 0 1 0-85.942858z" p-id="59045"></path></svg>