<?xml version="1.0" standalone="no"?><!DOCTYPE svg PUBLIC "-//W3C//DTD SVG 1.1//EN" "http://www.w3.org/Graphics/SVG/1.1/DTD/svg11.dtd"><svg t="1623335589244" class="icon" viewBox="0 0 1024 1024" version="1.1" xmlns="http://www.w3.org/2000/svg" p-id="64963" xmlns:xlink="http://www.w3.org/1999/xlink" width="200" height="200"><defs><style type="text/css"></style></defs><path d="M512 93.090909a418.909091 418.909091 0 1 1 0 837.818182 418.909091 418.909091 0 0 1 0-837.818182z m210.152727 261.957818a34.909091 34.909091 0 0 0-48.407272 9.448728l-181.480728 269.312-1.489454 1.861818a11.636364 11.636364 0 0 1-16.477091-0.186182L323.584 481.745455l-3.863273-3.444364A34.909091 34.909091 0 0 0 273.687273 530.618182l150.714182 153.739636 5.771636 5.352727a81.454545 81.454545 0 0 0 119.947636-16.896l181.434182-269.312 2.606546-4.468363a34.909091 34.909091 0 0 0-12.055273-43.985455z" fill="#000000" p-id="64964"></path></svg>