<?xml version="1.0" encoding="UTF-8"?>
<svg width="26px" height="26px" viewBox="0 0 26 26" version="1.1" xmlns="http://www.w3.org/2000/svg" xmlns:xlink="http://www.w3.org/1999/xlink">
    <title>清屏</title>
    <g id="V2.0.0_PC端小班课" stroke="none" stroke-width="1" fill="none" fill-rule="evenodd">
        <g id="（老师）小班课-默认" transform="translate(-14.000000, -520.000000)">
            <g id="编组-12" transform="translate(10.000000, 222.000000)">
                <g id="清屏" transform="translate(4.000000, 298.000000)">
                    <rect id="矩形" x="0" y="0" width="26" height="26"></rect>
                    <path d="M14.001001,3.9999942 C14.6404747,3.99976232 15.166639,4.47612951 15.2299116,5.08661125 L15.2362906,5.21039431 L15.2341423,10.0621054 L18.4695088,10.0628282 C19.2254917,10.0628282 19.8725734,10.5589136 20.0716362,11.2496717 L20.1053748,11.3903297 L20.1265632,11.5356431 L20.9919787,20.209657 C21.0814553,21.106477 20.412102,21.9045742 19.4969361,21.9922572 L19.4160264,21.9980602 L19.4160264,21.9980602 L19.3349242,21.9999942 L6.66495564,21.9999942 C5.74542603,21.9999942 5,21.2695172 5,20.3684211 L5.00196703,20.2891347 L5.00196703,20.2891347 L5.00786345,20.2100357 L5.87119501,11.5360217 C5.94948802,10.7494008 6.5892007,10.1385039 7.37861768,10.0693555 L7.52828719,10.0628282 L10.7725979,10.0621054 L10.7746114,5.21018585 C10.7749609,4.62803553 11.1945227,4.14198197 11.7536114,4.02619157 L11.8754498,4.00714655 L12.0100359,3.9999942 L14.001001,3.9999942 Z M19.2,14.1569941 L6.797,14.1569941 L6.18386436,20.3224382 L6.18158142,20.3684211 C6.18158142,20.600962 6.35257521,20.7943658 6.57806851,20.8344736 L6.66495564,20.8421053 L9.13676951,20.8423856 C9.13431847,20.7415028 9.15828234,20.6386761 9.21158791,20.5444594 C9.21325063,20.5415206 9.2149391,20.5385964 9.2166531,20.5356872 L11.3052631,16.9906287 C11.4709052,16.7094795 11.8312934,16.6129309 12.115304,16.7736174 C12.3929625,16.93071 12.4907004,17.2831453 12.3336078,17.5608038 C12.3319451,17.5637426 12.3302566,17.5666668 12.3285426,17.569576 L10.399,20.8419941 L13.211,20.8419941 L15.7072728,16.6053388 C15.872915,16.3241896 16.2333031,16.227641 16.5173138,16.3883275 C16.7949722,16.5454201 16.8927101,16.8978554 16.7356176,17.1755139 C16.7339548,17.1784527 16.7322664,17.1813769 16.7305524,17.1842862 L14.574,20.8419941 L19.3349242,20.8421053 L19.3819599,20.8398574 C19.6181318,20.8172295 19.7979165,20.6316392 19.8167084,20.4078122 L19.8160046,20.3223283 L19.2,14.1569941 Z M14.0012248,5.15789486 L12.0102598,5.15789486 C11.9903713,5.15789486 11.9729787,5.16844486 11.9635884,5.18407532 L11.9561927,5.21064764 L11.9550776,10.4315898 C11.9548361,10.8338467 11.6476544,11.1657321 11.250458,11.2145412 L11.1494091,11.2207229 L7.52828719,11.2207229 C7.30714413,11.2207229 7.11810495,11.3669385 7.06186448,11.5698498 L7.04719591,11.6484243 L6.912,12.9999941 L19.085,12.9999941 L18.9505891,11.6483143 C18.9290741,11.4326703 18.7622326,11.2625434 18.5507224,11.2273997 L18.4695088,11.2207229 L14.7807509,11.2156173 L14.6450744,11.1924694 C14.3324761,11.1081371 14.1031727,10.8484863 14.0605945,10.5367866 L14.0534593,10.4311281 L14.0545743,5.2104053 L14.0474036,5.18387746 L14.0282125,5.16504923 L14.0012248,5.15789486 Z" fill="#7B88A0" fill-rule="nonzero" transform="translate(13.000000, 12.999994) rotate(-360.000000) translate(-13.000000, -12.999994) "></path>
                </g>
            </g>
        </g>
    </g>
</svg>