<?xml version="1.0" encoding="UTF-8"?>
<svg width="26px" height="26px" viewBox="0 0 26 26" version="1.1" xmlns="http://www.w3.org/2000/svg" xmlns:xlink="http://www.w3.org/1999/xlink">
    <title>清屏备份</title>
    <g id="V2.2.0_PC端小班课" stroke="none" stroke-width="1" fill="none" fill-rule="evenodd">
        <g id="清屏备份">
            <rect id="矩形" x="0" y="0" width="26" height="26"></rect>
            <path d="M14.001001,3.9999942 L12.0100359,3.9999942 L11.8754498,4.00714655 C11.256599,4.07303603 10.7749859,4.58645336 10.7746114,5.21018585 L10.7725979,10.0621054 L7.52828719,10.0628282 C6.67135784,10.0628282 5.95438134,10.700237 5.87119501,11.5360217 L5.00786345,20.2100357 C5.00262425,20.2626747 5,20.3155323 5,20.3684211 C5,21.2695172 5.74542603,21.9999942 6.66495564,21.9999942 L19.3349242,21.9999942 C19.3890245,21.9999942 19.4430926,21.997416 19.4969361,21.9922572 C20.412102,21.9045742 21.0814553,21.106477 20.9919787,20.209657 L20.1265632,11.5356431 L20.1053748,11.3903297 C19.9583669,10.6272632 19.2758906,10.0628282 18.4695088,10.0628282 L15.2341423,10.0621054 L15.2362906,5.21039431 C15.2362906,4.54176336 14.6831063,3.99974686 14.001001,3.9999942 Z" id="路径" fill="#0073FF" fill-rule="nonzero"></path>
            <path d="M16.5173138,16.3883275 C16.7949722,16.5454201 16.8927101,16.8978554 16.7356176,17.1755139 C16.7339548,17.1784527 16.7322664,17.1813769 16.7305524,17.1842862 L14.1048599,21.6409503 C13.9392178,21.9220995 13.5788296,22.0186481 13.294819,21.8579616 C13.0171605,21.700869 12.9194226,21.3484337 13.0765152,21.0707752 C13.0781779,21.0678364 13.0798664,21.0649122 13.0815804,21.062003 L15.7072728,16.6053388 C15.872915,16.3241896 16.2333031,16.227641 16.5173138,16.3883275 Z M12.115304,16.7736174 C12.3929625,16.93071 12.4907004,17.2831453 12.3336078,17.5608038 C12.3319451,17.5637426 12.3302566,17.5666668 12.3285426,17.569576 L10.2399326,21.1146345 C10.0742905,21.3957837 9.71390235,21.4923323 9.42989171,21.3316458 C9.15223327,21.1745532 9.05449533,20.8221179 9.21158791,20.5444594 C9.21325063,20.5415206 9.2149391,20.5385964 9.2166531,20.5356872 L11.3052631,16.9906287 C11.4709052,16.7094795 11.8312934,16.6129309 12.115304,16.7736174 Z M19.4450682,13.0000001 C19.7416907,13.0000001 19.9821507,13.2404601 19.9821507,13.5370826 L19.9821507,13.6208124 C19.9821507,13.9174348 19.7416907,14.1578948 19.4450682,14.1578948 L6.55508911,14.1578948 C6.25846665,14.1578948 6.01800664,13.9174348 6.01800664,13.6208124 L6.01800664,13.5370826 C6.01800664,13.2404601 6.25846665,13.0000001 6.55508911,13.0000001 L19.4450682,13.0000001 Z" id="清屏" fill="#FFFFFF" fill-rule="nonzero" transform="translate(13.000079, 17.467809) rotate(-360.000000) translate(-13.000079, -17.467809) "></path>
        </g>
    </g>
</svg>