<?xml version="1.0" encoding="UTF-8"?>
<svg width="26px" height="26px" viewBox="0 0 26 26" version="1.1" xmlns="http://www.w3.org/2000/svg" xmlns:xlink="http://www.w3.org/1999/xlink">
    <title>框选-已选</title>
    <g id="页面-1" stroke="none" strokeWidth="1" fill="none" fillRule="evenodd">
        <g id="画板" transform="translate(-882.000000, -712.000000)">
            <g id="框选-已选" transform="translate(882.000000, 712.000000)">
                <rect id="矩形" x="0" y="0" width="26" height="26"></rect>
                <g id="编组-9" transform="translate(4.000000, 4.000000)" fill="#357BF6" fillRule="nonzero">
                    <path d="M10.3295745,6.68545842 C10.5071103,6.62717713 10.6987603,6.62805222 10.8757564,6.68795233 L10.8757564,6.68795233 L20.3127356,9.88167242 C20.7645031,10.0345623 21.0067912,10.524734 20.8539013,10.9765016 C20.7738559,11.2130241 20.5953506,11.4033211 20.3644245,11.4983123 L20.3644245,11.4983123 L16.3544415,13.1478142 C16.1853162,13.2173837 16.0520705,13.3531949 15.9857387,13.5236161 L15.9857387,13.5236161 L14.5159696,17.2997801 C14.3429766,17.7442378 13.8424339,17.9643033 13.3979762,17.7913103 C13.1573473,17.697652 12.9712539,17.5012309 12.8907165,17.2558987 L12.8907165,17.2558987 L9.77843338,7.7753 C9.62967536,7.32215514 9.87642965,6.83421644 10.3295745,6.68545842 Z M14,0.4 C15.9340971,0.4 17.4962685,1.88763719 17.5950412,3.74174886 L17.6,3.92834008 L17.6,5.91214575 C17.6,6.21735574 17.3313708,6.46477733 17,6.46477733 C16.7017662,6.46477733 16.4543532,6.26436584 16.407853,6.00178546 L16.4,5.91214575 L16.4,3.92834008 C16.4,2.63521749 15.4001944,1.59178258 14.1566569,1.51037678 L14,1.50526316 L4,1.50526316 C2.73746416,1.50526316 1.68715713,2.49697316 1.60515263,3.76805174 L1.6,3.92834008 L1.6,10.8716599 C1.6,12.1647825 2.5998056,13.2082174 3.84334307,13.2896232 L4,13.2947368 L10,13.2947368 C10.3313708,13.2947368 10.6,13.5421584 10.6,13.8473684 C10.6,14.1220574 10.3824104,14.3499378 10.0973231,14.392767 L10,14.4 L4,14.4 C2.0659029,14.4 0.503731509,12.9123628 0.404958846,11.0582511 L0.4,10.8716599 L0.4,3.92834008 C0.4,2.05104251 1.89978116,0.502847342 3.80787047,0.404917266 L4,0.4 L14,0.4 Z" id="形状结合"></path>
                </g>
            </g>
        </g>
    </g>
</svg>