<?xml version="1.0" standalone="no"?><!DOCTYPE svg PUBLIC "-//W3C//DTD SVG 1.1//EN" "http://www.w3.org/Graphics/SVG/1.1/DTD/svg11.dtd"><svg t="1623330042675" class="icon" viewBox="0 0 1060 1024" version="1.1" xmlns="http://www.w3.org/2000/svg" p-id="51694" xmlns:xlink="http://www.w3.org/1999/xlink" width="207.03125" height="200"><defs><style type="text/css"></style></defs><path d="M543.268571 420.827429a34.011429 34.011429 0 0 1 21.504 0.109714l371.675429 125.805714a34.011429 34.011429 0 0 1 2.048 63.634286l-157.952 64.987428a26.331429 26.331429 0 0 0-14.518857 14.811429l-57.892572 148.699429a34.011429 34.011429 0 0 1-64-1.718858l-122.587428-373.394285a34.011429 34.011429 0 0 1 21.723428-42.934857z m26.112 48.018285l107.849143 328.448 47.908572-123.062857c6.217143-15.908571 17.92-28.928 32.914285-36.754286l5.814858-2.706285 133.558857-54.930286-328.045715-110.994286zM513.024 731.428571v43.885715h-146.285714V731.428571h146.285714zM182.857143 645.193143V694.857143a36.571429 36.571429 0 0 0 36.571428 36.571428h79.725715v43.885715H219.428571A80.457143 80.457143 0 0 1 138.971429 694.857143v-49.627429l43.885714-0.036571z m0-206.262857v140.909714l-43.885714 0.036571v-140.946285H182.857143zM731.428571 212.114286l5.741715 0.219428A80.457143 80.457143 0 0 1 811.885714 292.571429v110.811428H768V292.571429a36.571429 36.571429 0 0 0-36.571429-36.571429h-126.427428V212.114286H731.428571z m-432.274285 0V256H219.428571a36.571429 36.571429 0 0 0-36.571428 36.571429v74.678857H138.971429V292.571429A80.457143 80.457143 0 0 1 219.428571 212.114286h79.725715z m225.389714 0V256h-146.285714V212.114286h146.285714z" p-id="51695"></path></svg>