<?xml version="1.0" standalone="no"?><!DOCTYPE svg PUBLIC "-//W3C//DTD SVG 1.1//EN" "http://www.w3.org/Graphics/SVG/1.1/DTD/svg11.dtd"><svg t="1623330202051" class="icon" viewBox="0 0 1024 1024" version="1.1" xmlns="http://www.w3.org/2000/svg" p-id="54963" xmlns:xlink="http://www.w3.org/1999/xlink" width="200" height="200"><defs><style type="text/css"></style></defs><path d="M277.7088 244.5312l223.5904 223.5904 223.6416-223.5904a30.72 30.72 0 0 1 39.168-3.584l4.3008 3.584a30.72 30.72 0 0 1 3.5328 39.168l-3.584 4.2496-223.5904 223.5904 223.6416 223.6416a30.72 30.72 0 1 1-43.4688 43.4688L501.2992 555.008l-223.5904 223.6416a30.72 30.72 0 0 1-39.168 3.5328l-4.2496-3.584a30.72 30.72 0 0 1-3.584-39.168l3.584-4.2496 223.5904-223.6416-223.5904-223.5904a30.72 30.72 0 0 1 43.4176-43.4176z" p-id="54964"></path></svg>