<?xml version="1.0" encoding="UTF-8"?>
<svg width="26px" height="26px" viewBox="0 0 26 26" version="1.1" xmlns="http://www.w3.org/2000/svg" xmlns:xlink="http://www.w3.org/1999/xlink">
    <title>云盘-已选</title>
    <g id="页面-1" stroke="none" stroke-width="1" fill="none" fill-rule="evenodd">
        <g id="画板" transform="translate(-1443.000000, -712.000000)">
            <g id="云盘-已选" transform="translate(1443.000000, 712.000000)">
                <rect id="矩形" stroke="#979797" stroke-width="0.928571429" fill="#D8D8D8" opacity="0" x="0" y="0" width="26" height="26"></rect>
                <g id="编组-21" transform="translate(3.178571, 4.571429)" fill="#357BF6" fill-rule="nonzero">
                    <path d="M10.6196992,0.442857143 C13.179945,0.442857143 15.2802222,2.46626398 15.5072242,5.05086338 C12.7728258,4.99451714 11.1410085,5.93451414 10.7724521,7.90821985 C10.7217633,8.17967014 10.9007259,8.44081545 11.1721762,8.49150423 C11.4436265,8.542193 11.7047718,8.36323043 11.7554606,8.09178015 C12.0196355,6.6770614 13.2258928,5.98365949 15.5356795,6.04943918 L15.6516005,6.0655083 C17.5785145,6.38730274 19.0644357,8.05159071 19.1912812,10.0983917 L19.1912812,10.0983917 L19.1995174,10.3114549 L19.2,10.7474647 C19.2,13.3306951 17.193809,15.4429249 14.6774284,15.4851541 L14.6774284,15.4851541 L12.7461323,15.4857127 L6.68862606,15.4714778 L4.82705598,15.4713991 C2.41854413,15.4309073 0.481788493,13.4223576 0.443374394,10.9385478 L0.443374394,10.9385478 L0.442857143,10.8155716 C0.442857143,9.39804459 1.06203638,8.08904813 2.08974936,7.2173444 L2.08974936,7.2173444 L2.252,7.086 L2.2029327,6.91883149 C2.14787675,6.70688032 2.11284887,6.48869811 2.09877593,6.26677325 L2.09877593,6.26677325 L2.0917223,6.04369301 C2.0917223,4.18239728 3.55462098,2.66550152 5.36949266,2.66550152 C5.69320697,2.66550152 6.01043113,2.71407293 6.31320226,2.80772633 L6.31320226,2.80772633 L6.441,2.852 L6.51005132,2.73909175 C7.36099177,1.39437137 8.79398741,0.52461415 10.3905511,0.44832366 L10.3905511,0.44832366 Z" id="形状结合"></path>
                </g>
            </g>
        </g>
    </g>
</svg>