<?xml version="1.0" standalone="no"?><!DOCTYPE svg PUBLIC "-//W3C//DTD SVG 1.1//EN" "http://www.w3.org/Graphics/SVG/1.1/DTD/svg11.dtd"><svg t="1624852638079" class="icon" viewBox="0 0 1024 1024" version="1.1" xmlns="http://www.w3.org/2000/svg" p-id="13963" xmlns:xlink="http://www.w3.org/1999/xlink" width="200" height="200"><defs><style type="text/css"></style></defs><path d="M534.747429 197.668571c-63.341714 2.925714-120.210286 37.558857-153.709715 91.136l-2.157714 3.547429-1.718857-0.658286a125.549714 125.549714 0 0 0-40.484572-6.656c-71.497143 0-129.097143 59.721143-129.097142 133.046857l0.256 8.777143c0.548571 8.740571 1.938286 17.334857 4.096 25.673143l1.938285 6.619429-5.485714 4.388571A185.490286 185.490286 0 0 0 142.628571 605.988571v4.827429c1.462857 95.085714 73.618286 172.507429 164.827429 178.212571l10.569143 0.365715 70.582857-0.036572 238.592 0.548572h76.214857c98.925714-1.682286 177.956571-84.845714 177.956572-186.624v-17.298286l-0.329143-7.899429c-4.790857-81.188571-64.073143-147.273143-140.8-159.414857l-3.547429-0.475428v-24.064C735.012571 285.110857 649.179429 197.485714 543.451429 197.485714l-8.704 0.182857zM543.451429 241.371429c81.408 0 148.041143 68.059429 149.357714 153.124571l0.036571 44.178286a21.942857 21.942857 0 0 0 21.76 21.942857h2.377143c63.524571 1.097143 115.712 52.918857 120.173714 118.784l0.329143 9.398857v14.518857c0 78.116571-60.16 141.458286-134.582857 142.701714l-75.666286 0.036572-238.555428-0.548572H315.867429C245.211429 744.301714 187.684571 684.617143 186.514286 610.377143v-4.498286c0-49.810286 25.307429-95.012571 65.609143-119.954286a21.942857 21.942857 0 0 0 8.265142-28.16 91.904 91.904 0 0 1-8.923428-39.716571c0-49.444571 38.326857-89.161143 85.211428-89.161143 14.555429 0 28.525714 3.803429 40.96 10.971429a21.942857 21.942857 0 0 0 30.939429-9.874286c24.649143-53.76 76.8-88.649143 134.875429-88.649143z" p-id="13964"></path></svg>