<?xml version="1.0" standalone="no"?><!DOCTYPE svg PUBLIC "-//W3C//DTD SVG 1.1//EN" "http://www.w3.org/Graphics/SVG/1.1/DTD/svg11.dtd"><svg t="1623330047744" class="icon" viewBox="0 0 1024 1024" version="1.1" xmlns="http://www.w3.org/2000/svg" p-id="51830" xmlns:xlink="http://www.w3.org/1999/xlink" width="200" height="200"><defs><style type="text/css"></style></defs><path d="M621.714286 146.285714a21.942857 21.942857 0 0 1 0 43.885715l-102.436572-0.036572L519.314286 248.685714a22.089143 22.089143 0 0 1-0.292572 3.657143 21.942857 21.942857 0 0 1-21.650285 25.6 270.628571 270.628571 0 1 0 173.348571 62.793143 21.942857 21.942857 0 0 1 28.16-33.645714c15.616 13.019429 29.842286 27.428571 42.496 43.008l45.824-34.523429a21.942857 21.942857 0 0 1 26.404571 35.072l-46.921142 35.364572a314.514286 314.514286 0 1 1-291.291429-151.186286V190.134857L373.028571 190.171429a21.942857 21.942857 0 1 1 0-43.885715H621.714286z m-124.342857 234.057143a21.942857 21.942857 0 0 1 21.942857 21.942857v175.542857a21.942857 21.942857 0 0 1-43.885715 0V402.285714a21.942857 21.942857 0 0 1 21.942858-21.942857z" p-id="51831"></path></svg>