<?xml version="1.0" standalone="no"?><!DOCTYPE svg PUBLIC "-//W3C//DTD SVG 1.1//EN" "http://www.w3.org/Graphics/SVG/1.1/DTD/svg11.dtd"><svg t="1623330323955" class="icon" viewBox="0 0 1024 1024" version="1.1" xmlns="http://www.w3.org/2000/svg" p-id="58908" xmlns:xlink="http://www.w3.org/1999/xlink" width="200" height="200"><defs><style type="text/css"></style></defs><path d="M256 837.485714h438.857143a21.942857 21.942857 0 0 1 3.547428 43.593143L694.857143 881.371429H256a21.942857 21.942857 0 0 1-3.547429-43.593143L256 837.485714h438.857143zM695.478857 165.558857l126.390857 126.390857a96.914286 96.914286 0 0 1 0 137.069715l-293.046857 293.083428a186.294857 186.294857 0 0 1-263.497143 0l-63.195428-63.195428a96.914286 96.914286 0 0 1 0-137.069715l356.278857-356.278857a96.914286 96.914286 0 0 1 137.069714 0z m-213.504 143.579429l-246.235428 246.308571a49.371429 49.371429 0 0 0 0 69.851429l63.195428 63.195428a138.752 138.752 0 0 0 196.242286 0l185.453714-185.526857-198.656-193.828571z m110.08-109.970286l-76.434286 76.361143 198.619429 193.828571 74.020571-73.947428a49.371429 49.371429 0 0 0 0-69.851429l-126.427428-126.390857a49.371429 49.371429 0 0 0-69.814857 0z" p-id="58909"></path></svg>