<?xml version="1.0" encoding="UTF-8"?>
<svg width="26px" height="26px" viewBox="0 0 26 26" version="1.1" xmlns="http://www.w3.org/2000/svg" xmlns:xlink="http://www.w3.org/1999/xlink">
    <title>橡皮-已选</title>
    <g id="页面-1" stroke="none" stroke-width="1" fill="none" fill-rule="evenodd">
        <g id="画板" transform="translate(-1311.000000, -712.000000)" fill-rule="nonzero">
            <g id="橡皮-已选" transform="translate(1311.000000, 712.000000)">
                <rect id="Rectangle-6-Copy-7" fill="#565656" opacity="0" x="0" y="0" width="26" height="26"></rect>
                <path d="M17.6428571,21.2214286 C17.974228,21.2214286 18.2428571,21.4900577 18.2428571,21.8214286 C18.2428571,22.1196623 18.0252675,22.3670753 17.7401803,22.4135756 L17.6428571,22.4214286 L6.5,22.4214286 C6.16862915,22.4214286 5.9,22.1527994 5.9,21.8214286 C5.9,21.5231948 6.11758961,21.2757818 6.40267688,21.2292816 L6.5,21.2214286 L17.6428571,21.2214286 Z M11.4125984,6.97302694 L18.0975984,13.6580269 L13.4242641,18.3321296 C11.6342014,20.1221922 8.76563948,20.1764366 6.91021322,18.4948625 L6.73929901,18.3321296 L5.13427885,16.7271094 C4.21642549,15.809256 4.17651882,14.3459165 5.01455885,13.3806296 L5.13427885,13.2521847 L11.4125984,6.97302694 Z M17.5272359,4.08598742 L17.6556808,4.20570742 L20.8657211,7.41574773 C21.7835745,8.3336011 21.8234812,9.79694061 20.9854412,10.7622276 L20.8657211,10.8906725 L18.9465984,12.8100269 L12.2615984,6.12502694 L14.1807561,4.20570742 C15.0986095,3.28785406 16.561949,3.24794739 17.5272359,4.08598742 Z" id="形状结合" fill="#357BF6"></path>
            </g>
        </g>
    </g>
</svg>