<?xml version="1.0" standalone="no"?><!DOCTYPE svg PUBLIC "-//W3C//DTD SVG 1.1//EN" "http://www.w3.org/Graphics/SVG/1.1/DTD/svg11.dtd"><svg t="1623330359253" class="icon" viewBox="0 0 1024 1024" version="1.1" xmlns="http://www.w3.org/2000/svg" p-id="59724" xmlns:xlink="http://www.w3.org/1999/xlink" width="200" height="200"><defs><style type="text/css"></style></defs><path d="M618.666667 187.733333A68.266667 68.266667 0 0 1 686.933333 256v85.333333a25.6 25.6 0 0 1-51.2 0V256a17.066667 17.066667 0 0 0-17.066666-17.066667h-384a17.066667 17.066667 0 0 0-17.066667 17.066667v512c0 9.386667 7.68 17.066667 17.066667 17.066667h384a17.066667 17.066667 0 0 0 17.066666-17.066667v-85.333333a25.6 25.6 0 0 1 51.2 0v85.333333a68.266667 68.266667 0 0 1-68.266666 68.266667h-384A68.266667 68.266667 0 0 1 166.4 768V256a68.266667 68.266667 0 0 1 68.266667-68.266667h384z m145.066666 209.664l2.986667-3.541333a25.6 25.6 0 0 1 32.64-2.986667l3.541333 2.986667 69.888 69.888a68.266667 68.266667 0 0 1 4.437334 91.648l-4.437334 4.864-69.888 69.888a25.6 25.6 0 0 1-39.168-32.64l2.986667-3.541333 56.32-56.405334-332.373333 0.042667a25.6 25.6 0 0 1-4.138667-50.858667l4.138667-0.341333 332.330666-0.042667-56.32-56.32a25.6 25.6 0 0 1-2.944-32.64l2.986667-3.541333-2.986667 3.541333z" p-id="59725"></path></svg>