<?xml version="1.0" standalone="no"?><!DOCTYPE svg PUBLIC "-//W3C//DTD SVG 1.1//EN" "http://www.w3.org/Graphics/SVG/1.1/DTD/svg11.dtd"><svg t="1623330276319" class="icon" viewBox="0 0 1024 1024" version="1.1" xmlns="http://www.w3.org/2000/svg" p-id="57412" xmlns:xlink="http://www.w3.org/1999/xlink" width="200" height="200"><defs><style type="text/css"></style></defs><path d="M697.902545 111.709091H274.618182a37.236364 37.236364 0 0 0-37.236364 37.236364v633.018181a37.236364 37.236364 0 0 0 37.236364 37.236364h558.545454a37.236364 37.236364 0 0 0 37.236364-37.236364l-0.046545-484.072727H777.309091a74.472727 74.472727 0 0 1-74.146909-67.677091L702.836364 223.418182V116.503273l-4.933819-4.794182zM553.890909 260.654545a223.418182 223.418182 0 1 1 0 446.836364 223.418182 223.418182 0 0 1 0-446.836364zM498.036364 372.363636v223.418182l148.945454-111.709091L498.036364 372.363636zM200.145455 186.181818v-37.236363a74.472727 74.472727 0 0 1 74.472727-74.472728h438.458182l194.56 189.765818V781.963636a74.472727 74.472727 0 0 1-74.472728 74.472728h-37.282909l0.046546 37.236363a74.472727 74.472727 0 0 1-74.472728 74.472728h-558.545454a74.472727 74.472727 0 0 1-74.472727-74.472728V260.654545A74.472727 74.472727 0 0 1 162.909091 186.181818h37.236364z" p-id="57413"></path></svg>