<?xml version="1.0" encoding="UTF-8"?>
<svg width="26px" height="26px" viewBox="0 0 26 26" version="1.1" xmlns="http://www.w3.org/2000/svg" xmlns:xlink="http://www.w3.org/1999/xlink">
    <title>抓手工具-未选备份 2</title>
    <g id="V2.0.0_PC端交互" stroke="none" stroke-width="1" fill="none" fill-rule="evenodd">
        <g id="灵动课堂优化-01白板工具栏a" transform="translate(-576.000000, -486.000000)" fill-rule="nonzero">
            <g id="抓手工具-未选备份-2" transform="translate(576.000000, 486.000000)">
                <g id="编组-18" fill="#565656" opacity="0">
                    <g id="Group-12-Copy">
                        <rect id="Rectangle-6-Copy-8" x="0" y="0" width="26" height="26" rx="3.71428571"></rect>
                    </g>
                </g>
                <g id="编组-3" transform="translate(4.369767, 3.893370)" fill="#357BF6">
                    <path d="M11.7015484,0 C12.4892776,0 13.1576856,0.510867396 13.3935261,1.21935259 L13.4298049,1.34591526 L13.557427,1.28128008 C14.2489643,0.949825379 14.8856328,0.943645409 15.4375212,1.3111539 L15.5633615,1.40261911 C16.1461428,1.86273241 16.3209772,2.5063045 16.1361144,3.27408291 L16.0858049,3.45491526 L16.2301782,3.48558854 C16.4718273,3.54803526 16.6895191,3.66044812 16.8789455,3.82500985 L16.9891751,3.93002222 C17.6844234,4.65480997 17.671018,5.8209948 16.9121974,6.73062502 L16.7788049,6.87891526 C17.1819301,6.9939292 17.5088526,7.26043863 17.6842328,7.68760604 L17.7322237,7.82058487 C18.0274221,8.76034731 17.7397289,9.64443928 16.9364663,10.527219 L16.7422831,10.7304325 L16.3679892,11.0865056 L15.4701751,11.9089647 L12.0383989,14.9860886 L10.018516,16.7827317 C8.44028578,18.1844372 6.0861344,18.2171022 4.47233587,16.8910581 L4.30233094,16.7437833 L1.37978083,14.0760025 C0.0933619086,12.9017254 -0.337596605,11.0659316 0.274014739,9.45058186 L0.355909743,9.24987508 L3.27686677,2.58112524 C3.63014252,1.77457191 4.51688125,1.34399965 5.36918344,1.5651625 C6.18206769,1.77609683 6.68933152,2.57031895 6.55783621,3.38370809 L6.52793263,3.52733149 L6.11036422,5.16245355 C6.10511351,5.18301438 6.11207766,5.2047674 6.12829317,5.2184559 C6.15166655,5.23818681 6.18663819,5.23523252 6.20634515,5.2118942 C7.31646076,3.89684233 8.42596672,2.6409812 9.53488284,1.44431262 C9.87604128,1.07615711 10.1908619,0.756273787 10.4798484,0.484378767 C10.8105445,0.173240882 11.2474926,0 11.7015484,0 Z M16.1126786,7.9893045 C15.9241865,7.7874993 15.6077881,7.77670691 15.4059829,7.96519901 L15.4059829,7.96519901 L13.4284799,9.76963315 L13.3682974,9.83686848 C13.2267367,10.0270213 13.2368259,10.2969465 13.4043745,10.4763289 C13.5928666,10.6781341 13.909265,10.6889265 14.1110702,10.5004344 L14.1110702,10.5004344 L16.0885731,8.69600028 L16.1487557,8.62876495 C16.2903164,8.43861213 16.2802272,8.1686869 16.1126786,7.9893045 Z M15.3455041,4.13995927 C15.1578803,3.9373465 14.8415311,3.92519551 14.6389183,4.11281927 L14.6389183,4.11281927 L11.081612,7.40696104 L11.0211414,7.47393731 C10.8787654,7.66348048 10.8876954,7.93344655 11.054472,8.11354679 C11.2420958,8.31615956 11.558445,8.32831055 11.7610578,8.14068679 L11.7610578,8.14068679 L15.3183641,4.84654502 L15.3788348,4.77956875 C15.5212107,4.59002559 15.5122808,4.32005951 15.3455041,4.13995927 Z M12.9705543,1.97488893 C12.7764464,1.77847928 12.4598695,1.77661331 12.2634598,1.97072117 L12.2634598,1.97072117 L8.81864703,5.375163 L8.76038443,5.44406868 C8.62424215,5.63813775 8.64193895,5.90767114 8.81447927,6.0822575 C9.00858712,6.27866715 9.32516411,6.28053312 9.52157376,6.08642526 L9.52157376,6.08642526 L12.9663865,2.68198343 L13.0246491,2.61307775 C13.1607914,2.41900868 13.1430946,2.14947529 12.9705543,1.97488893 Z" id="形状结合"></path>
                </g>
            </g>
        </g>
    </g>
</svg>