<?xml version="1.0" standalone="no"?><!DOCTYPE svg PUBLIC "-//W3C//DTD SVG 1.1//EN" "http://www.w3.org/Graphics/SVG/1.1/DTD/svg11.dtd"><svg t="1624852644643" class="icon" viewBox="0 0 1024 1024" version="1.1" xmlns="http://www.w3.org/2000/svg" p-id="14235" xmlns:xlink="http://www.w3.org/1999/xlink" width="200" height="200"><defs><style type="text/css"></style></defs><path d="M632.978286 153.344a70.217143 70.217143 0 0 1 66.925714 49.005714l1.097143 4.022857 3.254857-1.682285c28.013714-13.970286 53.833143-14.518857 76.068571 0.438857l4.754286 3.437714c23.405714 18.505143 30.098286 44.507429 22.089143 75.593143l-1.536 5.229714 5.705143 1.243429c9.508571 2.450286 18.066286 6.875429 25.526857 13.348571l4.352 4.132572c27.428571 28.635429 26.843429 74.715429-3.291429 110.592l-5.046857 5.595428 1.901715 0.512c15.030857 4.790857 27.245714 15.177143 33.865142 31.451429l1.828572 5.083428c11.629714 37.010286 0.292571 71.826286-31.341714 106.605715l-7.533715 7.899428-13.238857 12.617143-41.398857 37.924572-65.755429 59.136-144.530285 128.804571a168.228571 168.228571 0 0 1-218.660572 4.059429l-6.473143-5.595429-115.090285-105.069714a166.765714 166.765714 0 0 1-43.446857-182.491429l3.108571-7.606857 115.053714-262.619429a70.582857 70.582857 0 0 1 82.395429-40.045714 63.597714 63.597714 0 0 1 46.774857 71.936l-1.133714 5.376-16.457143 64.365714a2.194286 2.194286 0 0 0 3.803428 1.974858 4282.148571 4282.148571 0 0 1 131.072-148.406858c13.458286-14.482286 25.856-27.062857 37.229715-37.814857a70.217143 70.217143 0 0 1 48.128-19.053714z m0 43.885714a26.331429 26.331429 0 0 0-18.066286 7.131429c-4.242286 4.022857-8.667429 8.301714-13.238857 12.909714l-14.299429 14.738286a4238.299429 4238.299429 0 0 0-137.289143 154.916571 46.08 46.08 0 0 1-80.859428-35.986285l1.024-5.12 16.457143-64.402286a19.712 19.712 0 0 0-14.153143-23.954286 26.697143 26.697143 0 0 0-29.366857 11.702857l-1.828572 3.437715-115.053714 262.656a122.88 122.88 0 0 0 24.356571 134.838857l5.376 5.193143 115.090286 105.069714a124.342857 124.342857 0 0 0 166.4 1.133714l185.636572-165.668571 61.330285-55.771429 17.188572-16.347428c25.965714-26.441143 33.718857-47.542857 26.916571-69.193143-4.205714-13.421714-30.793143-13.714286-58.148571 9.984a21.906286 21.906286 0 0 1-6.656 3.986285l-0.804572 0.182858-30.866285 26.477714-20.699429 17.481143a21.942857 21.942857 0 0 1-28.233143-33.645715l29.805714-25.197714 33.828572-29.220571 14.336-12.726857 18.322286-16.676572 10.057142-9.508571 8.338286-8.265143 3.547429-3.657143c19.126857-20.114286 20.077714-42.788571 8.118857-55.222857-5.449143-5.668571-13.897143-7.826286-27.355429-5.412572l-143.835428 138.532572a21.942857 21.942857 0 0 1-33.024-28.598857l2.56-2.998857 145.883428-140.544 1.901715-3.474286c14.518857-28.050286 13.750857-43.885714 2.194285-52.992-10.313143-8.118857-25.270857-6.546286-47.250285 8.630857a21.211429 21.211429 0 0 1-2.925715 6.948571l-2.450285 3.072-132.242286 140.507429a21.942857 21.942857 0 0 1-34.413714-26.953143l2.450285-3.108571 118.235429-125.659429v-22.893714a26.331429 26.331429 0 0 0-26.331429-26.331429z" p-id="14236"></path></svg>