<?xml version="1.0" standalone="no"?><!DOCTYPE svg PUBLIC "-//W3C//DTD SVG 1.1//EN" "http://www.w3.org/Graphics/SVG/1.1/DTD/svg11.dtd"><svg t="1623330231247" class="icon" viewBox="0 0 1024 1024" version="1.1" xmlns="http://www.w3.org/2000/svg" p-id="55916" xmlns:xlink="http://www.w3.org/1999/xlink" width="200" height="200"><defs><style type="text/css"></style></defs><path d="M405.101714 429.714286a179.821714 179.821714 0 0 1 144.310857-287.085715 179.821714 179.821714 0 0 1 84.699429 338.395429c4.754286 1.024 9.472 2.121143 14.336 3.401143a298.788571 298.788571 0 0 1 54.491429 19.748571c97.499429 46.592 161.645714 150.857143 195.181714 310.491429a70.509714 70.509714 0 1 1-138.020572 29.001143c-15.652571-74.386286-37.851429-130.011429-65.609142-167.058286v119.917714a103.021714 103.021714 0 0 1-97.572572 102.729143l-5.376 0.146286h-107.995428a103.058286 103.058286 0 0 1-102.765715-97.499429l-0.146285-5.376v-167.131428a87.771429 87.771429 0 0 0-47.104-77.750857c-49.078857-25.673143-86.089143-51.565714-111.067429-78.006858-52.772571-55.808-85.321143-128-97.426286-214.857142a70.509714 70.509714 0 0 1 139.702857-19.492572c8.155429 58.331429 28.196571 103.606857 60.269715 137.508572 24.795429 26.258286 46.409143 42.971429 76.580571 56.393142l9.325714 3.949715-5.851428-7.424z m144.310857-243.2a135.936 135.936 0 0 0-47.981714 263.058285 21.942857 21.942857 0 0 1 14.226286 20.516572v13.641143a21.942857 21.942857 0 0 1-26.112 21.577143c-7.314286-1.462857-14.592-3.035429-22.528-5.010286l-20.041143-5.266286c-72.777143-20.077714-110.08-41.764571-153.856-88.064C254.427429 366.043429 230.619429 312.32 221.257143 245.357714a26.660571 26.660571 0 0 0-52.809143 7.350857c10.898286 78.153143 39.643429 141.897143 85.869714 190.793143 21.211429 22.418286 54.381714 45.641143 99.474286 69.229715a131.657143 131.657143 0 0 1 70.656 116.662857v166.509714l0.109714 4.096c1.828571 31.085714 27.648 55.515429 58.953143 55.515429h107.373714l4.096-0.109715c31.085714-1.828571 55.588571-27.611429 55.588572-58.88v-172.507428a21.942857 21.942857 0 0 1 34.669714-17.883429c54.893714 39.131429 93.988571 115.565714 117.76 228.498286a26.660571 26.660571 0 0 0 52.150857-10.971429c-31.012571-147.492571-87.990857-240.128-171.154285-279.844571a254.902857 254.902857 0 0 0-46.555429-16.896 315.721143 315.721143 0 0 0-32.768-6.692572l-4.534857-0.694857a21.942857 21.942857 0 0 1-18.688-21.723428v-27.136a21.942857 21.942857 0 0 1 14.482286-20.589715A135.936 135.936 0 0 0 549.412571 186.514286z" p-id="55917"></path></svg>