<?xml version="1.0" standalone="no"?><!DOCTYPE svg PUBLIC "-//W3C//DTD SVG 1.1//EN" "http://www.w3.org/Graphics/SVG/1.1/DTD/svg11.dtd"><svg t="1623330242421" class="icon" viewBox="0 0 1024 1024" version="1.1" xmlns="http://www.w3.org/2000/svg" p-id="56188" xmlns:xlink="http://www.w3.org/1999/xlink" width="200" height="200"><defs><style type="text/css"></style></defs><path d="M223.232 242.029714c9.289143 65.206857 32.731429 116.297143 69.997714 154.806857 45.129143 46.628571 82.176 67.072 164.571429 88.064 19.273143 4.900571 34.340571 7.972571 54.125714 10.752l10.313143 1.389715 18.176 2.157714 42.057143 4.498286 17.042286 2.048c18.395429 2.377143 32.182857 4.937143 47.652571 8.850285 18.541714 4.681143 36.132571 10.861714 53.540571 18.980572 96.950857 45.202286 160.402286 148.589714 194.194286 305.481143 5.851429 27.172571-11.995429 53.796571-39.862857 59.501714-27.794286 5.705143-55.113143-11.702857-60.964571-38.838857-24.466286-113.517714-63.853714-186.660571-115.565715-222.646857v178.541714c0 44.617143-35.730286 81.078857-80.822857 83.638857l-5.046857 0.146286h-114.468571c-45.714286 0-83.053714-34.889143-85.686858-78.848l-0.146285-4.937143v-174.592a109.714286 109.714286 0 0 0-60.123429-97.828571c-51.053714-25.892571-89.014857-51.675429-113.883428-77.348572-52.662857-54.418286-84.992-124.891429-97.133715-209.92-3.949714-27.501714 15.725714-52.882286 43.885715-56.722286 28.16-3.84 54.198857 15.36 58.148571 42.825143z m324.754286-99.401143c92.452571 0 167.424 73.142857 167.424 163.328 0 90.221714-74.971429 163.364571-167.424 163.364572-92.452571 0-167.387429-73.142857-167.387429-163.364572 0-90.185143 74.971429-163.328 167.387429-163.328z" p-id="56189"></path></svg>