<?xml version="1.0" standalone="no"?><!DOCTYPE svg PUBLIC "-//W3C//DTD SVG 1.1//EN" "http://www.w3.org/Graphics/SVG/1.1/DTD/svg11.dtd"><svg t="1623330057777" class="icon" viewBox="0 0 1024 1024" version="1.1" xmlns="http://www.w3.org/2000/svg" p-id="52238" xmlns:xlink="http://www.w3.org/1999/xlink" width="200" height="200"><defs><style type="text/css"></style></defs><path d="M512 504.685714m-65.828571 0a65.828571 65.828571 0 1 0 131.657142 0 65.828571 65.828571 0 1 0-131.657142 0Z" p-id="52239"></path><path d="M402.651429 622.299429c7.68 7.68 8.484571 19.931429 1.901714 28.598857l-1.938286 2.194285-74.057143 74.057143a21.76 21.76 0 0 1-32.768-28.525714l1.974857-2.230857 74.057143-74.093714a21.76 21.76 0 0 1 30.793143 0z m-25.673143-113.005715c0 10.605714-7.68 19.675429-18.212572 21.430857l-3.547428 0.292572H168.630857a21.76 21.76 0 0 1-3.547428-43.227429l3.547428-0.292571h186.587429c12.032 0 21.76 9.728 21.76 21.76z m156.818285 151.917715l0.292572 3.547428v186.587429a21.76 21.76 0 0 1-43.227429 3.547428l-0.365714-3.547428v-186.587429a21.76 21.76 0 0 1 42.422857-6.875428l0.841143 3.291428zM402.614857 360.704a21.76 21.76 0 0 1-28.562286 32.731429l-2.194285-1.938286-74.093715-74.130286a21.76 21.76 0 0 1 28.525715-32.621714l2.267428 1.901714 74.057143 74.093714v-0.036571z m335.689143 335.689143a21.76 21.76 0 0 1-28.598857 32.731428l-2.194286-1.974857-74.093714-74.057143a21.76 21.76 0 0 1 28.562286-32.731428l2.230857 1.938286 74.093714 74.093714zM533.796571 165.266286l0.292572 3.547428v186.587429a21.76 21.76 0 0 1-43.227429 3.510857l-0.329143-3.510857V168.813714a21.76 21.76 0 0 1 42.422858-6.948571l0.841142 3.401143z m340.772572 343.990857c0 10.642286-7.716571 19.748571-18.212572 21.467428l-3.547428 0.292572h-186.587429a21.76 21.76 0 0 1-3.547428-43.227429l3.547428-0.292571h186.587429c11.995429 0 21.76 9.728 21.76 21.76z m-136.265143-222.646857c7.68 7.716571 8.484571 19.894857 1.901714 28.562285l-1.901714 2.230858-74.093714 74.093714a21.76 21.76 0 0 1-32.731429-28.525714l1.938286-2.267429 74.093714-74.093714a21.76 21.76 0 0 1 30.793143 0z" p-id="52240"></path></svg>