<?xml version="1.0" standalone="no"?><!DOCTYPE svg PUBLIC "-//W3C//DTD SVG 1.1//EN" "http://www.w3.org/Graphics/SVG/1.1/DTD/svg11.dtd"><svg t="1623330306738" class="icon" viewBox="0 0 1024 1024" version="1.1" xmlns="http://www.w3.org/2000/svg" p-id="58500" xmlns:xlink="http://www.w3.org/1999/xlink" width="200" height="200"><defs><style type="text/css"></style></defs><path d="M327.424 301.9776a26.4704 26.4704 0 0 1 0 38.1952 238.1824 238.1824 0 0 0 0 343.6544 26.4704 26.4704 0 0 1 0 38.1952 28.3648 28.3648 0 0 1-39.2704 0 291.1232 291.1232 0 0 1 0-420.0448 28.3648 28.3648 0 0 1 39.2704 0z m408.4224 0a291.1232 291.1232 0 0 1 0 420.0448 28.3648 28.3648 0 0 1-39.2704 0 26.4704 26.4704 0 0 1 0-38.1952 238.1824 238.1824 0 0 0 0-343.6544 26.4704 26.4704 0 0 1 0-38.1952 28.3648 28.3648 0 0 1 39.2704 0zM397.312 365.568a26.4704 26.4704 0 0 1 0 38.1952 150.016 150.016 0 0 0 0 216.3712 26.4704 26.4704 0 0 1 0 38.1952 28.3648 28.3648 0 0 1-39.2704 0 202.9056 202.9056 0 0 1 0-292.7616 28.3648 28.3648 0 0 1 39.2704 0z m268.6464 0a202.9056 202.9056 0 0 1 0 292.7616 28.3648 28.3648 0 0 1-39.2704 0 26.4704 26.4704 0 0 1 0-38.1952 150.016 150.016 0 0 0 0-216.3712 26.4704 26.4704 0 0 1 0-38.1952 28.3648 28.3648 0 0 1 39.2704 0zM512 412.9792a102.4 102.4 0 1 1 0 204.8 102.4 102.4 0 0 1 0-204.8z" p-id="58501"></path></svg>