<?xml version="1.0" standalone="no"?><!DOCTYPE svg PUBLIC "-//W3C//DTD SVG 1.1//EN" "http://www.w3.org/Graphics/SVG/1.1/DTD/svg11.dtd"><svg t="1623330234658" class="icon" viewBox="0 0 1024 1024" version="1.1" xmlns="http://www.w3.org/2000/svg" p-id="56052" xmlns:xlink="http://www.w3.org/1999/xlink" width="200" height="200"><defs><style type="text/css"></style></defs><path d="M558.545455 88.436364a167.563636 167.563636 0 0 1 91.368727 308.037818c67.863273 45.428364 114.967273 140.101818 121.856 250.461091l42.775273 0.046545a74.472727 74.472727 0 0 1 74.472727 74.472727v139.636364a74.472727 74.472727 0 0 1-74.472727 74.472727h-169.285819c-37.748364 26.391273-83.688727 41.890909-133.259636 41.890909a231.656727 231.656727 0 0 1-133.259636-41.890909H209.454545a74.472727 74.472727 0 0 1-74.472727-74.472727v-139.636364a74.472727 74.472727 0 0 1 69.818182-74.33309v-150.341819a27.927273 27.927273 0 0 1 6.376727-17.780363l3.444364-3.490909 18.152727-15.546182a46.498909 46.498909 0 0 1 11.077818-32.162909l4.235637-4.375273 69.213091-62.370909a46.545455 46.545455 0 0 1 66.420363 64.977454l-4.096 4.189091-69.166545 62.370909a46.498909 46.498909 0 0 1-42.216727 10.65891l-7.58691 6.423272-0.046545 137.262546h40.168727c13.405091-28.904727 32.581818-54.597818 55.994182-75.589818 18.990545-76.986182 58.647273-140.241455 110.405818-174.917819A167.563636 167.563636 0 0 1 558.545455 88.436364zM283.042909 702.789818L209.454545 702.836364a18.618182 18.618182 0 0 0-18.618181 18.618181v139.636364c0 10.24 8.378182 18.618182 18.618181 18.618182h112.919273A231.656727 231.656727 0 0 1 279.272727 744.727273c0-14.336 1.303273-28.346182 3.770182-41.937455zM814.545455 702.836364l-73.588364-0.046546c2.466909 13.591273 3.770182 27.601455 3.770182 41.937455 0 50.269091-15.965091 96.907636-43.101091 134.981818H814.545455a18.618182 18.618182 0 0 0 18.618181-18.618182v-139.636364a18.618182 18.618182 0 0 0-18.618181-18.618181z m-208.384-54.132364l-119.621819 157.090909-68.747636-89.506909a27.927273 27.927273 0 1 0-44.311273 34.024727l91.042909 118.504728a27.927273 27.927273 0 0 0 44.357819-0.139637l141.684363-186.181818a27.927273 27.927273 0 0 0-44.404363-33.792zM558.545455 423.563636c-50.827636 0-97.838545 40.122182-127.162182 102.772364A232.773818 232.773818 0 0 1 512 512a232.634182 232.634182 0 0 1 202.146909 117.294545C700.276364 511.069091 633.623273 423.563636 558.545455 423.563636z m0-279.272727a111.709091 111.709091 0 1 0 0 223.418182 111.709091 111.709091 0 0 0 0-223.418182z" p-id="56053"></path></svg>