<?xml version="1.0" standalone="no"?><!DOCTYPE svg PUBLIC "-//W3C//DTD SVG 1.1//EN" "http://www.w3.org/Graphics/SVG/1.1/DTD/svg11.dtd"><svg t="1623330173700" class="icon" viewBox="0 0 1024 1024" version="1.1" xmlns="http://www.w3.org/2000/svg" p-id="54417" xmlns:xlink="http://www.w3.org/1999/xlink" width="200" height="200"><defs><style type="text/css"></style></defs><path d="M1024 841.142857v182.857143h-182.857143l182.857143-182.857143zM821.76 134.4l4.973714 4.644571 73.874286 73.874286a95.085714 95.085714 0 0 1 4.644571 129.499429l-4.608 4.973714-50.322285 50.395429a21.869714 21.869714 0 0 1-12.288 12.251428L448.036571 800.073143a21.869714 21.869714 0 0 1-12.544 12.361143 21.76 21.76 0 0 1-6.582857 3.986285l-3.693714 1.060572-167.497143 32.073143-39.460571 24.246857a36.571429 36.571429 0 0 1-50.468572-50.029714l20.918857-34.742858 33.499429-174.555428a21.942857 21.942857 0 0 1 3.876571-8.923429l2.157715-2.486857L692.297143 139.044571a95.085714 95.085714 0 0 1 124.269714-8.850285l5.229714 4.205714zM258.998857 655.542857l-27.574857 143.762286 9.142857 8.886857 144.457143-27.684571-126.025143-124.964572z m391.68-412.818286L279.296 613.961143l146.907429 145.700571L797.513143 388.388571 650.605714 242.724571z m42.934857 105.581715a21.942857 21.942857 0 0 1 2.56 27.977143l-2.523428 3.035428-275.456 276.187429a21.942857 21.942857 0 0 1-33.609143-27.977143l2.56-3.035429 275.456-276.150857a21.942857 21.942857 0 0 1 31.012571-0.036571z m33.645715-181.76l-3.913143 3.510857-41.654857 41.618286 146.870857 145.700571 41.069714-41.033143a51.2 51.2 0 0 0 6.4-64.585143l-3.072-4.169143-3.291429-3.657142-73.910857-73.874286a51.2 51.2 0 0 0-64.365714-6.582857l-4.169143 3.072z" p-id="54418"></path></svg>