<?xml version="1.0" encoding="UTF-8"?>
<svg width="26px" height="26px" viewBox="0 0 26 26" version="1.1" xmlns="http://www.w3.org/2000/svg" xmlns:xlink="http://www.w3.org/1999/xlink">
    <title>画笔-已选</title>
    <g id="页面-1" stroke="none" stroke-width="1" fill="none" fill-rule="evenodd">
        <g id="画板" transform="translate(-1212.000000, -712.000000)">
            <g id="画笔-已选" transform="translate(1212.000000, 712.000000)">
                <rect id="矩形" x="0" y="0" width="26" height="26"></rect>
                <path d="M5.59181358,15.860084 L10.6828136,20.777084 L6.54481358,21.571084 L5.54193444,22.1864939 C5.10479604,22.4546555 4.53303746,22.3176727 4.26487592,21.8805343 C4.08354012,21.5849332 4.08203417,21.2129189 4.26097081,20.9158594 L4.79081358,20.035084 L5.59181358,15.860084 Z M15.8288136,5.27808398 L21.1198136,10.567084 L11.6468136,20.040084 L6.26481358,14.842084 L15.8288136,5.27808398 Z M20.85966,3.40748722 L20.9917497,3.5302119 L22.8677473,5.40620948 C23.7677283,6.30619046 23.8086365,7.73993082 22.990472,8.68843538 L22.8677473,8.82052508 L21.9678136,9.71908398 L16.6778136,4.42908398 L17.5774341,3.5302119 C18.4774151,2.63023092 19.9111554,2.58932269 20.85966,3.40748722 Z" id="形状结合" fill="#357BF6" fill-rule="nonzero"></path>
            </g>
        </g>
    </g>
</svg>