<?xml version="1.0" encoding="UTF-8"?>
<svg width="26px" height="26px" viewBox="0 0 26 26" version="1.1" xmlns="http://www.w3.org/2000/svg" xmlns:xlink="http://www.w3.org/1999/xlink">
    <title>星形备份</title>
    <g id="页面-1" stroke="none" stroke-width="1" fill="none" fill-rule="evenodd">
        <g id="灵动课堂Guide-图标和图片（补充）" transform="translate(-652.000000, -645.000000)">
            <g id="星形备份" transform="translate(652.000000, 645.000000)">
                <rect id="矩形" x="0" y="0" width="26" height="26"></rect>
                <path d="M12.7033639,19.1209446 L8.26602729,21.4816222 C7.9580826,21.6454497 7.57563561,21.5286197 7.41180803,21.220675 C7.345575,21.0961776 7.32291297,20.9530952 7.34743251,20.814224 L8.22135783,15.8645766 C8.25788224,15.6577134 8.18916664,15.4462286 8.03802665,15.3003413 L4.42167647,11.8096728 C4.17070704,11.5674255 4.16363636,11.1675943 4.40588366,10.9166249 C4.50382061,10.8151617 4.63289712,10.749394 4.77254845,10.7297999 L9.75000065,10.0314271 C9.95802588,10.0022396 10.1379256,9.87153479 10.2299679,9.68271046 L12.4322772,5.16468118 C12.5851143,4.85113654 12.9631913,4.7208573 13.276736,4.87369435 C13.4034974,4.93548408 13.5059331,5.03791978 13.5677228,5.16468118 L15.7700321,9.68271046 C15.8620744,9.87153479 16.0419741,10.0022396 16.2499994,10.0314271 L21.2274515,10.7297999 C21.5728795,10.7782659 21.8136146,11.0975801 21.7651486,11.443008 C21.7455545,11.5826593 21.6797867,11.7117358 21.5783235,11.8096728 L17.9619733,15.3003413 C17.8108334,15.4462286 17.7421178,15.6577134 17.7786422,15.8645766 L18.6525675,20.814224 C18.7132166,21.1577223 18.4839221,21.4853485 18.1404238,21.5459977 C18.0015526,21.5705172 17.8584701,21.5478552 17.7339727,21.4816222 L13.2966361,19.1209446 C13.1111842,19.0222836 12.8888158,19.0222836 12.7033639,19.1209446 Z" id="星形" fill="#0073FF"></path>
            </g>
        </g>
    </g>
</svg>