<?xml version="1.0" standalone="no"?><!DOCTYPE svg PUBLIC "-//W3C//DTD SVG 1.1//EN" "http://www.w3.org/Graphics/SVG/1.1/DTD/svg11.dtd"><svg t="1623330365010" class="icon" viewBox="0 0 1024 1024" version="1.1" xmlns="http://www.w3.org/2000/svg" p-id="59996" xmlns:xlink="http://www.w3.org/1999/xlink" width="200" height="200"><defs><style type="text/css"></style></defs><path d="M729.6 725.333333a68.266667 68.266667 0 0 1-68.266667 68.266667h-469.333333A68.266667 68.266667 0 0 1 123.733333 725.333333V298.666667a68.266667 68.266667 0 0 1 68.266667-68.266667h469.333333A68.266667 68.266667 0 0 1 729.6 298.666667v91.733333l94.421333-75.477333a46.933333 46.933333 0 0 1 76.245334 36.693333v320.810667a46.933333 46.933333 0 0 1-76.245334 36.650666l-94.421333-75.52V725.333333z m-9.6-261.632a25.6 25.6 0 0 1-41.6-20.010666V298.666667a17.066667 17.066667 0 0 0-17.066667-17.066667h-469.333333a17.066667 17.066667 0 0 0-17.066667 17.066667v426.666666c0 9.386667 7.68 17.066667 17.066667 17.066667h469.333333a17.066667 17.066667 0 0 0 17.066667-17.066667v-145.066666a25.6 25.6 0 0 1 41.6-20.010667l129.066667 103.253333V360.490667l-129.066667 103.253333z" p-id="59997"></path></svg>