<?xml version="1.0" encoding="UTF-8"?>
<svg width="26px" height="26px" viewBox="0 0 26 26" version="1.1" xmlns="http://www.w3.org/2000/svg" xmlns:xlink="http://www.w3.org/1999/xlink">
    <title>返回下一步</title>
    <g id="V2.0.0_PC端小班课" stroke="none" stroke-width="1" fill="none" fill-rule="evenodd">
        <g id="（老师）小班课-默认" transform="translate(-14.000000, -592.000000)">
            <g id="编组-12" transform="translate(10.000000, 222.000000)">
                <g id="返回下一步" transform="translate(4.000000, 370.000000)">
                    <rect id="矩形" x="0" y="0" width="26" height="26"></rect>
                    <path d="M9.00281451,5.26587799 C9.16832925,5.12273766 9.41750586,5.11383081 9.59394161,5.2559863 C9.79243182,5.41591121 9.82369516,5.70646408 9.66377025,5.9049543 L9.66377025,5.9049543 L6.65182681,9.64183016 L15.7147713,9.66437761 C18.8260427,9.67206686 21.3441563,12.1964114 21.3441563,15.3076923 C21.3441563,18.3483739 18.9339737,20.8261272 15.9198127,20.934748 L15.713387,20.9384615 L11.4278963,20.9384615 C11.1220155,20.9384615 10.8740502,20.6904962 10.8740502,20.3846154 C10.8740502,20.1093227 11.0749021,19.8809415 11.3380596,19.8380181 L11.4278963,19.8307692 L15.713387,19.8307692 C18.2114134,19.8307692 20.236464,17.8057187 20.236464,15.3076923 C20.236464,12.8746876 18.3205332,10.8882591 15.9137083,10.7769695 L15.7120338,10.7720665 L6.62482681,10.7488302 L9.66377025,14.5197764 C9.82369516,14.7182667 9.79243182,15.0088195 9.59394161,15.1687444 C9.41750586,15.3108999 9.16832925,15.3019931 9.00281451,15.1588528 L8.94497361,15.0989158 L5.25598294,10.5203389 C5.1829835,10.4297359 5.14981936,10.3199511 5.15421161,10.2121638 C5.14981936,10.1047796 5.1829835,9.99499481 5.25598294,9.90439183 L5.25598294,9.90439183 L8.94497361,5.32581494 Z" id="形状结合" fill="#E2E2EE" fill-rule="nonzero" transform="translate(13.248992, 13.046146) scale(-1, 1) translate(-13.248992, -13.046146) "></path>
                </g>
            </g>
        </g>
    </g>
</svg>