<?xml version="1.0" standalone="no"?><!DOCTYPE svg PUBLIC "-//W3C//DTD SVG 1.1//EN" "http://www.w3.org/Graphics/SVG/1.1/DTD/svg11.dtd"><svg t="1623330245716" class="icon" viewBox="0 0 1024 1024" version="1.1" xmlns="http://www.w3.org/2000/svg" p-id="56324" xmlns:xlink="http://www.w3.org/1999/xlink" width="200" height="200"><defs><style type="text/css"></style></defs><path d="M769.609143 150.454857c50.176 0 91.648 37.485714 94.866286 85.394286l0.219428 6.034286v555.885714c0 48.749714-39.497143 88.137143-88.868571 91.245714l-6.217143 0.182857h-512c-50.176 0-91.648-37.485714-94.902857-85.394285l-0.182857-6.034286v-91.318857a21.942857 21.942857 0 0 1 43.593142-3.584l0.292572 3.584v91.318857c0 13.787429 6.363429 26.331429 16.603428 35.035428 0.731429-129.682286 63.634286-238.884571 148.224-247.515428a126.427429 126.427429 0 1 1 24.502858 0.548571c49.737143 7.204571 92.16 53.577143 118.125714 118.052572 4.827429-13.056 10.825143-25.856 17.92-38.473143 24.612571-43.593143 55.478857-73.508571 90.660571-84.004572a126.390857 126.390857 0 0 1 34.340572-248.100571 126.427429 126.427429 0 0 1 27.940571 249.782857c71.204571 24.064 126.537143 121.417143 132.754286 231.570286 1.572571-3.913143 2.633143-8.045714 3.072-12.361143l0.256-4.534857v-555.885714c0-24.466286-20.114286-44.982857-46.226286-47.323429l-4.973714-0.219429-497.261714 0.036572c-53.540571 0.731429-65.097143 11.702857-65.901715 61.769143l-0.036571 76.178285a21.942857 21.942857 0 0 1-43.593143 3.547429l-0.292571-3.547429v-70.217142c0-79.286857 29.257143-109.677714 108.141714-111.542858l8.045714-0.109714h490.898286zM650.605714 621.165714c-27.977143 0-56.612571 23.259429-80.64 65.828572a215.04 215.04 0 0 0-26.441143 77.092571 21.869714 21.869714 0 0 1-8.630857 14.628572c3.510857 20.041143 5.632 40.923429 6.107429 62.134857v4.425143l228.571428 0.036571c2.304 0 4.571429-0.146286 6.765715-0.402286a21.833143 21.833143 0 0 1-2.194286-9.654857c0-114.468571-61.732571-214.089143-123.538286-214.089143z m-268.580571 7.460572c-60.342857 0-115.2 91.465143-115.2 206.628571a21.833143 21.833143 0 0 1-2.450286 10.057143h232.813714c-1.609143-115.968-57.782857-216.685714-115.2-216.685714z m-236.617143-27.538286H215.04a21.942857 21.942857 0 0 1 3.547429 43.593143l-3.547429 0.292571H145.408a21.942857 21.942857 0 0 1-3.547429-43.593143l3.547429-0.292571z m69.632-97.974857a21.942857 21.942857 0 0 1 3.547429 43.593143l-3.547429 0.292571H145.408a21.942857 21.942857 0 0 1-3.547429-43.593143l3.547429-0.292571h69.668571z m171.008-125.915429a82.541714 82.541714 0 1 0 0 165.12 82.541714 82.541714 0 0 0 0-165.12z m270.701714 0a82.541714 82.541714 0 1 0 0 165.12 82.541714 82.541714 0 0 0 0-165.12z m-511.378285 27.977143h69.668571a21.942857 21.942857 0 0 1 3.547429 43.593143l-3.547429 0.292571H145.408a21.942857 21.942857 0 0 1-3.547429-43.629714l3.547429-0.256h69.668571-69.668571z" p-id="56325"></path></svg>