<?xml version="1.0" encoding="UTF-8"?>
<svg width="26px" height="26px" viewBox="0 0 26 26" version="1.1" xmlns="http://www.w3.org/2000/svg" xmlns:xlink="http://www.w3.org/1999/xlink">
    <title>人员列表-已选</title>
    <g id="页面-1" stroke="none" stroke-width="1" fill="none" fill-rule="evenodd">
        <g id="画板" transform="translate(-1641.000000, -712.000000)">
            <g id="人员列表-已选" transform="translate(1641.000000, 712.000000)">
                <rect id="矩形" x="0" y="0" width="26" height="26"></rect>
                <path d="M10.7333333,5 C13.2370242,5 15.2666667,7.06637808 15.2666667,9.61538462 C15.2666667,11.2809654 14.4000859,12.740482 13.1009152,13.5520887 C15.3693237,14.4996649 16.9666667,16.7714549 16.9666667,19.4230769 C16.9666667,19.7417027 16.7129614,20 16.4,20 C16.3887831,19.9999795 16.3860607,20 16.3833333,20 L5.01666667,20 C4.73131955,20 4.5,19.7761424 4.5,19.5 L4.50153442,19.4658582 C4.50051744,19.451733 4.5,19.4374665 4.5,19.4230769 C4.5,16.7714722 6.09732218,14.4996945 8.36576734,13.5507068 C7.06652203,12.7403831 6.2,11.280909 6.2,9.61538462 C6.2,7.06637808 8.22964247,5 10.7333333,5 Z M17.1666667,6.15384615 C19.1696194,6.15384615 20.7933333,7.80694862 20.7933333,9.84615385 C20.7933333,11.1284412 20.1512988,12.2580592 19.1766578,12.9199795 C20.9939353,13.7130574 22.2666667,15.5513612 22.2666667,17.6923077 C22.2666667,18.0109335 22.0129614,18.2692308 21.7,18.2692308 C21.3870386,18.2692308 21.1333333,18.0109335 21.1333333,17.6923077 C21.1333333,15.461927 19.3573962,13.6538462 17.1666667,13.6538462 C16.8485238,13.6216292 16.6,13.3499782 16.6,13.0192308 C16.6,12.6687424 16.8790758,12.3846154 17.2233333,12.3846154 L17.166,12.3878462 L17.1666667,12.3846154 C18.5436966,12.3846154 19.66,11.2481074 19.66,9.84615385 C19.66,8.44420025 18.5436966,7.30769231 17.1666667,7.30769231 L17.0747504,7.30014136 C16.8055013,7.25542957 16.6,7.01753247 16.6,6.73076923 C16.6,6.41214341 16.8537053,6.15384615 17.1666667,6.15384615 Z" id="形状结合" fill="#357BF6"></path>
            </g>
        </g>
    </g>
</svg>