<?xml version="1.0" standalone="no"?><!DOCTYPE svg PUBLIC "-//W3C//DTD SVG 1.1//EN" "http://www.w3.org/Graphics/SVG/1.1/DTD/svg11.dtd"><svg t="1623330032149" class="icon" viewBox="0 0 1024 1024" version="1.1" xmlns="http://www.w3.org/2000/svg" p-id="51286" xmlns:xlink="http://www.w3.org/1999/xlink" width="200" height="200"><defs><style type="text/css"></style></defs><path d="M621.714286 305.371429a73.142857 73.142857 0 0 1 73.142857 73.142857v136.301714l54.857143 59.867429V268.8a18.285714 18.285714 0 0 0-14.994286-17.993143L731.428571 250.514286h-329.142857v-54.857143h329.142857a73.142857 73.142857 0 0 1 73.142858 73.142857v365.714286h-54.857143v-59.830857L694.857143 514.852571v229.376a73.142857 73.142857 0 0 1-73.142857 73.142858H292.571429a73.142857 73.142857 0 0 1-73.142858-73.142858v-365.714285a73.142857 73.142857 0 0 1 73.142858-73.142857h329.142857z m-68.571429 54.857142H292.571429a18.285714 18.285714 0 0 0-17.993143 14.994286l-0.292572 3.291429v365.714285a18.285714 18.285714 0 0 0 14.994286 17.993143l3.291429 0.292572h329.142857a18.285714 18.285714 0 0 0 17.993143-14.994286l0.292571-3.291429v-289.243428L553.142857 360.228571z m68.571429 0h-68.571429l86.857143 94.756572V378.514286a18.285714 18.285714 0 0 0-14.994286-17.993143L621.714286 360.228571z" p-id="51287"></path></svg>