<?xml version="1.0" encoding="UTF-8"?>
<svg width="26px" height="26px" viewBox="0 0 26 26" version="1.1" xmlns="http://www.w3.org/2000/svg" xmlns:xlink="http://www.w3.org/1999/xlink">
    <title>选择-已选</title>
    <g id="页面-1" stroke="none" strokeWidth="1" fill="none" fillRule="evenodd">
        <g id="画板" transform="translate(-1476.000000, -712.000000)" fillRule="nonzero">
            <g id="编组-40" transform="translate(1476.000000, 712.000000)">
                <rect id="Rectangle-6" fill="#565656" opacity="0" x="0" y="0" width="26" height="26"></rect>
                <path d="M10.565036,4.48609377 L3.47729431,18.5015883 C3.33368313,18.785569 3.32468292,19.1189132 3.45276124,19.4102295 C3.68933044,19.94831 4.31730812,20.1927332 4.85538865,19.956164 L10.7307497,17.3730386 C11.045537,17.2346411 11.4032759,17.2312299 11.7206451,17.3635996 L18.0528738,20.0046716 C18.3368961,20.1231327 18.6582907,20.1128568 18.9341654,19.9764939 C19.4610972,19.7160356 19.6771165,19.0777298 19.4166581,18.550798 L12.4688782,4.49478686 C12.3668343,4.28834246 12.2005825,4.12056546 11.9950786,4.01664057 C11.4705473,3.75138113 10.8302954,3.96156249 10.565036,4.48609377 Z" id="路径-35" fill="#357BF6" transform="translate(11.444921, 11.994280) rotate(-30.000000) translate(-11.444921, -11.994280) "></path>
            </g>
        </g>
    </g>
</svg>