<?xml version="1.0" standalone="no"?><!DOCTYPE svg PUBLIC "-//W3C//DTD SVG 1.1//EN" "http://www.w3.org/Graphics/SVG/1.1/DTD/svg11.dtd"><svg t="1623330371637" class="icon" viewBox="0 0 1024 1024" version="1.1" xmlns="http://www.w3.org/2000/svg" p-id="60268" xmlns:xlink="http://www.w3.org/1999/xlink" width="200" height="200"><defs><style type="text/css"></style></defs><path d="M576 143.616l223.018667 128.768a128 128 0 0 1 64 110.848v257.536a128 128 0 0 1-64 110.848L576 880.384a128 128 0 0 1-128 0l-223.018667-128.768a128 128 0 0 1-64-110.848V383.232a128 128 0 0 1 64-110.848L448 143.616a128 128 0 0 1 128 0z m-102.4 44.373333L250.581333 316.672a76.8 76.8 0 0 0-38.4 66.56v257.493333a76.8 76.8 0 0 0 38.4 66.517334l223.018667 128.768a76.8 76.8 0 0 0 76.8 0l223.018667-128.768a76.8 76.8 0 0 0 38.4-66.56V383.274667a76.8 76.8 0 0 0-38.4-66.517334L550.4 187.946667l-6.613333-3.413334a76.8 76.8 0 0 0-70.186667 3.413334zM512 358.4a153.6 153.6 0 1 1 0 307.2 153.6 153.6 0 0 1 0-307.2z m0 51.2a102.4 102.4 0 1 0 0 204.8 102.4 102.4 0 0 0 0-204.8z" p-id="60269"></path></svg>