<?xml version="1.0" encoding="UTF-8"?>
<svg width="28px" height="28px" viewBox="0 0 28 28" version="1.1" xmlns="http://www.w3.org/2000/svg" xmlns:xlink="http://www.w3.org/1999/xlink">
    <title>屏幕共享备份 2</title>
    <g id="页面-1" stroke="none" stroke-width="1" fill="none" fill-rule="evenodd">
        <g id="灵动课堂Guide-图标和图片" transform="translate(-943.000000, -577.000000)">
            <g id="屏幕共享备份-2" transform="translate(943.000000, 577.000000)">
                <rect id="矩形" opacity="0" x="0" y="0" width="28" height="28"></rect>
                <g id="屏幕共享" transform="translate(5.042857, 5.400000)" fill="#7B88A0" fill-rule="nonzero">
                    <path d="M13.6238095,16.3333333 C13.9551804,16.3333333 14.2238095,16.6019625 14.2238095,16.9333333 C14.2238095,17.2315671 14.0062199,17.4789801 13.7211326,17.5254803 L13.6238095,17.5333333 L4.29047619,17.5333333 C3.95910534,17.5333333 3.69047619,17.2647042 3.69047619,16.9333333 C3.69047619,16.6350996 3.9080658,16.3876866 4.19315307,16.3411863 L4.29047619,16.3333333 L13.6238095,16.3333333 Z M15.3142857,-9.05941988e-14 C16.7502261,-9.05941988e-14 17.9142857,1.16405965 17.9142857,2.6 L17.9142857,2.6 L17.9142857,12.6 C17.9142857,14.0359403 16.7502261,15.2 15.3142857,15.2 L15.3142857,15.2 L2.6,15.2 C1.16405965,15.2 6.19948537e-13,14.0359403 6.19948537e-13,12.6 L6.19948537e-13,12.6 L6.19948537e-13,2.6 C6.19948537e-13,1.16405965 1.16405965,-9.05941988e-14 2.6,-9.05941988e-14 L2.6,-9.05941988e-14 Z M15.3142857,1.2 L2.6,1.2 C1.82680135,1.2 1.2,1.82680135 1.2,2.6 L1.2,2.6 L1.2,12.6 C1.2,13.3731986 1.82680135,14 2.6,14 L2.6,14 L15.3142857,14 C16.0874844,14 16.7142857,13.3731986 16.7142857,12.6 L16.7142857,12.6 L16.7142857,2.6 C16.7142857,1.82680135 16.0874844,1.2 15.3142857,1.2 L15.3142857,1.2 Z M10.8449408,4.28855256 L10.9280383,4.3579791 L13.1089087,6.53884954 C13.179848,6.60978881 13.2390725,6.68800669 13.2865823,6.77109924 C13.4935825,6.86417598 13.638198,7.07353294 13.638198,7.31666667 C13.638198,7.55980039 13.4935825,7.76915735 13.2856761,7.86341282 C13.2596224,7.90938647 13.2288902,7.9549685 13.1943857,7.99854156 L13.1089087,8.09448445 L10.9280383,10.2753549 C10.6937237,10.5096695 10.3138247,10.5096695 10.0795101,10.2753549 C9.8712305,10.0670753 9.84808832,9.74376599 10.0100836,9.50992422 L10.0795101,9.42682675 L11.588,7.916 L7.79047619,7.91666667 C6.49500081,7.91666667 5.52794715,8.56136911 4.82358593,9.92530711 C4.67153801,10.2197355 4.30959746,10.3351577 4.01516908,10.1831097 C3.7207407,10.0310618 3.60531853,9.66912127 3.75736645,9.37469289 C4.62040777,7.70348383 5.90798681,6.79745223 7.56258032,6.72182606 L7.79047619,6.71666667 L11.588,6.716 L10.0795101,5.20650724 C9.8712305,4.99822761 9.84808832,4.67491833 10.0100836,4.44107656 L10.0795101,4.3579791 C10.2877897,4.14969948 10.611099,4.1265573 10.8449408,4.28855256 Z" id="形状结合"></path>
                </g>
            </g>
        </g>
    </g>
</svg>