<?xml version="1.0" standalone="no"?><!DOCTYPE svg PUBLIC "-//W3C//DTD SVG 1.1//EN" "http://www.w3.org/Graphics/SVG/1.1/DTD/svg11.dtd"><svg t="1624867106212" class="icon" viewBox="0 0 1024 1024" version="1.1" xmlns="http://www.w3.org/2000/svg" p-id="14477" xmlns:xlink="http://www.w3.org/1999/xlink" width="200" height="200"><defs><style type="text/css"></style></defs><path d="M682.678857 794.806857a21.942857 21.942857 0 0 1 3.547429 43.593143l-3.547429 0.292571H341.321143a21.942857 21.942857 0 0 1-3.547429-43.593142l3.547429-0.292572h341.357714zM744.484571 197.485714a95.085714 95.085714 0 0 1 95.085715 95.085715v365.714285a95.085714 95.085714 0 0 1-95.085715 95.085715H279.515429a95.085714 95.085714 0 0 1-95.085715-95.085715V292.571429a95.085714 95.085714 0 0 1 95.085715-95.085715z m0 43.885715H279.515429a51.2 51.2 0 0 0-51.2 51.2v365.714285a51.2 51.2 0 0 0 51.2 51.2h464.969142a51.2 51.2 0 0 0 51.2-51.2V292.571429a51.2 51.2 0 0 0-51.2-51.2z m-163.474285 112.969142l3.072 2.523429 79.725714 79.725714c2.633143 2.633143 4.754286 5.485714 6.509714 8.521143a21.869714 21.869714 0 0 1 0 39.936 38.875429 38.875429 0 0 1-3.364571 4.973714l-3.108572 3.474286-79.762285 79.762286a21.942857 21.942857 0 0 1-33.572572-27.977143l2.56-3.035429 55.149715-55.259428h-138.898286c-47.36 0-82.724571 23.588571-108.507429 73.508571a21.942857 21.942857 0 0 1-38.985143-20.150857c31.561143-61.147429 78.628571-94.281143 139.154286-97.024l8.338286-0.182857 138.898286-0.036571-55.186286-55.222858a21.942857 21.942857 0 0 1-2.56-27.977142l2.56-3.035429a21.942857 21.942857 0 0 1 28.013714-2.56z" p-id="14478"></path></svg>