<?xml version="1.0" standalone="no"?><!DOCTYPE svg PUBLIC "-//W3C//DTD SVG 1.1//EN" "http://www.w3.org/Graphics/SVG/1.1/DTD/svg11.dtd"><svg t="1623330380771" class="icon" viewBox="0 0 1024 1024" version="1.1" xmlns="http://www.w3.org/2000/svg" p-id="60676" xmlns:xlink="http://www.w3.org/1999/xlink" width="200" height="200"><defs><style type="text/css"></style></defs><path d="M468.386909 166.074182a51.2 51.2 0 0 1 50.874182 45.614545l0.279273 5.585455v586.752a51.2 51.2 0 0 1-79.127273 42.961454l-4.747636-3.584-152.203637-126.417454H119.342545a27.927273 27.927273 0 0 1-27.601454-23.365818l-0.325818-4.561455V329.634909a27.927273 27.927273 0 0 1 23.365818-27.554909l4.561454-0.372364h166.632728L435.758545 177.803636a51.2 51.2 0 0 1 32.628364-11.729454z m250.135273 12.474182a462.661818 462.661818 0 0 1 139.217454 331.776 462.708364 462.708364 0 0 1-139.217454 331.822545 27.927273 27.927273 0 0 1-39.191273-39.796364 406.853818 406.853818 0 0 0 122.554182-292.026181 406.807273 406.807273 0 0 0-122.554182-291.979637 27.927273 27.927273 0 1 1 39.191273-39.796363zM463.732364 227.141818l-149.876364 123.997091a27.927273 27.927273 0 0 1-13.032727 6.050909l-4.794182 0.372364H147.176727v303.569454h146.385455a27.927273 27.927273 0 0 1 13.870545 3.723637l4.002909 2.746182 152.296728 126.510545V227.188364z m115.386181 58.973091a27.927273 27.927273 0 0 1 39.470546-0.325818 314.647273 314.647273 0 0 1 0 449.070545 27.927273 27.927273 0 1 1-39.191273-39.749818 258.792727 258.792727 0 0 0 0-369.524363 27.927273 27.927273 0 0 1-0.279273-39.470546z" p-id="60677"></path></svg>