<?xml version="1.0" standalone="no"?><!DOCTYPE svg PUBLIC "-//W3C//DTD SVG 1.1//EN" "http://www.w3.org/Graphics/SVG/1.1/DTD/svg11.dtd"><svg t="1623330149972" class="icon" viewBox="0 0 1024 1024" version="1.1" xmlns="http://www.w3.org/2000/svg" p-id="53601" xmlns:xlink="http://www.w3.org/1999/xlink" width="200" height="200"><defs><style type="text/css"></style></defs><path d="M1024 841.142857v182.857143h-182.857143l182.857143-182.857143zM713.142857 237.714286a73.142857 73.142857 0 0 1 73.142857 73.142857v402.285714a73.142857 73.142857 0 0 1-73.142857 73.142857h-402.285714a73.142857 73.142857 0 0 1-73.142857-73.142857v-402.285714a73.142857 73.142857 0 0 1 73.142857-73.142857h402.285714z m0 47.542857h-402.285714a25.6 25.6 0 0 0-25.6 25.6v402.285714a25.6 25.6 0 0 0 25.6 25.6h402.285714a25.6 25.6 0 0 0 25.6-25.6v-402.285714a25.6 25.6 0 0 0-25.6-25.6z" p-id="53602"></path></svg>