<?xml version="1.0" encoding="UTF-8"?>
<svg width="26px" height="26px" viewBox="0 0 26 26" version="1.1" xmlns="http://www.w3.org/2000/svg" xmlns:xlink="http://www.w3.org/1999/xlink">
    <title>文字-已选</title>
    <g id="页面-1" stroke="none" strokeWidth="1" fill="none" fillRule="evenodd">
        <g id="画板" transform="translate(-1113.000000, -712.000000)">
            <g id="文字-已选" transform="translate(1113.000000, 712.000000)">
                <rect id="矩形" x="0" y="0" width="26" height="26"></rect>
                <path d="M20.2322317,5.57142857 L20.4285714,9.53038621 L19.9319474,9.53038621 C19.8360874,8.83330131 19.7055792,8.33554086 19.5404229,8.03600359 C19.270167,7.55476173 18.9109808,7.20016246 18.4640192,6.97110455 C18.0147477,6.74424912 17.4245736,6.62972017 16.6946517,6.62972017 L14.2011372,6.62972017 L14.2011372,17.5025769 C14.2011372,18.5399449 14.3177861,19.187474 14.5533937,19.4451641 C14.8837065,19.793156 15.3930348,19.9671519 16.0813788,19.9671519 L16.6946517,19.9671519 L16.6946517,20.4285714 L9.18754442,20.4285714 L9.18754442,19.9671519 L9.81352168,19.9671519 C10.5619225,19.9671519 11.0931947,19.7513089 11.4061834,19.320724 C11.5967484,19.0553252 11.6937633,18.448542 11.6937633,17.5025769 L11.6937633,6.62972017 L9.56636461,6.62972017 C8.73942786,6.62972017 8.15040867,6.68808588 7.80277186,6.80371608 C7.35003554,6.96119339 6.96428571,7.26513562 6.64090263,7.71223904 C6.31867448,8.16154494 6.12810945,8.76612568 6.06689765,9.53038621 L5.57142857,9.53038621 L5.7793177,5.57142857 L20.2322317,5.57142857 Z" id="Fill-1" fill="#357BF6"></path>
            </g>
        </g>
    </g>
</svg>