<?xml version="1.0" standalone="no"?><!DOCTYPE svg PUBLIC "-//W3C//DTD SVG 1.1//EN" "http://www.w3.org/Graphics/SVG/1.1/DTD/svg11.dtd"><svg t="1623330167767" class="icon" viewBox="0 0 1024 1024" version="1.1" xmlns="http://www.w3.org/2000/svg" p-id="54145" xmlns:xlink="http://www.w3.org/1999/xlink" width="200" height="200"><defs><style type="text/css"></style></defs><path d="M796.854857 219.428571L804.571429 375.332571h-19.565715c-3.766857-27.428571-8.923429-47.030857-15.396571-58.843428-10.678857-18.944-24.795429-32.914286-42.422857-41.947429-17.700571-8.923429-40.96-13.421714-69.668572-13.421714h-98.194285v428.214857c0 40.850286 4.571429 66.340571 13.860571 76.507429 13.019429 13.714286 33.060571 20.553143 60.16 20.553143h24.137143V804.571429H361.874286v-18.176h24.649143c29.476571 0 50.432-8.484571 62.756571-25.453715 7.497143-10.459429 11.337143-34.377143 11.337143-71.606857V261.083429h-83.821714c-32.548571 0-55.771429 2.340571-69.449143 6.875428-17.846857 6.217143-33.024 18.176-45.750857 35.766857-12.690286 17.700571-20.187429 41.508571-22.601143 71.606857H219.428571L227.620571 219.428571h569.234286z" p-id="54146"></path></svg>