<?xml version="1.0" encoding="UTF-8"?>
<svg width="26px" height="26px" viewBox="0 0 26 26" version="1.1" xmlns="http://www.w3.org/2000/svg" xmlns:xlink="http://www.w3.org/1999/xlink">
    <title>工具箱-已选</title>
    <g id="页面-1" stroke="none" strokeWidth="1" fill="none" fillRule="evenodd">
        <g id="画板" transform="translate(-1377.000000, -712.000000)">
            <g id="工具箱-已选" transform="translate(1377.000000, 712.000000)">
                <rect id="矩形" x="0" y="0" width="26" height="26"></rect>
                <path d="M16.7141139,12.2325714 L20.7521139,12.2335714 L21.1565689,18.220064 C21.2601218,19.7550826 20.0996895,21.0834073 18.5646709,21.1869601 C18.5022598,21.1911704 18.4397247,21.1932773 18.3771719,21.1932773 L7.62282815,21.1932773 C6.08432063,21.1932773 4.83711386,19.9460705 4.83711386,18.407563 C4.83711386,18.3450102 4.83922079,18.282475 4.84343106,18.220064 L5.24711386,12.2335714 L9.28511386,12.2325714 L9.28571429,13 C9.28571429,13.5128358 9.64418018,13.9355072 10.1059947,13.9932723 L10.2142857,14 L15.7857143,14 C16.261919,14 16.6543995,13.6139598 16.7080385,13.1166211 L16.7142857,13 L16.7141139,12.2325714 Z M14.8571429,4.04285714 C16.1599037,4.04285714 17.2258666,5.05670961 17.3090592,6.33844218 L17.3142857,6.5 L17.3141139,7.42785714 L18.692491,7.42857143 C19.6696443,7.42857143 20.4796528,8.18577754 20.5454224,9.16071495 L20.6711139,11.0335714 L5.32811386,11.0335714 L5.45457762,9.16071495 C5.52034721,8.18577754 6.33035571,7.42857143 7.30750902,7.42857143 L8.68511386,7.42785714 L8.68571429,6.5 C8.68571429,5.19723917 9.69956675,4.13127628 10.9812993,4.04808366 L11.1428571,4.04285714 L14.8571429,4.04285714 Z M14.8571429,5.24285714 L11.1428571,5.24285714 C10.4919501,5.24285714 9.95658305,5.73754252 9.89220477,6.37146445 L9.88571429,6.5 L9.88511386,7.42785714 L16.1141139,7.42785714 L16.1142857,6.5 C16.1142857,5.84909297 15.6196003,5.31372591 14.9856784,5.24934763 L14.8571429,5.24285714 Z" id="形状结合" fill="#357BF6"></path>
            </g>
        </g>
    </g>
</svg>