<?xml version="1.0" standalone="no"?><!DOCTYPE svg PUBLIC "-//W3C//DTD SVG 1.1//EN" "http://www.w3.org/Graphics/SVG/1.1/DTD/svg11.dtd"><svg t="1623330158490" class="icon" viewBox="0 0 1024 1024" version="1.1" xmlns="http://www.w3.org/2000/svg" p-id="53873" xmlns:xlink="http://www.w3.org/1999/xlink" width="200" height="200"><defs><style type="text/css"></style></defs><path d="M1024 841.142857v182.857143h-182.857143l182.857143-182.857143zM585.142857 160.914286a95.085714 95.085714 0 0 1 94.902857 89.088L680.228571 256v36.534857L736.182857 292.571429a73.142857 73.142857 0 0 1 72.996572 68.205714l24.064 356.827428a109.714286 109.714286 0 0 1-109.458286 117.101715H300.214857a109.714286 109.714286 0 0 1-109.714286-109.714286l0.073143-3.693714 24.246857-360.521143A73.142857 73.142857 0 0 1 287.817143 292.571429l55.954286-0.036572V256a95.085714 95.085714 0 0 1 89.088-94.902857L438.857143 160.914286h146.285714z m-241.371428 319.232H250.697143l-16.201143 240.384-0.146286 4.461714a65.828571 65.828571 0 0 0 65.828572 65.828571h423.570285l4.425143-0.182857a65.828571 65.828571 0 0 0 61.257143-70.107428l-16.237714-240.384H680.228571L680.228571 512a58.514286 58.514286 0 0 1-53.174857 58.258286L621.714286 570.514286h-219.428572a58.514286 58.514286 0 0 1-58.258285-53.174857L343.771429 512v-31.853714z m292.571428 0h-248.685714V512a14.628571 14.628571 0 0 0 11.702857 14.336l2.925714 0.292571h219.428572a14.628571 14.628571 0 0 0 14.336-11.702857L636.342857 512v-31.853714z m0-143.725715h-248.685714v40.045715a21.942857 21.942857 0 0 1-18.395429 21.650285l-3.547428 0.292572a21.942857 21.942857 0 0 1-21.650286-18.395429l-0.292571-3.547428V336.457143L287.817143 336.457143a29.257143 29.257143 0 0 0-29.220572 27.282286l-4.900571 72.521142h516.571429l-4.864-72.521142a29.257143 29.257143 0 0 0-29.220572-27.282286l-55.954286-0.036572v40.045715a21.942857 21.942857 0 0 1-18.395428 21.650285l-3.547429 0.292572a21.942857 21.942857 0 0 1-21.650285-18.395429l-0.292572-3.547428V336.457143zM585.142857 204.8h-146.285714a51.2 51.2 0 0 0-50.980572 46.262857L387.657143 256v36.534857h248.685714V256a51.2 51.2 0 0 0-46.262857-50.980571L585.142857 204.8z" p-id="53874"></path></svg>