<?xml version="1.0" standalone="no"?><!DOCTYPE svg PUBLIC "-//W3C//DTD SVG 1.1//EN" "http://www.w3.org/Graphics/SVG/1.1/DTD/svg11.dtd"><svg t="1623330226077" class="icon" viewBox="0 0 1024 1024" version="1.1" xmlns="http://www.w3.org/2000/svg" p-id="55779" xmlns:xlink="http://www.w3.org/1999/xlink" width="200" height="200"><defs><style type="text/css"></style></defs><path d="M516.9152 358.4c-33.0752 0-59.0336 9.3696-78.2336 28.16C418.9696 405.3504 409.6 431.3088 409.6 464.384h50.9952c0-18.7904 3.584-33.536 11.1616-43.8272 8.4992-12.544 22.3744-18.3296 41.984-18.3296 15.2576 0 27.3408 3.9936 35.84 12.4928 8.0384 8.4992 12.4928 20.1216 12.4928 34.9184a49.5104 49.5104 0 0 1-12.0832 31.744l-5.3248 6.2464c-29.0816 25.9584-46.5408 44.6976-52.3264 56.832-6.2976 12.032-8.96 26.7776-8.96 43.776v6.2464h51.4048v-6.2464c0-10.752 2.2528-20.1216 6.7072-29.0816 4.0448-8.0384 9.8816-15.616 17.92-22.3232l25.7536-23.04c6.4512-5.9392 10.7008-10.0864 12.6976-12.288 10.752-14.336 16.5376-32.6656 16.5376-54.9888 0-27.2896-8.96-48.7424-26.8288-64.4096-17.92-16.128-41.5744-23.7056-70.656-23.7056z m-8.0384 258.048c9.8304 0 18.3296 3.072 25.0368 9.3696 6.2464 6.2464 9.8304 14.336 9.8304 24.1152 0 9.8304-3.584 18.3296-10.24 24.576a34.4576 34.4576 0 0 1-24.6272 9.4208 34.816 34.816 0 0 1-24.576-9.8304 31.3856 31.3856 0 0 1-9.8816-24.1664c0-9.8304 3.1744-17.8688 9.8816-24.1152a34.4576 34.4576 0 0 1 24.576-9.4208z" p-id="55780"></path><path d="M258.3552 238.2848a26.4704 26.4704 0 0 1 0 38.1952 326.4 326.4 0 0 0 0 471.04 26.4704 26.4704 0 0 1 0 38.1952 28.3648 28.3648 0 0 1-39.2704 0 379.392 379.392 0 0 1 0-547.4304 28.3648 28.3648 0 0 1 39.2704 0z m546.56 0a379.392 379.392 0 0 1 0 547.4304 28.3648 28.3648 0 0 1-39.2704 0 26.4704 26.4704 0 0 1 0-38.1952 326.4 326.4 0 0 0 0-471.04 26.4704 26.4704 0 0 1 0-38.1952 28.3648 28.3648 0 0 1 39.2704 0zM327.424 301.9776a26.4704 26.4704 0 0 1 0 38.1952 238.1824 238.1824 0 0 0 0 343.6544 26.4704 26.4704 0 0 1 0 38.1952 28.3648 28.3648 0 0 1-39.2704 0 291.1232 291.1232 0 0 1 0-420.0448 28.3648 28.3648 0 0 1 39.2704 0z m408.4224 0a291.1232 291.1232 0 0 1 0 420.0448 28.3648 28.3648 0 0 1-39.2704 0 26.4704 26.4704 0 0 1 0-38.1952 238.1824 238.1824 0 0 0 0-343.6544 26.4704 26.4704 0 0 1 0-38.1952 28.3648 28.3648 0 0 1 39.2704 0zM397.312 365.568a26.4704 26.4704 0 0 1 0 38.1952 150.016 150.016 0 0 0 0 216.3712 26.4704 26.4704 0 0 1 0 38.1952 28.3648 28.3648 0 0 1-39.2704 0 202.9056 202.9056 0 0 1 0-292.7616 28.3648 28.3648 0 0 1 39.2704 0z m268.6464 0a202.9056 202.9056 0 0 1 0 292.7616 28.3648 28.3648 0 0 1-39.2704 0 26.4704 26.4704 0 0 1 0-38.1952 150.016 150.016 0 0 0 0-216.3712 26.4704 26.4704 0 0 1 0-38.1952 28.3648 28.3648 0 0 1 39.2704 0z" p-id="55781"></path></svg>