<?xml version="1.0" encoding="UTF-8"?>
<svg width="28px" height="28px" viewBox="0 0 28 28" version="1.1" xmlns="http://www.w3.org/2000/svg" xmlns:xlink="http://www.w3.org/1999/xlink">
    <title>vote备份</title>
    <g id="页面-1" stroke="none" stroke-width="1" fill="none" fill-rule="evenodd">
        <g id="灵动课堂Guide-图标和图片" transform="translate(-1005.000000, -627.000000)">
            <g id="vote备份" transform="translate(1005.000000, 627.000000)">
                <rect id="矩形" x="0" y="0" width="28" height="28"></rect>
                <path d="M21.2222222,6.10714286 C22.3618574,6.10714286 23.2857143,7.03099972 23.2857143,8.17063492 L23.2857143,18.1668003 C23.2857143,19.3064355 22.3618574,20.2302923 21.2222222,20.2302923 L8.84126984,20.2302923 L6.47422962,22.5885531 C6.07055981,22.9907257 5.41729549,22.989512 5.01512291,22.5858422 C4.82246161,22.3924636 4.71428571,22.1306161 4.71428571,21.8576443 L4.71428571,8.17063492 C4.71428571,7.03099972 5.63814258,6.10714286 6.77777778,6.10714286 L21.2222222,6.10714286 Z M21.2222222,7.22142857 L6.77777778,7.22142857 C6.2884944,7.22142857 5.8856758,7.59162828 5.83414124,8.06720843 L5.82857143,8.17063492 L5.82857143,21.6588571 L8.38092987,19.1160066 L21.2222222,19.1160066 C21.7115056,19.1160066 22.1143242,18.7458069 22.1658588,18.2702268 L22.1714286,18.1668003 L22.1714286,8.17063492 C22.1714286,7.68135154 21.8012289,7.27853294 21.3256487,7.22699839 L21.2222222,7.22142857 Z M10.5333333,12.7103175 C10.8752239,12.7103175 11.152381,12.9874745 11.152381,13.3293651 L11.152381,16.8373016 C11.152381,17.1791921 10.8752239,17.4563492 10.5333333,17.4563492 C10.1914428,17.4563492 9.91428571,17.1791921 9.91428571,16.8373016 L9.91428571,13.3293651 C9.91428571,12.9874745 10.1914428,12.7103175 10.5333333,12.7103175 Z M14,11.265873 C14.3418906,11.265873 14.6190476,11.5430301 14.6190476,11.8849206 L14.6190476,16.8373016 C14.6190476,17.1791921 14.3418906,17.4563492 14,17.4563492 C13.6581094,17.4563492 13.3809524,17.1791921 13.3809524,16.8373016 L13.3809524,11.8849206 C13.3809524,11.5430301 13.6581094,11.265873 14,11.265873 Z M17.4666667,9.20238095 C17.8085572,9.20238095 18.0857143,9.47953801 18.0857143,9.82142857 L18.0857143,16.8373016 C18.0857143,17.1791921 17.8085572,17.4563492 17.4666667,17.4563492 C17.1247761,17.4563492 16.847619,17.1791921 16.847619,16.8373016 L16.847619,9.82142857 C16.847619,9.47953801 17.1247761,9.20238095 17.4666667,9.20238095 Z" id="形状结合" fill="#7B88A0" fill-rule="nonzero"></path>
            </g>
        </g>
    </g>
</svg>